<svg xmlns="http://www.w3.org/2000/svg" width="1080" height="1080" viewBox="0 0 1080 1080" version="1.1">
	<path d="M 0 540.001 L 0 1080.002 540.250 1079.751 L 1080.500 1079.500 1080.751 539.750 L 1081.002 -0 540.501 -0 L 0 0 0 540.001 M 0.496 540.500 C 0.496 837.500, 0.610 958.851, 0.750 810.168 C 0.890 661.485, 0.890 418.485, 0.750 270.168 C 0.610 121.851, 0.496 243.500, 0.496 540.500 M 789.500 293.476 C 786.200 294.232, 781.700 295.333, 779.500 295.922 C 777.300 296.511, 771.675 297.874, 767 298.952 C 754.638 301.800, 741.946 305.044, 738.500 306.234 C 733.767 307.868, 728.302 308.298, 727.558 307.094 C 726.472 305.336, 725.009 305.836, 725.638 307.750 C 725.954 308.712, 725.288 308.065, 724.158 306.311 C 722.054 303.045, 717.310 301.017, 711.750 301.006 C 710.085 301.002, 709.099 300.507, 709.250 299.750 C 709.405 298.974, 708.553 298.584, 707 298.720 C 705.625 298.842, 702.493 298.992, 700.039 299.054 C 695.786 299.161, 689.250 301.583, 690.321 302.655 C 690.600 302.934, 691.806 302.639, 693 302 C 696.750 299.993, 696.216 301.591, 692.261 304.208 C 687.252 307.523, 669.475 322.498, 667.811 324.804 C 666.208 327.027, 664 328.437, 664 327.238 C 664 326.754, 666.017 324.252, 668.483 321.679 C 670.949 319.106, 672.636 317.017, 672.233 317.038 C 670.023 317.154, 653.265 334.598, 654.336 335.669 C 654.681 336.015, 656.754 334.318, 658.941 331.899 C 661.128 329.479, 662.936 327.981, 662.959 328.570 C 662.982 329.158, 660.302 332.533, 657.004 336.070 C 653.707 339.606, 651.007 342.027, 651.004 341.450 C 651.002 340.872, 651.501 339.899, 652.113 339.287 C 652.724 338.676, 653.062 337.702, 652.863 337.123 C 652.419 335.838, 639.484 350.796, 634.341 358.541 C 631.657 362.585, 629.246 364.855, 625.765 366.619 C 621.212 368.926, 620.956 369.264, 621.470 372.286 C 621.912 374.882, 621.184 376.847, 617.685 382.500 C 614.676 387.362, 612.654 389.602, 611.065 389.834 C 609.470 390.067, 609.006 389.800, 609.531 388.949 C 610.536 387.323, 602.965 388.446, 594.069 391.241 C 590.456 392.377, 586.750 393.376, 585.833 393.461 C 584.917 393.547, 583.567 394.094, 582.833 394.678 C 581.174 395.999, 574.019 398.353, 573.436 397.770 C 573.200 397.533, 573.709 394.976, 574.567 392.087 C 575.694 388.290, 576.525 386.987, 577.563 387.386 C 578.567 387.771, 579 387.211, 579 385.528 C 579 384.202, 579.450 382.840, 580 382.500 C 580.550 382.160, 581 381.009, 581 379.941 C 581 378.873, 581.399 378, 581.886 378 C 582.373 378, 583.568 376.313, 584.540 374.250 C 585.512 372.188, 587.813 368.654, 589.654 366.397 C 591.494 364.140, 593 361.778, 593 361.147 C 593 360.516, 593.477 360, 594.059 360 C 594.641 360, 594.871 359.601, 594.570 359.113 C 594.269 358.626, 594.778 357.613, 595.703 356.863 C 596.859 355.926, 597.149 355.890, 596.633 356.750 C 596.220 357.438, 596.308 358, 596.829 358 C 598.004 358, 618.794 327.698, 620.648 323.282 C 621.392 321.512, 622 318.057, 622 315.603 C 622 311.912, 621.419 310.526, 618.632 307.571 C 616.709 305.532, 614.298 304, 613.014 304 C 611.776 304, 609.295 302.710, 607.499 301.133 C 603.693 297.792, 597.166 296.132, 595.869 298.177 C 595.408 298.905, 595.024 300.331, 595.015 301.346 C 595.007 302.361, 594.163 304.386, 593.141 305.846 C 592.118 307.306, 590.480 310.943, 589.501 313.930 C 587.383 320.387, 582.386 330.789, 580.213 333.265 C 579.361 334.235, 578.599 335.810, 578.520 336.765 C 578.285 339.617, 576.135 342.822, 574.003 343.499 C 572.904 343.848, 571.715 345.341, 571.362 346.817 C 570.413 350.780, 567.939 355.333, 565.983 356.714 C 565.038 357.382, 564.006 359.222, 563.689 360.804 C 563.373 362.386, 562.012 364.741, 560.664 366.038 C 559.317 367.335, 558.450 369.009, 558.737 369.758 C 559.025 370.507, 558.112 372.330, 556.708 373.810 C 555.305 375.289, 553.828 378.300, 553.427 380.500 C 553.026 382.700, 551.641 385.892, 550.349 387.594 C 549.057 389.296, 548 391.334, 548 392.122 C 548 392.910, 547.280 394.583, 546.400 395.839 C 544.994 397.847, 544.977 398.326, 546.262 399.811 C 547.065 400.740, 548.926 403.593, 550.398 406.151 C 551.870 408.709, 555.001 412.871, 557.357 415.401 C 561.044 419.360, 562.187 420, 565.570 420 C 573.452 419.999, 585.312 417.012, 591.959 413.352 C 595.557 411.371, 602.456 408.033, 607.290 405.933 L 616.080 402.115 619.445 404.100 C 623.598 406.550, 628.437 407.998, 629.616 407.142 C 630.414 406.562, 632.818 402.229, 638.070 391.901 L 639.901 388.302 649.200 387.615 C 654.315 387.236, 661.421 386.302, 664.990 385.537 C 668.560 384.773, 671.674 384.341, 671.910 384.577 C 672.450 385.117, 668.172 394.627, 665.821 398.113 C 664.852 399.550, 664.309 400.976, 664.615 401.282 C 664.921 401.588, 664.233 402.340, 663.086 402.954 C 660.290 404.450, 660.454 407.165, 663.500 409.813 C 664.875 411.009, 666 412.440, 666 412.993 C 666 413.547, 666.644 414, 667.432 414 C 668.219 414, 669.829 415.355, 671.008 417.012 C 672.188 418.668, 673.578 419.761, 674.097 419.440 C 674.616 419.119, 676.416 420.014, 678.097 421.428 C 679.778 422.843, 681.993 424, 683.020 424 C 685.295 424, 688 420.368, 688 417.314 C 688 416.082, 693.228 402.794, 699.618 387.787 C 706.008 372.779, 712.961 355.941, 715.068 350.369 C 717.176 344.797, 719.745 338.722, 720.778 336.869 C 723.291 332.359, 725.996 321.216, 726.015 315.294 C 726.026 311.830, 726.300 310.916, 727 312 C 727.533 312.825, 727.976 315.413, 727.985 317.750 C 728.001 322.414, 729.701 324.760, 735.079 327.541 C 737.176 328.625, 739.330 328.966, 741.382 328.537 C 747.523 327.256, 752 326.801, 752 327.460 C 752 327.828, 749.813 331.813, 747.139 336.315 C 734.412 357.745, 727.999 368.916, 727.989 369.672 C 727.982 370.127, 725.395 374.311, 722.239 378.969 C 718.280 384.812, 715.725 387.615, 714 388.009 C 712.271 388.403, 711.422 389.338, 711.248 391.040 C 710.916 394.276, 713.393 403.589, 714.477 403.182 C 714.943 403.007, 715.904 404.245, 716.613 405.932 C 717.323 407.619, 718.401 409, 719.008 409 C 719.616 409, 721.419 410.430, 723.016 412.179 C 727.900 417.526, 728.070 417.357, 747.258 388 C 751.392 381.675, 758.088 371.195, 762.137 364.712 C 766.187 358.229, 770.625 351.181, 772 349.050 C 781.964 333.608, 789 322.052, 789 321.132 C 789 318.543, 793.817 317.076, 804.502 316.411 L 815.500 315.726 813.446 318.113 C 812.316 319.426, 808.672 323.650, 805.348 327.500 C 797.149 336.994, 792.319 344.358, 785.225 358.180 C 772.733 382.522, 771.910 391.405, 781.292 400.642 C 783.607 402.921, 786.839 406.257, 788.475 408.057 C 792.362 412.332, 802.693 417.004, 808.228 416.988 C 818.161 416.961, 832.117 410.683, 841.394 402.069 C 849.498 394.544, 860.567 380.625, 866.604 370.367 C 872.764 359.900, 874.894 354.196, 874.844 348.297 C 874.827 346.209, 875.342 343.150, 875.989 341.500 C 876.635 339.850, 877.554 335.125, 878.030 331 C 878.506 326.875, 879.166 322.067, 879.498 320.315 C 880.280 316.178, 876.478 308.505, 871.466 304.104 C 867.387 300.523, 852.307 293, 849.207 293 C 848.111 293, 846.979 293.611, 846.693 294.358 C 846.406 295.106, 844.353 296.008, 842.131 296.363 C 838.518 296.941, 837.984 297.400, 837.070 300.710 C 836.305 303.478, 836.357 304.608, 837.274 305.190 C 837.948 305.619, 835.068 305.976, 830.872 305.985 C 825.327 305.996, 822.905 306.409, 822 307.500 C 820.181 309.691, 819.240 309.366, 817.464 305.930 C 816.590 304.241, 814.329 301.947, 812.439 300.832 C 810.549 299.717, 809.213 298.464, 809.471 298.047 C 809.728 297.631, 808.940 296.355, 807.719 295.210 C 804.778 292.453, 797.138 291.726, 789.500 293.476 M 208.739 298 C 206.686 299.100, 204.400 300, 203.659 300 C 201.337 300, 182.868 314.358, 174.500 322.669 C 155.683 341.355, 146.341 356.688, 143.727 373.173 C 142.722 379.511, 142.836 380.339, 146.001 389.673 C 148.567 397.238, 150.389 400.726, 153.917 404.825 C 159.966 411.854, 168.812 417.215, 176.500 418.512 C 182.081 419.453, 182.893 419.333, 188.126 416.795 C 195.656 413.144, 207.024 403.794, 209.509 399.207 C 210.613 397.168, 212.045 395.500, 212.690 395.500 C 213.335 395.500, 214.906 397.048, 216.181 398.941 C 218.536 402.435, 225.529 406.640, 229.907 407.195 C 231.896 407.447, 232.779 406.631, 234.987 402.500 C 236.457 399.750, 238.755 395.475, 240.093 393 L 242.526 388.500 251.013 387.735 C 255.681 387.314, 262.745 386.359, 266.711 385.612 C 270.677 384.866, 274.124 384.457, 274.371 384.704 C 274.953 385.287, 270.127 396.024, 268.359 398.079 C 267.611 398.947, 267 400.361, 267 401.222 C 267 402.082, 266.325 403.045, 265.500 403.362 C 263.295 404.208, 263.636 408.735, 266 410 C 267.100 410.589, 268 411.730, 268 412.535 C 268 413.341, 268.642 414, 269.427 414 C 270.213 414, 271.830 415.238, 273.021 416.750 C 274.213 418.262, 275.712 419.508, 276.352 419.519 C 276.992 419.529, 279.140 420.542, 281.126 421.769 C 287.154 425.495, 289.188 424.564, 290.459 417.500 C 290.854 415.300, 296.147 401.800, 302.220 387.500 C 308.293 373.200, 315.261 356.331, 317.706 350.013 C 320.150 343.695, 322.621 337.957, 323.197 337.263 C 323.773 336.568, 323.910 336, 323.500 336 C 323.090 336, 323.294 335.350, 323.953 334.556 C 327.624 330.133, 329.319 311.451, 326.537 306.072 C 324.848 302.805, 323.844 302.314, 317.012 301.407 C 313.549 300.948, 312 300.284, 312 299.260 C 312 298.102, 311.219 297.924, 308.429 298.447 C 306.465 298.816, 304.215 299.364, 303.429 299.666 C 302.643 299.967, 302 299.739, 302 299.159 C 302 297.763, 296.052 299.707, 294 301.773 C 292.667 303.116, 292.667 303.223, 294 302.738 C 294.825 302.438, 296.400 301.870, 297.500 301.477 C 298.600 301.084, 297.700 302.019, 295.500 303.555 C 289.251 307.918, 281.116 314.785, 273.750 321.914 C 266.482 328.947, 264.234 328.394, 271.208 321.288 C 273.523 318.930, 274.915 317, 274.302 317 C 272.814 317, 255.797 335.130, 256.564 335.898 C 256.894 336.228, 258.891 334.474, 261 332 C 263.109 329.526, 265.159 327.825, 265.554 328.220 C 265.949 328.616, 263.224 331.990, 259.498 335.719 C 255.772 339.449, 253.471 341.262, 254.385 339.750 C 255.298 338.238, 255.663 337, 255.194 337 C 253.317 337, 234 360.848, 234 363.165 C 234 363.663, 232.007 364.926, 229.570 365.970 C 224.696 368.059, 222.388 370.988, 224.193 372.793 C 224.992 373.592, 224.155 375.805, 221.131 380.896 C 216.592 388.537, 215.360 389.760, 213.790 388.190 C 213.076 387.476, 213.723 385.718, 215.877 382.527 C 217.595 379.982, 219 377.421, 219 376.835 C 219 375.471, 205.608 387.911, 205.177 389.676 C 204.831 391.090, 199 391.562, 199 390.176 C 199 389.722, 202.375 386.131, 206.500 382.195 C 210.625 378.260, 214 374.581, 214 374.020 C 214 373.459, 214.563 373.112, 215.250 373.250 C 216.091 373.418, 216.559 371.942, 216.679 368.735 C 216.801 365.491, 216.507 364.187, 215.759 364.649 C 215.053 365.085, 214.888 364.733, 215.299 363.664 C 216.402 360.790, 214.603 361.863, 212.060 365.595 C 209.075 369.978, 190.074 388.136, 184.295 392.129 C 181.982 393.727, 176.933 396.102, 173.076 397.407 C 163.857 400.526, 163.347 399.991, 164.802 388.725 C 167.035 371.420, 175.080 357.073, 192.235 339.799 C 201.830 330.137, 214.048 320, 216.099 320 C 217.539 320, 217.151 321.538, 215.033 324.231 C 213.951 325.607, 213.351 327.017, 213.699 327.366 C 214.048 327.715, 213.808 328, 213.167 328 C 212.525 328, 211.999 328.563, 211.997 329.250 C 211.995 329.938, 210.420 333.624, 208.497 337.443 C 206.574 341.261, 205 344.733, 205 345.159 C 205 345.584, 206.575 345.003, 208.500 343.867 C 210.457 342.713, 212 342.287, 212 342.901 C 212 344.752, 214.038 344.137, 217.856 341.133 C 219.860 339.556, 223.990 337.095, 227.034 335.663 C 232.729 332.983, 240.160 325.493, 243.167 319.400 C 245.246 315.188, 244.419 310.110, 241.473 308.990 C 240.220 308.513, 238.914 307.670, 238.571 307.115 C 237.635 305.601, 229.915 300.589, 226.500 299.279 C 224.215 298.402, 214.095 296, 212.686 296 C 212.567 296, 210.791 296.900, 208.739 298 M 445.226 298.004 C 443.425 299.102, 441.433 300, 440.799 300 C 438.849 300, 426.290 308.957, 417.657 316.505 C 394.693 336.582, 380.067 360.421, 379.931 378 C 379.878 384.820, 385.754 399.684, 390.562 404.891 C 396.987 411.849, 405.624 417.128, 412.837 418.508 C 419.048 419.695, 419.295 419.658, 425.370 416.601 C 432.585 412.971, 444.573 403.400, 445.538 400.500 C 445.903 399.400, 447.507 396.839, 449.101 394.809 C 452.445 390.551, 452.644 389.460, 450.319 388.159 C 448.787 387.301, 448.778 387.079, 450.221 385.636 C 452.294 383.563, 456.337 377.003, 455.845 376.511 C 455.634 376.300, 451.982 379.474, 447.730 383.564 C 440.949 390.086, 436 392.871, 436 390.164 C 436 389.704, 439.129 386.307, 442.953 382.615 C 446.777 378.924, 449.954 375.587, 450.013 375.201 C 450.071 374.816, 450.970 374.185, 452.009 373.801 C 453.498 373.250, 453.865 372.192, 453.741 368.801 C 453.487 361.819, 451.879 361.386, 447.505 367.122 C 443.365 372.550, 430.540 384.797, 422.497 391.002 C 419.700 393.160, 414.183 396.018, 410.237 397.353 C 401.065 400.456, 400.490 399.937, 401.473 389.448 C 402.898 374.241, 411.144 358.255, 425.423 343.015 C 435.173 332.611, 452.195 318.862, 453.595 320.262 C 453.900 320.567, 452.957 322.619, 451.499 324.822 C 450.041 327.025, 448.757 329.429, 448.646 330.164 C 448.535 330.899, 448.017 332.175, 447.495 333 C 446.974 333.825, 445.317 337.090, 443.814 340.255 L 441.080 346.010 444.090 344.453 C 445.746 343.597, 447.986 343.178, 449.069 343.522 C 450.389 343.941, 452.077 343.272, 454.197 341.488 C 455.935 340.025, 460.097 337.534, 463.446 335.952 C 471.775 332.016, 480.117 321.838, 480.795 314.782 C 481.207 310.494, 481.021 309.959, 478.834 309.127 C 477.505 308.622, 475.821 307.489, 475.092 306.611 C 472.616 303.628, 462.747 298.699, 456.611 297.382 C 448.728 295.690, 449.050 295.672, 445.226 298.004 M 506.639 296.735 C 503.941 297.014, 502.633 297.688, 502.296 298.975 C 502.032 299.987, 501.035 301.019, 500.081 301.269 C 499.127 301.518, 497.450 303.472, 496.353 305.611 C 495.257 307.750, 489.938 316.700, 484.533 325.500 C 473.623 343.263, 469.665 351.265, 463.757 367.500 C 460.548 376.320, 459.748 379.887, 459.720 385.500 C 459.672 395.225, 460.324 396.624, 466.318 399.661 C 469.161 401.102, 473.066 403.942, 474.994 405.971 C 479.222 410.422, 489.176 414.959, 496.297 415.683 C 503.804 416.445, 512.842 414.526, 516.003 411.497 C 517.436 410.124, 519.366 409, 520.291 409 C 521.845 409, 536.003 393.384, 536.893 390.690 C 537.109 390.035, 539.021 387.598, 541.143 385.272 C 543.452 382.741, 545 380.047, 545 378.558 C 545 377.121, 545.818 375.633, 546.936 375.034 C 548.935 373.964, 554.225 364.900, 568.677 337.780 C 576.003 324.031, 576.898 321.810, 575.815 320.075 C 575.133 318.984, 574.958 317.733, 575.425 317.295 C 575.892 316.858, 576.476 317.065, 576.722 317.756 C 577.420 319.709, 579 318.153, 579 315.514 C 579 313.130, 574.871 309, 572.488 309 C 571.804 309, 570.675 308.314, 569.979 307.475 C 568.847 306.111, 568.524 306.121, 566.928 307.565 C 564.733 309.551, 561 308.614, 561 306.077 C 561 304.690, 560.269 304.326, 557.750 304.459 C 552.092 304.757, 549.047 306.733, 549.015 310.129 C 548.998 311.955, 545.419 319.663, 540.661 328.119 C 538.923 331.210, 535.301 337.735, 532.614 342.619 C 523.751 358.729, 518.929 366.814, 517.455 368.038 C 516.655 368.702, 516 369.874, 516 370.644 C 516 372.272, 494.850 393.760, 490.669 396.379 C 483.059 401.146, 482.967 391.572, 490.458 374.500 C 493.113 368.450, 495.887 362.099, 496.624 360.388 C 497.360 358.676, 498.646 356.708, 499.482 356.015 C 500.317 355.322, 501 354.317, 501 353.782 C 501 353.247, 503.587 348.997, 506.750 344.337 C 515.183 331.913, 517.846 327.755, 518.922 325.337 C 519.451 324.148, 521.935 320.478, 524.442 317.181 C 529.032 311.146, 530.057 307.775, 527.750 306.300 C 527.063 305.860, 526.004 304.600, 525.399 303.500 C 524.671 302.179, 523.043 301.394, 520.601 301.187 C 517.552 300.928, 517.006 300.556, 517.481 299.061 C 518.064 297.225, 515.410 295.831, 512 296.182 C 511.175 296.267, 508.762 296.516, 506.639 296.735 M 923 297.481 C 919.975 298.250, 914.350 299.182, 910.500 299.553 C 906.116 299.975, 900.782 301.399, 896.227 303.363 C 890.045 306.029, 889.039 306.800, 889.522 308.500 C 889.835 309.600, 890.245 311.400, 890.433 312.500 C 890.621 313.600, 891.533 315.962, 892.461 317.750 C 893.865 320.456, 894.720 321, 897.573 321 C 901.662 321, 901.859 322.186, 898.500 326.589 C 897.125 328.392, 896 330.523, 896 331.326 C 896 332.129, 895.403 333.015, 894.673 333.295 C 893.944 333.575, 892.524 335.986, 891.518 338.652 C 890.512 341.318, 888.606 344.806, 887.281 346.402 C 885.957 347.998, 883.095 352.948, 880.921 357.402 C 878.747 361.856, 875.407 367.975, 873.498 371 C 871.589 374.025, 869.479 377.625, 868.809 379 C 868.139 380.375, 866.259 383.408, 864.632 385.741 C 861.861 389.714, 861.778 390.097, 863.324 391.806 C 864.232 392.809, 865.475 395.063, 866.085 396.815 C 866.696 398.567, 867.802 400, 868.543 400 C 869.284 400, 870.478 401.221, 871.195 402.713 C 872.787 406.022, 878.733 410.191, 881.291 409.792 C 882.572 409.592, 884.041 407.293, 885.950 402.500 C 887.483 398.650, 891.045 391.450, 893.866 386.500 C 896.687 381.550, 898.996 376.739, 898.998 375.809 C 899.001 373.568, 900.527 372.711, 901.754 374.261 C 902.294 374.942, 903.533 377.975, 904.507 381 C 905.481 384.025, 907.502 388.975, 908.998 392 C 910.494 395.025, 911.542 397.995, 911.326 398.600 C 911.110 399.205, 911.623 400.272, 912.467 400.972 C 913.310 401.672, 914 403.035, 914 404 C 914 404.965, 914.661 406.303, 915.468 406.973 C 916.275 407.644, 916.838 408.684, 916.718 409.287 C 916.598 409.889, 917.400 410.573, 918.500 410.807 C 919.600 411.042, 921.644 412.045, 923.042 413.037 C 926.876 415.757, 941.738 416.569, 946.460 414.318 C 948.407 413.389, 950 411.969, 950 411.161 C 950 410.354, 947.800 407.367, 945.110 404.523 C 937.476 396.451, 931.286 382.430, 931.423 373.519 L 931.500 368.538 940 364.302 C 944.675 361.972, 950.249 359.355, 952.386 358.486 C 957.507 356.406, 966.926 349.097, 970.462 344.462 C 973.855 340.013, 977 332.094, 977 328 C 977 318.273, 968.104 306.434, 956.303 300.454 C 948.912 296.709, 947.971 296.489, 938.500 296.292 C 932.529 296.168, 926.284 296.647, 923 297.481 M 354.607 298.582 C 354.273 299.452, 354 300.845, 354 301.677 C 354 302.510, 353.163 304.386, 352.141 305.846 C 351.118 307.306, 349.480 310.943, 348.501 313.930 C 346.383 320.387, 341.386 330.789, 339.213 333.265 C 338.361 334.235, 337.599 335.810, 337.520 336.765 C 337.285 339.617, 335.135 342.822, 333.003 343.499 C 331.904 343.848, 330.715 345.341, 330.362 346.817 C 329.413 350.780, 326.939 355.333, 324.983 356.714 C 324.038 357.382, 323.006 359.222, 322.689 360.804 C 322.373 362.386, 321.012 364.741, 319.664 366.038 C 318.317 367.335, 317.450 369.009, 317.737 369.758 C 318.025 370.507, 317.112 372.330, 315.708 373.810 C 314.305 375.289, 312.828 378.300, 312.427 380.500 C 312.026 382.700, 310.641 385.892, 309.349 387.594 C 308.057 389.296, 307 391.334, 307 392.122 C 307 392.910, 306.280 394.583, 305.400 395.839 C 303.994 397.847, 303.977 398.326, 305.262 399.811 C 306.065 400.740, 307.926 403.593, 309.398 406.151 C 310.870 408.709, 314.001 412.871, 316.357 415.401 C 320.044 419.360, 321.187 420, 324.570 420 C 332.990 419.999, 344.161 417.031, 352.873 412.478 C 357.618 409.999, 365.377 406.234, 370.115 404.112 C 378.302 400.446, 378.765 400.069, 379.429 396.527 C 380.467 390.995, 378.014 388.621, 372.166 389.498 C 368.864 389.993, 367.971 389.856, 368.536 388.942 C 369.536 387.324, 361.944 388.452, 353.069 391.241 C 349.456 392.377, 345.750 393.376, 344.833 393.461 C 343.917 393.547, 342.567 394.094, 341.833 394.678 C 340.174 395.999, 333.019 398.353, 332.436 397.770 C 332.200 397.533, 332.709 394.976, 333.567 392.087 C 334.694 388.290, 335.525 386.987, 336.563 387.386 C 337.567 387.771, 338 387.211, 338 385.528 C 338 384.202, 338.450 382.840, 339 382.500 C 339.550 382.160, 340 381.009, 340 379.941 C 340 378.873, 340.399 378, 340.886 378 C 341.373 378, 342.568 376.313, 343.540 374.250 C 344.512 372.188, 346.813 368.654, 348.654 366.397 C 350.494 364.140, 352 361.778, 352 361.147 C 352 360.516, 352.477 360, 353.059 360 C 353.641 360, 353.871 359.601, 353.570 359.113 C 353.269 358.626, 353.778 357.613, 354.703 356.863 C 355.859 355.926, 356.149 355.890, 355.633 356.750 C 355.220 357.438, 355.308 358, 355.829 358 C 357.004 358, 377.794 327.698, 379.648 323.282 C 380.392 321.512, 381 318.057, 381 315.603 C 381 311.912, 380.419 310.526, 377.632 307.571 C 375.545 305.359, 373.329 304, 371.806 304 C 370.455 304, 368.291 302.874, 366.999 301.498 C 364.915 299.281, 359.564 297.021, 356.357 297.006 C 355.728 297.003, 354.941 297.712, 354.607 298.582 M 687 304.500 C 687 304.775, 687.225 305, 687.500 305 C 687.775 305, 688 304.775, 688 304.500 C 688 304.225, 687.775 304, 687.500 304 C 687.225 304, 687 304.225, 687 304.500 M 287.405 306.155 C 286.962 306.870, 287.130 307.038, 287.845 306.595 C 288.480 306.203, 289 305.684, 289 305.441 C 289 304.607, 288.117 305.002, 287.405 306.155 M 684.500 306 C 684.160 306.550, 684.359 307, 684.941 307 C 685.523 307, 686 306.550, 686 306 C 686 305.450, 685.802 305, 685.559 305 C 685.316 305, 684.840 305.450, 684.500 306 M 279.711 312.104 C 276.482 315.251, 276.200 315.743, 278.500 314.212 C 281.754 312.047, 285.738 308, 284.616 308 C 284.235 308, 282.027 309.847, 279.711 312.104 M 677.500 311.422 C 675.300 313.287, 673.725 315.035, 674 315.306 C 674.275 315.576, 676.525 314.044, 679 311.901 C 681.475 309.759, 683.050 308.011, 682.500 308.018 C 681.950 308.024, 679.700 309.556, 677.500 311.422 M 852.828 311.707 C 852.143 312.533, 850.582 313.589, 849.359 314.054 C 847.339 314.822, 847.242 315.180, 848.297 317.975 C 849.766 321.868, 848.876 323.356, 842.417 327.802 C 837.747 331.017, 820.664 348.812, 819.187 352 C 818.805 352.825, 816.288 356.874, 813.594 360.998 C 804.268 375.273, 796.363 395.961, 798.796 399.726 C 800.857 402.915, 813.868 395.656, 826.487 384.278 C 829.779 381.309, 835.068 375.419, 838.240 371.190 C 845.379 361.669, 856.528 339.458, 858.016 331.790 C 859.174 325.828, 859.522 313.653, 858.578 312.126 C 857.545 310.455, 854.077 310.202, 852.828 311.707 M 936.610 318.750 C 934.731 322.462, 929.758 330.620, 925.557 336.877 C 921.357 343.134, 918.073 348.407, 918.261 348.594 C 918.822 349.155, 926.384 346.732, 928 345.473 C 928.825 344.830, 930.279 344.028, 931.230 343.691 C 934.697 342.463, 952.960 328.744, 952.379 327.804 C 952.050 327.273, 952.901 325.637, 954.269 324.169 C 957.177 321.048, 959 317.751, 959 315.613 C 959 313.625, 953.084 312.013, 945.763 312.006 L 940.025 312 936.610 318.750 M 288 315 C 288 315.550, 288.450 316, 289 316 C 289.550 316, 290 315.550, 290 315 C 290 314.450, 289.550 314, 289 314 C 288.450 314, 288 314.450, 288 315 M 685.500 315 C 685.160 315.550, 685.332 316, 685.882 316 C 686.432 316, 687.160 315.550, 687.500 315 C 687.840 314.450, 687.668 314, 687.118 314 C 686.568 314, 685.840 314.450, 685.500 315 M 184.500 319.930 C 178.103 324.029, 158.323 344.668, 158.800 346.746 C 158.958 347.436, 158.618 348, 158.044 348 C 157.470 348, 157 348.653, 157 349.450 C 157 350.248, 156.213 351.359, 155.250 351.920 C 154.287 352.481, 153.817 352.953, 154.204 352.970 C 154.591 352.986, 153.808 355.363, 152.464 358.250 C 151.119 361.137, 150.025 364.175, 150.032 365 C 150.038 365.825, 150.927 364.555, 152.005 362.178 C 153.084 359.800, 155.999 355.183, 158.484 351.916 C 160.968 348.650, 163 345.524, 163 344.970 C 163 344.416, 168.910 338.121, 176.133 330.981 C 188.878 318.383, 190.730 315.938, 184.500 319.930 M 285 318.500 C 285 318.775, 285.225 319, 285.500 319 C 285.775 319, 286 318.775, 286 318.500 C 286 318.225, 285.775 318, 285.500 318 C 285.225 318, 285 318.225, 285 318.500 M 290.497 321.137 C 286.907 324.289, 284.459 327.793, 285.277 328.610 C 285.518 328.851, 287.839 326.563, 290.435 323.524 C 295.750 317.303, 295.771 316.506, 290.497 321.137 M 421.171 319.727 C 415.916 323.386, 395 345.118, 395 346.918 C 395 347.513, 394.523 348, 393.941 348 C 393.359 348, 393.138 348.414, 393.450 348.919 C 393.763 349.425, 393.434 350.438, 392.720 351.169 C 391.179 352.750, 386.992 362.306, 387.018 364.185 C 387.028 364.908, 388.374 363.072, 390.010 360.105 C 393.176 354.362, 397.899 347.718, 399.209 347.167 C 399.644 346.983, 400 346.135, 400 345.282 C 400 344.429, 405.625 338.184, 412.500 331.403 C 419.375 324.622, 425 318.832, 425 318.537 C 425 317.607, 423.582 318.048, 421.171 319.727 M 558 319.294 C 556.237 320.186, 555.237 321.802, 554.608 324.779 C 554.117 327.101, 553.303 329, 552.799 329 C 552.295 329, 552.207 329.526, 552.605 330.170 C 553.100 330.971, 552.769 331.125, 551.553 330.659 C 550.262 330.163, 549.928 330.370, 550.329 331.416 C 550.633 332.207, 550.233 333.392, 549.441 334.049 C 548.648 334.707, 548 336.288, 548 337.563 C 548 338.839, 547.543 340.165, 546.984 340.510 C 546.425 340.856, 546.233 341.568, 546.558 342.094 C 546.883 342.619, 546.578 342.926, 545.880 342.775 C 545.165 342.620, 544.355 343.810, 544.023 345.500 C 543.580 347.762, 542.964 348.417, 541.521 348.161 C 539.862 347.867, 539.786 348.038, 540.952 349.442 C 542.099 350.824, 542.017 351.274, 540.398 352.499 C 536.982 355.086, 536.465 354.612, 538.017 350.315 L 539.033 347.500 537.039 350 C 534.687 352.948, 534.466 354.858, 536.389 355.596 C 537.901 356.176, 537.531 358.758, 535.331 362.973 C 533.757 365.988, 533.625 368, 535 368 C 535.550 368, 536 367.126, 536 366.057 C 536 364.988, 536.817 363.525, 537.816 362.807 C 539.460 361.624, 541.584 357.745, 540.815 357.331 C 540.642 357.237, 541.491 356.106, 542.702 354.817 C 543.914 353.528, 545.561 350.904, 546.364 348.986 C 547.166 347.069, 551.013 340.133, 554.912 333.573 C 561.354 322.734, 563.293 317.975, 561.250 318.015 C 560.837 318.023, 559.375 318.598, 558 319.294 M 682.333 318.667 C 682.700 319.033, 683.300 319.033, 683.667 318.667 C 684.033 318.300, 683.733 318, 683 318 C 682.267 318, 681.967 318.300, 682.333 318.667 M 687.250 321.884 C 684.912 324.021, 683.014 326.608, 683.032 327.634 C 683.057 329.162, 683.514 328.957, 685.551 326.500 C 686.920 324.850, 689.184 322.262, 690.582 320.750 C 694.362 316.663, 692.131 317.423, 687.250 321.884 M 870.683 318.734 C 870.433 319.155, 869.922 321.975, 869.546 325 C 869.171 328.025, 868.208 332.564, 867.406 335.086 C 866.604 337.608, 865.709 340.758, 865.416 342.086 C 865.123 343.414, 864.770 344.950, 864.631 345.500 C 864.492 346.050, 863.430 348.021, 862.271 349.881 C 861.111 351.740, 860.399 353.877, 860.688 354.631 C 860.978 355.384, 860.748 356, 860.179 356 C 858.396 356, 851.827 367.807, 852.254 370.246 C 852.634 372.419, 852.679 372.428, 853.499 370.500 C 853.966 369.400, 854.915 368.157, 855.607 367.738 C 856.299 367.319, 857.516 365.744, 858.311 364.238 C 859.107 362.732, 860.866 359.381, 862.221 356.792 C 863.577 354.202, 865.213 351.448, 865.859 350.670 C 869.903 345.797, 874.949 320.323, 872.206 318.627 C 871.619 318.264, 870.934 318.312, 870.683 318.734 M 280.333 322.667 C 280.700 323.033, 281.300 323.033, 281.667 322.667 C 282.033 322.300, 281.733 322, 281 322 C 280.267 322, 279.967 322.300, 280.333 322.667 M 678 322.500 C 678 322.775, 678.225 323, 678.500 323 C 678.775 323, 679 322.775, 679 322.500 C 679 322.225, 678.775 322, 678.500 322 C 678.225 322, 678 322.225, 678 322.500 M 865 324.500 C 865 324.775, 865.225 325, 865.500 325 C 865.775 325, 866 324.775, 866 324.500 C 866 324.225, 865.775 324, 865.500 324 C 865.225 324, 865 324.225, 865 324.500 M 550 326 C 550 326.733, 550.300 327.033, 550.667 326.667 C 551.033 326.300, 551.033 325.700, 550.667 325.333 C 550.300 324.967, 550 325.267, 550 326 M 671.846 327.846 C 667.493 331.736, 668.453 332.683, 672.937 328.923 C 674.828 327.338, 676.108 325.775, 675.783 325.450 C 675.457 325.124, 673.686 326.202, 671.846 327.846 M 960.020 326.476 C 959.231 327.426, 959.155 328, 959.819 328 C 961.027 328, 962.436 326.103, 961.743 325.409 C 961.491 325.158, 960.716 325.638, 960.020 326.476 M 273.510 328.990 C 271.935 330.634, 270.869 332.202, 271.141 332.475 C 271.414 332.747, 273.157 331.402, 275.015 329.485 C 276.872 327.568, 277.938 326, 277.383 326 C 276.828 326, 275.085 327.345, 273.510 328.990 M 864 327.718 C 864 328.333, 863.727 329.548, 863.393 330.418 C 863.059 331.288, 863.236 332, 863.786 332 C 865.298 332, 866.209 328.809, 865.033 327.633 C 864.322 326.922, 864 326.949, 864 327.718 M 176.500 334 C 173.791 336.750, 172.028 339, 172.581 339 C 173.134 339, 175.710 336.750, 178.306 334 C 180.901 331.250, 182.665 329, 182.225 329 C 181.785 329, 179.209 331.250, 176.500 334 M 413.710 333.659 C 411.111 336.221, 409.235 338.568, 409.541 338.875 C 409.847 339.181, 412.256 337.084, 414.893 334.216 C 420.846 327.740, 420.079 327.379, 413.710 333.659 M 288.088 334.508 C 285.661 336.978, 283.047 339, 282.279 339 C 281.511 339, 281.157 339.445, 281.492 339.988 C 281.828 340.531, 280.162 343.119, 277.790 345.738 C 270.602 353.674, 264.754 361.088, 265.273 361.606 C 266.591 362.924, 274.023 362.290, 275.768 360.710 C 277.835 358.840, 281 358.410, 281 360 C 281 361.496, 283.652 361.206, 285.331 359.526 C 287 357.858, 292.854 343.087, 292.945 340.315 C 292.978 339.317, 293.276 336.587, 293.608 334.250 C 293.939 331.913, 293.825 330.003, 293.355 330.008 C 292.885 330.012, 290.515 332.037, 288.088 334.508 M 685.544 334.955 C 682.860 337.680, 680.289 339.679, 679.832 339.396 C 679.374 339.113, 678.988 339.471, 678.973 340.191 C 678.958 340.911, 675.072 345.992, 670.336 351.482 L 661.727 361.464 665.113 362.173 C 669.238 363.035, 672.669 362.305, 673.396 360.410 C 674.008 358.816, 678 358.460, 678 360 C 678 360.550, 678.890 361, 679.977 361 C 682.226 361, 684.276 358.265, 686.360 352.484 C 687.150 350.293, 688.367 347.150, 689.064 345.500 C 689.762 343.850, 690.451 341.375, 690.595 340 C 690.740 338.625, 691.126 335.813, 691.453 333.750 C 691.780 331.688, 691.682 330, 691.236 330 C 690.790 330, 688.229 332.230, 685.544 334.955 M 907.970 332.055 C 907.365 333.186, 907.052 334.648, 907.274 335.305 C 907.496 335.962, 908.437 335.038, 909.364 333.250 C 910.292 331.462, 910.606 330, 910.061 330 C 909.516 330, 908.575 330.925, 907.970 332.055 M 266.924 336.637 C 265.591 338.088, 265.136 339.075, 265.914 338.832 C 267.232 338.421, 270.783 334, 269.796 334 C 269.550 334, 268.258 335.187, 266.924 336.637 M 664.130 336.569 C 662.319 338.451, 662.145 339, 663.360 339 C 664.223 339, 665.432 338.061, 666.046 336.914 C 667.654 333.909, 666.832 333.761, 664.130 336.569 M 346 336.429 C 346 337.214, 345.423 338.452, 344.719 339.179 C 336.167 347.998, 316 380.710, 316 385.761 C 316 388.459, 317.962 385.780, 323.362 375.714 C 326.387 370.074, 332.943 359.225, 337.931 351.605 C 345.949 339.356, 348.197 335, 346.500 335 C 346.225 335, 346 335.643, 346 336.429 M 587 336.429 C 587 337.214, 586.423 338.452, 585.719 339.179 C 577.167 347.998, 557 380.710, 557 385.761 C 557 388.459, 558.962 385.780, 564.362 375.714 C 567.387 370.074, 573.943 359.225, 578.931 351.605 C 586.949 339.356, 589.197 335, 587.500 335 C 587.225 335, 587 335.643, 587 336.429 M 544 337 C 544 337.733, 544.300 338.033, 544.667 337.667 C 545.033 337.300, 545.033 336.700, 544.667 336.333 C 544.300 335.967, 544 336.267, 544 337 M 862 337 C 862 337.733, 862.300 338.033, 862.667 337.667 C 863.033 337.300, 863.033 336.700, 862.667 336.333 C 862.300 335.967, 862 336.267, 862 337 M 904.278 339.250 C 902.324 341.777, 901.657 343.330, 902.840 342.599 C 904.024 341.867, 906.393 338, 905.658 338 C 905.431 338, 904.810 338.563, 904.278 339.250 M 860.500 340 C 860.160 340.550, 860.332 341, 860.882 341 C 861.432 341, 862.160 340.550, 862.500 340 C 862.840 339.450, 862.668 339, 862.118 339 C 861.568 339, 860.840 339.450, 860.500 340 M 901.206 352.168 C 892.369 366.411, 880.071 387.684, 878.911 390.734 C 877.200 395.234, 879.573 392.840, 882.873 386.738 C 889.265 374.916, 895.287 365, 896.075 365 C 896.510 365, 897.174 364.028, 897.551 362.841 C 897.928 361.653, 900.679 356.653, 903.664 351.729 C 906.650 346.806, 908.930 342.291, 908.733 341.698 C 908.535 341.104, 905.148 345.815, 901.206 352.168 M 943.333 342.667 C 943.700 343.033, 944.300 343.033, 944.667 342.667 C 945.033 342.300, 944.733 342, 944 342 C 943.267 342, 942.967 342.300, 943.333 342.667 M 297.370 344.750 C 297.058 345.712, 295.497 349.255, 293.901 352.623 C 290.955 358.841, 290.278 362, 291.894 362 C 292.898 362, 297.387 351.233, 298.459 346.250 C 299.190 342.858, 298.356 341.709, 297.370 344.750 M 859.094 344.387 C 858.384 345.242, 858.284 346.057, 858.847 346.405 C 859.366 346.726, 860.073 346.252, 860.419 345.351 C 861.267 343.141, 860.557 342.624, 859.094 344.387 M 691.715 352.183 C 689.325 357.327, 688.280 360.680, 688.880 361.280 C 690 362.400, 691.948 358.889, 694.446 351.246 C 697.185 342.868, 695.826 343.334, 691.715 352.183 M 801.575 348.142 C 800.488 349.982, 799.484 350.783, 799.081 350.132 C 798.674 349.472, 797.789 350.120, 796.844 351.770 C 795.985 353.272, 793.323 357.875, 790.930 362 C 788.537 366.125, 786.447 370.311, 786.287 371.303 C 786.127 372.295, 785.335 374.385, 784.527 375.948 C 782.797 379.292, 780.928 387.012, 781.856 386.973 C 782.210 386.958, 783.794 383.921, 785.375 380.223 C 790.161 369.031, 797.065 355.780, 800.754 350.703 C 802.671 348.065, 804.049 345.716, 803.817 345.484 C 803.585 345.252, 802.576 346.448, 801.575 348.142 M 898.097 348.161 C 896.893 350.174, 895.225 352.083, 894.391 352.404 C 893.556 352.724, 893.174 353.472, 893.541 354.067 C 893.909 354.662, 893.321 356.127, 892.236 357.324 C 891.151 358.521, 889.983 360.684, 889.642 362.131 C 889.301 363.577, 888.147 364.990, 887.077 365.270 C 885.805 365.602, 884.904 366.997, 884.471 369.303 C 884.107 371.241, 882.953 373.747, 881.905 374.872 C 880.857 375.996, 880 377.673, 880 378.598 C 880 379.523, 879.213 380.855, 878.252 381.558 C 877.290 382.261, 876.847 383.181, 877.268 383.602 C 878.400 384.734, 879.014 383.852, 888.479 367.500 C 893.254 359.250, 898.055 351.240, 899.147 349.700 C 900.240 348.160, 900.943 346.360, 900.710 345.700 C 900.476 345.040, 899.301 346.147, 898.097 348.161 M 929.158 350.066 C 923.571 352.852, 919 355.284, 919 355.470 C 919 356.731, 938.398 347.782, 939.488 346.019 C 940.441 344.477, 940.085 344.617, 929.158 350.066 M 644.813 347.744 C 641.990 351.029, 641.661 352.512, 644.392 349.639 C 645.887 348.065, 646.933 346.600, 646.716 346.383 C 646.499 346.165, 645.642 346.778, 644.813 347.744 M 246.494 349.006 C 245.496 350.110, 244.864 351.190, 245.089 351.408 C 245.315 351.626, 246.309 350.723, 247.297 349.402 C 249.479 346.484, 248.994 346.245, 246.494 349.006 M 337.287 357.811 C 330.280 368.257, 321.050 384.523, 321.017 386.484 C 321.008 387.025, 323.600 382.975, 326.777 377.484 C 329.955 371.993, 335.412 363.095, 338.905 357.711 C 342.398 352.327, 345.076 347.743, 344.856 347.523 C 344.636 347.303, 341.230 351.933, 337.287 357.811 M 578.287 357.811 C 571.280 368.257, 562.050 384.523, 562.017 386.484 C 562.008 387.025, 564.600 382.975, 567.777 377.484 C 570.955 371.993, 576.412 363.095, 579.905 357.711 C 583.398 352.327, 586.076 347.743, 585.856 347.523 C 585.636 347.303, 582.230 351.933, 578.287 357.811 M 857.081 349.849 C 855.769 352.300, 855.725 353, 856.883 353 C 857.794 353, 859.218 348.884, 858.541 348.208 C 858.333 347.999, 857.676 348.738, 857.081 349.849 M 240.163 356.750 C 238.437 358.813, 237.036 360.950, 237.048 361.500 C 237.073 362.562, 241.426 357.695, 243.085 354.750 C 244.665 351.944, 243.541 352.714, 240.163 356.750 M 479 355 C 479 356.100, 479.395 357, 479.878 357 C 481.189 357, 483.082 354.415, 482.325 353.658 C 480.956 352.289, 479 353.078, 479 355 M 639.473 354.288 C 636.338 357.987, 633.832 362.223, 635.011 361.830 C 635.752 361.583, 636.839 360.527, 637.429 359.483 C 638.018 358.439, 639.063 356.971, 639.750 356.221 C 640.438 355.471, 641 354.439, 641 353.929 C 641 352.737, 640.734 352.800, 639.473 354.288 M 296.058 358.137 C 294.129 361.300, 293.403 364, 294.480 364 C 295.290 364, 299.173 355.840, 298.624 355.290 C 298.340 355.007, 297.185 356.288, 296.058 358.137 M 693.738 357.867 C 692.782 359.485, 692.020 361.639, 692.044 362.654 C 692.073 363.839, 692.810 363.132, 694.104 360.680 C 696.525 356.092, 696.210 353.681, 693.738 357.867 M 854 356 C 854 356.733, 854.300 357.033, 854.667 356.667 C 855.033 356.300, 855.033 355.700, 854.667 355.333 C 854.300 354.967, 854 355.267, 854 356 M 924 357 C 923.207 357.490, 922.783 358.116, 923.058 358.391 C 923.333 358.666, 924.207 358.490, 925 358 C 925.793 357.510, 926.217 356.884, 925.942 356.609 C 925.667 356.334, 924.793 356.510, 924 357 M 849.079 363.671 C 847.390 366.789, 846.135 369.468, 846.291 369.624 C 846.927 370.260, 851.952 363.038, 852.561 360.613 C 853.597 356.485, 852.403 357.534, 849.079 363.671 M 475.345 360.543 C 475.019 361.392, 475.023 362.356, 475.352 362.686 C 476.065 363.398, 479 361.138, 479 359.878 C 479 358.368, 475.968 358.921, 475.345 360.543 M 798.600 360.600 C 798.244 361.527, 798.178 362.511, 798.453 362.786 C 798.728 363.061, 799.244 362.527, 799.600 361.600 C 799.956 360.673, 800.022 359.689, 799.747 359.414 C 799.472 359.139, 798.956 359.673, 798.600 360.600 M 530 364 C 530 365.100, 529.550 366, 529 366 C 528.450 366, 528.015 366.563, 528.033 367.250 C 528.052 367.938, 528.952 367.438, 530.033 366.139 C 532.189 363.552, 532.551 362, 531 362 C 530.450 362, 530 362.900, 530 364 M 738.557 364.223 C 737.701 365.445, 737 366.820, 737 367.278 C 737 367.736, 734.694 371.705, 731.876 376.098 C 729.058 380.491, 726.953 384.286, 727.197 384.531 C 727.919 385.253, 731.475 379.952, 736.490 370.677 C 740.958 362.413, 741.913 359.431, 738.557 364.223 M 236 363.500 C 236 363.775, 236.225 364, 236.500 364 C 236.775 364, 237 363.775, 237 363.500 C 237 363.225, 236.775 363, 236.500 363 C 236.225 363, 236 363.225, 236 363.500 M 633 364 C 633 364.733, 633.300 365.033, 633.667 364.667 C 634.033 364.300, 634.033 363.700, 633.667 363.333 C 633.300 362.967, 633 363.267, 633 364 M 471.959 368.081 C 470.814 370.325, 469.010 375.549, 467.951 379.690 C 466.359 385.917, 466.217 387.977, 467.132 391.609 C 467.740 394.024, 468.551 396, 468.935 396 C 469.318 396, 469.632 392.433, 469.632 388.074 C 469.632 383.715, 470.105 379.553, 470.683 378.824 C 471.832 377.376, 476 366.511, 476 364.962 C 476 362.679, 473.880 364.315, 471.959 368.081 M 386.079 367.583 C 386.127 368.748, 386.364 368.985, 386.683 368.188 C 386.972 367.466, 386.936 366.603, 386.604 366.271 C 386.272 365.939, 386.036 366.529, 386.079 367.583 M 740.770 372.696 C 731.493 386.863, 724.582 399.361, 725.801 399.767 C 726.467 399.989, 726.722 400.641, 726.367 401.215 C 726.002 401.806, 726.324 402.059, 727.111 401.798 C 727.875 401.544, 728.909 400.023, 729.408 398.418 C 731.403 392.004, 732.541 390.067, 734.476 389.790 C 735.872 389.590, 738.310 386.318, 742.332 379.247 C 745.540 373.608, 747.989 368.468, 747.775 367.825 C 747.561 367.182, 745.945 369.208, 744.184 372.328 C 742.423 375.448, 740.728 378, 740.416 378 C 740.105 378, 741.232 375.448, 742.921 372.329 C 744.610 369.211, 745.820 366.486, 745.609 366.276 C 745.398 366.065, 743.220 368.954, 740.770 372.696 M 795.405 367.155 C 794.962 367.870, 795.130 368.038, 795.845 367.595 C 796.480 367.203, 797 366.684, 797 366.441 C 797 365.607, 796.117 366.002, 795.405 367.155 M 149.079 368.583 C 149.127 369.748, 149.364 369.985, 149.683 369.188 C 149.972 368.466, 149.936 367.603, 149.604 367.271 C 149.272 366.939, 149.036 367.529, 149.079 368.583 M 529.292 370.495 C 528.342 371.541, 528.401 372.087, 529.566 373.055 C 531.504 374.663, 532.558 373.538, 531.407 371.092 C 530.662 369.508, 530.285 369.401, 529.292 370.495 M 842.564 374.707 C 842.022 376.132, 842.136 376.247, 843.124 375.267 C 843.808 374.588, 844.115 373.781, 843.807 373.474 C 843.499 373.166, 842.940 373.721, 842.564 374.707 M 682.741 382.688 C 681.665 383.764, 681 383.965, 681 383.214 C 681 380.594, 678.876 382.213, 677.017 386.250 C 671.420 398.407, 668.295 408.838, 671.532 404.559 C 672.959 402.672, 673 402.682, 673 404.931 C 673 406.874, 673.240 407.046, 674.500 406 C 675.325 405.315, 676 404.363, 676 403.884 C 676 403.405, 678.046 398.460, 680.547 392.896 C 685.194 382.555, 685.830 379.599, 682.741 382.688 M 280.607 384.197 C 279.738 385.522, 278.154 389.146, 277.086 392.250 C 276.018 395.354, 274.378 399.509, 273.441 401.483 C 271.522 405.528, 272.218 407.357, 274.562 404.427 C 276.055 402.561, 276.084 402.571, 275.484 404.750 C 275.144 405.988, 275.272 407, 275.769 407 C 276.696 407, 287 384.856, 287 382.863 C 287 382.057, 286.639 382.055, 285.676 382.854 C 284.726 383.642, 284.047 383.647, 283.269 382.869 C 282.492 382.092, 281.741 382.466, 280.607 384.197 M 475.684 383.382 C 475.308 384.362, 475.041 386.364, 475.090 387.832 C 475.174 390.319, 475.246 390.273, 476.143 387.158 C 477.182 383.546, 476.807 380.456, 475.684 383.382 M 288.209 389.750 C 284.915 396.953, 281 406.685, 281 407.672 C 281 410.840, 291.182 391.533, 292.561 385.750 C 293.771 380.678, 291.334 382.917, 288.209 389.750 M 686.551 387.900 C 684.300 392.341, 679 405.531, 679 406.690 C 679 406.939, 679.627 406.516, 680.392 405.750 C 683.697 402.446, 691.433 384.386, 689.940 383.463 C 689.462 383.167, 687.937 385.164, 686.551 387.900 M 281.184 388.496 C 280.556 389.873, 280.453 391, 280.954 391 C 281.938 391, 283.460 387.127, 282.754 386.420 C 282.518 386.185, 281.811 387.118, 281.184 388.496 M 678.970 388.055 C 678.365 389.186, 678.045 390.636, 678.260 391.279 C 678.474 391.921, 679.154 390.996, 679.772 389.223 C 681.042 385.581, 680.622 384.969, 678.970 388.055 M 724.729 386.604 C 724.328 387.005, 724 388.023, 724 388.867 C 724 389.992, 724.296 390.104, 725.112 389.288 C 725.724 388.676, 726.053 387.658, 725.842 387.025 C 725.631 386.392, 725.130 386.203, 724.729 386.604 M 874.028 387.466 C 872.136 389.746, 873.257 391.601, 875.295 389.563 C 877.135 387.722, 877.535 386, 876.122 386 C 875.640 386, 874.697 386.660, 874.028 387.466 M 363.750 390.662 C 364.438 390.940, 365.563 390.940, 366.250 390.662 C 366.938 390.385, 366.375 390.158, 365 390.158 C 363.625 390.158, 363.063 390.385, 363.750 390.662 M 604.750 390.662 C 605.438 390.940, 606.563 390.940, 607.250 390.662 C 607.938 390.385, 607.375 390.158, 606 390.158 C 604.625 390.158, 604.063 390.385, 604.750 390.662 M 722 391.500 C 722 391.775, 722.225 392, 722.500 392 C 722.775 392, 723 391.775, 723 391.500 C 723 391.225, 722.775 391, 722.500 391 C 722.225 391, 722 391.225, 722 391.500 M 355.500 393 C 353.715 393.767, 353.694 393.867, 355.309 393.930 C 356.304 393.968, 356.866 394.408, 356.558 394.907 C 356.249 395.405, 356.936 395.568, 358.083 395.268 C 359.489 394.900, 359.778 394.481, 358.971 393.982 C 358.072 393.426, 358.113 393.107, 359.137 392.700 C 360.197 392.278, 360.166 392.156, 359 392.149 C 358.175 392.144, 356.600 392.527, 355.500 393 M 596.500 393 C 594.715 393.767, 594.694 393.867, 596.309 393.930 C 597.304 393.968, 597.866 394.408, 597.558 394.907 C 597.249 395.405, 597.936 395.568, 599.083 395.268 C 600.489 394.900, 600.778 394.481, 599.971 393.982 C 599.072 393.426, 599.113 393.107, 600.137 392.700 C 601.197 392.278, 601.166 392.156, 600 392.149 C 599.175 392.144, 597.600 392.527, 596.500 393 M 474 395.059 C 474 396.191, 474.450 396.840, 475 396.500 C 475.550 396.160, 476 395.234, 476 394.441 C 476 393.648, 475.550 393, 475 393 C 474.450 393, 474 393.927, 474 395.059 M 348.244 395.664 C 347.553 395.943, 347.211 396.533, 347.485 396.976 C 347.759 397.418, 346.299 398.097, 344.242 398.482 C 342.184 398.868, 338.778 400.212, 336.673 401.467 L 332.844 403.750 335.672 403.836 C 339.551 403.955, 356.306 397.807, 354.741 396.840 C 354.068 396.424, 352.388 396.326, 351.008 396.622 C 349.041 397.046, 348.823 396.932, 350 396.096 C 351.533 395.007, 350.503 394.754, 348.244 395.664 M 589.244 395.664 C 588.553 395.943, 588.211 396.533, 588.485 396.976 C 588.759 397.418, 587.299 398.097, 585.242 398.482 C 583.184 398.868, 579.778 400.212, 577.673 401.467 L 573.844 403.750 576.672 403.836 C 580.551 403.955, 597.306 397.807, 595.741 396.840 C 595.068 396.424, 593.388 396.326, 592.008 396.622 C 590.041 397.046, 589.823 396.932, 591 396.096 C 592.533 395.007, 591.503 394.754, 589.244 395.664 M 358 396.500 C 358 396.775, 358.225 397, 358.500 397 C 358.775 397, 359 396.775, 359 396.500 C 359 396.225, 358.775 396, 358.500 396 C 358.225 396, 358 396.225, 358 396.500 M 599 396.500 C 599 396.775, 599.225 397, 599.500 397 C 599.775 397, 600 396.775, 600 396.500 C 600 396.225, 599.775 396, 599.500 396 C 599.225 396, 599 396.225, 599 396.500 M 277 398 C 277 398.733, 277.300 399.033, 277.667 398.667 C 278.033 398.300, 278.033 397.700, 277.667 397.333 C 277.300 396.967, 277 397.267, 277 398 M 674.459 398.067 C 674.096 398.653, 674.014 399.348, 674.276 399.610 C 674.538 399.872, 675.019 399.392, 675.345 398.543 C 676.021 396.781, 675.445 396.471, 674.459 398.067 M 366 402.500 C 366 402.775, 366.225 403, 366.500 403 C 366.775 403, 367 402.775, 367 402.500 C 367 402.225, 366.775 402, 366.500 402 C 366.225 402, 366 402.225, 366 402.500 M 607 402.500 C 607 402.775, 607.225 403, 607.500 403 C 607.775 403, 608 402.775, 608 402.500 C 608 402.225, 607.775 402, 607.500 402 C 607.225 402, 607 402.225, 607 402.500 M 406.302 486.103 C 398.870 488.960, 391.722 495.788, 387.781 503.794 L 384.500 510.458 384.500 699.479 L 384.500 888.500 387.160 894.175 C 390.767 901.868, 396.980 908.334, 404.262 911.973 L 410.319 915 540.500 915 L 670.681 915 676.787 911.949 C 684.459 908.115, 692.059 899.974, 695.179 892.247 L 697.500 886.500 697.500 699.500 L 697.500 512.500 695.179 506.753 C 691.990 498.854, 684.089 490.430, 676.505 486.842 L 670.500 484.002 541 484.053 C 414 484.103, 411.400 484.143, 406.302 486.103 M 413.010 499.316 C 407.945 500.929, 401.627 507.671, 400.156 513.033 C 399.205 516.501, 398.995 558.805, 399.216 702.164 L 399.500 886.828 402.544 891.164 C 404.219 893.549, 407.594 896.625, 410.044 898 L 414.500 900.500 538.946 900.765 C 676.504 901.059, 669.409 901.372, 675.714 894.728 C 682.554 887.519, 682 904.717, 682 699.510 C 682 517.771, 681.960 513.841, 680.059 510.115 C 677.523 505.145, 672.007 500.373, 667.277 499.060 C 661.837 497.549, 417.787 497.794, 413.010 499.316 M 416.259 512.699 C 411.120 513.703, 411 514.635, 411 553.612 C 411 587.731, 411.108 589.912, 412.912 592.139 L 414.823 594.500 540.384 594.500 L 665.944 594.500 668.222 592.222 L 670.500 589.944 670.500 553.500 L 670.500 517.056 668.222 514.778 L 665.945 512.500 542.222 512.380 C 474.175 512.315, 417.491 512.458, 416.259 512.699 M 426 553 L 426 579 541 579 L 656 579 656 553 L 656 527 541 527 L 426 527 426 553 M 413.455 610.455 C 411.061 612.849, 411 613.290, 411 628.344 C 411 642.051, 411.214 644.043, 412.912 646.139 L 414.823 648.500 449.500 648.500 L 484.177 648.500 486.088 646.139 C 487.786 644.043, 488 642.051, 488 628.344 C 488 613.290, 487.939 612.849, 485.545 610.455 L 483.091 608 449.500 608 L 415.909 608 413.455 610.455 M 504.455 610.455 C 502.059 612.850, 502 613.283, 502 628.455 C 502 645.839, 502.513 647.267, 509.194 648.497 C 511.012 648.832, 526.551 648.970, 543.724 648.803 C 582.932 648.423, 579.500 650.381, 579.500 628.386 L 579.500 612.827 576.694 610.413 L 573.888 608 540.399 608 L 506.909 608 504.455 610.455 M 597.315 609.007 C 593.603 610.503, 593 613.211, 593 628.378 C 593 642.275, 593.102 643.007, 595.413 645.694 L 597.827 648.500 631.886 648.500 L 665.944 648.500 668.222 646.225 C 670.323 644.127, 670.526 642.920, 670.834 630.728 C 671.216 615.647, 670.251 610.891, 666.462 609.165 C 663.391 607.766, 600.751 607.623, 597.315 609.007 M 426 628 L 426 633 449.500 633 L 473 633 473 628 L 473 623 449.500 623 L 426 623 426 628 M 517 628 L 517 633 540.500 633 L 564 633 564 628 L 564 623 540.500 623 L 517 623 517 628 M 608 628 L 608 633 632 633 L 656 633 656 628 L 656 623 632 623 L 608 623 608 628 M 413.174 660.314 C 411.045 662.581, 411 663.230, 411 691.640 L 411 720.651 413.314 722.826 C 415.597 724.970, 416.096 725, 449.640 725 L 483.651 725 485.826 722.686 C 487.955 720.419, 488 719.770, 488 691.360 L 488 662.349 485.686 660.174 C 483.403 658.030, 482.904 658, 449.360 658 L 415.349 658 413.174 660.314 M 504.455 660.455 L 502 662.909 502 691.320 C 502 718.548, 502.086 719.840, 504.073 722.365 L 506.145 725 540.398 725 L 574.651 725 577.076 722.421 C 579.493 719.850, 579.501 719.766, 579.814 694.171 C 579.987 680.052, 579.854 667.036, 579.518 665.246 C 579.183 663.456, 577.944 661.094, 576.765 659.996 C 574.712 658.083, 573.218 658, 540.766 658 L 506.909 658 504.455 660.455 M 595.455 660.455 L 593 662.909 593 691.500 L 593 720.091 595.455 722.545 L 597.909 725 631.373 725 C 649.778 725, 665.565 724.720, 666.455 724.379 C 670.512 722.822, 671 719.289, 671 691.500 C 671 663.711, 670.512 660.178, 666.455 658.621 C 665.565 658.280, 649.778 658, 631.373 658 L 597.909 658 595.455 660.455 M 426 691.500 L 426 710 449.500 710 L 473 710 473 691.500 L 473 673 449.500 673 L 426 673 426 691.500 M 517 691.500 L 517 710 540.500 710 L 564 710 564 691.500 L 564 673 540.500 673 L 517 673 517 691.500 M 608 691.500 L 608 710 632 710 L 656 710 656 691.500 L 656 673 632 673 L 608 673 608 691.500 M 413.455 736.455 L 411 738.909 411 767.780 L 411 796.651 413.314 798.826 C 415.597 800.970, 416.093 801, 449.775 801 C 483.615 801, 483.940 800.980, 485.961 798.811 C 487.915 796.714, 488 795.424, 488 767.766 L 488 738.909 485.545 736.455 L 483.091 734 449.500 734 L 415.909 734 413.455 736.455 M 504.455 736.455 L 502 738.909 502 767.780 L 502 796.651 504.314 798.826 C 506.598 800.971, 507.092 801, 540.814 801 C 573.340 801, 575.094 800.906, 576.944 799.056 C 579.873 796.127, 580.156 792.733, 579.814 764.662 L 579.500 738.824 576.694 736.412 L 573.888 734 540.399 734 L 506.909 734 504.455 736.455 M 597.315 735.007 C 596.114 735.491, 594.651 736.783, 594.065 737.878 C 593.342 739.229, 593 761.214, 593 806.323 C 593 870.252, 593.073 872.868, 594.911 875.139 L 596.821 877.500 630.950 877.788 L 665.078 878.076 668.039 875.115 L 671 872.154 671 807.226 C 671 764.468, 670.642 741.270, 669.950 739.287 C 669.373 737.631, 667.777 735.764, 666.403 735.138 C 663.387 733.764, 600.696 733.645, 597.315 735.007 M 426 767.500 L 426 786 449.500 786 L 473 786 473 767.500 L 473 749 449.500 749 L 426 749 426 767.500 M 517 767.500 L 517 786 540.500 786 L 564 786 564 767.500 L 564 749 540.500 749 L 517 749 517 767.500 M 608 806 L 608 863 632 863 L 656 863 656 806 L 656 749 632 749 L 608 749 608 806 M 416.259 810.680 C 411.242 811.703, 411 813.247, 411 844.268 L 411 873.091 413.455 875.545 L 415.909 878 449.500 878 L 483.091 878 485.545 875.545 L 488 873.091 488 844.156 C 488 817.164, 487.872 815.063, 486.089 812.861 L 484.179 810.500 451.339 810.361 C 433.278 810.285, 417.491 810.428, 416.259 810.680 M 506.400 811.407 C 504.694 812.161, 503.007 813.539, 502.650 814.471 C 502.292 815.402, 502 828.972, 502 844.627 L 502 873.091 504.455 875.545 L 506.909 878 540.399 878 L 573.888 878 576.694 875.587 L 579.500 873.173 579.500 844.114 C 579.500 815.213, 579.488 815.043, 577.223 812.778 C 574.957 810.510, 574.798 810.499, 542.223 810.269 C 516.294 810.085, 508.856 810.322, 506.400 811.407 M 426 844.500 L 426 863 449.500 863 L 473 863 473 844.500 L 473 826 449.500 826 L 426 826 426 844.500 M 517 844.500 L 517 863 540.500 863 L 564 863 564 844.500 L 564 826 540.500 826 L 517 826 517 844.500" stroke="none" fill="#000000" fill-rule="evenodd"/>
</svg>