<?xml version="1.0" standalone="no"?>
<!DOCTYPE svg PUBLIC "-//W3C//DTD SVG 20010904//EN"
 "http://www.w3.org/TR/2001/REC-SVG-20010904/DTD/svg10.dtd">
<svg version="1.0" xmlns="http://www.w3.org/2000/svg"
 width="1800.000000pt" height="1800.000000pt" viewBox="0 0 1800.000000 1800.000000"
 preserveAspectRatio="xMidYMid meet">
<g transform="translate(0.000000,1800.000000) scale(0.040000,-0.040000)"
fill="#000000" stroke="none">
<path d="M0 22500 l0 -22500 22500 0 22500 0 0 22500 0 22500 -22500 0 -22500
0 0 -22500z m4408 20179 c25 -21 88 -33 273 -52 11 -1 19 -24 19 -52 0 -57 52
-65 126 -19 44 27 57 24 95 -26 26 -34 59 -52 81 -43 24 9 72 -21 127 -80 139
-147 212 -207 255 -207 21 0 48 -18 60 -39 36 -64 424 -72 457 -9 15 28 40 40
64 31 26 -10 68 16 121 76 53 60 96 87 121 77 25 -9 50 5 68 39 18 34 43 48
68 39 23 -9 59 6 87 35 49 53 145 70 145 26 0 -14 17 -25 38 -25 50 0 47 42
-5 71 -95 53 136 121 394 116 225 -5 235 -8 249 -65 17 -76 111 -92 183 -30
102 86 154 99 423 103 265 3 270 2 293 -58 13 -34 35 -62 50 -62 14 0 50 -29
81 -64 45 -51 71 -61 131 -50 67 12 91 -2 207 -122 72 -75 131 -151 131 -170
0 -19 13 -47 29 -63 22 -22 21 -38 -2 -66 -39 -47 -15 -90 50 -90 34 0 54 -22
64 -72 8 -40 47 -96 87 -126 46 -35 72 -76 72 -117 0 -35 12 -86 27 -114 15
-28 32 -85 37 -126 5 -41 22 -90 37 -108 15 -19 32 -69 37 -113 6 -44 21 -92
33 -108 13 -16 31 -104 40 -197 10 -93 28 -175 41 -183 13 -8 23 -259 23 -573
0 -315 -10 -566 -23 -574 -13 -8 -31 -90 -41 -183 -9 -93 -27 -181 -40 -197
-12 -16 -27 -65 -33 -110 -6 -45 -22 -93 -37 -108 -14 -14 -26 -55 -26 -91 0
-36 -17 -87 -37 -114 -20 -27 -37 -77 -37 -113 -1 -85 -89 -263 -140 -283 -26
-10 -35 -31 -25 -57 11 -29 -19 -74 -98 -149 -62 -58 -113 -126 -113 -151 0
-57 -173 -233 -229 -233 -24 0 -53 -16 -64 -36 -11 -20 -82 -69 -157 -110
-130 -69 -154 -73 -431 -72 -215 1 -302 10 -322 34 -36 44 -108 43 -144 0 -43
-51 -892 -53 -971 -2 -30 20 -68 36 -83 36 -15 0 -62 34 -103 75 -109 109
-222 104 -335 -16 -47 -50 -86 -105 -86 -122 0 -69 -409 -458 -481 -457 -38 1
-86 -13 -108 -31 -55 -46 -942 -46 -997 0 -21 17 -70 34 -108 36 -37 2 -85 14
-106 27 -82 52 -212 113 -243 113 -55 0 -35 46 24 55 81 11 71 81 -12 90 -40
5 -69 24 -69 44 0 48 -61 46 -101 -3 -30 -36 -35 -36 -55 0 -12 21 -43 39 -69
39 -27 0 -61 23 -76 52 -18 33 -42 46 -68 37 -26 -11 -75 22 -147 98 -58 62
-127 113 -151 113 -55 0 -383 321 -383 375 0 21 -20 57 -44 80 -134 126 -188
195 -151 195 22 0 53 34 70 76 36 86 15 129 -32 66 -51 -68 -143 39 -143 167
0 35 -11 70 -25 79 -46 28 -33 2599 14 2690 23 45 33 103 24 143 -12 54 1 83
61 141 42 40 76 87 76 104 0 17 19 42 43 55 23 14 44 52 45 86 4 72 412 505
412 436 0 -29 20 -43 61 -43 72 0 104 39 67 84 -20 24 7 38 121 62 121 25 149
40 156 85 6 45 26 55 120 61 62 4 135 18 163 31 98 48 714 52 770 6z m35987 7
c23 -10 92 -22 152 -26 60 -4 129 -25 152 -47 23 -21 59 -38 80 -38 20 0 60
-25 89 -56 93 -101 176 -169 205 -169 42 0 344 -304 362 -365 9 -28 49 -89 90
-135 41 -46 75 -113 76 -148 0 -36 17 -86 37 -113 20 -27 37 -79 37 -117 0
-38 11 -76 25 -84 32 -20 34 -1344 2 -1377 -13 -13 -28 -77 -35 -143 -7 -66
-25 -135 -40 -154 -16 -18 -27 -43 -25 -55 12 -64 -10 -115 -77 -184 -41 -42
-75 -91 -75 -109 0 -18 -42 -86 -92 -151 -85 -109 -95 -115 -112 -67 -41 111
-135 7 -106 -116 14 -57 11 -64 -17 -38 -45 42 -98 39 -98 -6 0 -21 13 -38 29
-38 17 0 3 -28 -29 -63 -37 -39 -76 -57 -103 -49 -29 10 -54 -4 -72 -38 -22
-42 -44 -50 -97 -38 -143 31 -303 -87 -303 -224 0 -47 -10 -91 -23 -99 -13 -8
-31 -90 -41 -183 -14 -131 -31 -181 -77 -224 -32 -30 -59 -77 -59 -104 0 -69
-31 -82 -123 -50 -88 31 -140 7 -71 -31 66 -37 54 -89 -48 -198 -63 -68 -106
-95 -136 -86 -28 9 -54 -4 -71 -36 -37 -70 -863 -73 -900 -3 -29 53 -294 48
-379 -7 -97 -63 -873 -55 -994 10 -112 60 -144 60 -254 1 -115 -62 -2152 -73
-2202 -12 -16 19 -43 34 -62 34 -18 0 -54 23 -80 51 -26 28 -64 44 -85 36 -25
-10 -78 30 -152 112 -180 200 -235 219 -330 112 -42 -47 -92 -86 -112 -86 -36
0 -61 -20 -234 -191 l-104 -103 -435 -2 c-383 -1 -445 5 -525 48 -109 58 -143
59 -240 8 -101 -53 -128 -56 -668 -61 -347 -3 -475 -13 -495 -37 -20 -23 -127
-31 -415 -30 -355 1 -390 6 -413 49 -15 28 -41 42 -63 33 -23 -8 -68 17 -113
61 -41 41 -96 75 -122 75 -26 0 -59 23 -74 50 -15 28 -43 50 -63 50 -41 0
-606 -270 -623 -298 -25 -40 -999 -25 -1045 17 -24 21 -78 38 -119 36 -51 -1
-84 14 -102 49 -17 31 -42 44 -67 35 -26 -11 -75 22 -147 98 -58 62 -126 113
-151 113 -57 0 -308 248 -308 305 0 24 -34 78 -75 120 -41 42 -75 92 -75 110
0 19 -17 48 -37 65 -21 17 -38 51 -38 75 0 24 -17 58 -37 75 -20 16 -36 54
-36 84 1 29 1 509 1 1066 -1 1071 2 1133 46 1186 15 19 32 70 38 115 6 45 22
93 37 108 14 14 26 52 26 83 0 32 11 58 25 58 14 0 25 -27 25 -61 0 -34 11
-68 24 -76 40 -25 105 103 97 192 -7 67 0 81 35 75 25 -4 44 8 44 29 0 60 390
443 433 427 24 -9 49 6 67 39 17 31 44 48 64 40 20 -7 58 10 84 39 36 38 66
48 112 36 44 -11 76 -1 108 32 72 78 816 66 827 -13 7 -46 30 -56 175 -71 124
-14 175 -31 201 -68 21 -29 53 -44 80 -38 29 8 69 -16 113 -69 62 -75 79 -82
191 -76 83 5 133 21 155 51 20 28 45 37 65 25 20 -13 48 1 76 39 37 49 65 58
160 54 84 -4 119 5 127 32 38 121 38 121 68 91 51 -51 165 -36 174 24 7 52 20
53 441 57 398 4 520 -11 417 -51 -30 -11 -33 -23 -11 -49 40 -49 190 -45 218
5 34 61 119 34 110 -35 -11 -73 65 -104 109 -44 30 40 34 40 61 -10 19 -37 43
-49 75 -38 32 10 56 -2 74 -37 15 -28 49 -51 76 -51 27 0 61 23 76 51 18 35
42 47 74 37 32 -11 56 1 75 37 19 36 43 48 75 38 29 -10 55 0 70 26 35 64 873
71 907 8 25 -48 104 -38 150 18 33 40 123 47 123 10 0 -14 17 -25 38 -25 43 0
49 39 10 64 -39 24 77 139 126 124 24 -8 67 21 112 75 40 48 92 87 115 87 23
0 73 31 111 69 l69 69 572 3 c465 4 572 -2 572 -29 0 -60 57 -72 98 -20 22 27
71 69 109 94 37 25 68 63 68 84 0 31 7 33 30 10 47 -47 91 -35 100 26 7 55 11
56 405 52 300 -3 402 -12 418 -37 11 -19 46 -33 77 -33 37 0 60 -18 66 -50 12
-61 48 -87 120 -88 49 0 104 -60 173 -187 16 -31 48 -48 82 -44 31 3 62 -11
70 -32 8 -20 41 -37 73 -37 33 0 71 -22 85 -48 20 -38 44 -46 108 -35 58 9 93
1 116 -27 24 -29 77 -40 193 -40 l159 0 225 230 c140 144 225 215 225 188 0
-26 19 -43 50 -43 39 0 50 17 50 79 0 78 0 78 52 31 52 -46 53 -46 88 1 19 27
35 60 36 75 0 15 16 6 36 -20 43 -57 88 -33 88 47 0 49 19 65 101 87 55 15
111 20 125 12 13 -8 45 0 71 18 50 35 667 41 748 6z m-28656 -64 c6 -9 -8 -24
-31 -33 -32 -12 -35 -22 -11 -46 23 -23 35 -23 51 4 26 42 152 18 152 -29 1
-41 122 -154 143 -133 9 8 3 29 -13 45 -76 76 -14 93 70 20 74 -64 96 -63 123
7 35 93 93 130 109 69 21 -82 89 -62 98 28 l8 79 472 2 472 3 69 -85 c38 -46
81 -77 96 -68 14 9 44 -17 65 -59 22 -42 46 -76 54 -76 22 0 167 84 204 119
18 17 45 31 59 31 14 0 57 32 96 71 l71 71 433 -7 c431 -7 434 -8 484 -71 64
-80 112 -82 112 -4 0 82 10 84 475 78 371 -5 412 -10 409 -48 -3 -34 10 -40
66 -27 40 8 77 3 87 -12 9 -14 4 -26 -11 -26 -14 0 -26 -17 -26 -38 0 -28 16
-34 62 -22 45 11 67 4 78 -26 9 -24 33 -35 57 -27 28 8 92 -41 197 -149 90
-94 170 -156 189 -149 19 7 48 -4 66 -25 18 -22 69 -39 114 -39 44 0 95 -17
112 -37 17 -21 52 -38 77 -38 26 0 58 -22 73 -50 16 -30 48 -47 81 -43 42 4
56 -8 59 -52 4 -75 13 -81 122 -88 57 -4 102 -23 117 -49 32 -57 113 -55 145
5 15 29 43 43 70 36 30 -8 69 18 116 78 61 76 75 83 100 50 20 -27 50 -34 109
-22 93 19 105 48 28 68 -87 23 -27 74 69 59 66 -11 89 -4 110 35 38 72 930 58
983 -15 25 -33 51 -40 101 -27 49 12 85 3 132 -34 97 -76 144 -63 279 75 75
77 136 120 158 111 23 -9 81 34 153 112 64 69 132 126 151 126 20 0 49 16 65
35 22 27 128 34 491 34 434 0 464 -3 489 -49 15 -29 41 -43 64 -34 49 19 470
-397 444 -439 -10 -16 -2 -42 19 -57 35 -26 128 -200 134 -252 2 -14 5 -44 7
-66 2 -22 35 -72 72 -112 72 -76 84 -129 84 -372 0 -243 -12 -297 -81 -369
-88 -95 -96 -179 -96 -1054 l1 -752 71 -141 c117 -231 146 -476 74 -618 -26
-49 -46 -99 -46 -111 0 -32 -417 -443 -449 -443 -15 0 -53 -16 -83 -36 -61
-40 -933 -51 -956 -12 -7 11 -72 47 -144 80 -166 78 -288 70 -469 -27 l-139
-75 -508 -2 c-366 -2 -519 -11 -546 -33 -43 -36 -724 -52 -745 -18 -69 111
-486 173 -613 90 -81 -52 -931 -55 -974 -3 -52 62 -169 68 -272 15 -87 -45
-142 -50 -530 -49 l-433 2 -71 71 c-40 40 -92 72 -117 72 -25 0 -59 17 -76 38
-17 20 -51 37 -75 37 -24 0 -58 -17 -75 -37 -17 -21 -51 -38 -76 -38 -25 0
-78 -32 -117 -72 l-73 -72 -582 -2 -582 -2 -139 74 c-186 99 -350 101 -521 5
l-122 -68 -600 -5 c-584 -4 -600 -3 -651 50 -91 93 -172 154 -224 168 -29 8
-54 39 -59 74 -5 33 -75 124 -158 204 -92 89 -143 156 -132 174 11 17 -2 45
-29 64 -42 31 -47 69 -47 330 0 224 -9 306 -38 340 -28 34 -37 116 -37 338 0
220 -10 303 -37 337 -28 33 -38 120 -40 340 -3 198 -14 309 -35 335 -21 24
-34 131 -36 299 -3 206 -13 271 -47 308 -35 39 -40 79 -27 248 9 111 5 234 -8
274 -30 92 1 653 39 691 15 15 28 42 28 59 0 17 77 110 170 206 143 147 174
168 195 134 49 -76 118 -15 169 149 12 38 56 42 404 38 215 -2 395 -11 401
-21z m12189 -27 c35 -19 84 -54 108 -78 27 -26 63 -38 92 -29 52 17 62 -13 19
-56 -44 -44 -2 -82 92 -82 90 0 106 -20 56 -70 -44 -44 14 -100 62 -59 44 36
68 13 68 -63 0 -48 13 -58 78 -58 67 0 74 -5 46 -38 -39 -47 -13 -79 34 -41
26 22 47 14 92 -34 77 -82 193 -85 205 -6 7 56 12 57 439 61 409 4 433 2 458
-46 22 -41 43 -48 111 -35 69 13 89 6 112 -36 19 -36 43 -48 75 -37 32 10 56
-2 75 -39 18 -32 44 -47 66 -39 64 25 509 -444 509 -536 0 -55 12 -74 45 -74
55 0 105 -47 105 -97 0 -21 22 -61 48 -89 65 -70 76 -246 20 -308 -41 -45 -41
-50 9 -95 41 -38 49 -66 37 -135 -8 -49 -18 -117 -21 -151 -4 -48 -18 -61 -58
-55 -59 8 -123 -54 -98 -94 9 -14 32 -26 52 -26 51 0 45 -44 -8 -61 -61 -19
-62 -312 -1 -373 23 -22 48 -74 57 -115 9 -40 38 -119 65 -174 104 -215 51
-1005 -64 -961 -47 18 -80 -59 -41 -98 45 -45 33 -86 -47 -168 -41 -42 -75
-96 -75 -120 0 -59 -326 -373 -410 -394 -38 -10 -75 -33 -83 -53 -15 -41 -182
-122 -299 -145 -44 -9 -92 -31 -107 -50 -44 -53 -1072 -48 -1132 6 -24 21 -78
38 -119 36 -50 -1 -84 14 -101 47 -14 27 -52 48 -86 48 -33 0 -67 11 -75 25
-24 38 -103 30 -138 -13 -18 -21 -50 -32 -73 -25 -22 7 -81 -9 -130 -35 -115
-62 -836 -72 -914 -13 -25 19 -60 35 -78 35 -52 1 -527 491 -526 542 1 79 4
3189 2 3309 0 62 -3 186 -6 275 -5 182 20 369 53 390 12 7 22 30 22 52 0 71
254 311 294 278 27 -23 40 -21 57 7 12 19 58 36 102 36 92 0 128 58 50 79 -75
20 -65 51 22 70 41 9 79 24 85 34 20 32 700 9 768 -26z m-16158 -6668 c5 -16
64 -56 131 -90 67 -34 130 -76 141 -95 11 -18 40 -41 65 -50 24 -9 52 -36 61
-60 9 -25 77 -105 151 -178 74 -73 129 -148 122 -166 -7 -17 4 -63 24 -101 34
-66 63 -284 60 -446 -1 -40 10 -86 25 -103 27 -33 54 -281 50 -459 -1 -60 11
-125 27 -144 26 -32 47 -214 47 -419 0 -40 11 -86 25 -102 14 -17 31 -119 38
-227 8 -123 27 -211 51 -237 20 -23 37 -60 37 -82 0 -22 28 -71 62 -107 60
-65 69 -67 289 -56 204 9 230 6 253 -37 15 -28 40 -41 63 -32 43 16 458 -383
458 -441 0 -19 13 -48 29 -64 55 -55 66 -703 15 -805 -24 -48 -44 -95 -44
-106 0 -35 -419 -445 -455 -445 -19 0 -48 -13 -63 -28 -40 -40 -644 -39 -692
1 -64 53 -336 57 -363 5 -38 -70 -933 -64 -985 7 -20 28 -47 40 -65 29 -17
-11 -51 0 -78 24 -60 54 -162 56 -221 3 -24 -23 -61 -41 -81 -41 -20 0 -51
-14 -68 -31 -34 -33 -121 -41 -441 -40 -412 2 -523 29 -654 157 -29 28 -80 74
-114 102 -34 28 -83 84 -109 125 -26 41 -55 80 -64 87 -9 7 -20 35 -26 62 -6
33 -35 55 -84 63 l-74 13 -6 273 c-5 221 2 283 34 318 24 27 35 70 28 109 -8
39 2 80 24 102 26 25 32 62 22 117 -39 202 -39 228 -1 270 30 33 42 111 47
309 5 156 20 279 38 300 18 22 33 144 38 300 4 157 19 279 37 300 18 22 33
144 38 300 4 157 19 279 37 300 18 22 33 144 38 300 4 148 20 279 36 299 15
18 30 86 33 151 3 64 19 129 37 144 18 14 32 43 32 64 0 54 310 352 408 393
44 19 102 57 128 86 26 29 76 52 112 53 35 0 83 14 105 31 54 41 1178 36 1192
-5z m4754 -1 c28 -15 51 -39 51 -52 0 -13 20 -24 44 -24 24 0 76 -17 115 -38
95 -49 239 -25 416 68 l138 73 535 0 c422 0 540 -8 555 -34 10 -18 90 -66 178
-106 121 -56 174 -97 220 -173 88 -142 290 -340 348 -340 27 0 62 -24 78 -54
l29 -54 42 56 c38 50 46 52 76 16 24 -29 41 -32 65 -13 84 70 912 71 995 2 20
-16 68 -34 107 -39 88 -11 314 -128 341 -178 11 -20 36 -36 56 -36 19 0 57
-24 84 -53 27 -29 62 -44 78 -35 15 10 50 -2 77 -26 56 -51 157 -20 217 66 19
26 47 48 64 48 16 0 148 60 294 134 292 148 377 166 773 167 299 2 421 -12
459 -50 14 -14 51 -26 82 -26 32 0 155 -51 276 -112 228 -118 331 -138 383
-75 17 20 45 37 62 37 17 0 86 29 153 65 155 83 171 85 623 82 534 -4 615 0
654 32 54 44 340 63 533 34 133 -20 365 -127 385 -178 7 -19 31 -35 53 -35 22
0 96 -57 165 -126 106 -105 121 -132 95 -164 -41 -49 -7 -79 102 -89 74 -7 87
-17 82 -64 -4 -32 12 -66 38 -79 32 -17 45 -59 50 -156 4 -91 21 -148 55 -185
60 -63 64 -119 13 -162 -42 -35 -51 -139 -14 -162 15 -9 25 -417 25 -1054 1
-572 7 -1048 13 -1059 7 -10 -11 -39 -38 -63 -42 -39 -45 -51 -15 -85 39 -45
52 -227 15 -227 -13 0 -24 17 -24 38 0 40 -88 52 -111 14 -8 -13 10 -41 41
-62 l55 -39 -55 -75 c-135 -182 -365 -401 -408 -388 -26 9 -53 -3 -68 -31 -27
-48 -96 -56 -466 -54 -427 2 -491 8 -516 54 -31 55 -159 56 -259 2 -103 -55
-462 -77 -788 -49 -122 11 -325 100 -325 142 0 15 -22 20 -48 11 -34 -11 -57
0 -76 36 -35 65 -116 66 -151 1 -16 -30 -49 -47 -83 -45 -52 5 -430 -165 -454
-204 -17 -28 -995 -17 -1038 11 -98 65 -263 131 -295 119 -21 -8 -70 24 -119
78 -50 54 -98 85 -120 77 -22 -9 -63 20 -107 75 -49 61 -85 84 -115 75 -29
-10 -44 -1 -44 25 0 22 -21 39 -48 39 -26 0 -53 14 -59 31 -6 18 -20 22 -33 9
-13 -13 -9 -27 9 -33 17 -6 31 -27 31 -45 0 -19 18 -45 41 -57 49 -28 2 -67
-54 -46 -21 8 -48 -7 -62 -35 -15 -27 -48 -49 -74 -49 -26 0 -81 -34 -122 -75
-45 -44 -90 -69 -113 -61 -22 9 -48 -5 -64 -35 -18 -34 -51 -50 -101 -49 -41
2 -93 -13 -116 -32 -62 -51 -929 -56 -988 -6 -22 19 -73 39 -112 44 -40 5
-162 55 -272 112 -222 114 -243 118 -288 64 -18 -21 -52 -32 -77 -24 -30 10
-54 -3 -72 -37 -15 -28 -48 -51 -72 -51 -24 0 -58 -14 -75 -31 -27 -27 -139
-40 -404 -45 -188 -3 -318 22 -435 85 -138 74 -244 84 -290 28 -18 -21 -52
-32 -77 -24 -27 9 -54 -2 -68 -28 -26 -47 -538 -64 -608 -21 -203 128 -270
135 -437 45 -67 -36 -173 -70 -235 -75 -263 -23 -565 -4 -607 38 -15 15 -46
28 -69 28 -22 0 -94 61 -160 137 -65 75 -141 143 -168 152 -48 15 -48 17 -5
65 44 48 43 51 -17 97 -70 54 -124 63 -124 20 0 -16 -22 -9 -50 17 -49 44 -50
76 -50 1975 0 1641 5 1944 37 2015 58 135 381 432 513 473 62 19 135 57 163
85 47 49 75 51 580 47 326 -3 550 -16 581 -32z m-4777 -6712 c47 -6 97 -23
112 -38 14 -14 55 -26 90 -26 67 0 174 -60 208 -117 11 -18 36 -33 54 -33 54
0 546 -495 531 -534 -7 -19 4 -67 25 -107 54 -101 58 -148 54 -596 -4 -540 -8
-589 -55 -675 -51 -94 -53 -278 -3 -372 20 -39 37 -90 37 -113 0 -23 23 -83
50 -135 28 -51 50 -119 50 -152 0 -97 108 -193 196 -176 59 12 80 4 103 -37
17 -32 52 -53 90 -53 34 0 69 -17 77 -39 8 -21 34 -35 57 -31 50 8 302 -231
302 -286 0 -20 31 -69 68 -109 38 -40 70 -101 72 -135 4 -73 13 -643 11 -705
0 -24 -35 -78 -76 -120 -41 -42 -75 -96 -75 -119 0 -44 -244 -306 -285 -306
-36 0 -238 -101 -254 -127 -26 -43 -390 -27 -440 18 -25 23 -80 41 -121 39
-48 -1 -84 14 -99 43 -60 112 -327 168 -375 79 -17 -32 -51 -48 -100 -47 -41
2 -93 -13 -116 -32 -23 -19 -92 -38 -155 -42 -63 -4 -129 -19 -147 -34 -39
-33 -1461 -39 -1512 -7 -75 47 -208 110 -233 110 -45 0 -370 343 -353 372 27
43 -55 178 -98 162 -53 -20 -57 3802 -4 3834 19 11 66 74 105 141 64 112 237
302 390 429 33 27 105 61 160 75 97 24 1482 25 1659 1z m4978 -4 c62 -8 148
-30 191 -50 44 -19 96 -35 116 -35 21 0 70 -17 109 -37 111 -58 206 -45 397
52 l175 90 325 -3 c449 -5 502 -16 569 -121 11 -17 36 -31 55 -31 19 0 155
-118 303 -262 235 -229 274 -258 308 -229 60 52 1147 50 1207 -3 24 -20 74
-38 113 -41 38 -2 86 -14 107 -27 209 -134 405 -171 450 -87 19 35 43 47 75
37 31 -10 55 0 71 30 18 33 58 47 143 51 65 3 138 22 161 43 57 52 392 53 449
1 60 -54 381 -63 442 -12 56 47 720 48 767 1 15 -15 41 -27 59 -27 17 0 53
-24 80 -53 27 -29 62 -44 78 -35 16 11 60 -17 102 -65 69 -77 85 -82 238 -84
93 -1 171 10 181 25 25 41 372 210 391 191 10 -9 34 6 54 34 34 46 67 50 529
52 399 2 501 -4 535 -34 24 -20 75 -38 115 -40 40 -2 90 -18 111 -35 30 -26
43 -24 69 6 17 21 52 38 78 38 25 0 93 51 150 113 57 61 120 112 141 112 21 0
64 25 95 56 32 31 79 75 103 97 49 44 211 83 303 74 32 -3 74 8 95 25 44 36
351 36 396 -1 16 -13 69 -24 116 -22 90 2 398 -137 398 -180 0 -13 23 -24 51
-24 31 0 59 -24 74 -62 13 -35 41 -63 62 -63 29 0 35 -16 24 -61 -13 -51 -5
-65 47 -78 65 -16 167 -187 167 -279 0 -25 35 -112 77 -194 126 -246 144 -680
30 -724 -22 -9 -31 -31 -21 -55 8 -24 -4 -62 -29 -90 -40 -45 -45 -125 -52
-861 l-7 -812 78 -154 c126 -249 142 -446 54 -642 -61 -135 -80 -161 -233
-312 -42 -42 -121 -120 -176 -175 -66 -67 -124 -101 -173 -103 -40 -3 -92 -20
-115 -38 -60 -50 -556 -55 -611 -6 -22 19 -73 40 -112 45 -40 5 -128 38 -195
74 -67 36 -137 65 -155 65 -18 0 -46 23 -61 51 -18 34 -42 47 -72 37 -25 -8
-59 3 -77 24 -48 58 -113 46 -196 -37 -41 -41 -85 -75 -97 -75 -11 0 -111 -46
-220 -103 -110 -56 -250 -108 -312 -114 -62 -7 -128 -26 -148 -42 -53 -43
-479 -42 -531 2 -24 20 -106 38 -196 41 -117 4 -161 16 -179 49 -16 28 -42 39
-71 29 -32 -10 -56 2 -75 38 -19 36 -43 48 -75 38 -31 -10 -55 0 -71 30 -23
42 -104 51 -321 34 -16 -1 -61 -34 -101 -74 -44 -44 -98 -72 -139 -72 -37 0
-86 -15 -108 -33 -62 -52 -633 -55 -690 -5 -24 21 -77 39 -118 42 -41 2 -89
17 -106 34 -23 23 -38 23 -67 -1 -20 -17 -85 -31 -143 -31 -59 -1 -128 -18
-153 -39 -63 -53 -630 -52 -694 1 -60 50 -517 51 -576 2 -32 -27 -175 -36
-641 -40 -510 -5 -607 -12 -644 -46 -57 -52 -247 -53 -304 -2 -23 21 -75 43
-114 48 -40 6 -140 44 -222 87 -170 86 -199 91 -290 43 -36 -19 -105 -41 -154
-51 -49 -9 -101 -31 -115 -48 -37 -44 -556 -42 -610 3 -21 17 -74 36 -118 42
-44 5 -106 36 -139 68 -126 122 -155 145 -187 145 -51 0 -150 102 -150 153 0
25 -34 80 -75 122 -47 48 -75 103 -75 146 0 38 -12 81 -27 96 -18 18 -27 153
-24 379 3 387 -6 410 -158 393 -117 -13 -123 -36 -111 -400 9 -263 4 -346 -22
-368 -18 -15 -33 -41 -33 -58 0 -17 -22 -59 -49 -94 -27 -34 -43 -69 -35 -77
33 -32 -481 -511 -549 -511 -37 0 -85 -15 -108 -34 -57 -47 -575 -51 -613 -4
-15 17 -59 32 -98 32 -45 0 -99 27 -148 75 -42 41 -96 75 -119 75 -57 0 -231
174 -231 231 0 26 -26 71 -58 101 -148 140 -142 57 -142 2068 0 2051 -11 1913
174 2105 311 322 318 328 464 398 125 59 134 59 800 53 371 -3 725 -13 787
-21z m-5062 -6594 c41 -6 108 -29 150 -51 41 -22 92 -40 114 -40 132 0 254
-102 742 -612 66 -70 206 -359 206 -427 0 -31 18 -63 40 -71 34 -13 38 -46 25
-221 -8 -114 -14 -223 -13 -244 1 -21 7 -155 14 -299 11 -225 7 -266 -29 -292
-23 -17 -34 -44 -24 -59 9 -16 -7 -51 -36 -78 -29 -28 -46 -62 -36 -77 9 -15
-10 -46 -41 -70 l-58 -44 53 -28 c33 -18 48 -43 38 -67 -8 -22 6 -54 33 -75
45 -35 45 -37 0 -72 -49 -38 -36 -89 22 -89 19 0 46 20 59 44 37 65 66 -23 30
-90 -44 -83 -34 -137 23 -122 34 9 59 -3 77 -35 22 -43 43 -46 184 -32 147 15
161 12 188 -39 18 -33 44 -49 67 -41 42 17 459 -389 459 -446 0 -19 28 -60 62
-93 60 -57 62 -68 63 -413 0 -345 -2 -357 -62 -423 -35 -37 -63 -85 -63 -107
0 -50 -324 -378 -374 -379 -21 0 -60 -17 -87 -37 -27 -20 -79 -37 -116 -37
-37 0 -81 -17 -98 -37 -42 -51 -245 -50 -301 0 -23 21 -80 43 -126 49 -47 6
-97 28 -113 50 -16 21 -45 32 -66 25 -23 -9 -63 16 -105 66 -58 68 -87 82
-191 87 -68 3 -123 -3 -123 -15 0 -39 -403 -225 -487 -225 -45 0 -96 -17 -113
-37 -17 -21 -56 -38 -87 -38 -32 0 -71 -17 -88 -37 -52 -63 -490 -54 -524 10
-40 76 -193 117 -248 67 -59 -54 -96 -50 -129 11 -18 34 -42 47 -72 37 -25 -8
-59 3 -77 24 -17 21 -46 38 -65 38 -18 0 -68 34 -110 75 -42 41 -96 75 -119
75 -57 0 -381 325 -381 382 0 25 -27 70 -59 100 -32 31 -89 118 -125 195 -36
76 -74 148 -84 158 -25 25 -25 2 -25 1490 0 1593 -4 1473 50 1504 28 15 40 42
31 69 -8 25 3 59 24 77 21 17 38 47 38 67 0 20 34 71 75 112 41 41 75 93 75
116 0 45 170 230 212 230 31 0 119 62 198 139 79 79 512 286 600 288 43 1 97
9 120 19 46 18 656 14 783 -5z m5175 -1 c41 -6 108 -28 150 -50 41 -22 92 -40
114 -40 59 0 202 -75 270 -142 33 -32 79 -58 103 -58 24 0 57 -16 73 -35 48
-58 120 -62 213 -12 49 26 115 47 146 47 32 0 71 13 86 28 37 37 653 36 690
-1 15 -15 58 -27 97 -27 75 0 136 -47 382 -294 85 -86 173 -156 194 -156 21 0
51 -16 67 -35 44 -53 117 -63 188 -26 35 18 117 41 183 50 65 10 132 28 148
41 42 33 801 32 842 -2 18 -15 73 -25 122 -23 50 1 119 -16 154 -39 35 -22 89
-41 121 -41 32 0 84 -18 115 -40 102 -71 337 -61 501 22 137 70 151 72 525 72
238 -1 395 -11 411 -27 36 -36 250 -34 286 2 84 84 372 9 544 -141 72 -63 73
-66 26 -102 -39 -29 -43 -42 -17 -67 25 -25 36 -23 56 12 30 53 72 58 72 8 0
-20 23 -43 50 -51 28 -9 50 -26 50 -39 0 -12 21 -42 47 -67 65 -62 81 -182 81
-606 0 -508 -44 -670 -203 -751 -91 -47 -173 -160 -140 -194 10 -10 30 2 43
25 14 24 38 44 54 44 17 -1 -29 -57 -101 -125 -72 -68 -131 -146 -131 -172 0
-26 -18 -55 -40 -63 -35 -13 -39 -89 -32 -664 4 -357 -1 -657 -11 -667 -9 -10
-45 -76 -78 -146 -38 -81 -149 -218 -295 -367 -220 -224 -239 -238 -343 -242
-60 -2 -128 -21 -151 -41 -63 -57 -467 -53 -531 5 -29 26 -89 43 -155 44 -58
0 -123 15 -144 32 -31 26 -44 25 -65 -1 -15 -17 -80 -34 -145 -37 -65 -3 -137
-22 -160 -43 -60 -55 -630 -55 -675 0 -37 45 -178 49 -220 7 -17 -17 -99 -33
-183 -36 -96 -4 -168 -20 -195 -45 -51 -45 -106 -50 -144 -12 -15 15 -74 32
-133 39 -58 6 -146 34 -196 60 -50 27 -109 43 -131 36 -23 -7 -55 4 -73 25
-38 46 -109 49 -145 6 -15 -18 -80 -34 -145 -37 -65 -3 -137 -22 -160 -43 -59
-54 -392 -53 -452 1 -27 25 -99 41 -195 45 -115 4 -160 17 -186 52 -19 26 -47
39 -63 29 -17 -11 -62 14 -106 58 -42 43 -94 77 -114 77 -21 0 -55 17 -76 39
-35 35 -43 35 -82 -1 -24 -22 -61 -32 -83 -24 -25 9 -50 -5 -68 -38 -19 -36
-43 -49 -75 -39 -27 9 -55 1 -67 -20 -39 -66 -208 -128 -280 -102 -82 29 -184
16 -171 -23 5 -16 34 -33 64 -37 30 -5 54 -20 54 -35 0 -26 -157 -16 -308 20
-64 15 -70 11 -63 -43 l9 -59 -313 -4 c-256 -4 -321 3 -358 36 -28 25 -84 39
-148 36 -127 -5 -161 14 -102 57 42 30 40 35 -26 65 -63 28 -75 27 -104 -12
-20 -28 -38 -34 -49 -17 -9 14 -35 26 -59 26 -24 0 -95 56 -159 125 -64 69
-137 125 -161 125 -51 0 -259 194 -259 241 0 18 20 43 44 58 62 37 -18 99
-107 82 -68 -13 -86 29 -22 54 55 21 31 73 -42 90 -86 21 -104 128 -115 697
-9 427 -5 490 32 531 23 25 51 40 63 33 43 -27 118 37 104 89 -7 27 -3 50 9
50 62 1 89 44 61 97 -25 46 -22 53 22 53 61 0 72 94 14 116 -21 8 -38 33 -38
56 0 22 -29 73 -65 112 -49 52 -59 77 -38 98 44 44 33 93 -22 93 -28 0 -50
-17 -50 -37 0 -21 -11 -38 -24 -38 -14 0 -23 40 -21 88 2 49 -10 102 -26 118
-38 38 -41 1047 -3 1085 14 14 30 63 36 109 6 46 28 94 49 106 27 15 34 41 24
83 -9 37 -5 61 12 61 16 0 28 -11 28 -25 0 -14 22 -25 50 -25 72 0 98 121 36
167 -45 32 -44 35 9 72 30 21 55 55 55 75 0 20 17 36 38 36 20 0 37 -10 37
-22 0 -13 -17 -29 -37 -37 -44 -17 -50 -80 -11 -105 29 -17 173 129 173 177 0
97 422 358 688 425 95 23 817 25 975 2z m-5276 -6715 c18 -14 64 -25 104 -24
207 7 682 -169 719 -265 7 -20 34 -36 58 -36 60 0 392 -338 369 -375 -9 -16 6
-51 35 -78 35 -32 53 -80 53 -138 0 -51 21 -116 50 -152 27 -34 43 -74 35 -87
-8 -13 3 -43 25 -67 27 -30 39 -86 37 -168 -13 -502 5 -1533 27 -1547 14 -9
26 -42 26 -74 0 -100 57 -123 262 -105 172 14 189 11 214 -36 18 -33 42 -46
67 -37 65 25 164 -83 118 -128 -59 -60 -42 -83 63 -83 54 0 105 -11 114 -25 8
-14 -3 -25 -24 -25 -23 0 -39 -22 -39 -53 0 -46 11 -52 81 -41 129 20 208 -34
94 -63 -60 -16 -66 -88 -9 -110 22 -9 62 -3 87 13 62 39 65 -14 3 -62 -38 -30
-39 -38 -6 -65 31 -26 36 -96 32 -381 -4 -193 -7 -359 -7 -369 0 -11 -15 -19
-33 -19 -39 0 -128 -93 -150 -157 -9 -24 -44 -55 -79 -68 -48 -18 -63 -42 -63
-99 0 -85 -6 -88 -80 -48 -45 24 -63 15 -135 -63 -59 -64 -103 -90 -156 -90
-40 0 -87 -17 -104 -37 -39 -48 -97 -48 -148 -2 -22 19 -87 40 -145 45 -59 6
-115 19 -125 29 -11 11 -56 35 -101 53 -44 19 -81 45 -81 58 0 12 -57 30 -127
39 -70 10 -150 31 -177 47 -40 25 -55 23 -82 -13 -17 -24 -43 -44 -57 -44 -14
0 -40 -17 -57 -37 -17 -21 -69 -38 -116 -38 -51 0 -104 -20 -134 -50 -62 -62
-114 -64 -149 -6 -25 41 -28 41 -60 0 -19 -24 -57 -44 -84 -44 -28 0 -65 -17
-82 -37 -26 -32 -133 -38 -674 -38 -617 0 -645 2 -690 51 -30 34 -65 47 -100
38 -29 -7 -74 3 -101 23 -26 20 -62 37 -81 37 -18 1 -145 114 -282 253 l-249
251 1 1913 c1 1839 4 1985 51 2097 11 27 27 70 35 95 10 31 30 41 63 30 33
-10 53 -1 63 30 8 24 43 67 79 95 35 27 89 73 118 101 75 71 257 161 325 161
31 0 68 10 81 23 37 36 114 40 707 34 349 -3 571 -15 591 -32z m5472 1 c14
-14 51 -26 81 -26 69 0 310 -118 310 -152 0 -13 28 -37 63 -53 38 -17 62 -49
62 -81 0 -29 21 -71 47 -93 26 -22 53 -56 60 -74 9 -27 21 -23 49 13 42 54 94
35 94 -35 0 -26 11 -54 25 -62 14 -9 25 -35 26 -58 2 -134 315 -240 375 -128
17 31 43 45 69 37 23 -7 73 3 111 22 38 20 122 44 188 53 65 10 134 30 154 45
60 48 556 45 610 -4 27 -24 90 -41 153 -42 58 0 123 -14 144 -32 73 -60 188
-66 217 -11 18 32 44 46 74 38 31 -8 66 12 103 59 31 40 87 76 132 83 83 14
155 98 100 118 -53 19 -34 57 28 57 33 0 74 17 91 38 17 20 50 37 73 37 23 0
54 12 70 28 35 35 784 35 849 0 25 -13 67 -31 93 -39 46 -15 46 -17 3 -48 -73
-53 -22 -95 106 -87 98 6 116 -1 134 -49 11 -30 33 -55 49 -55 21 0 21 -10 -1
-36 -34 -41 -15 -89 34 -89 18 0 53 -23 78 -51 36 -39 64 -47 121 -35 59 13
83 5 117 -40 l43 -57 29 55 c25 45 44 52 113 39 66 -12 89 -6 110 30 19 34 55
47 138 47 69 1 130 17 158 42 57 52 472 57 533 7 21 -17 91 -39 156 -48 66 -9
150 -33 188 -53 38 -19 88 -29 111 -22 26 8 52 -6 70 -39 19 -36 43 -48 75
-37 31 9 56 -2 72 -33 46 -86 249 -68 336 28 58 66 89 80 178 80 59 1 128 17
152 38 66 54 557 55 621 1 63 -53 365 -55 428 -2 69 57 284 54 316 -5 16 -31
41 -42 72 -33 30 10 55 -1 71 -29 38 -67 272 -68 307 -2 21 39 43 46 110 33
64 -12 89 -6 108 28 18 33 62 45 178 49 85 3 172 20 194 39 63 52 556 52 615
0 27 -25 90 -41 155 -42 79 0 120 -14 145 -49 35 -47 36 -47 66 8 18 35 44 51
67 43 45 -18 153 93 164 168 6 40 23 53 64 49 31 -4 56 4 56 17 0 12 35 55 77
93 42 39 101 94 131 122 77 73 257 161 329 161 33 0 67 11 76 25 20 34 380 32
401 -2 9 -14 46 -24 82 -21 189 16 275 -28 503 -258 65 -66 136 -119 158 -119
21 0 67 -34 102 -75 34 -41 85 -75 111 -75 27 0 63 -17 81 -38 28 -34 36 -34
75 1 29 27 65 34 111 22 57 -14 79 -2 143 75 50 62 89 87 118 78 30 -9 87 35
190 149 81 90 162 163 181 163 18 0 61 19 96 41 35 23 104 40 154 39 49 -2
105 9 124 25 45 37 344 37 389 0 19 -16 73 -28 120 -26 165 5 523 -254 523
-379 0 -25 51 -88 113 -139 l112 -92 0 -1943 c0 -1878 -2 -1945 -48 -1986 -32
-30 -52 -35 -64 -15 -22 35 -88 -15 -88 -66 0 -20 -39 -75 -87 -123 -49 -48
-88 -99 -88 -112 0 -13 -22 -24 -48 -24 -74 0 -127 -27 -127 -65 0 -21 27 -35
69 -35 53 -1 60 -6 31 -25 -21 -13 -73 -24 -116 -25 -43 0 -92 -17 -109 -38
-17 -20 -62 -37 -100 -37 -38 0 -83 -17 -100 -37 -24 -30 -92 -38 -300 -38
-260 0 -271 2 -310 63 -54 82 -151 82 -205 -1 -32 -48 -62 -63 -132 -62 -170
2 -640 9 -737 11 -74 1 -109 18 -153 73 -38 48 -83 73 -138 78 -45 3 -92 25
-105 47 -12 23 -32 41 -43 41 -30 0 -152 -119 -152 -149 0 -33 -92 -34 -112
-1 -26 41 -163 30 -163 -12 0 -21 17 -38 38 -38 20 0 37 -11 37 -25 0 -15
-117 -25 -300 -25 -274 0 -378 24 -250 57 28 7 50 26 50 41 0 34 -167 36 -188
2 -23 -38 -62 -5 -62 51 0 38 -17 49 -74 49 -40 0 -80 12 -89 26 -9 14 -36 20
-61 12 -24 -8 -58 3 -76 25 -29 34 -37 34 -77 -2 -25 -23 -57 -34 -71 -25 -37
23 -199 -58 -229 -115 -21 -38 -43 -45 -109 -32 -66 12 -89 6 -109 -29 -20
-35 -61 -47 -180 -51 -99 -4 -171 -20 -198 -45 -60 -54 -393 -55 -453 -1 -24
22 -92 40 -159 41 -122 2 -169 30 -98 57 34 13 35 21 9 46 -25 24 -35 24 -44
-1 -17 -47 -94 -37 -145 20 -26 28 -61 45 -79 38 -17 -6 -40 2 -51 19 -18 29
-69 67 -229 173 -36 24 -83 38 -104 31 -23 -7 -70 20 -111 63 -97 100 -148 95
-268 -30 -97 -101 -102 -103 -136 -56 -46 62 -91 6 -71 -90 17 -79 -120 -231
-146 -163 -23 59 -87 47 -192 -36 -86 -68 -112 -75 -282 -75 -136 0 -195 10
-218 38 -17 20 -61 37 -97 37 -67 0 -148 45 -231 128 -65 65 -389 58 -425 -9
-17 -30 -41 -41 -72 -31 -32 10 -56 -2 -74 -37 -18 -32 -53 -51 -96 -51 -38 0
-91 -15 -118 -34 -28 -19 -114 -35 -195 -36 -97 -1 -161 -14 -190 -40 -55 -51
-247 -53 -301 -3 -28 25 -103 38 -228 40 -186 4 -298 49 -298 121 0 15 -28 27
-63 27 -35 0 -70 17 -78 38 -8 20 -45 37 -83 37 -48 0 -76 18 -96 63 -16 34
-46 62 -67 62 -46 0 -51 -66 -7 -82 17 -6 24 -19 15 -29 -9 -10 -39 -3 -67 14
-80 50 -185 -8 -175 -97 8 -67 6 -68 -116 -63 -69 3 -180 12 -247 21 -135 18
-222 -24 -109 -52 36 -9 76 -10 89 -2 34 21 107 -10 90 -38 -24 -38 -252 -26
-286 16 -18 21 -72 37 -128 37 -54 0 -120 14 -147 31 -39 24 -61 24 -98 1 -38
-24 -54 -22 -78 7 -17 20 -45 36 -64 36 -18 0 -55 24 -82 53 -27 29 -61 45
-76 36 -15 -10 -62 17 -104 59 -84 84 -150 97 -198 40 -38 -46 -75 -27 -75 38
0 27 -10 49 -22 49 -27 0 -53 -62 -53 -126 0 -46 -90 -149 -130 -149 -11 0
-20 23 -20 50 0 28 -11 50 -24 50 -33 0 -63 -54 -63 -112 0 -40 -19 -51 -84
-55 -45 -2 -103 -22 -128 -44 -26 -24 -91 -42 -160 -43 -64 -1 -128 -17 -144
-37 -42 -50 -479 -48 -522 3 -16 20 -54 38 -84 38 -260 6 -355 47 -371 159
-11 80 -81 67 -91 -17 -7 -63 -11 -67 -39 -29 -17 23 -68 45 -114 49 -45 3
-93 25 -106 47 -46 82 -120 33 -120 -80 0 -35 -28 -43 -152 -46 -99 -2 -166
-17 -195 -43 -84 -76 -395 -54 -514 36 -64 48 -127 74 -183 74 -48 0 -114 22
-149 50 -76 59 -128 64 -148 13 -8 -21 -39 -38 -69 -38 -29 0 -76 -15 -103
-34 -27 -19 -91 -41 -141 -51 -50 -9 -105 -33 -122 -53 -42 -52 -391 -52 -448
0 -23 20 -93 40 -157 44 -64 5 -124 16 -134 26 -10 10 -38 18 -61 18 -24 0
-57 17 -74 38 -25 30 -24 37 3 37 19 1 51 12 72 25 44 29 -4 74 -79 75 -58 0
-190 137 -234 243 -29 70 -48 85 -88 74 -35 -9 -56 1 -65 29 -7 23 -23 61 -36
85 -13 24 -23 158 -23 298 0 228 4 250 36 207 28 -38 42 -42 66 -18 25 24 23
34 -10 46 -51 20 -53 82 -4 147 46 61 48 149 4 186 -38 31 -54 243 -20 264 13
7 29 -3 37 -24 19 -48 66 -48 66 1 0 20 -10 37 -21 37 -35 0 -14 571 23 615
20 24 34 124 36 261 3 139 17 237 37 262 22 26 33 134 36 335 2 213 13 308 38
338 23 28 36 117 39 265 3 131 17 238 35 259 17 20 33 105 36 188 3 83 19 165
36 182 16 16 30 48 30 70 0 22 45 84 100 138 55 53 100 84 100 67 0 -16 17
-30 38 -30 20 0 37 17 37 38 0 20 -12 37 -26 37 -15 0 -20 11 -11 25 8 14 33
25 55 25 39 0 67 21 195 146 40 39 99 63 180 71 66 7 131 22 145 33 57 46 950
47 996 1z m5437 -8586 c45 -7 97 -24 116 -39 18 -15 65 -33 104 -39 168 -26
339 -112 223 -112 -52 0 -76 -52 -36 -77 19 -12 58 -22 88 -23 29 0 67 -17 84
-37 41 -50 123 -49 142 1 11 31 38 14 123 -75 59 -63 128 -114 153 -115 24 0
89 -45 144 -100 96 -95 98 -101 72 -197 l-26 -100 90 5 c75 5 91 -3 97 -50 24
-166 391 -401 452 -288 22 42 61 45 493 39 281 -4 479 -17 494 -32 14 -14 52
-26 83 -26 32 0 58 -11 58 -25 0 -14 -17 -25 -37 -25 -21 0 -38 -22 -38 -50 0
-33 17 -50 50 -50 28 0 50 11 50 25 0 51 45 23 60 -37 18 -72 52 -82 76 -22
14 37 21 36 66 -13 28 -30 63 -47 78 -37 15 9 46 -10 70 -41 l44 -58 28 53
c18 33 43 48 68 38 25 -10 78 29 158 114 80 88 132 125 159 114 24 -9 49 3 64
31 37 69 1384 70 1435 1 27 -38 52 -41 169 -24 l138 20 0 240 c0 228 3 243 68
309 38 38 69 83 69 101 0 61 412 464 443 433 33 -33 82 -8 82 42 0 33 31 47
82 39 11 -2 52 13 93 34 82 43 264 51 288 13 8 -14 52 -25 98 -25 46 0 97 -17
114 -37 17 -21 50 -38 72 -38 65 0 119 -102 68 -130 -22 -12 -40 -32 -40 -45
0 -38 101 -56 139 -24 29 24 36 22 36 -10 0 -24 21 -41 50 -41 27 0 50 -11 50
-25 0 -14 -11 -25 -25 -25 -14 0 -25 -28 -25 -62 0 -82 40 -81 61 2 14 54 22
59 54 33 51 -43 136 -219 149 -309 5 -40 21 -84 35 -98 41 -41 33 -384 -9
-409 -25 -14 -31 -54 -22 -151 15 -151 48 -165 132 -56 32 41 79 75 105 75 26
0 74 29 107 64 40 44 95 69 166 77 58 7 135 27 170 45 67 34 217 25 241 -14
20 -32 1070 -28 1103 5 32 32 829 34 958 3 114 -28 250 -100 250 -131 0 -13
14 -24 32 -24 41 0 343 -284 343 -323 0 -16 16 -54 36 -84 92 -143 23 -588
-106 -683 -21 -15 -31 -39 -22 -53 8 -13 -1 -46 -21 -72 -19 -26 -36 -67 -36
-90 -1 -24 -24 -56 -52 -71 -33 -17 -46 -43 -37 -71 8 -27 -10 -66 -49 -103
l-63 -59 0 55 c0 79 -71 67 -89 -15 -8 -38 -25 -89 -39 -115 -31 -56 -8 -87
33 -46 56 56 75 30 66 -86 -10 -126 -26 -102 245 -365 133 -129 209 -221 209
-253 0 -17 12 -43 27 -58 38 -38 38 -953 0 -991 -15 -15 -27 -42 -27 -61 0
-45 -411 -456 -456 -456 -19 0 -47 -13 -62 -28 -20 -20 -419 -30 -1393 -35
-1329 -6 -1366 -5 -1391 42 -17 32 -42 43 -73 34 -32 -11 -56 1 -74 36 -33 60
-87 64 -185 13 -39 -20 -93 -37 -118 -37 -25 0 -57 -21 -71 -46 -33 -63 -1377
-77 -1428 -15 -17 20 -45 36 -64 36 -18 0 -54 23 -80 51 -27 29 -64 44 -86 35
-26 -9 -64 16 -110 75 -107 133 -193 124 -332 -36 -59 -69 -127 -125 -150
-125 -23 0 -55 -13 -72 -30 -51 -51 -452 -45 -551 7 -46 25 -100 38 -120 31
-20 -8 -57 6 -84 29 -79 72 -264 81 -299 15 -20 -38 -44 -50 -76 -39 -32 10
-56 -2 -75 -39 -18 -33 -43 -47 -68 -38 -21 8 -76 -7 -121 -34 -68 -40 -85
-42 -96 -13 -21 56 -198 46 -252 -14 -54 -59 -183 -67 -204 -12 -17 43 -115
49 -186 11 -39 -21 -63 -15 -115 25 -35 28 -85 51 -110 51 -25 0 -52 11 -60
25 -9 14 -50 25 -91 25 -51 0 -101 25 -151 75 -41 41 -92 75 -113 75 -49 0
-303 270 -323 342 -9 36 -38 58 -81 63 -48 5 -82 37 -129 120 -61 109 -229
300 -264 300 -9 0 -62 -51 -116 -113 -55 -61 -115 -112 -133 -112 -62 0 -162
-57 -162 -92 0 -19 -28 -47 -62 -63 -76 -34 -80 -61 -13 -82 28 -9 50 -25 50
-36 0 -37 -97 -107 -125 -90 -15 10 -88 -46 -168 -129 -160 -166 -198 -285
-106 -333 35 -19 47 -43 37 -75 -10 -31 0 -55 30 -71 33 -18 47 -58 51 -144 5
-114 -1 -126 -120 -241 -69 -66 -120 -130 -113 -141 26 -43 -235 -290 -312
-293 -41 -2 -91 -18 -112 -36 -53 -43 -571 -43 -624 0 -21 18 -71 34 -112 36
-41 2 -88 17 -105 34 -17 17 -46 31 -65 31 -19 0 -69 34 -110 75 -41 41 -91
75 -110 75 -46 0 -617 570 -599 599 23 37 -42 151 -86 151 -23 0 -105 67 -182
150 -78 82 -158 150 -179 150 -21 0 -73 34 -115 75 -42 41 -96 75 -120 75 -55
0 -297 245 -309 311 -5 28 -36 56 -71 64 -39 9 -65 35 -70 70 -5 30 -41 88
-82 128 -40 40 -73 82 -73 94 0 27 -164 353 -199 394 -15 18 -20 50 -12 70 7
21 -2 44 -21 51 -23 9 -42 73 -53 183 -10 94 -29 184 -43 201 -39 48 -34 1402
6 1450 17 21 33 105 35 189 2 111 14 157 44 174 23 12 58 76 77 141 50 162
110 298 141 317 14 9 25 37 25 62 0 28 24 52 63 61 36 9 77 46 93 84 17 38 56
93 87 124 31 30 57 73 57 96 0 46 253 311 298 311 39 0 333 202 373 257 26 36
41 39 69 16 27 -22 43 -22 71 0 27 23 47 23 86 -2 63 -39 106 -3 47 40 -56 41
-31 64 68 64 43 0 90 12 104 26 15 15 64 31 109 37 45 6 85 14 89 17 11 12
1190 -3 1282 -15z"/>
<path d="M7550 42563 c0 -21 -16 -38 -36 -38 -50 0 -75 -49 -43 -81 34 -34
167 89 142 130 -24 39 -63 32 -63 -11z"/>
<path d="M3613 42076 c-270 -74 -426 -171 -575 -356 -71 -87 -138 -216 -138
-266 -1 -23 -17 -86 -37 -141 -57 -160 -54 -2342 3 -2522 167 -521 344 -694
743 -731 175 -15 193 -22 204 -76 7 -32 18 -87 25 -121 24 -118 148 -227 292
-258 200 -43 1195 -62 1197 -23 9 193 4 463 -10 485 -12 20 -108 24 -311 15
l-293 -13 -44 76 c-39 67 -59 155 -35 155 52 0 363 137 410 180 203 188 231
382 230 1587 -2 1284 -45 1515 -330 1771 -285 256 -882 363 -1331 238z m587
-681 c46 -55 48 -112 49 -1346 1 -1416 5 -1378 -151 -1412 -98 -21 -214 26
-233 96 -8 30 -14 632 -15 1337 l0 1282 64 65 c79 78 211 68 286 -22z"/>
<path d="M7485 42052 c-22 -23 -8 -127 27 -194 338 -649 451 -2129 223 -2917
-19 -67 -35 -138 -35 -158 0 -47 -145 -475 -190 -563 -84 -163 -71 -170 299
-170 338 0 416 22 416 116 0 14 31 86 69 161 71 138 211 465 268 623 17 48 45
127 62 175 17 48 40 133 51 188 11 55 32 139 46 187 86 299 47 1022 -75 1388
-14 41 -35 108 -46 150 -49 177 -100 302 -261 637 -63 131 -114 250 -114 265
0 81 -88 106 -408 114 -177 5 -326 4 -332 -2z"/>
<path d="M6655 41973 c-266 -312 -508 -463 -880 -548 -76 -17 -152 -43 -169
-56 -41 -33 -43 -434 -3 -459 16 -9 143 -18 283 -20 311 -3 373 -33 400 -195
9 -59 15 -676 12 -1370 l-6 -1262 479 -4 c264 -2 479 4 479 12 0 9 1 905 2
1992 l1 1975 -266 7 -265 7 -67 -79z"/>
<path d="M8942 38559 c-25 -26 -21 -109 7 -109 12 0 30 11 38 25 20 31 -21
108 -45 84z"/>
<path d="M40700 42489 c0 -20 10 -42 22 -50 28 -17 84 47 61 70 -30 29 -83 17
-83 -20z"/>
<path d="M39588 42076 c-331 -94 -487 -212 -608 -461 -74 -152 -82 -190 -97
-502 -13 -281 -10 -338 19 -340 38 -2 863 -1 917 1 26 1 29 65 16 299 -20 342
2 430 117 478 85 35 208 -2 236 -72 10 -23 15 -334 13 -691 -4 -625 -6 -653
-57 -707 -87 -93 -293 -48 -294 64 -1 98 -28 104 -489 111 l-448 6 0 -547 0
-548 450 2 450 1 -7 183 c-10 266 0 276 139 140 313 -309 879 -235 1068 139
126 252 137 331 137 1023 -1 672 -26 881 -120 975 -17 17 -30 43 -30 58 0 51
-223 257 -332 307 -291 134 -765 170 -1080 81z"/>
<path d="M36274 42031 c-1 -10 -1 -896 0 -1968 1 -1073 1 -1962 1 -1977 0 -18
162 -27 488 -28 340 -1 487 7 488 27 0 15 -2 568 -4 1228 -6 1492 -12 1354 58
1412 74 62 99 62 180 -2 l66 -53 -1 -1279 c-1 -703 -1 -1291 -1 -1307 1 -19
144 -27 492 -25 l491 4 -4 1387 c-5 1498 -4 1477 -142 1701 -117 189 -217 237
-498 236 -296 0 -429 -63 -575 -274 -75 -109 -89 -15 -65 450 13 247 18 457
11 468 -15 25 -984 25 -985 0z"/>
<path d="M28786 41898 c-9 -15 -7 -37 5 -49 30 -30 95 13 73 48 -22 36 -56 36
-78 1z"/>
<path d="M34795 41822 c-14 -9 -21 -117 -16 -262 l9 -247 -88 -13 -87 -12 8
-225 c11 -259 12 -263 90 -263 98 0 106 -41 87 -462 -36 -793 -27 -1698 19
-1870 88 -328 200 -384 796 -396 l450 -9 0 262 0 263 -119 7 c-71 5 -119 20
-119 38 -2 89 -3 2110 -1 2139 1 26 25 31 98 19 134 -22 152 10 150 261 -3
250 -16 272 -148 255 -73 -10 -100 -5 -102 21 -2 19 -5 140 -7 268 l-2 233
-497 4 c-273 3 -507 -2 -521 -11z"/>
<path d="M28800 41378 c-276 -45 -608 -290 -716 -528 -93 -203 -109 -381 -107
-1177 1 -750 19 -959 92 -1090 17 -30 31 -68 31 -85 0 -107 319 -369 563 -462
181 -69 769 -69 950 0 322 125 541 373 597 677 33 180 59 599 39 637 -16 31
-94 37 -478 35 l-458 -2 -7 -359 c-8 -410 -24 -449 -182 -449 -147 0 -152 17
-154 567 l-2 496 655 6 656 7 -18 406 c-19 453 -53 655 -134 815 -63 123 -239
323 -314 356 -28 12 -67 31 -88 43 -182 101 -220 110 -512 118 -165 4 -351 -1
-413 -11z m445 -597 c43 -37 52 -83 62 -310 14 -309 8 -321 -168 -321 -192 1
-192 2 -178 314 14 296 46 361 177 361 31 0 79 -20 107 -44z"/>
<path d="M31175 41377 c-296 -53 -525 -205 -623 -413 -82 -175 -138 -818 -76
-880 33 -33 824 -13 868 22 23 19 30 117 25 369 -7 382 16 450 156 450 142 0
175 -80 175 -431 0 -313 -1 -316 -71 -386 -99 -99 -483 -276 -816 -377 -66
-20 -238 -145 -276 -200 -85 -125 -121 -764 -60 -1061 33 -161 146 -338 270
-421 81 -55 117 -61 341 -61 271 -1 342 24 504 171 87 79 133 71 133 -23 0
-34 8 -62 19 -63 190 -21 931 -13 932 10 0 16 0 603 -1 1305 0 1300 -9 1435
-102 1587 -13 21 -33 61 -46 90 -25 56 -276 235 -331 235 -19 0 -67 18 -107
39 -86 45 -727 71 -914 38z m529 -2247 c-8 -423 -11 -445 -66 -502 -48 -49
-73 -57 -146 -43 -123 23 -153 123 -135 438 16 292 34 341 179 492 168 176
178 152 168 -385z"/>
<path d="M34313 41348 c-112 -59 -254 -204 -278 -283 -22 -72 -85 -140 -130
-140 -37 0 -33 109 10 303 10 45 3 69 -23 79 -50 20 -890 29 -908 10 -8 -7
-13 -743 -12 -1634 l1 -1620 492 0 491 0 -4 942 c-4 870 -1 948 40 1012 103
158 156 186 383 206 l163 15 -10 451 c-6 295 0 470 18 503 16 30 19 80 7 123
-24 93 -106 105 -240 33z"/>
<path d="M38909 38836 c-6 -14 -7 -194 -3 -400 l7 -373 462 0 463 0 1 382 c1
238 -8 389 -24 399 -45 28 -895 21 -906 -8z"/>
<path d="M11375 42563 c0 -29 18 -39 56 -33 31 4 57 19 57 33 0 13 -26 28 -57
32 -38 6 -56 -4 -56 -32z"/>
<path d="M12500 42548 c0 -61 58 -52 71 10 4 25 -8 42 -32 42 -23 0 -39 -21
-39 -52z"/>
<path d="M13250 42550 c0 -38 13 -51 44 -45 24 4 44 25 44 45 0 20 -20 41 -44
45 -31 6 -44 -7 -44 -45z"/>
<path d="M15517 42584 c-26 -26 7 -59 59 -59 27 0 49 17 49 38 0 37 -77 52
-108 21z"/>
<path d="M10860 42052 c-22 -22 -8 -223 27 -390 20 -96 37 -231 38 -299 0 -69
17 -214 38 -321 20 -108 37 -243 36 -300 0 -58 17 -217 37 -354 42 -286 83
-624 114 -950 12 -124 34 -293 48 -375 15 -83 27 -209 27 -281 0 -71 11 -184
25 -250 13 -66 29 -198 36 -294 6 -97 12 -176 13 -176 0 -1 302 -1 670 0 l669
1 15 237 c9 131 28 288 43 350 15 62 28 180 29 263 0 82 11 189 24 237 24 85
62 461 98 956 37 498 137 337 178 -284 15 -225 37 -460 50 -522 12 -62 23
-180 24 -262 1 -83 18 -246 39 -363 20 -117 37 -300 37 -406 0 -107 8 -195 19
-197 10 -2 312 -5 671 -7 l652 -4 31 276 c17 151 41 388 52 526 12 137 28 267
36 288 8 21 26 161 39 312 25 296 61 615 103 910 15 102 36 298 47 437 30 358
71 695 113 931 63 346 115 311 -457 303 l-493 -6 -29 -250 c-16 -138 -31 -346
-32 -463 -2 -117 -15 -291 -28 -387 -13 -97 -35 -378 -49 -625 -60 -1098 -56
-1063 -112 -1063 -40 0 -54 68 -74 363 -24 376 -62 849 -87 1100 -14 137 -43
424 -65 637 -21 213 -42 455 -44 538 l-5 150 -557 6 -556 7 0 -196 c0 -108
-11 -257 -25 -332 -14 -74 -36 -276 -50 -448 -13 -172 -42 -509 -64 -750 -21
-241 -47 -569 -56 -730 -16 -275 -49 -385 -98 -335 -22 21 -46 307 -68 803 -8
178 -31 516 -51 750 -21 233 -46 596 -57 805 -11 210 -31 392 -44 405 -23 23
-955 51 -977 29z"/>
<path d="M15595 42056 l-467 -7 -4 -1918 c-2 -1055 -6 -1952 -8 -1993 l-3 -75
497 0 497 0 -5 1293 -5 1293 63 63 c75 75 107 77 190 14 l63 -48 0 -1308 0
-1307 450 -5 c576 -6 573 -7 548 112 -11 51 -21 683 -22 1405 l-4 1313 -86
173 c-133 268 -232 327 -548 327 -244 0 -245 -1 -388 -99 -79 -55 -155 -125
-170 -156 -28 -63 -81 -77 -99 -27 -7 17 -3 189 8 382 28 496 28 555 -8 566
-17 4 -242 5 -499 2z"/>
<path d="M20259 41813 c-28 -21 -29 -65 -8 -237 30 -236 10 -281 -113 -257
-86 16 -95 -23 -71 -298 l21 -233 79 0 c43 0 85 -7 93 -15 8 -8 17 -548 21
-1201 7 -1283 4 -1255 142 -1366 144 -117 208 -129 681 -137 l459 -6 0 262 0
263 -88 6 c-48 4 -113 13 -144 20 l-57 12 7 1081 7 1081 137 0 138 0 0 262 0
263 -138 0 -137 0 6 256 c3 141 -2 257 -13 257 -209 16 -997 5 -1022 -13z"/>
<path d="M18413 41376 c-522 -85 -721 -357 -724 -988 l-1 -325 425 9 c233 5
433 14 443 20 11 6 19 166 19 356 0 401 33 487 183 472 148 -14 194 -129 180
-450 -7 -150 -24 -294 -38 -319 -31 -60 -222 -176 -412 -251 -83 -33 -161 -69
-174 -80 -13 -11 -44 -20 -69 -20 -25 0 -115 -34 -201 -75 -327 -158 -353
-211 -365 -742 -10 -510 24 -656 199 -836 230 -237 692 -231 955 13 86 81 117
82 117 6 0 -96 39 -103 513 -103 l450 0 -9 1287 c-9 1313 -19 1462 -111 1639
-79 153 -211 253 -455 342 -143 52 -712 80 -925 45z m532 -2207 c-3 -334 -12
-447 -42 -499 -66 -118 -239 -116 -302 4 -42 78 -32 505 14 617 62 150 203
309 274 309 l60 0 -4 -431z"/>
<path d="M23017 42031 c-10 -15 -5 -434 5 -484 2 -8 231 -14 509 -12 l507 3 7
256 7 256 -512 0 c-282 0 -517 -8 -523 -19z"/>
<path d="M25000 41377 c-500 -89 -725 -387 -725 -963 0 -490 148 -689 736
-989 421 -215 473 -270 485 -514 13 -247 -25 -311 -183 -311 -151 0 -174 47
-167 342 5 199 0 234 -39 254 -72 39 -823 48 -861 10 -25 -25 -25 -99 -1 -366
48 -529 117 -635 529 -806 173 -72 882 -67 1076 8 450 174 600 404 600 918 -1
547 -137 740 -731 1041 -366 186 -361 183 -459 269 -81 72 -86 86 -92 255 -7
212 52 292 194 264 116 -23 141 -76 134 -295 -3 -106 -1 -198 6 -203 6 -6 213
-15 461 -20 l450 -8 7 134 c14 236 -37 470 -132 612 -81 122 -295 291 -368
291 -19 0 -59 18 -90 40 -66 45 -637 71 -830 37z"/>
<path d="M23035 41296 c-6 -10 -11 -741 -12 -1625 l-2 -1608 508 0 509 0 -4
125 c-11 473 -6 2829 7 2956 9 86 6 157 -6 158 -134 12 -992 6 -1000 -6z"/>
<path d="M26867 40934 c-33 -33 -18 -134 21 -134 20 0 37 20 37 44 -1 57 -36
112 -58 90z"/>
<path d="M7075 35376 l-712 -13 -17 -225 c-9 -124 -28 -286 -43 -360 -16 -74
-28 -181 -28 -238 0 -56 -17 -181 -37 -278 -20 -96 -37 -236 -38 -312 0 -76
-12 -177 -26 -225 -14 -48 -36 -194 -47 -325 -12 -131 -34 -316 -48 -412 -47
-303 -87 -618 -104 -813 -17 -190 -61 -484 -98 -657 -14 -62 -11 -100 7 -111
21 -13 834 -19 1022 -8 9 1 21 156 25 345 l7 344 200 0 200 0 7 -325 c3 -179
16 -334 28 -346 12 -12 245 -23 518 -24 577 -2 533 -32 469 312 -23 128 -46
278 -52 333 -5 55 -25 218 -45 362 -37 271 -80 591 -151 1113 -22 165 -56 395
-76 512 -20 117 -36 258 -37 313 0 55 -16 167 -36 250 -20 82 -37 195 -37 250
-2 251 -73 574 -123 556 -8 -3 -336 -11 -728 -18z m129 -1071 c26 -547 67
-1078 100 -1269 40 -241 32 -255 -157 -265 -236 -13 -242 3 -170 442 14 82 36
352 50 600 44 788 65 930 132 863 17 -17 35 -170 45 -371z"/>
<path d="M8730 32189 c-19 -31 -25 -788 -6 -791 8 -1 182 -4 389 -5 l375 -4 0
412 0 412 -371 1 c-231 0 -377 -9 -387 -25z"/>
<path d="M5350 31514 c0 -23 21 -39 52 -39 61 0 52 58 -10 71 -25 4 -42 -8
-42 -32z"/>
<path d="M11235 35377 c-5 -6 -10 -906 -10 -2000 l0 -1989 439 3 c241 2 442 7
446 12 17 22 -35 2282 -59 2534 -34 371 3 500 103 361 31 -43 51 -149 69 -373
41 -483 76 -796 102 -909 13 -57 24 -160 25 -228 0 -69 17 -193 37 -275 20
-83 37 -207 37 -275 1 -69 18 -193 38 -275 20 -83 37 -237 37 -343 1 -116 12
-199 30 -210 34 -21 616 -28 650 -8 13 8 35 121 48 250 14 130 37 303 52 386
14 82 35 234 46 337 38 355 78 663 102 775 22 107 51 360 97 863 12 123 22
250 24 281 1 37 18 56 49 56 73 0 111 -64 92 -156 -24 -118 -82 -2752 -61
-2781 17 -24 860 -34 883 -10 6 6 -1 275 -15 597 -24 570 -11 2634 20 3129 18
292 112 261 -760 251 l-656 -7 0 -143 c0 -78 -12 -213 -26 -300 -14 -87 -37
-312 -50 -500 -14 -188 -35 -455 -48 -592 -13 -138 -24 -354 -25 -480 -1 -174
-10 -239 -40 -269 -98 -98 -116 -46 -139 397 -28 534 -65 979 -96 1136 -14 74
-27 209 -28 300 -2 179 -31 419 -53 441 -16 16 -1344 30 -1360 14z"/>
<path d="M15588 34714 c-342 -58 -603 -246 -746 -539 l-79 -162 0 -988 0 -987
77 -163 c125 -263 317 -420 645 -525 169 -54 730 -42 892 20 394 149 564 333
660 717 30 117 38 318 38 938 0 835 -13 960 -126 1192 -194 399 -748 601
-1361 497z m370 -567 c144 -74 141 -51 141 -1099 l1 -964 -62 -59 c-76 -70
-193 -76 -263 -13 -49 44 -50 75 -50 1052 l0 1006 81 52 c97 62 84 60 152 25z"/>
<path d="M18188 34715 c-442 -70 -752 -361 -828 -777 -46 -251 -47 -1589 -1
-1830 101 -529 467 -783 1129 -783 484 0 686 70 910 315 247 270 239 227 239
1373 l1 1000 -83 166 c-220 447 -714 641 -1367 536z m375 -579 c46 -22 90 -57
98 -78 21 -56 20 -1937 -1 -1996 -52 -138 -331 -111 -337 34 -2 55 -2 1825 0
1899 2 48 108 180 146 180 6 0 48 -18 94 -39z"/>
<path d="M21365 34722 c-132 -31 -237 -99 -338 -220 -99 -117 -139 -109 -117
25 8 53 4 102 -10 110 -14 9 -236 18 -493 20 l-469 5 0 -1636 0 -1635 483 2
c267 1 492 12 501 23 9 12 9 584 1 1272 -15 1136 -12 1256 25 1325 79 141 247
94 275 -78 8 -50 9 -638 2 -1307 -7 -668 -11 -1219 -8 -1224 6 -13 1006 -15
1014 -2 19 32 -28 2726 -50 2811 -104 410 -413 604 -816 509z"/>
<path d="M5990 28679 c-12 -20 -20 -2024 -15 -3979 0 -46 1364 -44 1663 2 298
46 490 162 594 357 146 276 160 1202 21 1452 -101 183 -333 314 -556 314 -131
0 -134 67 -3 87 51 8 128 25 170 39 43 13 97 24 122 24 24 0 85 33 136 72 126
100 153 221 152 672 -2 565 -62 716 -345 860 -123 63 -266 74 -1079 82 -406 5
-762 16 -791 26 -30 9 -60 6 -69 -8z m1277 -723 c52 -63 56 -94 56 -393 0
-400 -20 -440 -237 -458 l-136 -11 0 461 c0 254 8 470 19 481 42 43 241 -11
298 -80z m-19 -1496 l77 -64 -1 -454 c0 -319 -10 -466 -31 -492 -57 -72 -166
-125 -255 -125 l-88 0 0 600 0 600 111 0 c82 0 130 -16 187 -65z"/>
<path d="M8604 25463 c-9 -14 -16 -199 -16 -412 l0 -386 381 -2 c295 -2 381 5
382 30 1 17 1 195 1 395 0 199 0 372 -1 384 -1 31 -726 22 -747 -9z"/>
<path d="M23685 28697 c-21 -35 28 -82 63 -61 15 9 27 26 27 38 0 33 -72 51
-90 23z"/>
<path d="M11106 28679 c-30 -19 -50 -3953 -21 -4001 16 -24 965 -13 987 12 11
12 12 377 2 810 -9 433 -13 792 -8 798 6 7 157 9 336 5 488 -9 701 89 854 396
l82 162 0 626 0 626 -75 134 c-78 141 -184 241 -352 332 -92 50 -147 55 -898
72 -440 10 -817 25 -838 34 -21 8 -52 5 -69 -6z m1297 -711 l85 -57 6 -418 c8
-484 2 -500 -212 -525 -239 -28 -225 -58 -222 503 1 270 12 506 23 523 34 53
225 37 320 -26z"/>
<path d="M14445 28687 c-7 -8 -207 -16 -443 -19 l-429 -5 -5 -2000 -5 -1999
483 -1 c539 -1 547 2 516 155 -25 125 -15 3495 11 3660 23 146 -58 279 -128
209z"/>
<path d="M22427 28427 c-12 -22 -10 -122 3 -222 30 -226 21 -250 -97 -260
l-95 -7 0 -234 c0 -273 -1 -272 112 -283 l88 -8 12 -1200 c12 -1196 13 -1201
70 -1292 112 -181 314 -239 880 -251 l338 -7 0 275 0 275 -119 13 c-65 8 -130
25 -144 39 -17 17 -23 393 -19 1087 l7 1061 112 2 c62 1 127 4 145 6 24 3 30
66 25 260 l-7 257 -146 7 -146 8 8 255 9 255 -508 1 c-437 2 -511 -4 -528 -37z"/>
<path d="M15425 27984 c-468 -154 -596 -357 -607 -959 l-5 -337 437 8 c294 6
444 18 457 38 10 16 16 188 12 383 -4 220 3 365 19 381 55 55 174 58 238 6 60
-48 62 -59 62 -384 0 -300 -6 -339 -51 -388 -46 -50 -334 -207 -379 -207 -11
0 -49 -15 -85 -34 -35 -18 -96 -41 -135 -51 -146 -37 -388 -167 -474 -256
l-89 -92 0 -533 c0 -592 13 -650 187 -816 75 -70 317 -167 423 -168 98 0 332
88 478 181 l150 96 15 -77 c9 -43 20 -81 25 -86 5 -5 211 -13 458 -18 l448 -8
-6 1373 c-8 1504 -5 1472 -160 1671 -92 119 -243 207 -460 269 -216 62 -781
66 -958 8z m619 -2224 c-6 -454 -8 -465 -66 -512 -70 -57 -150 -61 -217 -13
-42 31 -49 69 -52 269 -5 392 8 450 134 594 197 225 209 205 201 -338z"/>
<path d="M18599 27964 c-62 -33 -152 -105 -199 -160 -101 -119 -125 -113 -125
33 l0 109 -469 9 c-258 5 -477 2 -487 -6 -11 -8 -16 -749 -13 -1648 l7 -1633
469 0 c258 0 476 7 485 16 9 9 14 589 10 1289 -6 1407 -7 1402 146 1402 173 0
164 76 165 -1390 l1 -1318 482 0 c264 0 489 10 499 23 10 12 13 658 5 1435
-11 1292 -16 1418 -56 1474 -24 34 -44 78 -44 97 0 64 -150 225 -258 277 -158
76 -462 72 -618 -9z"/>
<path d="M20563 27978 c-371 -125 -547 -300 -665 -663 -43 -133 -48 -228 -48
-1000 0 -894 4 -938 121 -1190 49 -105 338 -400 393 -400 21 0 69 -16 106 -35
162 -83 526 -118 781 -75 130 22 261 55 292 75 30 19 68 35 83 35 102 0 343
287 420 501 57 159 95 736 50 764 -38 23 -900 17 -923 -7 -10 -11 -11 -141 -2
-288 9 -148 8 -305 -3 -350 -40 -162 -188 -219 -289 -112 -52 55 -54 79 -54
548 0 270 8 495 19 501 10 5 289 2 619 -6 330 -8 612 -7 626 4 19 13 24 173
16 501 -14 560 -64 727 -287 950 -105 105 -170 144 -425 253 -132 57 -654 53
-830 -6z m504 -543 c74 -20 102 -109 117 -379 15 -268 5 -281 -206 -281 -159
0 -163 8 -156 311 8 322 61 398 245 349z"/>
<path d="M6950 22058 c-230 -39 -376 -98 -545 -217 -110 -78 -280 -290 -280
-349 0 -17 -13 -45 -28 -60 -73 -73 -94 -395 -94 -1444 0 -1050 21 -1372 94
-1445 15 -15 28 -46 28 -67 0 -55 214 -293 322 -361 582 -359 1562 -170 1801
347 114 248 121 290 130 787 l10 486 -496 1 c-303 1 -503 -8 -515 -23 -10 -14
-11 -222 -2 -463 9 -249 6 -470 -7 -512 -49 -158 -191 -209 -289 -105 l-54 58
1 1311 c1 1257 3 1313 49 1368 77 93 219 69 278 -45 40 -79 42 -128 24 -487
-11 -220 -15 -415 -8 -432 9 -23 137 -31 525 -31 l514 0 -16 461 c-16 467 -19
481 -139 737 -59 124 -273 334 -403 395 -112 52 -507 134 -625 130 -34 -2
-158 -19 -275 -40z"/>
<path d="M9094 18831 c-189 -4 -345 -16 -345 -25 -17 -234 -2 -789 21 -803 16
-10 94 -11 172 -3 78 9 227 9 331 0 111 -10 202 -7 221 7 74 57 33 868 -43
838 -7 -3 -168 -9 -357 -14z"/>
<path d="M12213 22088 c-14 -4 -110 -22 -213 -40 -103 -18 -238 -55 -300 -82
-126 -55 -400 -319 -400 -385 0 -24 -17 -76 -38 -115 -28 -55 -37 -164 -37
-462 0 -403 19 -506 129 -690 102 -171 391 -418 621 -530 100 -49 361 -243
434 -323 250 -273 210 -911 -57 -911 -152 0 -181 85 -173 504 5 222 -2 379
-17 394 -26 26 -905 42 -930 17 -40 -40 -2 -806 47 -951 121 -359 332 -508
802 -566 617 -75 1155 96 1341 426 105 186 151 902 77 1202 -87 351 -362 629
-974 982 -62 35 -163 116 -225 179 l-112 115 -9 247 c-10 284 24 351 177 351
161 -1 207 -87 207 -387 l0 -225 450 0 450 0 7 250 c11 369 -40 530 -226 718
-79 79 -156 144 -171 144 -16 0 -63 16 -107 35 -135 60 -661 132 -753 103z"/>
<path d="M13848 21769 c0 -17 0 -136 2 -263 l3 -231 -102 0 c-55 0 -102 -8
-102 -19 -1 -10 -4 -125 -7 -256 l-4 -237 106 -8 106 -8 1 -1167 c2 -1336 -1
-1315 221 -1464 106 -72 118 -74 572 -95 255 -12 470 -16 478 -7 17 17 5 488
-13 517 -7 10 -48 19 -92 19 -146 1 -140 -47 -145 1113 l-5 1075 110 7 c145
11 142 5 152 280 l9 238 -138 12 -137 13 10 150 c6 82 12 195 13 250 l2 100
-519 6 c-406 6 -519 0 -521 -25z"/>
<path d="M19162 21323 c-177 -94 -297 -229 -362 -408 -43 -119 -81 -41 -85
173 l-2 191 -469 2 c-257 2 -473 -2 -479 -8 -7 -6 -2 -186 10 -398 27 -487 30
-2233 3 -2550 -28 -339 -68 -315 514 -314 l495 2 -8 887 c-10 996 -6 1035 108
1167 80 93 84 94 272 97 106 2 197 9 205 16 33 33 23 1170 -10 1182 -56 22
-88 15 -192 -39z"/>
<path d="M15888 21309 c-470 -179 -627 -454 -608 -1059 l8 -237 437 9 c241 5
443 14 450 21 7 6 10 156 6 332 -7 349 9 426 103 488 56 36 70 36 134 3 106
-55 132 -138 132 -418 0 -413 -2 -415 -821 -731 -412 -159 -467 -266 -447
-864 12 -355 34 -496 96 -603 12 -21 32 -61 45 -89 52 -120 298 -236 499 -236
184 0 509 136 549 230 20 47 79 16 79 -41 0 -90 13 -93 507 -97 l456 -4 -9
1312 c-9 1520 -14 1560 -212 1769 -80 85 -190 143 -404 214 -171 57 -852 58
-1000 1z m664 -1765 c16 -316 -11 -859 -46 -912 -79 -121 -233 -123 -294 -5
-51 98 -49 455 4 609 64 189 329 432 336 308z"/>
<path d="M5995 15323 c-4 -13 0 -155 9 -317 22 -392 21 -3027 -2 -3343 -19
-267 -15 -304 31 -318 16 -4 440 -2 942 6 l913 14 139 65 c175 82 303 206 371
358 74 169 80 2764 6 2975 -117 333 -300 478 -679 537 -224 35 -1719 55 -1730
23z m1337 -704 c101 -87 106 -174 93 -1375 -12 -1100 -13 -1119 -66 -1171 -69
-69 -279 -98 -319 -43 -19 26 -26 427 -21 1341 l7 1304 121 0 c89 0 137 -15
185 -56z"/>
<path d="M8875 12150 c-25 -16 -43 -765 -19 -789 14 -14 594 -23 763 -13 25 2
31 93 25 407 l-6 404 -372 2 c-204 1 -380 -4 -391 -11z"/>
<path d="M8517 11133 c-34 -34 -15 -58 46 -58 69 0 83 36 22 60 -49 19 -48 19
-68 -2z"/>
<path d="M6238 10875 c-10 -15 16 -25 61 -25 42 0 76 11 76 25 0 14 -27 25
-61 25 -34 0 -68 -11 -76 -25z"/>
<path d="M6491 10812 c-16 -42 40 -77 82 -51 33 21 6 89 -35 89 -18 0 -39 -17
-47 -38z"/>
<path d="M13664 15355 c-23 -22 13 -55 61 -55 72 0 82 43 13 56 -34 7 -67 6
-74 -1z"/>
<path d="M11764 15331 c-8 -8 -14 -87 -14 -176 0 -88 -16 -275 -36 -414 -68
-471 -98 -703 -115 -891 -17 -187 -52 -458 -103 -787 -14 -97 -36 -282 -48
-413 -12 -131 -33 -282 -47 -337 -14 -55 -25 -149 -25 -208 -1 -59 -18 -188
-38 -287 -20 -99 -40 -247 -44 -329 l-6 -149 512 7 c282 4 517 12 523 18 6 6
15 154 20 329 12 408 -3 381 206 381 208 0 195 25 209 -407 5 -162 16 -300 23
-308 30 -30 999 -17 1018 13 10 16 9 71 -2 122 -79 353 -123 652 -173 1173
-12 127 -33 274 -48 325 -14 52 -26 145 -26 207 -1 62 -12 157 -26 213 -13 55
-35 201 -48 325 -12 123 -35 309 -50 412 -15 103 -43 311 -63 463 -20 151 -51
376 -68 500 l-32 225 -743 3 c-408 2 -748 -3 -756 -10z m821 -762 c7 -45 24
-284 39 -531 16 -248 40 -574 55 -725 15 -152 32 -346 39 -432 l11 -156 -191
0 -192 0 11 156 c6 86 24 297 39 469 15 172 40 519 55 771 15 253 34 475 41
494 25 64 81 36 93 -46z"/>
<path d="M24661 15317 c-7 -18 -10 -134 -6 -256 l8 -223 512 0 513 0 0 250 0
250 -507 6 c-407 6 -510 0 -520 -27z"/>
<path d="M27262 15323 c-10 -15 -11 -108 -2 -206 24 -283 27 -713 6 -734 -10
-11 -61 26 -111 81 -167 183 -257 219 -542 220 -290 0 -412 -46 -529 -199
-157 -205 -159 -229 -159 -1511 0 -1266 4 -1307 144 -1491 184 -245 659 -292
953 -94 194 131 225 147 241 131 9 -9 3 -40 -13 -70 -16 -30 -22 -62 -13 -71
22 -21 969 -47 995 -27 11 8 20 908 20 2000 l1 1986 -487 6 c-335 5 -493 -2
-504 -21z m-36 -1304 c45 -53 47 -115 48 -1036 l1 -979 -84 -52 c-105 -65
-128 -65 -218 0 l-73 51 0 975 c0 1109 -2 1097 180 1097 73 0 112 -15 146 -56z"/>
<path d="M16432 15104 c-18 -19 -28 -53 -22 -75 7 -23 20 -122 29 -221 17
-179 17 -181 -47 -197 -35 -8 -74 -10 -86 -3 -68 43 -86 -29 -65 -273 l22
-247 93 -8 c69 -6 94 -19 94 -50 0 -23 3 -566 6 -1205 l7 -1162 72 -96 c129
-168 217 -195 701 -216 246 -11 445 -9 471 4 39 20 43 52 36 258 -10 272 -8
268 -163 286 l-117 14 -7 1081 -7 1081 124 0 c153 0 153 -1 168 288 14 264 31
240 -178 246 l-100 4 7 256 c4 141 -2 256 -13 257 -522 17 -996 7 -1025 -22z"/>
<path d="M14009 14960 c-10 -26 -36 -61 -57 -78 -22 -17 -28 -31 -14 -31 59 0
150 96 119 127 -24 24 -34 20 -48 -18z"/>
<path d="M14775 14685 c-135 -12 -372 -83 -427 -128 -22 -17 -50 -32 -63 -32
-80 0 -266 -295 -318 -505 -98 -391 -27 -726 204 -969 81 -85 450 -326 499
-326 104 0 429 -242 482 -359 135 -297 -66 -617 -279 -445 -53 43 -57 67 -59
307 l-1 260 -420 20 c-231 12 -435 16 -454 9 -47 -19 -26 -532 31 -728 51
-178 236 -382 394 -434 291 -97 944 -103 1203 -10 215 77 408 249 481 428 66
162 67 807 1 962 -55 130 -221 326 -311 368 -28 12 -90 46 -138 75 -48 29
-194 109 -323 178 -388 205 -452 271 -452 470 0 165 64 249 189 249 136 0 176
-70 167 -295 -9 -236 -21 -230 488 -230 l438 0 -13 231 c-26 474 -189 712
-581 848 -127 44 -526 74 -738 56z"/>
<path d="M18763 14676 c-369 -46 -672 -273 -804 -602 -40 -99 -46 -218 -53
-1074 -8 -1028 -12 -982 116 -1246 57 -117 307 -343 421 -380 52 -17 110 -43
130 -59 22 -18 181 -27 450 -27 l415 0 167 82 c372 183 557 544 540 1055 l-7
238 -475 0 -475 0 9 -353 c9 -342 7 -354 -49 -406 -65 -61 -117 -67 -207 -26
-81 37 -84 56 -80 597 l4 463 611 5 c336 3 626 6 643 6 23 1 31 102 31 420 0
465 -36 653 -162 858 -116 186 -245 288 -517 405 -108 47 -496 71 -708 44z
m348 -580 c79 -36 94 -111 84 -408 l-7 -225 -163 0 -162 0 -8 225 c-10 306 5
377 90 408 90 33 93 33 166 0z"/>
<path d="M21745 14651 c-36 -28 -77 -51 -90 -51 -38 0 -182 -174 -221 -268
-33 -79 -95 -129 -124 -101 -6 7 0 89 15 182 15 92 22 173 16 180 -18 17 -966
27 -966 10 -7 -357 1 -3238 10 -3246 8 -9 826 -16 961 -8 12 0 16 409 10 907
-11 875 -9 910 41 1021 80 178 198 248 418 248 59 0 112 8 118 19 6 10 15 272
20 581 l10 563 -77 7 c-48 5 -100 -11 -141 -44z"/>
<path d="M22975 14675 c-131 -21 -223 -50 -387 -125 -94 -43 -294 -245 -350
-355 -118 -228 -137 -411 -138 -1283 0 -876 4 -915 131 -1152 63 -118 254
-294 387 -357 66 -31 140 -67 166 -81 67 -37 629 -55 804 -26 282 46 498 172
650 380 169 230 170 238 181 1258 9 941 7 971 -86 1204 -46 116 -289 387 -346
387 -15 0 -40 13 -55 28 -100 100 -650 170 -957 122z m438 -634 c31 -44 37
-211 37 -1045 l0 -992 -84 -52 c-109 -67 -121 -66 -213 21 l-78 72 0 959 c0
841 5 967 40 1017 76 109 229 119 298 20z"/>
<path d="M24695 14594 c-38 -15 -47 -33 -34 -75 31 -105 45 -2268 18 -2706
-15 -249 -17 -435 -4 -448 22 -22 971 -28 992 -6 6 5 10 734 10 1619 l0 1610
-465 12 c-256 7 -489 4 -517 -6z"/>
<path d="M26806 10794 c16 -48 94 -54 94 -8 0 23 -21 39 -52 39 -31 0 -48 -13
-42 -31z"/>
<path d="M17363 6800 c-55 -11 -140 -33 -188 -51 -232 -83 -290 -106 -325
-126 -21 -11 -86 -46 -145 -77 -403 -210 -701 -662 -869 -1319 -94 -368 -51
-1230 79 -1583 72 -196 120 -308 147 -344 15 -21 50 -80 77 -133 53 -104 385
-448 486 -503 204 -112 435 -214 485 -214 108 0 190 -91 190 -211 0 -322 293
-656 698 -796 201 -69 700 -75 774 -8 114 102 41 242 -100 193 -249 -87 -391
111 -395 552 -2 238 17 270 159 270 172 0 584 264 821 525 482 533 655 1619
391 2463 -75 240 -113 337 -144 368 -16 16 -29 44 -29 63 0 62 -280 409 -404
502 -67 49 -121 97 -121 106 0 52 -502 259 -787 323 -119 27 -658 27 -800 0z
m687 -207 c246 -143 460 -498 526 -874 12 -65 29 -131 38 -147 84 -135 88
-1651 5 -1959 -15 -55 -35 -146 -46 -200 -74 -393 -302 -746 -578 -898 -442
-244 -959 303 -1071 1135 -12 89 -34 230 -48 313 -62 359 -18 1321 77 1700 13
55 34 139 45 187 67 286 300 643 483 739 171 90 417 92 569 4z"/>
<path d="M17649 5774 c-41 -36 -74 -88 -74 -115 0 -27 -14 -63 -31 -80 -57
-57 -44 -1860 13 -1923 30 -33 40 -71 30 -110 -18 -74 18 -176 87 -245 66 -66
77 -65 173 21 67 60 78 84 63 141 -13 52 -6 78 27 103 42 30 45 92 40 905 -5
772 -1 874 34 887 49 19 50 77 2 117 -21 17 -38 63 -38 102 0 38 -11 77 -25
86 -14 8 -25 34 -25 57 -2 128 -159 159 -276 54z"/>
<path d="M24823 6664 c-158 -104 -219 -259 -187 -474 54 -360 595 -448 799
-129 62 96 65 393 5 453 -22 22 -40 49 -40 59 0 11 -45 50 -99 86 -134 89
-346 91 -478 5z"/>
<path d="M19567 6584 c-34 -34 -16 -88 27 -79 24 4 44 24 44 43 0 40 -45 62
-71 36z"/>
<path d="M23900 5950 c0 -39 17 -50 75 -50 58 0 75 11 75 50 0 39 -17 50 -75
50 -58 0 -75 -11 -75 -50z"/>
<path d="M20194 5524 c-115 -69 -36 -157 166 -183 203 -27 190 45 191 -1063 1
-1238 11 -1293 297 -1580 185 -184 442 -308 722 -347 464 -65 755 53 985 397
75 112 114 122 146 35 34 -88 162 -223 261 -274 196 -100 561 -167 565 -103 0
17 0 675 -2 1461 l-3 1429 145 29 c80 16 171 34 203 40 48 10 57 25 50 92 l-7
81 -238 -13 c-131 -7 -417 -12 -637 -12 -220 0 -507 5 -638 12 l-237 13 0 -88
c0 -87 0 -88 131 -104 72 -8 159 -23 193 -31 l63 -16 0 -1138 0 -1138 -56 -80
c-260 -372 -540 -466 -753 -253 -180 181 -176 154 -191 1360 -15 1188 -15
1190 -166 1329 -97 90 -209 114 -634 132 -199 9 -396 21 -437 28 -42 6 -95 -1
-119 -15z"/>
<path d="M24261 5517 c-40 -104 -3 -153 128 -172 70 -10 153 -28 184 -39 l57
-21 1 -1315 c0 -723 -7 -1327 -17 -1342 -9 -15 -60 -28 -112 -28 -191 0 -307
-76 -244 -159 26 -34 81 -36 455 -14 399 22 760 17 1094 -17 97 -10 156 -5
181 16 93 76 8 140 -225 170 l-125 17 -13 1250 c-12 1247 -13 1250 -71 1368
-105 214 -228 259 -766 282 -193 8 -387 21 -431 28 -60 11 -85 4 -96 -24z"/>
<path d="M26395 5508 c-5 -11 -9 -262 -9 -558 l2 -537 111 0 c104 0 118 8 207
125 151 195 267 480 268 657 1 62 14 111 32 117 17 5 259 14 538 19 452 9 506
5 506 -31 0 -22 -73 -150 -162 -285 -90 -134 -163 -249 -163 -254 0 -6 -48
-81 -107 -167 -59 -86 -166 -252 -238 -369 -72 -117 -187 -297 -255 -400 -68
-103 -136 -210 -150 -237 -53 -98 -153 -255 -454 -711 -228 -345 -243 -379
-190 -420 19 -15 581 -23 1455 -22 l1423 3 2 537 2 538 -107 7 c-89 7 -116 -3
-169 -60 -151 -163 -285 -465 -309 -697 l-15 -150 -569 -7 c-417 -5 -569 1
-569 22 0 16 90 163 200 327 110 163 200 302 200 307 0 5 48 81 108 168 59 86
116 174 126 195 25 53 60 108 223 355 79 120 143 223 143 230 0 8 55 95 122
196 147 219 311 472 328 507 24 48 161 250 232 343 51 67 69 115 63 173 l-7
79 -1404 10 c-772 6 -1408 1 -1414 -10z"/>
</g>
</svg>
