<?xml version="1.0" standalone="no"?>
<!DOCTYPE svg PUBLIC "-//W3C//DTD SVG 20010904//EN"
 "http://www.w3.org/TR/2001/REC-SVG-20010904/DTD/svg10.dtd">
<svg version="1.0" xmlns="http://www.w3.org/2000/svg"
 width="1800.000000pt" height="1800.000000pt" viewBox="0 0 1800.000000 1800.000000"
 preserveAspectRatio="xMidYMid meet">
<g transform="translate(0.000000,1800.000000) scale(0.040000,-0.040000)"
fill="#000000" stroke="none">
<path d="M0 22500 l0 -22500 22500 0 22500 0 0 22500 0 22500 -22500 0 -22500
0 0 -22500z m10000 8296 c60 -1 126 -51 271 -203 263 -274 279 -294 279 -362
0 -39 12 -83 27 -98 18 -18 26 -285 24 -829 -3 -791 -2 -802 50 -830 30 -15
47 -43 40 -63 -17 -44 50 -113 93 -96 18 7 47 -5 65 -26 78 -94 301 -12 301
110 0 27 22 61 49 76 39 20 46 42 35 101 -10 50 -3 90 23 118 21 24 42 66 47
94 5 28 32 53 63 57 52 8 108 111 108 198 0 45 153 231 191 232 59 1 98 78 52
104 -63 35 -52 71 20 71 42 0 99 37 170 112 79 82 120 108 158 98 38 -10 56 0
66 38 7 30 34 52 61 52 26 0 60 13 77 30 44 44 259 44 311 0 38 -33 45 -30 67
28 27 71 190 132 287 107 29 -7 70 -2 90 11 58 37 -19 77 -116 59 -75 -14
-135 21 -86 51 13 8 109 19 215 24 105 5 203 21 218 36 20 20 37 20 61 0 20
-16 172 -31 370 -36 l336 -8 104 -104 c95 -95 112 -103 203 -90 76 10 128 -2
214 -48 62 -33 127 -60 144 -60 17 0 45 -17 62 -37 17 -21 68 -38 112 -38 70
0 84 -10 96 -72 17 -84 75 -114 140 -73 36 22 41 38 21 71 -37 59 -6 124 58
124 29 0 81 23 116 50 71 56 157 65 200 22 42 -42 107 -7 108 58 l1 58 47 -57
c27 -33 62 -50 84 -42 23 9 49 -5 65 -35 23 -43 45 -48 173 -36 128 12 153 6
197 -41 40 -43 54 -47 64 -19 13 33 53 46 256 82 136 25 146 31 111 73 -42 51
-12 75 95 75 103 0 137 52 54 83 -82 30 -27 52 150 59 89 3 166 19 182 38 19
23 36 25 58 7 17 -14 119 -31 227 -36 142 -8 204 -22 225 -51 16 -22 55 -45
86 -51 31 -6 86 -45 122 -86 86 -101 277 -138 277 -54 0 47 6 50 49 23 41 -26
58 -22 110 27 70 65 158 36 171 -59 10 -65 146 -84 194 -27 45 54 94 49 127
-14 31 -57 145 -53 219 9 57 48 209 48 244 1 26 -37 36 -34 96 26 37 36 95 74
130 82 35 9 86 47 114 85 43 58 74 70 215 84 91 8 176 26 190 40 34 34 324 33
357 0 15 -15 131 -32 259 -39 257 -13 291 -23 249 -74 -49 -59 -1 -86 151 -86
114 0 153 -10 172 -44 37 -65 326 -63 375 3 32 43 37 43 58 7 27 -48 158 -55
186 -10 13 21 24 11 34 -31 8 -36 35 -65 64 -70 26 -4 92 -26 144 -48 89 -39
101 -38 175 1 52 28 125 41 209 37 94 -4 143 6 178 38 26 24 65 36 87 28 25
-9 44 3 55 37 19 60 63 70 63 14 0 -100 193 -21 313 129 44 55 73 63 247 73
108 5 211 22 228 37 20 16 38 17 47 3 8 -13 124 -31 258 -41 220 -16 250 -24
301 -82 31 -35 56 -73 56 -85 0 -11 98 -22 219 -24 206 -2 212 -4 107 -27
-104 -23 -109 -28 -64 -60 26 -19 61 -35 77 -35 52 0 261 101 261 126 0 13 27
24 61 24 80 0 108 49 51 91 -80 58 -33 63 606 64 l430 1 76 -76 c81 -82 100
-155 39 -155 -21 0 -38 -11 -38 -25 0 -31 14 -31 135 2 82 23 102 21 120 -12
13 -23 55 -40 97 -40 48 0 80 -15 90 -44 9 -24 71 -97 140 -162 98 -94 118
-126 96 -153 -42 -51 -7 -121 50 -103 39 13 47 2 47 -57 0 -101 49 -155 149
-163 85 -7 87 -9 117 -169 17 -89 32 -358 34 -599 3 -522 19 -633 88 -646 79
-14 105 -54 36 -54 -108 -1 -145 -43 -84 -94 29 -24 60 -63 68 -87 9 -24 31
-44 51 -44 19 0 54 -29 78 -65 29 -44 58 -61 90 -52 32 8 58 -5 75 -38 18 -32
44 -45 76 -37 93 24 185 -342 109 -433 -18 -21 -36 -60 -41 -87 -7 -40 -25
-49 -90 -42 -55 5 -81 -3 -81 -26 0 -18 -23 -47 -50 -64 -28 -17 -50 -58 -50
-92 0 -86 -118 -220 -178 -201 -26 9 -47 4 -47 -11 0 -14 -105 -77 -234 -140
-129 -62 -242 -122 -252 -131 -10 -10 -51 -19 -92 -22 -41 -2 -94 -21 -119
-44 -49 -45 -78 -30 -78 39 0 60 -52 58 -162 -4 -118 -66 -179 -63 -281 15
-80 61 -157 67 -157 11 0 -45 -67 -28 -242 61 -94 48 -189 82 -211 75 -22 -7
-54 4 -72 25 -40 48 -110 49 -150 1 -17 -21 -51 -38 -75 -38 -24 0 -58 -17
-75 -38 -18 -21 -52 -32 -77 -24 -29 9 -54 -3 -71 -34 -31 -59 -191 -69 -212
-14 -15 38 -108 46 -160 14 -17 -11 -25 -39 -16 -62 17 -44 -109 -64 -148 -24
-33 32 -228 29 -281 -5 -45 -30 -58 -29 -92 4 -21 22 -70 39 -108 39 -44 0
-97 27 -142 72 -40 40 -93 72 -119 72 -26 0 -58 21 -72 46 -33 62 -271 59
-306 -4 -13 -23 -45 -42 -70 -42 -26 0 -82 -34 -124 -77 -44 -44 -89 -69 -106
-58 -16 10 -43 -3 -62 -28 -30 -41 -79 -45 -529 -45 -274 0 -513 10 -532 22
-204 128 -568 168 -671 75 -45 -40 -48 -40 -64 9 -29 91 -126 43 -174 -85 -18
-49 -19 -49 -56 5 -31 45 -48 51 -86 30 -27 -14 -60 -18 -74 -10 -14 9 -41 3
-60 -13 -24 -19 -81 -23 -173 -12 -127 16 -142 12 -198 -48 -72 -78 -131 -84
-149 -15 -9 34 -34 50 -79 50 -36 0 -72 17 -80 38 -20 51 -66 47 -101 -10 -36
-57 -154 -63 -213 -10 -24 21 -75 39 -115 41 -40 2 -92 20 -115 39 -23 19 -75
34 -116 32 -50 -1 -83 15 -101 48 -17 33 -41 45 -73 35 -32 -11 -56 1 -75 38
-18 32 -44 47 -67 38 -44 -16 -608 535 -608 595 0 20 -33 68 -74 106 -56 54
-67 78 -46 103 31 38 -10 207 -70 294 -19 27 -35 87 -35 133 0 98 -42 188 -78
166 -14 -9 -22 -54 -17 -100 4 -46 -4 -85 -17 -85 -14 -1 -29 52 -33 117 -9
130 -40 186 -92 166 -19 -7 -46 10 -62 38 -21 41 -43 48 -102 37 -53 -11 -90
-2 -125 29 -27 25 -83 44 -124 42 -50 -1 -84 14 -101 47 -36 67 -56 61 -107
-35 -40 -73 -45 -154 -45 -656 -1 -316 -3 -614 -5 -663 -6 -119 -440 -567
-550 -567 -37 0 -83 -13 -103 -29 -50 -43 -952 -49 -994 -7 -17 17 -44 30 -62
30 -17 0 -66 34 -108 75 -42 41 -97 75 -122 75 -24 0 -76 38 -114 84 -63 75
-81 83 -195 79 -87 -3 -132 -17 -148 -46 -13 -23 -48 -39 -79 -37 -58 5 -281
-92 -306 -133 -8 -13 -52 -16 -98 -8 -69 13 -89 6 -112 -37 -20 -37 -52 -52
-113 -52 -47 0 -92 -11 -100 -25 -25 -39 -156 -30 -172 13 -18 47 -66 48 -66
1 0 -61 -250 -78 -386 -26 -92 35 -121 38 -151 12 -25 -20 -49 -23 -69 -8 -57
43 -291 88 -368 71 -57 -13 -80 -7 -91 23 -11 26 -43 39 -94 36 -45 -2 -142
29 -228 74 -83 43 -169 72 -191 65 -22 -6 -54 5 -72 26 -17 21 -51 38 -75 38
-24 0 -58 -17 -75 -38 -19 -22 -52 -32 -79 -23 -25 8 -46 2 -46 -12 0 -15 -51
-51 -113 -80 -63 -29 -125 -74 -139 -100 -31 -58 -68 -60 -129 -4 -38 34 -56
37 -95 12 -27 -16 -60 -30 -74 -30 -14 0 -46 -21 -71 -46 -41 -41 -83 -45
-394 -38 -191 5 -356 9 -366 9 -11 0 -19 11 -19 23 0 13 -33 60 -74 105 -73
80 -75 80 -126 35 -50 -46 -56 -44 -307 78 -254 123 -274 127 -522 112 -23 -2
-74 -37 -112 -78 -45 -47 -87 -70 -113 -61 -27 8 -53 -6 -71 -38 -60 -113
-278 -23 -514 212 -143 142 -153 159 -117 195 43 43 48 38 -81 79 -39 12 -48
152 -38 596 3 172 -26 250 -85 227 -18 -7 -46 5 -64 26 -41 50 -185 50 -227 1
-28 -34 -36 -34 -73 0 -27 24 -106 40 -228 45 -102 5 -210 22 -240 38 -78 43
-508 39 -571 -4 -72 -50 -873 -50 -915 0 -15 18 -55 34 -88 34 -32 0 -59 11
-59 25 0 14 17 25 38 25 23 0 37 24 37 63 0 50 -12 62 -62 62 -35 0 -63 10
-63 22 0 47 -86 56 -118 12 -17 -23 -37 -37 -44 -30 -17 17 82 121 115 121 45
0 10 57 -48 78 -41 15 -55 11 -55 -16 0 -23 -24 -37 -64 -37 -66 0 -67 11 -17
144 9 25 -4 26 -57 6 -90 -35 -185 44 -181 152 1 39 -10 86 -24 103 -47 59
-62 229 -54 620 4 213 8 446 8 518 1 100 13 138 51 166 28 20 42 45 32 55 -10
10 -2 47 17 83 19 36 41 85 49 109 7 24 28 37 46 30 58 -22 183 130 144 176
-26 32 -22 48 28 99 150 151 211 226 224 274 8 32 32 51 61 48 26 -2 61 15 78
38 25 33 40 36 77 13 36 -22 58 -20 94 6 26 19 68 35 93 35 54 0 60 71 8 91
-110 42 80 108 337 117 230 8 309 -38 274 -160 -21 -76 -16 -82 57 -74 24 2
44 -10 44 -28 0 -47 229 -249 274 -240 21 4 42 38 46 75 7 54 22 69 68 69 79
0 103 45 46 88 -45 34 -44 35 7 36 30 1 60 -16 68 -36 8 -21 36 -38 62 -38 26
0 62 17 79 38 17 20 45 37 63 37 37 0 69 69 48 102 -8 13 -30 23 -50 23 -20 0
-36 11 -36 25 0 14 33 25 73 25 40 0 78 14 83 31 6 18 62 34 134 38 67 3 139
7 160 8 94 6 375 -69 375 -100 0 -11 -34 -27 -75 -36 -102 -20 -94 -51 30
-113 93 -46 110 -47 146 -15 22 20 59 37 82 37 27 0 42 20 42 58 0 73 103 174
157 153 24 -9 49 4 66 35 18 35 51 50 102 49 42 -2 80 2 86 7 8 8 686 4 989
-6z m11210 -5759 c18 -25 45 -37 62 -26 34 21 453 -389 453 -444 0 -20 17 -50
38 -67 21 -18 32 -52 24 -77 -10 -30 3 -54 37 -72 28 -15 51 -50 51 -78 0 -61
116 -175 160 -158 18 7 46 -5 64 -26 44 -53 258 -53 303 0 23 28 56 35 114 25
66 -13 87 -6 109 36 19 36 43 48 75 38 32 -11 56 1 75 38 26 47 43 51 150 37
98 -14 125 -9 144 25 38 69 874 72 910 4 20 -37 43 -44 109 -31 69 13 89 6
112 -37 23 -42 43 -49 103 -36 61 13 88 3 153 -61 43 -42 97 -77 120 -77 23 0
92 -55 152 -121 142 -157 238 -169 326 -40 62 90 96 109 96 51 0 -37 121 -127
143 -106 28 29 -23 147 -69 159 -47 12 -70 57 -29 57 11 0 55 34 97 75 47 46
93 70 116 61 24 -9 49 6 67 39 24 46 44 52 113 39 69 -13 89 -6 112 35 38 72
604 78 682 7 32 -29 84 -42 158 -39 81 3 116 -7 133 -38 31 -58 723 -55 756 4
17 30 68 34 287 23 238 -12 270 -9 300 32 48 66 877 69 914 2 15 -27 41 -37
70 -27 32 10 56 -3 75 -39 18 -32 44 -47 67 -38 22 8 68 -15 110 -55 40 -38
96 -74 124 -81 69 -17 63 -61 -7 -62 -61 -1 -91 -76 -47 -120 18 -18 37 -16
64 6 22 18 65 25 101 16 45 -11 75 -2 105 34 32 37 51 42 76 22 43 -36 72 -7
37 36 -36 43 222 300 279 278 22 -8 48 6 64 36 41 76 1014 74 1055 -2 21 -39
43 -46 110 -33 67 13 89 6 109 -31 38 -71 251 -71 306 1 l41 52 29 -55 c21
-38 45 -51 77 -40 32 10 56 -2 75 -38 20 -37 43 -48 77 -37 31 10 53 2 63 -24
22 -57 414 -57 462 0 23 28 56 35 114 25 66 -13 87 -6 109 36 19 36 43 48 75
38 32 -11 56 1 76 38 23 44 43 51 112 38 66 -12 90 -6 109 30 35 66 871 62
909 -6 19 -34 46 -39 144 -25 100 13 124 9 145 -28 37 -67 424 -68 460 -1 19
36 42 42 108 30 66 -12 90 -6 109 30 34 65 871 62 908 -4 12 -22 49 -40 82
-40 33 0 67 -11 75 -24 8 -14 92 51 187 143 150 148 167 173 137 208 -51 56
126 223 237 223 42 0 77 12 77 26 0 44 124 153 153 135 15 -9 51 -6 81 8 145
68 268 85 330 45 97 -64 251 -40 367 57 34 28 44 29 44 4 0 -35 114 -150 150
-150 12 0 29 23 38 52 15 48 19 49 62 10 58 -52 254 -66 329 -22 112 64 123
66 169 25 51 -47 270 -9 309 53 25 40 218 43 218 4 0 -16 -22 -22 -50 -15 -55
15 -98 -26 -45 -43 141 -44 171 -40 195 23 25 67 50 78 89 40 13 -13 63 -27
111 -31 63 -6 90 -22 96 -58 13 -66 77 -111 158 -112 49 -1 70 -17 81 -63 9
-35 32 -63 51 -63 42 0 314 -253 314 -291 0 -15 28 -79 63 -144 59 -112 62
-137 62 -549 0 -237 -10 -442 -23 -455 -13 -13 -28 -77 -35 -143 -7 -66 -25
-135 -40 -154 -16 -18 -33 -70 -39 -115 -6 -45 -22 -93 -37 -108 -14 -14 -26
-46 -26 -70 0 -24 -23 -57 -51 -72 -33 -17 -46 -43 -37 -71 16 -52 -97 -172
-123 -130 -28 45 -58 31 -163 -78 -111 -115 -131 -195 -51 -195 28 0 50 -11
50 -25 0 -14 -27 -25 -60 -25 -35 0 -91 -32 -131 -75 -45 -47 -87 -70 -113
-61 -27 8 -53 -5 -69 -36 -18 -33 -51 -49 -101 -48 -41 2 -93 -13 -115 -31
-25 -21 -106 -35 -202 -36 l-161 -2 -215 220 c-118 120 -235 219 -261 219 -26
0 -94 -51 -152 -113 -59 -61 -125 -112 -149 -112 -23 0 -76 -34 -117 -75 -45
-44 -90 -69 -113 -61 -22 9 -48 -6 -65 -37 -15 -29 -43 -52 -62 -52 -59 0 -7
-134 58 -149 60 -14 64 -63 5 -64 -63 0 -56 -56 9 -72 60 -15 93 -90 39 -90
-14 0 -25 -11 -25 -25 0 -14 22 -25 48 -25 59 0 86 -75 65 -174 -14 -60 -8
-73 36 -80 71 -11 71 -52 1 -87 l-56 -29 57 -30 c54 -30 50 -36 -151 -231
-188 -182 -211 -197 -240 -158 -34 47 -85 33 -85 -22 0 -19 -29 -41 -65 -50
-50 -13 -62 -28 -52 -67 16 -59 -50 -147 -110 -147 -23 0 -55 -16 -72 -36 -16
-19 -62 -35 -102 -34 -40 2 -91 -13 -114 -32 -23 -19 -93 -38 -156 -42 -62 -4
-132 -24 -155 -44 -57 -52 -392 -51 -450 1 -23 21 -75 43 -114 48 -40 5 -128
38 -195 74 -67 36 -143 65 -169 65 -25 0 -46 11 -46 25 0 14 17 25 38 25 20 0
37 22 37 50 0 62 -63 66 -98 6 -23 -39 -26 -37 -26 14 -1 74 -53 92 -162 55
-91 -30 -118 -90 -51 -116 62 -24 41 -59 -35 -59 -43 0 -79 -16 -88 -39 -9
-24 -32 -34 -59 -26 -24 8 -77 -3 -118 -25 -42 -22 -108 -44 -147 -49 -39 -5
-89 -24 -110 -41 -68 -57 -578 -46 -610 12 -20 38 -42 45 -109 32 -66 -12 -90
-5 -118 35 -20 27 -77 67 -128 89 -51 21 -105 65 -120 98 -15 32 -58 82 -96
110 l-69 51 -59 -63 c-33 -35 -59 -88 -59 -117 0 -37 -18 -57 -56 -62 -31 -5
-86 -40 -122 -79 -53 -55 -90 -70 -179 -72 -63 -1 -131 -19 -155 -41 -61 -54
-690 -56 -750 -1 -23 20 -93 40 -155 44 -63 4 -135 24 -159 45 -33 27 -115 37
-304 39 -161 1 -271 13 -289 31 -16 16 -55 29 -87 29 -31 0 -57 11 -57 25 0
14 21 25 47 25 32 0 52 24 63 79 18 90 5 114 -41 78 -73 -57 -155 -57 -199 0
-41 54 -44 54 -116 12 -81 -48 -179 -58 -179 -19 0 43 -101 27 -118 -19 -9
-24 -28 -52 -43 -63 -17 -12 -11 -28 18 -45 62 -37 30 -73 -66 -73 -45 0 -95
-14 -112 -31 -17 -17 -64 -32 -105 -34 -41 -2 -93 -20 -116 -38 -22 -19 -89
-35 -147 -35 -66 -1 -126 -18 -155 -44 -64 -58 -468 -63 -530 -6 -23 20 -93
40 -155 44 -63 4 -133 23 -156 42 -23 19 -74 34 -114 32 -40 -1 -86 15 -102
34 -17 20 -57 36 -90 36 -66 0 -79 37 -21 59 20 8 37 31 37 51 0 39 -200 83
-247 55 -14 -9 -57 24 -95 72 -80 99 -143 112 -184 37 -18 -34 -42 -47 -73
-37 -32 10 -65 -9 -109 -66 -60 -76 -67 -79 -109 -42 -33 30 -61 34 -104 18
-74 -28 -58 -81 31 -97 l69 -12 -62 -59 c-38 -35 -76 -51 -94 -40 -18 11 -45
-1 -65 -28 -27 -37 -67 -48 -181 -48 -104 0 -161 -13 -195 -44 -68 -61 -469
-64 -535 -4 -25 23 -77 42 -117 44 -40 2 -91 19 -114 38 -22 19 -74 36 -115
38 -41 2 -88 17 -105 34 -48 48 -436 42 -455 -7 -21 -54 -338 -34 -380 23 -16
23 -46 35 -66 27 -24 -9 -77 31 -147 111 -127 145 -163 153 -238 59 -63 -79
-135 -48 -135 59 0 38 -15 59 -40 59 -30 0 -38 -17 -29 -62 7 -37 -3 -75 -25
-93 -20 -17 -46 -56 -58 -88 -12 -31 -37 -57 -55 -57 -30 0 -159 -59 -243
-112 -21 -13 -101 -24 -179 -25 -102 0 -155 -13 -193 -48 -36 -32 -73 -42
-122 -32 -59 11 -82 -1 -140 -73 -78 -97 -116 -92 -116 16 0 41 -10 74 -22 74
-31 0 -53 -64 -53 -152 0 -47 -13 -73 -36 -73 -59 0 -72 -50 -26 -100 40 -45
38 -52 -54 -145 -53 -54 -108 -111 -121 -126 -14 -14 -51 -52 -83 -84 -31 -32
-75 -77 -97 -100 -25 -27 -71 -41 -128 -38 -80 5 -90 -2 -110 -76 -19 -71 -45
-96 -80 -75 -6 4 -38 -19 -72 -50 -35 -34 -77 -51 -100 -42 -25 9 -49 -4 -67
-37 -32 -60 -96 -69 -116 -16 -39 100 -191 53 -179 -56 7 -73 -5 -76 -150 -44
-65 14 -81 10 -81 -22 0 -28 -24 -39 -87 -39 -55 0 -107 -19 -138 -50 -64 -64
-75 -63 -75 6 -1 78 -38 129 -82 112 -22 -9 -85 36 -166 117 -114 116 -125
136 -90 164 29 24 32 41 11 66 -16 19 -34 186 -42 384 -19 490 5 469 -532 462
-242 -4 -424 4 -442 19 -46 38 -214 120 -245 120 -16 0 -54 27 -85 60 -53 57
-54 61 -11 86 26 14 37 34 26 45 -10 11 -40 7 -65 -9 -51 -32 -77 -19 -77 37
0 35 -61 113 -156 202 -41 37 -44 162 -44 1933 0 1461 7 1910 31 1964 48 107
433 485 478 467 21 -8 47 5 62 32 37 69 1088 65 1139 -5z m-15547 -14138 c0
-3 83 -18 186 -33 168 -26 188 -35 201 -91 10 -45 34 -65 82 -70 48 -6 68 -23
68 -57 0 -40 18 -48 113 -48 78 0 118 -12 128 -37 8 -21 31 -38 51 -38 20 0
53 -17 74 -37 59 -59 126 -47 145 27 28 110 172 225 247 196 57 -22 81 42 29
80 -73 53 3 66 384 65 509 -1 554 -3 554 -31 0 -14 -17 -25 -37 -25 -66 0 -44
-93 25 -110 36 -9 74 -44 87 -78 25 -65 147 -87 222 -39 52 33 9 77 -76 77
-42 0 -71 12 -66 27 10 30 19 31 108 8 106 -26 183 7 192 84 9 80 37 85 538
90 285 3 308 -1 357 -53 29 -31 50 -70 48 -87 -9 -73 5 -94 65 -94 34 0 62 11
62 25 0 14 28 25 63 25 59 0 62 -6 47 -96 -12 -74 -6 -100 23 -111 48 -19 103
44 83 94 -9 24 0 38 23 38 21 0 44 -32 52 -75 9 -41 31 -75 50 -75 47 0 73 71
39 105 -37 37 69 120 151 120 34 0 82 23 107 51 31 34 54 42 71 25 38 -38 173
-33 160 5 -6 17 -35 32 -65 32 -105 2 -65 49 59 68 68 11 141 27 162 35 51 19
638 20 669 0 13 -8 90 -22 171 -30 212 -22 234 -31 173 -76 -61 -45 -18 -84
93 -85 52 0 69 -12 69 -50 0 -63 161 -74 184 -12 8 20 33 37 56 37 35 0 36 -6
8 -40 -29 -35 -26 -47 24 -88 74 -60 103 -60 103 1 0 27 22 56 49 64 27 9 55
37 64 64 16 51 62 68 62 24 0 -40 68 -29 85 15 19 49 -2 85 -49 85 -20 0 -36
10 -36 22 0 40 263 47 1350 35 598 -6 1110 -11 1138 -10 568 11 1767 6 1781
-8 10 -10 -3 -34 -30 -53 -46 -34 -46 -36 10 -85 40 -35 77 -45 120 -35 53 14
59 9 46 -33 -19 -59 113 -197 167 -176 47 18 129 -79 134 -157 22 -402 9 -877
-26 -946 -22 -42 -40 -94 -40 -115 0 -63 -43 -45 -61 25 -24 97 -75 59 -89
-66 -12 -106 -16 -110 -94 -110 -94 0 -224 -130 -176 -175 18 -17 30 -15 38 6
24 66 81 33 67 -39 -12 -59 0 -81 74 -138 48 -37 95 -91 104 -119 11 -36 32
-49 63 -40 79 20 135 -71 140 -229 18 -513 7 -766 -35 -808 -17 -17 -31 -58
-31 -91 0 -74 -59 -61 -70 16 -14 91 -72 61 -90 -46 -13 -83 -25 -100 -73
-100 -32 0 -79 -16 -105 -34 -45 -34 -45 -37 -2 -103 27 -42 39 -90 29 -127
-12 -49 19 -92 186 -259 110 -110 200 -215 200 -234 0 -18 14 -47 31 -64 20
-20 34 -168 43 -446 14 -429 -2 -534 -84 -566 -22 -8 -40 -30 -41 -47 0 -18
-57 -83 -128 -145 -70 -62 -151 -136 -180 -166 -30 -29 -84 -53 -122 -53 -38
0 -87 -15 -109 -33 -60 -50 -1529 -52 -1590 -2 -24 20 -75 35 -113 34 -53 0
-101 33 -199 138 -115 123 -145 141 -263 160 l-132 21 -113 -124 c-62 -69
-123 -125 -136 -125 -35 0 -237 -101 -253 -127 -27 -43 -539 -28 -589 18 -25
22 -77 40 -115 40 -55 -1 -122 53 -328 259 -256 258 -319 295 -379 223 -17
-21 -62 -38 -100 -38 -38 0 -84 -18 -102 -40 -19 -23 -57 -34 -91 -28 -53 10
-58 4 -51 -79 6 -88 4 -91 -181 -186 -103 -53 -220 -101 -259 -106 -39 -5 -87
-22 -106 -38 -47 -39 -798 -39 -845 0 -19 16 -70 33 -114 39 -44 5 -96 23
-116 40 -20 17 -70 30 -111 28 -50 -1 -83 15 -101 49 -17 31 -42 44 -66 35
-54 -21 -157 80 -157 153 0 32 -11 58 -25 58 -36 0 -31 69 6 82 24 9 24 19 3
42 -22 24 -42 22 -89 -9 -46 -30 -103 -37 -237 -28 -144 10 -184 4 -212 -29
-20 -24 -23 -45 -8 -50 97 -35 99 -55 13 -145 -57 -58 -101 -83 -129 -74 -29
9 -54 -5 -72 -39 -19 -36 -43 -48 -75 -37 -32 10 -56 -2 -73 -35 -18 -33 -51
-49 -101 -48 -41 2 -91 -12 -112 -29 -51 -42 -874 -44 -924 -3 -19 16 -67 33
-106 38 -39 5 -105 27 -146 49 -42 22 -94 34 -116 27 -22 -7 -54 4 -72 25 -40
49 -110 49 -151 0 -17 -21 -44 -34 -59 -29 -50 19 -118 -34 -103 -80 17 -54
-72 -140 -168 -163 -49 -11 -69 -32 -69 -70 0 -65 -68 -145 -124 -145 -22 0
-53 -12 -68 -27 -83 -83 -504 -10 -543 93 -9 22 -31 33 -51 26 -21 -9 -62 20
-101 72 -48 63 -85 86 -138 86 -40 0 -79 12 -88 26 -9 14 -37 19 -62 12 -25
-8 -52 -5 -60 7 -7 12 -123 21 -258 19 -176 -2 -256 7 -287 32 -24 19 -74 36
-113 39 -38 2 -86 14 -107 27 -82 53 -212 113 -244 113 -18 0 -39 17 -47 38
-8 21 -45 37 -87 37 -84 0 -96 39 -20 63 42 13 49 30 36 83 -10 37 -19 66 -21
66 -3 0 -31 15 -63 33 -41 23 -67 25 -89 7 -38 -32 -155 78 -129 121 9 15 -25
65 -75 111 -54 50 -85 97 -75 114 10 16 -5 72 -32 125 -28 54 -43 105 -34 114
10 9 -3 32 -28 50 -43 32 -45 119 -44 1739 1 1148 10 1716 28 1737 14 18 30
64 35 103 13 90 161 390 207 417 19 11 28 40 20 64 -21 69 94 167 136 116 53
-63 104 -47 96 31 -6 54 2 68 40 64 81 -7 165 38 165 88 0 78 81 126 270 158
169 29 238 84 105 84 -130 0 -73 57 74 74 83 10 156 25 161 34 9 14 578 16
578 3z m13891 -14 c18 -11 112 -24 209 -28 205 -8 282 -30 187 -55 -84 -22
-80 -87 6 -97 38 -5 103 -42 144 -84 58 -58 91 -72 136 -61 38 9 75 1 98 -23
60 -60 183 -73 273 -30 44 21 113 51 153 67 55 21 66 35 44 57 -45 45 -35 65
38 74 83 9 107 68 36 87 -209 55 142 84 970 81 772 -3 918 -16 907 -81 -10
-58 38 -117 95 -117 24 0 58 -16 74 -37 47 -56 181 50 171 136 -7 59 1 64 143
83 82 12 304 17 492 12 376 -11 445 -36 445 -163 0 -56 8 -61 75 -47 56 11 75
6 75 -22 0 -48 60 -48 100 1 17 20 47 37 67 37 19 0 51 38 71 84 30 74 49 86
152 100 148 20 458 20 626 0 125 -15 128 -17 125 -93 -3 -69 5 -79 63 -80 36
0 82 -14 101 -30 40 -33 152 -27 200 12 18 15 61 31 95 36 88 12 79 80 -12 96
-217 39 78 59 861 61 1066 2 1087 0 1088 -94 1 -100 115 -170 180 -112 25 22
68 44 96 49 34 6 50 29 50 71 0 86 156 101 950 89 891 -13 894 -13 912 -89 10
-44 44 -73 117 -100 57 -21 128 -60 158 -88 31 -27 85 -49 121 -49 53 0 65
-12 66 -63 1 -73 88 -106 89 -33 0 40 6 38 44 -11 l44 -57 85 88 c47 48 106
88 130 88 24 0 54 20 68 44 13 24 67 66 120 94 62 32 95 67 95 100 1 62 16 64
820 76 653 10 805 -2 806 -68 0 -22 14 -55 30 -75 16 -20 23 -61 16 -91 -21
-77 105 -80 129 -3 15 47 20 48 60 12 45 -41 127 -53 127 -19 0 30 140 105
198 105 62 0 69 38 10 61 -29 11 -34 23 -15 42 31 31 2003 43 2052 12 17 -10
30 -56 30 -102 0 -92 57 -130 150 -100 35 11 50 4 50 -22 0 -109 136 -148 180
-52 25 55 41 63 108 50 57 -11 96 -1 141 33 33 27 93 52 133 57 91 11 110 64
34 94 -71 27 -35 45 121 61 58 6 118 19 134 29 39 24 711 23 750 -1 33 -20 86
-29 218 -34 95 -4 111 -53 18 -53 -38 0 -70 -18 -80 -44 -9 -24 -28 -51 -42
-61 -14 -9 -16 -26 -5 -37 12 -11 27 -6 33 11 13 37 232 43 232 7 0 -14 29
-44 64 -67 59 -38 67 -38 104 -2 37 37 46 37 106 -7 134 -95 190 -90 299 23
87 91 105 99 157 76 41 -19 80 -19 127 -1 79 30 92 102 18 102 -27 0 -50 10
-50 23 0 40 290 52 950 42 351 -6 691 -11 757 -12 163 -1 183 -20 100 -98 -63
-60 -65 -67 -21 -76 26 -5 61 9 78 31 16 22 39 40 52 40 34 0 264 -153 328
-219 31 -31 71 -56 89 -56 89 0 367 -443 367 -585 0 -30 12 -67 26 -81 33 -33
48 -299 45 -796 -5 -552 -8 -605 -43 -646 -16 -20 -34 -73 -40 -118 -6 -45
-22 -93 -37 -108 -39 -39 -32 -180 11 -216 20 -16 36 -54 36 -84 -1 -29 -1
-531 0 -1114 l1 -1060 -73 -140 c-40 -77 -79 -159 -86 -183 -7 -24 -32 -44
-55 -44 -22 0 -84 -44 -138 -97 -66 -66 -127 -101 -193 -112 -54 -9 -112 -33
-129 -53 -45 -54 -466 -54 -526 0 -23 21 -75 43 -114 48 -40 5 -106 27 -147
49 -98 52 -132 50 -245 -10 -51 -27 -120 -50 -152 -50 -33 0 -74 -17 -91 -37
-35 -43 -561 -56 -586 -15 -15 24 -216 127 -249 127 -10 0 -53 34 -94 75 -67
67 -91 75 -232 75 -111 0 -167 -11 -189 -38 -18 -21 -52 -32 -77 -24 -30 10
-54 -3 -73 -38 -19 -36 -43 -48 -75 -37 -32 10 -56 -2 -73 -35 -18 -33 -51
-49 -101 -48 -41 2 -91 -12 -112 -29 -53 -44 -875 -44 -928 0 -21 17 -71 31
-112 29 -50 -1 -83 15 -101 48 -17 33 -41 45 -73 34 -32 -10 -56 2 -75 38 -18
34 -43 48 -72 38 -55 -17 -139 69 -140 145 0 40 -20 57 -73 67 -60 10 -74 26
-76 84 -6 125 -177 223 -194 111 -7 -52 -11 -51 -86 25 l-79 79 -17 -68 c-10
-40 -6 -71 10 -76 45 -15 30 -49 -29 -64 -151 -40 -244 -191 -118 -191 27 0
49 -7 49 -15 0 -28 -113 -108 -154 -109 -23 -1 -74 -33 -114 -73 -44 -44 -98
-72 -140 -72 -38 0 -89 -18 -114 -40 -62 -57 -482 -59 -528 -3 -17 20 -61 37
-98 37 -37 0 -89 17 -116 37 -27 20 -68 37 -91 37 -24 1 -56 24 -71 53 -17 33
-42 46 -67 37 -22 -8 -61 4 -88 29 -45 41 -52 41 -123 0 -41 -24 -90 -43 -109
-43 -18 0 -65 -32 -105 -72 -44 -44 -98 -72 -140 -72 -38 0 -89 -18 -114 -40
-64 -59 -467 -59 -531 0 -25 22 -76 40 -114 40 -42 0 -96 28 -140 72 -40 40
-88 72 -108 72 -20 0 -64 18 -98 40 -57 38 -67 38 -124 0 -34 -22 -78 -40 -98
-40 -20 0 -68 -32 -108 -72 -44 -44 -98 -72 -140 -72 -38 0 -89 -18 -114 -40
-64 -59 -541 -59 -606 -1 -67 61 -525 63 -591 3 -67 -61 -543 -63 -609 -3 -25
23 -77 42 -117 44 -40 2 -89 17 -108 33 -72 60 -177 69 -214 18 -19 -26 -68
-48 -110 -50 -41 -3 -95 -22 -120 -45 -62 -56 -541 -58 -603 -2 -23 21 -95 40
-160 43 -65 3 -130 19 -145 37 -33 41 -101 41 -141 1 -17 -17 -65 -32 -106
-34 -41 -3 -94 -20 -118 -40 -60 -50 -1606 -46 -1667 4 -22 19 -73 33 -114 31
-46 -1 -83 15 -97 41 -47 88 -474 10 -541 -98 -25 -42 -539 -28 -587 15 -23
21 -78 43 -122 49 -44 5 -96 23 -115 39 -59 48 -337 46 -363 -3 -16 -29 -58
-42 -139 -44 -67 -1 -135 -19 -159 -41 -62 -56 -467 -54 -529 2 -25 23 -79 42
-120 45 -41 2 -89 17 -106 34 -35 35 -186 42 -206 9 -8 -12 -54 -28 -104 -36
-50 -8 -107 -29 -128 -46 -54 -45 -1551 -47 -1588 -2 -14 17 -53 31 -86 31
-32 0 -101 22 -152 50 -120 64 -247 66 -280 4 -30 -57 -550 -66 -606 -10 -40
40 -102 40 -142 0 -17 -17 -80 -32 -140 -32 -59 -1 -126 -16 -149 -35 -52 -43
-647 -48 -698 -5 -19 15 -73 35 -119 45 -47 9 -135 43 -195 75 -61 32 -123 58
-138 59 -48 1 -156 105 -121 117 17 6 31 37 31 69 0 59 -42 88 -127 88 -31 0
-48 17 -48 48 0 81 -28 127 -78 127 -26 0 -47 -17 -47 -37 0 -21 -11 -38 -25
-38 -14 0 -25 20 -25 44 0 44 -150 358 -200 418 -15 18 -20 62 -11 97 9 38 0
95 -24 144 -60 120 -61 3198 -1 3318 25 50 34 107 24 152 -13 59 -6 79 37 102
30 16 48 44 41 62 -7 18 3 54 22 79 20 26 36 63 36 82 1 43 98 152 137 153 14
0 86 56 159 125 73 68 144 124 158 124 14 0 22 25 17 56 -6 42 6 58 47 64 30
5 89 43 132 86 56 58 76 68 76 37 0 -47 73 -93 148 -93 63 0 66 22 9 64 -42
30 -41 34 1 81 25 27 69 50 100 50 30 1 120 16 199 34 156 36 492 40 547 6z"/>
<path d="M6425 30270 c-536 -349 -826 -878 -825 -1507 1 -529 270 -817 763
-819 312 -1 521 110 619 330 72 160 72 517 1 676 -57 127 -196 275 -260 275
-23 0 -56 17 -73 38 -17 20 -58 37 -91 37 -120 0 -265 129 -311 275 -53 172
120 430 371 553 110 54 131 104 80 199 -38 71 -94 60 -274 -57z"/>
<path d="M8050 30338 c-17 -21 -41 -38 -54 -38 -42 0 -251 -160 -409 -314
-355 -344 -482 -764 -418 -1378 33 -322 88 -429 288 -565 142 -97 151 -99 375
-102 349 -5 569 118 687 383 191 430 -31 871 -495 984 -35 8 -108 54 -163 101
-94 82 -98 92 -98 234 1 182 91 313 311 452 194 123 208 148 126 230 -60 60
-108 64 -150 13z"/>
<path d="M8841 30330 c-9 -13 -18 -912 -20 -1996 l-5 -1971 86 0 86 0 14 150
c30 308 173 463 430 461 141 0 211 -40 534 -308 81 -66 231 -161 334 -210 187
-89 189 -89 538 -90 344 0 352 1 509 80 156 78 403 303 403 367 0 17 17 64 37
103 21 39 38 107 38 151 0 44 12 87 27 96 31 20 123 -57 123 -102 0 -17 39
-74 87 -127 48 -53 87 -104 87 -112 1 -20 267 -222 292 -222 10 0 35 -15 57
-34 22 -19 146 -72 277 -118 233 -82 246 -84 663 -84 510 -1 609 21 973 222
209 115 489 445 595 702 140 337 160 876 45 1200 -30 82 -61 172 -69 200 -32
102 -389 537 -442 537 -10 0 -59 31 -108 68 -49 38 -130 83 -179 102 -413 151
-361 142 -853 141 -679 -2 -919 -92 -1293 -486 -106 -111 -282 -379 -282 -429
0 -14 -16 -56 -36 -92 -54 -100 -100 -366 -103 -604 -4 -298 -1 -289 -100
-399 -155 -171 -337 -165 -626 20 -332 214 -575 304 -821 304 -347 0 -774
-210 -978 -482 -143 -189 -167 -28 -28 189 96 150 256 278 495 396 489 242
470 186 473 1385 1 533 -7 977 -18 987 -11 11 -155 8 -320 -5 -289 -23 -664
-14 -829 19 -43 9 -85 5 -93 -9z m4149 -1103 c249 -121 646 -630 1111 -1427
44 -75 176 -355 216 -457 23 -58 46 -199 52 -314 l10 -208 -103 -98 c-176
-168 -377 -126 -650 136 -430 412 -1056 1440 -1160 1907 -39 172 -39 183 11
303 90 216 275 273 513 158z"/>
<path d="M25784 29963 c-22 -59 9 -113 65 -113 57 0 64 29 25 102 -31 57 -70
62 -90 11z"/>
<path d="M16951 29546 c-89 -13 -180 -40 -202 -60 -22 -20 -49 -36 -60 -36
-11 0 -94 -59 -185 -130 -246 -193 -369 -245 -581 -245 -169 0 -182 4 -263 85
-74 74 -85 102 -85 207 0 144 -30 183 -141 183 -108 0 -107 4 -82 -325 28
-353 34 -2095 9 -2531 l-18 -319 650 0 649 0 -12 1333 c-11 1244 -9 1339 33
1427 56 118 138 154 238 102 86 -44 97 -63 186 -324 180 -524 321 -663 675
-663 426 0 609 243 703 933 48 353 45 366 -95 367 -83 0 -104 -32 -107 -162
-4 -163 -70 -238 -212 -238 -108 0 -130 11 -250 127 -181 173 -291 237 -438
258 -69 9 -154 21 -188 26 -34 4 -135 -2 -224 -15z"/>
<path d="M19863 29548 c-437 -45 -749 -192 -1020 -479 -71 -75 -242 -330 -244
-363 0 -10 -22 -63 -49 -118 -27 -55 -49 -119 -49 -141 -1 -23 -18 -81 -38
-131 -44 -103 -54 -651 -14 -746 13 -32 36 -102 50 -157 38 -155 241 -475 378
-598 141 -126 380 -290 423 -290 17 0 60 -15 96 -34 145 -75 330 -115 604
-129 652 -33 1051 77 1413 390 235 203 237 201 210 -202 l-10 -162 635 -7
c378 -4 642 3 651 17 8 13 6 122 -3 244 -28 374 -24 2070 7 2264 32 206 88
296 224 357 189 86 308 -31 347 -340 24 -191 -20 -819 -74 -1066 -17 -76 -25
-278 -21 -487 8 -343 12 -364 89 -523 232 -480 727 -625 1250 -366 398 197
465 260 390 367 -33 48 -41 49 -108 14 -252 -130 -365 47 -343 538 8 172 27
352 42 400 16 51 26 254 24 488 -8 788 -13 729 67 828 165 201 368 222 495 51
69 -93 73 -871 6 -1214 -84 -428 -42 -1037 80 -1159 16 -16 29 -43 29 -59 0
-43 230 -245 351 -307 348 -182 1187 94 1543 507 68 79 69 95 10 149 -64 58
-121 51 -169 -21 -49 -76 -200 -125 -316 -103 -235 44 -347 403 -259 837 52
254 55 842 5 958 -19 46 -56 133 -81 194 -131 315 -513 550 -971 597 -385 39
-503 9 -827 -212 -216 -146 -240 -150 -346 -58 -226 198 -540 291 -945 279
-220 -7 -313 -48 -766 -335 -172 -110 -286 -145 -463 -144 -249 1 -345 86
-366 322 l-12 140 -100 0 -100 0 5 -125 c4 -69 13 -599 22 -1178 l15 -1052
-109 -89 c-60 -48 -187 -126 -283 -171 -502 -237 -948 -40 -1460 645 -175 233
-175 233 76 283 136 27 226 59 471 168 687 304 1039 736 890 1092 -97 230
-408 396 -802 426 -110 8 -234 19 -275 23 -42 5 -165 -1 -275 -12z m-108 -301
c139 -71 347 -283 415 -424 158 -327 18 -611 -404 -821 -223 -111 -227 -107
-455 411 -156 355 -180 587 -75 724 123 162 332 206 519 110z"/>
<path d="M11680 29220 c-36 -36 -39 -87 -6 -107 32 -20 77 70 54 107 -14 23
-25 23 -48 0z"/>
<path d="M10953 28177 c-48 -30 -12 -77 58 -77 32 0 72 -17 89 -37 17 -21 47
-38 66 -38 19 0 34 17 34 38 0 20 -16 37 -37 37 -20 0 -48 23 -63 50 -28 53
-89 64 -147 27z"/>
<path d="M20834 27738 c-10 -26 -34 -33 -74 -23 -73 19 -102 -37 -60 -116 24
-44 46 -52 109 -43 97 15 141 1 141 -46 0 -49 98 -44 117 6 10 24 -1 54 -25
72 -23 16 -42 47 -42 67 0 85 -138 154 -166 83z"/>
<path d="M7050 27679 c0 -78 85 -133 191 -124 134 11 129 75 -8 108 -57 14
-113 33 -123 43 -32 33 -60 20 -60 -27z"/>
<path d="M6862 27624 c-10 -16 -6 -40 8 -54 34 -34 112 -5 99 36 -14 42 -85
54 -107 18z"/>
<path d="M27500 26815 c0 -19 -17 -41 -37 -49 -51 -19 -49 -116 2 -116 22 0
46 23 53 50 7 27 23 50 35 50 12 0 22 23 22 50 0 28 -17 50 -37 50 -21 0 -38
-16 -38 -35z"/>
<path d="M37100 24579 c-165 -31 -344 -153 -441 -299 -88 -132 -91 -144 -92
-368 -1 -220 3 -237 81 -359 107 -167 339 -328 473 -328 127 -1 279 -185 279
-339 0 -172 -215 -440 -401 -499 -94 -30 -91 -195 4 -220 140 -37 847 594 847
756 0 13 16 55 36 94 127 250 157 928 52 1171 -135 313 -458 464 -838 391z"/>
<path d="M38611 24579 c-308 -56 -506 -307 -514 -651 -6 -268 177 -623 324
-627 19 -1 64 -17 100 -37 37 -20 97 -42 134 -50 225 -48 320 -353 173 -556
-73 -101 -254 -258 -296 -258 -14 0 -43 -21 -66 -46 -102 -113 36 -274 143
-166 21 20 48 37 60 37 46 0 351 248 471 384 108 121 285 416 285 475 0 11 16
56 35 100 40 91 91 446 89 629 -5 535 -404 861 -938 766z"/>
<path d="M20000 24544 c-10 -786 4 -3908 18 -3920 11 -9 121 -7 245 6 123 12
399 19 612 15 l388 -7 12 1943 c7 1069 9 1955 4 1969 -13 40 -1279 34 -1279
-6z"/>
<path d="M32142 23984 c-64 -65 68 -114 247 -93 135 16 187 68 92 92 -72 18
-321 19 -339 1z"/>
<path d="M25913 23831 c-226 -42 -546 -283 -640 -481 -17 -34 -46 -96 -66
-137 -68 -141 -35 -618 56 -800 181 -365 433 -521 1175 -725 184 -51 337 -112
389 -155 22 -18 50 -33 64 -33 37 0 224 -203 269 -293 114 -227 -68 -484 -290
-409 -92 32 -254 226 -335 402 -61 132 -277 351 -410 415 -48 23 -108 53 -134
66 -76 38 -350 29 -434 -15 -197 -102 -355 -439 -395 -841 -18 -188 14 -259
106 -234 40 10 65 49 93 144 94 323 383 328 877 14 170 -108 265 -133 535
-143 551 -20 896 304 965 907 75 645 -138 1000 -750 1248 -124 51 -259 106
-300 124 -42 17 -143 52 -225 77 -136 40 -263 84 -400 138 -98 38 -262 175
-302 252 -53 103 -29 188 71 249 182 111 306 53 666 -310 497 -502 750 -548
1005 -184 104 149 104 149 213 136 126 -14 168 -43 252 -177 81 -128 94 -283
55 -678 -58 -599 -38 -828 96 -1107 87 -179 290 -403 417 -458 28 -13 68 -33
89 -45 205 -123 887 -235 936 -155 8 13 51 31 95 41 85 18 292 125 456 233
486 323 865 279 938 -108 33 -175 70 -227 146 -203 71 23 74 61 48 515 -13
226 -19 919 -13 1540 l9 1128 -635 -3 -635 -3 4 -1268 c3 -1235 2 -1271 -49
-1388 -62 -143 -169 -207 -348 -207 -330 0 -411 350 -291 1263 104 788 71
1084 -152 1355 -281 343 -730 394 -1228 138 -199 -102 -206 -102 -206 19 0 93
-5 100 -70 100 -80 0 -130 -40 -130 -103 0 -87 -152 -147 -369 -147 -203 0
-231 8 -593 174 -201 92 -503 156 -625 132z"/>
<path d="M23166 23806 c-8 -13 -52 -30 -97 -38 -45 -7 -181 -73 -302 -147
-121 -73 -256 -155 -300 -181 -120 -71 -335 -121 -445 -102 -154 26 -216 91
-236 249 -21 173 -58 226 -142 204 -84 -21 -85 -24 -67 -428 20 -434 5 -3783
-18 -4031 -17 -200 6 -257 104 -257 76 0 102 40 121 186 29 220 191 318 595
364 216 24 371 99 429 207 39 73 45 144 42 520 -2 239 -2 450 -2 467 3 46 54
38 113 -17 28 -27 121 -83 206 -125 588 -292 1516 247 1807 1048 80 222 82
798 3 947 -15 27 -27 68 -27 90 0 67 -141 330 -255 477 -186 238 -568 461
-907 530 -227 46 -603 68 -622 37z m89 -285 c186 -131 570 -724 570 -881 0
-21 16 -75 35 -120 58 -137 106 -400 154 -846 33 -310 -47 -607 -196 -724
-236 -186 -553 -127 -862 159 l-106 99 1 1052 c2 1031 3 1055 57 1164 86 177
192 206 347 97z"/>
<path d="M23391 22258 c-34 -34 -14 -83 34 -83 28 0 50 10 50 22 0 33 -65 80
-84 61z"/>
<path d="M23384 21861 c-9 -21 -9 -45 -1 -53 26 -25 92 14 92 54 0 50 -72 49
-91 -1z"/>
<path d="M31601 23781 c-52 -43 -53 -50 -25 -381 17 -210 25 -795 20 -1546
-10 -1377 -31 -1263 229 -1225 158 24 861 9 934 -19 70 -27 137 83 114 185
-34 145 -28 2208 6 2396 41 219 144 334 299 334 126 -1 142 -10 210 -112 45
-69 49 -115 45 -538 -3 -256 -18 -518 -35 -587 -51 -211 -59 -952 -12 -1050
21 -46 39 -99 39 -119 0 -49 138 -240 234 -325 323 -284 820 -245 1329 102
171 118 146 265 -35 205 -241 -80 -328 49 -328 484 0 158 16 363 35 457 45
219 55 495 29 863 -18 270 -16 300 33 400 113 231 390 299 520 128 l71 -92 -4
-439 c-2 -266 -17 -499 -37 -589 -22 -97 -34 -316 -34 -613 0 -461 0 -463 73
-612 133 -272 369 -435 689 -478 256 -34 797 176 1096 424 224 187 234 200
206 272 -35 93 -100 88 -227 -18 -203 -170 -424 -99 -535 171 -51 125 -53 466
-3 631 54 177 52 775 -2 903 -91 214 -125 275 -217 395 -88 112 -298 284 -352
286 -11 1 -56 17 -100 36 -364 162 -765 147 -1069 -39 -63 -39 -127 -71 -141
-71 -15 0 -31 -8 -35 -19 -13 -29 -166 -131 -197 -131 -16 0 -86 51 -157 113
-71 61 -144 112 -163 112 -19 0 -69 16 -113 35 -376 167 -764 147 -1098 -59
-80 -49 -165 -100 -188 -113 -24 -14 -79 -51 -123 -82 -90 -65 -357 -156 -454
-155 -197 1 -353 154 -353 345 0 132 -91 202 -174 135z"/>
<path d="M28179 20589 c5 -36 20 -65 34 -65 37 1 30 108 -9 120 -23 8 -30 -8
-25 -55z"/>
<path d="M25618 20460 c-62 -62 -15 -110 106 -110 119 0 179 33 135 75 -31 29
-220 56 -241 35z"/>
<path d="M32925 20414 c0 -45 97 -77 130 -44 38 38 1 80 -69 80 -36 0 -61 -15
-61 -36z"/>
<path d="M36775 20403 c0 -33 75 -56 129 -39 77 24 52 61 -41 61 -49 0 -88
-10 -88 -22z"/>
<path d="M13996 10758 c-49 -59 14 -100 91 -58 35 18 63 41 63 51 0 36 -125
42 -154 7z"/>
<path d="M14212 10774 c-20 -32 34 -78 76 -65 13 4 25 23 25 43 0 44 -77 61
-101 22z"/>
<path d="M14364 10777 c-18 -29 82 -102 139 -102 51 0 107 64 85 99 -20 32
-205 35 -224 3z"/>
<path d="M9956 10634 c-58 -24 -31 -62 38 -54 38 4 66 19 64 33 -6 29 -57 39
-102 21z"/>
<path d="M5118 10350 c-442 -84 -654 -263 -826 -700 -54 -136 -54 -156 -54
-1687 l0 -1550 57 -161 c74 -206 93 -242 198 -372 90 -111 318 -280 378 -280
19 0 73 -18 120 -41 70 -33 142 -38 386 -28 l300 12 110 -84 c61 -46 117 -84
126 -84 12 0 185 -122 275 -194 204 -166 217 -165 322 32 43 82 109 197 147
255 103 161 94 182 -133 287 -207 97 -245 150 -160 221 48 40 102 162 163 374
45 151 48 261 48 1616 0 1598 3 1560 -158 1880 -209 416 -717 614 -1299 504z
m436 -909 c54 -65 50 64 49 -1591 l-1 -1362 -65 -57 c-129 -112 -290 -57 -341
116 -58 201 -48 2739 12 2848 75 138 249 161 346 46z"/>
<path d="M10523 10353 c-444 -89 -686 -290 -827 -690 -66 -187 -69 -3147 -4
-3347 134 -408 345 -636 696 -750 178 -59 679 -55 850 5 377 133 581 372 700
817 34 131 38 339 31 1650 -7 1469 -9 1502 -62 1632 -197 484 -476 671 -1069
718 -55 4 -197 -12 -315 -35z m440 -905 c48 -48 50 -82 50 -1501 l0 -1451 -71
-61 c-90 -77 -201 -78 -278 -1 -107 107 -117 244 -109 1606 7 1228 9 1276 58
1359 78 132 241 155 350 49z"/>
<path d="M6973 10326 c-18 -104 10 -3747 30 -3851 87 -457 277 -748 560 -858
13 -5 64 -25 112 -44 136 -53 776 -62 873 -12 41 22 95 39 120 40 123 2 436
310 501 494 110 309 106 237 108 1868 1 852 11 1724 21 1937 10 213 10 399 -1
413 -11 15 -194 25 -473 25 l-454 0 4 -1866 c3 -1703 0 -1873 -39 -1954 -54
-113 -130 -154 -246 -132 -186 34 -176 -80 -180 2050 l-3 1900 -466 2 c-256 1
-466 -5 -467 -12z"/>
<path d="M12206 10314 c-17 -28 -7 -871 11 -889 7 -7 138 -12 291 -12 l280 0
-3 -125 c-9 -557 -11 -3716 -2 -3731 7 -11 224 -19 483 -18 l472 2 -2 136 c-3
161 -14 3670 -12 3720 1 27 56 32 282 25 l282 -9 0 458 0 459 -1034 4 c-613 2
-1040 -6 -1048 -20z"/>
<path d="M14577 10325 c-10 -7 -18 -232 -17 -500 2 -268 -1 -1335 -6 -2371 -4
-1036 -2 -1889 4 -1896 7 -6 455 -12 996 -13 l984 -1 6 482 7 482 -500 -14
c-276 -8 -507 -4 -514 8 -21 33 -21 1038 -1 1071 13 20 72 25 185 16 787 -62
763 -70 727 249 -13 120 -13 279 1 400 30 255 2 290 -204 261 -203 -30 -660
-46 -694 -25 -26 16 -41 511 -27 907 1 50 269 58 689 20 123 -11 234 -11 246
0 16 15 30 763 18 918 -2 20 -1870 26 -1900 6z"/>
<path d="M26142 10724 c-10 -39 -3 -50 28 -44 53 10 72 95 22 95 -20 0 -42
-23 -50 -51z"/>
<path d="M38600 10750 c0 -14 34 -25 76 -25 45 0 71 10 62 25 -9 14 -43 25
-77 25 -34 0 -61 -11 -61 -25z"/>
<path d="M19000 10353 c-466 -107 -690 -322 -834 -800 -67 -220 -61 -2919 7
-3195 57 -232 103 -358 146 -404 17 -18 31 -42 31 -53 0 -50 252 -273 341
-301 53 -17 110 -42 125 -54 56 -45 565 -29 673 20 142 65 275 173 337 274 70
112 158 111 169 -2 4 -42 26 -123 47 -182 46 -122 82 -138 283 -126 l134 8 -1
1395 c-1 780 -11 1404 -23 1416 -12 12 -79 12 -147 0 -156 -26 -546 -28 -771
-2 -142 15 -173 12 -189 -21 -21 -44 -14 -763 8 -798 8 -13 59 -17 114 -10 74
10 101 5 102 -21 21 -283 -12 -945 -49 -1009 -87 -152 -321 -138 -403 25 -49
97 -72 2567 -26 2779 34 155 101 208 261 208 179 0 219 -88 213 -474 -3 -166
1 -308 9 -317 9 -8 215 -14 458 -13 488 1 495 4 472 154 -7 48 -23 212 -35
365 -12 153 -34 301 -49 330 -15 28 -28 75 -28 103 0 108 -150 357 -300 498
-109 103 -280 171 -539 213 -297 49 -296 49 -536 -6z"/>
<path d="M36800 10387 c-21 -4 -122 -21 -225 -38 -210 -35 -447 -150 -578
-280 -92 -93 -247 -414 -247 -514 0 -37 -11 -105 -24 -150 -13 -47 -24 -669
-26 -1438 -2 -1565 7 -1656 205 -1962 39 -59 70 -115 70 -125 0 -43 333 -280
395 -281 23 0 71 -17 105 -36 46 -27 153 -36 400 -36 247 0 354 9 400 36 34
19 82 36 105 36 84 2 317 181 441 339 63 80 166 350 196 512 44 239 47 2793 4
3050 -77 453 -387 773 -821 846 -219 37 -355 51 -400 41z m160 -886 c140 -53
140 -50 140 -1556 0 -1330 -2 -1386 -49 -1463 -53 -87 -139 -122 -239 -97 -35
9 -86 53 -113 97 -76 126 -76 2814 1 2931 41 63 98 98 180 110 9 1 45 -9 80
-22z"/>
<path d="M20841 10332 c-3 -2 -3 -1081 1 -2396 l6 -2392 963 2 c530 0 974 8
987 15 13 8 21 214 19 471 l-4 456 -500 0 -500 0 0 550 0 550 337 -12 c186 -7
388 -12 450 -13 l113 0 0 462 0 463 -125 -1 c-69 0 -272 -6 -450 -13 l-325
-11 0 475 0 475 475 0 475 0 0 458 0 458 -959 4 c-527 3 -960 2 -963 -1z"/>
<path d="M23149 10325 c-1 -12 0 -4747 1 -4775 0 -15 896 -13 909 2 5 6 0 517
-11 1136 -11 618 -14 1150 -6 1181 20 84 79 68 93 -25 28 -177 38 -240 76
-456 22 -124 51 -309 66 -411 14 -102 32 -197 40 -210 8 -13 23 -93 33 -177
10 -84 30 -203 45 -265 56 -235 88 -418 99 -567 6 -91 25 -167 45 -184 60 -50
936 -50 936 0 0 117 0 4718 0 4739 0 25 -886 36 -909 11 -6 -6 -1 -495 11
-1086 22 -1096 20 -1163 -39 -1163 -42 0 -33 -45 -164 813 -15 96 -39 236 -53
312 -15 76 -36 210 -48 298 -12 89 -33 196 -45 238 -13 42 -37 183 -54 314
-17 131 -40 248 -52 260 -21 24 -971 39 -973 15z"/>
<path d="M25910 10321 c-14 -22 -14 -4750 -1 -4764 32 -31 1950 -10 1964 22 8
18 11 235 7 481 l-8 447 -497 -13 c-364 -11 -499 -6 -507 15 -5 16 0 145 12
287 12 143 12 366 1 496 -28 326 -55 309 453 281 231 -13 429 -18 439 -11 22
13 21 902 -1 924 -8 8 -205 4 -437 -9 -232 -13 -431 -15 -442 -5 -10 11 -16
226 -12 480 l7 461 462 0 462 0 0 459 1 460 -947 3 c-520 1 -950 -5 -956 -14z"/>
<path d="M28184 10313 c-5 -14 -6 -1093 -3 -2398 l7 -2372 470 -3 c502 -3 536
5 508 116 -25 101 -23 2072 3 2098 40 40 251 -28 308 -100 49 -62 51 -95 48
-1065 -2 -551 -2 -1013 -2 -1027 2 -32 875 -24 907 8 13 13 20 469 15 1083
l-7 1060 -66 100 c-59 91 -157 160 -278 197 -70 21 -52 52 62 111 133 68 194
115 194 147 0 14 16 39 35 55 87 72 115 260 115 764 0 735 -94 987 -430 1157
l-157 79 -860 7 c-556 5 -863 -1 -869 -17z m1232 -863 c137 0 184 -103 184
-404 0 -394 -107 -546 -363 -517 l-74 9 -13 425 c-14 483 -5 524 105 502 42
-8 114 -15 161 -15z"/>
<path d="M31163 10288 c-12 -60 -34 -320 -62 -713 -20 -279 -49 -582 -104
-1075 -15 -131 -36 -372 -48 -537 -13 -166 -34 -368 -48 -450 -14 -83 -26
-212 -26 -288 1 -76 -16 -284 -36 -462 -21 -179 -50 -444 -65 -588 -16 -144
-36 -324 -45 -400 -31 -256 -66 -238 450 -234 327 2 457 11 471 33 16 27 36
430 29 601 -8 177 -8 177 315 170 l294 -7 6 -367 c6 -286 15 -373 44 -397 40
-33 868 -51 918 -20 26 16 22 55 -30 296 -13 62 -24 180 -25 263 -1 82 -18
238 -39 345 -20 108 -37 294 -37 413 0 119 -11 256 -25 304 -14 48 -36 253
-49 456 -13 203 -30 380 -38 393 -8 14 -25 180 -38 369 -23 359 -57 713 -105
1095 -15 123 -34 364 -43 534 l-14 309 -820 3 c-802 3 -820 2 -830 -46z m858
-782 c15 -38 40 -333 54 -656 15 -323 33 -604 40 -624 7 -21 23 -212 35 -425
12 -214 35 -448 51 -521 43 -197 35 -205 -210 -205 -146 0 -214 10 -223 31
-12 33 19 491 45 644 8 48 24 318 37 600 51 1137 59 1225 111 1225 18 0 45
-31 60 -69z"/>
<path d="M33359 10312 c-6 -15 -7 -223 -3 -463 l7 -436 295 9 295 9 -3 -1922
c-1 -1057 -2 -1933 -1 -1946 1 -16 178 -25 482 -24 l482 1 -2 161 c-1 89 -5
960 -8 1937 l-6 1775 258 0 c142 0 269 7 283 16 15 10 25 192 25 459 l0 443
-1047 3 c-702 2 -1051 -5 -1057 -22z"/>
<path d="M38429 10319 c-10 -10 -10 -95 0 -188 11 -93 19 -1163 17 -2378 l-2
-2210 479 -3 c544 -3 525 -12 493 217 -28 202 -25 1969 3 1997 19 19 66 15
163 -16 200 -63 199 -55 190 -1204 -3 -527 1 -965 10 -974 27 -27 918 -25 920
3 14 233 -11 2075 -30 2145 -30 114 -175 264 -276 284 -99 20 -89 64 29 130
253 142 348 393 349 921 2 715 -173 1124 -528 1238 -144 46 -1775 80 -1817 38z
m1215 -869 c46 0 102 -21 129 -48 104 -104 87 -713 -24 -806 -58 -49 -293 -87
-327 -53 -13 13 -24 218 -25 456 -2 458 7 491 116 464 27 -7 86 -12 131 -13z"/>
<path d="M37987 5424 c-10 -15 -6 -40 7 -53 37 -37 144 -15 144 29 0 45 -125
65 -151 24z"/>
</g>
</svg>
