<svg xmlns="http://www.w3.org/2000/svg" width="1080" height="1080" viewBox="0 0 1080 1080" version="1.1">
	<path d="M 0 540.001 L 0 1080.002 540.250 1079.751 L 1080.500 1079.500 1080.751 539.750 L 1081.002 -0 540.501 -0 L 0 0 0 540.001 M 0.496 540.500 C 0.496 837.500, 0.610 958.851, 0.750 810.168 C 0.890 661.485, 0.890 418.485, 0.750 270.168 C 0.610 121.851, 0.496 243.500, 0.496 540.500 M 536.785 98.590 C 530.380 100.560, 521.012 109.304, 517.878 116.240 L 515.500 121.500 515 265.624 L 514.500 409.747 509.500 413.704 C 496.898 423.676, 487.551 438.157, 484.939 451.754 C 483.242 460.590, 484.189 476.939, 486.845 484.667 C 492.322 500.600, 504.839 515, 519.154 521.835 C 529.417 526.735, 535.298 528, 547.819 528 C 565.907 528, 580.049 522.145, 592.550 509.481 C 600.753 501.172, 607.102 489.951, 609.585 479.376 C 611.728 470.248, 611.052 454.047, 608.151 444.985 C 604.254 432.814, 594.149 419.363, 583.250 411.838 L 579 408.904 579 391.952 L 579 375 590 375 L 601 375 601 370.500 L 601 366 590 366 L 579 366 579 340.500 L 579 315 590 315 L 601 315 601 310.500 L 601 306 590 306 L 579 306 579 280.500 L 579 255 590 255 L 601 255 601 251 L 601 247 590 247 L 579 247 579 221 L 579 195 590 195 L 601 195 601 191 L 601 187 590.049 187 L 579.099 187 578.799 153.250 L 578.500 119.500 575.805 114.392 C 572.204 107.566, 564.521 100.795, 557.980 98.683 C 551.704 96.656, 543.194 96.618, 536.785 98.590 M 541.728 109.327 C 536.404 110.983, 531.108 115.551, 528.916 120.377 C 527.114 124.345, 527.043 129.974, 527.022 270.235 L 527 415.969 520.650 419.980 C 502.450 431.474, 492.788 451.620, 495.746 471.910 C 498.533 491.036, 511.555 507.264, 529.500 513.978 C 537.936 517.134, 550.675 517.785, 559.877 515.530 C 583.956 509.629, 602.319 483.872, 599.420 460.065 C 597.267 442.387, 588.914 429.317, 573.443 419.420 L 568 415.939 567.994 271.219 C 567.990 169.167, 567.665 125.321, 566.890 122.500 C 565.494 117.419, 558.801 110.856, 553.349 109.223 C 548.478 107.763, 546.704 107.779, 541.728 109.327 M 535.697 289.637 C 535.314 290.020, 535 319.665, 535 355.515 L 535 420.696 527.675 424.316 C 510.118 432.993, 499.853 452.483, 502.894 471.366 C 506.068 491.080, 521.269 506.218, 540.950 509.264 C 565.140 513.008, 587.743 496.422, 592.026 471.786 C 595.354 452.640, 584.275 432.019, 566.257 423.826 L 560.014 420.987 559.757 355.243 L 559.500 289.500 547.947 289.220 C 541.592 289.066, 536.080 289.253, 535.697 289.637 M 230.305 534 C 219.241 535.636, 209.748 543.220, 206.491 553.026 C 204.588 558.757, 204.384 569.213, 206.067 574.830 C 208.028 581.376, 213.839 588.098, 220.463 591.482 C 225.880 594.250, 227.202 594.499, 236.435 594.493 C 244.562 594.488, 247.384 594.079, 251.089 592.371 C 257.091 589.603, 262.650 583.948, 265.605 577.602 C 268.968 570.379, 268.968 558.621, 265.605 551.398 C 261.482 542.544, 253.235 535.962, 244.453 534.516 C 236.993 533.288, 235.489 533.233, 230.305 534 M 713.305 534 C 702.241 535.636, 692.748 543.220, 689.491 553.026 C 687.588 558.757, 687.384 569.213, 689.067 574.830 C 691.028 581.376, 696.839 588.098, 703.463 591.482 C 708.880 594.250, 710.202 594.499, 719.435 594.493 C 727.562 594.488, 730.384 594.079, 734.089 592.371 C 740.091 589.603, 745.650 583.948, 748.605 577.602 C 751.968 570.379, 751.968 558.621, 748.605 551.398 C 744.482 542.544, 736.235 535.962, 727.453 534.516 C 719.993 533.288, 718.489 533.233, 713.305 534 M 231 545.872 C 222.042 547.770, 217.539 554.839, 218.171 566.012 C 218.603 573.674, 220.305 576.881, 225.990 580.750 C 228.663 582.569, 230.675 583, 236.500 583 C 244.387 583, 248.318 581.197, 252.377 575.718 C 255.509 571.490, 255.894 560.478, 253.110 554.728 C 249.669 547.618, 240.358 543.889, 231 545.872 M 714 545.872 C 705.042 547.770, 700.539 554.839, 701.171 566.012 C 701.603 573.674, 703.305 576.881, 708.990 580.750 C 711.663 582.569, 713.675 583, 719.500 583 C 727.387 583, 731.318 581.197, 735.377 575.718 C 738.509 571.490, 738.894 560.478, 736.110 554.728 C 732.669 547.618, 723.358 543.889, 714 545.872 M 319.405 554.479 C 309.074 556.737, 303.632 559.672, 297.035 566.542 C 289.700 574.181, 287.574 578.675, 285.432 591.077 C 283.033 604.962, 283.826 637.131, 286.765 645.172 C 291.323 657.639, 299.027 666.040, 311.733 672.398 C 322.751 677.911, 325.788 678.289, 362.766 678.751 L 397.032 679.179 396.766 651.943 L 396.500 624.708 370.325 624.604 C 345.428 624.505, 344.011 624.398, 341.325 622.410 C 337.320 619.447, 335.500 615.392, 336.848 612.435 C 339.033 607.639, 341.955 607.098, 370.158 606.272 L 396.500 605.500 396.500 579.500 L 396.500 553.500 361 553.323 C 334.580 553.192, 323.941 553.487, 319.405 554.479 M 768 616.015 L 768 679.030 797.250 678.765 L 826.500 678.500 826 673.500 C 825.725 670.750, 825.500 664.820, 825.500 660.323 C 825.500 645.716, 827.938 644.450, 859.500 642.679 C 880.296 641.511, 880.499 641.478, 880.429 639.250 C 880.389 638.013, 880.276 631.038, 880.177 623.750 L 879.996 610.500 855.409 610.500 L 830.821 610.500 828.911 608.139 C 826.461 605.112, 826.464 599.881, 828.917 596.861 C 830.780 594.567, 831.258 594.501, 845.667 594.551 C 853.825 594.579, 864.837 594.922, 870.138 595.313 C 877.521 595.858, 879.874 595.729, 880.193 594.762 C 880.422 594.068, 880.425 584.388, 880.200 573.250 L 879.791 553 823.896 553 L 768 553 768 616.015 M 576.716 558.851 C 574.085 560.400, 571.488 562.112, 570.944 562.656 C 569.255 564.345, 587.890 584.681, 599 593.272 L 602.500 595.978 524.704 595.989 L 446.909 596 447.204 602.750 L 447.500 609.500 524.279 610 L 601.058 610.500 593.390 617 C 586.280 623.026, 572.981 637.325, 570.918 641.161 C 570.195 642.505, 571.072 643.414, 575.497 645.911 C 578.507 647.610, 581.342 649, 581.797 649 C 582.252 649, 583.569 647.722, 584.724 646.159 C 592.009 636.305, 613.975 616.280, 630.427 604.494 L 633.226 602.488 627.384 598.494 C 614.712 589.830, 594.643 571.344, 584.780 559.250 C 583.322 557.462, 581.988 556.008, 581.815 556.017 C 581.642 556.026, 579.347 557.302, 576.716 558.851 M 24.686 739.750 C 24.449 740.163, 23.945 742.638, 23.566 745.250 L 22.877 750 28.880 750 C 32.181 750, 35.078 750.337, 35.318 750.750 C 35.558 751.163, 32 772.875, 27.412 799 C 22.823 825.125, 19.053 847.086, 19.034 847.802 C 19.009 848.748, 20.437 849.022, 24.250 848.802 L 29.500 848.500 38.046 799.500 L 46.593 750.500 53.223 750.206 L 59.853 749.912 60.927 744.907 C 61.517 742.154, 62 739.699, 62 739.451 C 62 738.668, 25.139 738.964, 24.686 739.750 M 73.516 741.250 C 72.424 745.954, 55 845.816, 55 847.369 C 55 848.802, 56.761 849, 69.500 849 C 82.639 849, 84.001 848.836, 84.011 847.250 C 84.017 846.288, 84.301 843.813, 84.642 841.750 L 85.262 838 76.022 838 C 66.946 838, 66.793 837.960, 67.328 835.750 C 67.628 834.513, 69.056 826.525, 70.502 818 C 71.947 809.475, 73.356 801.712, 73.633 800.750 C 74.055 799.277, 75.363 799, 81.900 799 L 89.666 799 90.662 793.500 L 91.659 788 83.713 788 L 75.767 788 76.312 785.250 C 76.612 783.737, 78.104 775.188, 79.628 766.250 L 82.398 750 91.154 750 L 99.909 750 100.542 746.250 C 100.890 744.188, 101.391 741.712, 101.655 740.750 C 102.095 739.144, 100.982 739, 88.086 739 C 74.339 739, 74.027 739.048, 73.516 741.250 M 119 739.325 C 119 739.503, 113.825 764.068, 107.500 793.913 C 101.175 823.758, 96 848.362, 96 848.589 C 96 848.815, 98.475 849, 101.500 849 C 104.525 849, 107 848.719, 107 848.375 C 107 848.031, 109.445 833.519, 112.433 816.125 C 115.421 798.731, 118.684 779.550, 119.683 773.500 L 121.500 762.500 125 762.500 L 128.500 762.500 128.500 770.500 C 128.500 774.900, 128.113 789.897, 127.640 803.827 L 126.781 829.154 129.569 828.827 C 132.303 828.506, 132.571 827.846, 143.208 795.250 L 154.058 762 157.529 762 C 159.438 762, 161 762.337, 161 762.750 C 161 763.163, 160.311 767.100, 159.468 771.500 C 156.918 784.825, 146 846.781, 146 847.929 C 146 848.555, 148.191 849, 151.274 849 L 156.548 849 164.343 795.750 C 168.630 766.462, 172.362 741.712, 172.636 740.750 C 173.079 739.194, 172.300 739, 165.614 739 L 158.094 739 148.626 768.250 C 143.419 784.337, 138.601 799.413, 137.921 801.750 C 136.774 805.689, 136.431 806, 133.236 806 L 129.788 806 130.370 797.250 C 130.690 792.438, 131.194 781.750, 131.490 773.500 C 131.785 765.250, 132.294 754.112, 132.621 748.750 L 133.216 739 126.108 739 C 122.199 739, 119 739.146, 119 739.325 M 191.516 741.250 C 190.424 745.954, 173 845.816, 173 847.369 C 173 848.659, 174.044 849, 178 849 C 180.750 849, 183.029 848.888, 183.065 848.750 C 183.101 848.612, 184.788 839.050, 186.815 827.500 L 190.500 806.500 199 805.956 C 216.099 804.860, 220.572 799.797, 225.018 776.500 C 230.695 746.757, 225.911 739, 201.893 739 C 192.494 739, 192.014 739.104, 191.516 741.250 M 245.516 741.250 C 244.424 745.954, 227 845.816, 227 847.369 C 227 848.802, 228.761 849, 241.500 849 C 254.639 849, 256.001 848.836, 256.011 847.250 C 256.017 846.288, 256.301 843.813, 256.642 841.750 L 257.262 838 248.022 838 C 238.946 838, 238.793 837.960, 239.328 835.750 C 239.628 834.513, 241.056 826.525, 242.502 818 C 243.947 809.475, 245.356 801.712, 245.633 800.750 C 246.055 799.277, 247.363 799, 253.900 799 L 261.666 799 262.662 793.500 L 263.659 788 255.713 788 L 247.767 788 248.312 785.250 C 248.612 783.737, 250.104 775.188, 251.628 766.250 L 254.398 750 263.154 750 L 271.909 750 272.542 746.250 C 272.890 744.188, 273.391 741.712, 273.655 740.750 C 274.095 739.144, 272.982 739, 260.086 739 C 246.339 739, 246.027 739.048, 245.516 741.250 M 288.542 741.146 C 287.440 745.876, 270 845.788, 270 847.369 C 270 848.670, 271.063 849, 275.250 848.999 L 280.500 848.998 284.512 825.749 L 288.524 802.500 293.415 802.189 C 296.651 801.983, 298.588 802.322, 299.138 803.189 C 299.595 803.910, 299.976 814.513, 299.985 826.750 L 300 849 305.642 849 L 311.285 849 310.562 824.076 L 309.839 799.152 312.410 797.467 C 316.724 794.640, 320.737 784.806, 323.100 771.273 C 325.489 757.586, 325.170 752.031, 321.696 746.877 C 317.693 740.937, 313.927 739.544, 300.795 739.146 C 289.197 738.795, 289.085 738.813, 288.542 741.146 M 353.473 740.250 C 352.696 742.344, 320.988 844.339, 320.365 846.750 C 319.814 848.881, 320.074 849, 325.270 849 L 330.757 849 332.438 842.250 C 333.363 838.538, 334.799 833.138, 335.630 830.250 L 337.142 825 346.964 825 C 358.022 825, 358.258 825.163, 357.512 832.274 C 357.268 834.598, 356.835 839.313, 356.549 842.750 L 356.031 849 360.970 849 C 365.774 849, 365.923 848.911, 366.409 845.750 C 366.883 842.666, 372.078 745.997, 372.025 741.250 C 372.001 739.085, 371.660 739, 362.969 739 C 356.658 739, 353.797 739.377, 353.473 740.250 M 388.686 739.750 C 388.449 740.163, 387.945 742.638, 387.566 745.250 L 386.877 750 392.880 750 C 396.181 750, 399.078 750.337, 399.318 750.750 C 399.558 751.163, 396 772.875, 391.412 799 C 386.823 825.125, 383.053 847.086, 383.034 847.802 C 383.009 848.748, 384.437 849.022, 388.250 848.802 L 393.500 848.500 402.046 799.500 L 410.593 750.500 417.223 750.206 L 423.853 749.912 424.927 744.907 C 425.517 742.154, 426 739.699, 426 739.451 C 426 738.668, 389.139 738.964, 388.686 739.750 M 436.542 740.250 C 436.226 741.247, 423.449 814.458, 421.479 826.561 C 420.781 830.843, 422.663 840.015, 424.851 843 C 428.236 847.617, 432.865 850.002, 438.398 849.978 C 448.148 849.936, 456.227 843.912, 459.367 834.341 C 460.241 831.679, 464.347 810.150, 468.491 786.500 C 472.635 762.850, 476.253 742.487, 476.532 741.250 C 477.009 739.130, 476.723 739, 471.599 739 C 466.473 739, 466.125 739.159, 465.572 741.750 C 465.250 743.263, 461.617 763.554, 457.499 786.841 C 453.137 811.514, 449.193 831.037, 448.048 833.625 C 446.567 836.972, 445.170 838.449, 442.385 839.612 C 438.934 841.055, 438.515 841.029, 436.094 839.233 C 431.034 835.478, 431.132 833.486, 438.464 791.360 C 442.183 769.987, 445.798 749.462, 446.497 745.750 L 447.768 739 442.352 739 C 438.898 739, 436.794 739.453, 436.542 740.250 M 484.108 792.658 C 478.943 822.271, 474.507 847.063, 474.251 847.750 C 473.914 848.655, 475.310 849, 479.314 849 C 484.542 849, 484.871 848.851, 485.398 846.250 C 486.204 842.264, 493 803.115, 493 802.453 C 493 802.147, 495.363 802.031, 498.250 802.198 L 503.500 802.500 504.133 812.500 C 504.480 818, 504.818 828.462, 504.883 835.750 L 505 849 510.546 849 L 516.093 849 515.527 832.250 C 515.216 823.038, 514.742 812.100, 514.473 807.944 C 513.995 800.527, 514.043 800.334, 517.084 797.444 C 522.734 792.076, 525.819 784.113, 528.033 769.182 C 529.590 758.676, 528.871 750.032, 526.118 746.166 C 522.555 741.161, 517.860 739.611, 505 739.191 L 493.500 738.816 484.108 792.658 M 530.500 741 C 531.495 742.100, 532.535 743, 532.810 743 C 533.085 743, 532.495 742.100, 531.500 741 C 530.505 739.900, 529.465 739, 529.190 739 C 528.915 739, 529.505 739.900, 530.500 741 M 549 739.926 C 549 740.888, 531.432 841.403, 530.417 846.250 L 529.841 849 544.375 849 L 558.909 849 559.542 845.250 C 559.890 843.188, 560.391 840.712, 560.655 839.750 C 561.086 838.177, 560.219 838, 552.067 838 C 545.757 838, 543 837.640, 543 836.818 C 543 836.168, 544.424 827.393, 546.165 817.318 L 549.329 799 557.097 799 C 565.605 799, 565.221 799.294, 566.558 791.750 L 567.223 788 559.611 788 C 552.988 788, 552 787.770, 552 786.225 C 552 784.609, 556.222 759.314, 557.587 752.750 L 558.159 750 567.079 750 C 574.904 750, 576.001 749.785, 576.011 748.250 C 576.017 747.288, 576.301 744.813, 576.642 742.750 L 577.262 739 563.131 739 C 555.129 739, 549 739.402, 549 739.926 M 229.610 741.951 C 230.221 742.803, 231.219 744.400, 231.830 745.500 C 232.440 746.600, 232.953 746.963, 232.970 746.306 C 232.986 745.649, 231.988 744.052, 230.750 742.757 C 229.512 741.462, 229 741.099, 229.610 741.951 M 200.529 750.250 C 199.852 752.323, 193 792.365, 193 794.250 C 193 795.716, 193.943 796, 198.811 796 C 208.297 796, 211.319 791.591, 214.922 772.500 C 218.136 755.461, 217.683 752.131, 211.872 750.105 C 207.586 748.611, 201.037 748.695, 200.529 750.250 M 297.107 754.250 C 295.128 764.287, 291 788.682, 291 790.336 C 291 791.681, 292.027 792, 296.365 792 C 305.796 792, 308.972 787.889, 312.060 771.686 C 314.228 760.306, 314.464 755.735, 313.021 753.039 C 311.810 750.776, 306.929 749, 301.922 749 C 298.160 749, 298.137 749.025, 297.107 754.250 M 499.111 768.250 C 497.326 778.837, 495.622 788.513, 495.324 789.750 C 494.809 791.893, 495.068 792, 500.757 792 C 511.036 792, 514.477 786.959, 517.588 767.347 C 519.266 756.766, 519.268 756.058, 517.626 753.552 C 515.526 750.347, 512.266 749, 506.613 749 L 502.356 749 499.111 768.250 M 356.541 752.250 C 356.322 752.938, 352.714 766.550, 348.521 782.500 C 344.329 798.450, 340.666 812.288, 340.382 813.250 C 339.917 814.824, 340.759 815, 348.772 815 L 357.679 815 358.837 808.250 C 359.473 804.538, 360.693 792.500, 361.547 781.500 C 362.401 770.500, 363.360 759.138, 363.677 756.250 L 364.254 751 360.596 751 C 358.547 751, 356.763 751.550, 356.541 752.250 M 234.158 756 C 234.158 757.375, 234.385 757.938, 234.662 757.250 C 234.940 756.563, 234.940 755.438, 234.662 754.750 C 234.385 754.063, 234.158 754.625, 234.158 756 M 521.158 805 C 521.158 806.375, 521.385 806.938, 521.662 806.250 C 521.940 805.563, 521.940 804.438, 521.662 803.750 C 521.385 803.063, 521.158 803.625, 521.158 805 M 624.275 806.934 C 617.410 808.644, 611.265 815.248, 609.137 823.202 C 606.200 834.180, 596.724 891.170, 596.617 898.500 C 596.420 911.981, 601.920 919, 612.680 919 C 625.310 919, 632.108 911.392, 635.549 893.407 C 637.631 882.527, 637.809 883, 631.615 883 L 626.230 883 625.530 888.605 C 624.618 895.908, 622.194 904.062, 620.306 906.186 C 616.236 910.761, 609.731 910.009, 607.171 904.669 C 605.990 902.207, 606.605 897.504, 612.643 862.766 C 619.942 820.775, 620.661 818.388, 626.518 816.711 C 630.532 815.561, 634.783 817.300, 636.040 820.605 C 636.960 823.025, 636.313 829.488, 634.325 837.750 C 633.813 839.877, 634.085 840, 639.309 840 L 644.834 840 645.917 834.951 C 648.503 822.891, 645.946 812.491, 639.500 808.852 C 635.808 806.768, 628.590 805.859, 624.275 806.934 M 680.500 806.661 C 673.123 808.324, 668.066 812.072, 664.903 818.221 C 662.737 822.432, 650 892.243, 650 899.903 C 650 905.536, 653.759 913.582, 657.738 916.467 C 659.526 917.763, 662.576 918.569, 666.676 918.830 C 677.297 919.507, 684.841 914.363, 688.527 903.931 C 691.205 896.352, 702.288 833.147, 702.385 824.905 C 702.465 818.063, 702.197 816.947, 699.685 813.654 C 698.151 811.643, 695.682 809.382, 694.198 808.629 C 691.146 807.080, 683.509 805.983, 680.500 806.661 M 722.516 810.250 C 721.424 814.954, 704 914.816, 704 916.369 C 704 917.651, 705.029 918, 708.805 918 L 713.611 918 717.893 893.532 C 720.248 880.074, 722.699 862.412, 723.338 854.282 L 724.500 839.500 727.622 839.196 C 729.865 838.978, 730.935 839.387, 731.419 840.649 C 731.789 841.615, 732.763 857.501, 733.582 875.953 C 734.401 894.404, 735.308 911.413, 735.597 913.750 L 736.123 918 741.561 918 C 744.553 918, 747 917.807, 747 917.571 C 747 917.334, 751.275 892.801, 756.500 863.052 C 761.725 833.303, 766 808.747, 766 808.482 C 766 808.217, 763.786 808, 761.079 808 C 756.512 808, 756.119 808.197, 755.607 810.750 C 750.994 833.722, 745.182 874.832, 745.004 885.750 C 745.002 885.888, 743.490 886, 741.643 886 L 738.287 886 737.683 877.250 C 737.351 872.438, 736.528 854.888, 735.855 838.250 L 734.630 808 728.834 808 C 723.645 808, 722.983 808.236, 722.516 810.250 M 779.001 809.750 C 779.002 811.108, 774.148 891.940, 772.754 913.784 L 772.480 918.069 781.400 917.784 L 790.319 917.500 807.008 862.750 L 823.696 808 818.098 808.012 L 812.500 808.024 802.204 846.262 C 796.541 867.293, 790.956 888.438, 789.792 893.250 L 787.675 902 783.758 902 C 780.020 902, 779.866 901.874, 780.383 899.250 C 781.479 893.692, 789 815.759, 789 809.961 C 789 808.275, 788.300 808, 784 808 C 779.904 808, 779 808.317, 779.001 809.750 M 836.516 810.250 C 835.424 814.954, 818 914.816, 818 916.369 C 818 917.802, 819.761 918, 832.500 918 C 845.639 918, 847.001 917.836, 847.011 916.250 C 847.017 915.288, 847.301 912.813, 847.642 910.750 L 848.262 907 839.022 907 C 829.946 907, 829.793 906.960, 830.328 904.750 C 830.628 903.513, 832.056 895.525, 833.502 887 C 834.947 878.475, 836.356 870.712, 836.633 869.750 C 837.055 868.277, 838.363 868, 844.900 868 L 852.666 868 853.662 862.500 L 854.659 857 846.713 857 L 838.767 857 839.312 854.250 C 839.612 852.737, 841.104 844.188, 842.628 835.250 L 845.398 819 854.154 819 L 862.909 819 863.542 815.250 C 863.890 813.188, 864.391 810.712, 864.655 809.750 C 865.095 808.144, 863.982 808, 851.086 808 C 837.339 808, 837.027 808.048, 836.516 810.250 M 879.617 810.648 C 878.641 815.392, 861 916.375, 861 917.217 C 861 917.648, 863.362 918, 866.250 917.999 L 871.500 917.998 875.517 894.749 L 879.533 871.500 885.017 871.500 L 890.500 871.500 891.084 894.500 C 891.405 907.150, 891.743 917.612, 891.834 917.750 C 891.925 917.888, 894.314 918, 897.142 918 L 902.285 918 901.562 893.076 L 900.839 868.152 903.410 866.467 C 907.724 863.640, 911.737 853.806, 914.100 840.273 C 916.489 826.586, 916.170 821.031, 912.696 815.877 C 908.697 809.943, 904.922 808.544, 891.852 808.148 L 880.204 807.795 879.617 810.648 M 928.083 813.049 C 927.487 815.826, 927 818.301, 927 818.549 C 927 818.797, 929.925 819, 933.500 819 C 937.075 819, 940 819.319, 940 819.709 C 940 820.489, 924.307 910.826, 923.403 915.250 C 922.845 917.980, 922.880 918, 928.245 918 L 933.648 918 941.436 873.250 C 945.719 848.638, 949.660 826.362, 950.194 823.750 L 951.166 819 957.524 819 C 961.021 819, 964.076 818.663, 964.314 818.250 C 964.551 817.837, 965.055 815.362, 965.434 812.750 L 966.123 808 947.644 808 L 929.166 808 928.083 813.049 M 977.595 810.750 C 976.626 815.472, 959 916.392, 959 917.217 C 959 917.648, 965.450 918, 973.333 918 L 987.666 918 988.662 912.500 L 989.659 907 980.468 907 L 971.276 907 974.104 890.750 C 975.659 881.813, 977.193 873.038, 977.511 871.250 L 978.091 868 986 868 L 993.909 868 994.542 864.250 C 994.890 862.188, 995.391 859.712, 995.655 858.750 C 996.083 857.189, 995.268 857, 988.092 857 L 980.050 857 980.579 854.250 C 980.870 852.737, 982.348 844.300, 983.864 835.500 L 986.621 819.500 995.255 819.212 C 1004.679 818.897, 1004.234 819.220, 1005.558 811.750 L 1006.223 808 992.191 808 L 978.159 808 977.595 810.750 M 1021 808.862 C 1021 809.926, 1003.525 909.976, 1002.418 915.250 C 1001.843 917.990, 1001.861 918, 1007.421 918 C 1010.495 918, 1013 917.548, 1013 916.994 C 1013 915.874, 1019.728 876.821, 1020.545 873.199 C 1021.017 871.106, 1021.537 870.925, 1026.282 871.199 L 1031.500 871.500 1032.122 890 C 1032.465 900.175, 1032.802 910.638, 1032.872 913.250 L 1033 918 1038.523 918 L 1044.047 918 1043.543 910.250 C 1043.266 905.987, 1042.784 894.951, 1042.472 885.725 L 1041.905 868.951 1044.902 866.429 C 1050.791 861.474, 1055.339 847.386, 1056.685 829.931 C 1057.202 823.225, 1056.985 821.601, 1055.035 817.572 C 1051.592 810.461, 1047.359 808.677, 1032.750 808.185 C 1024.807 807.918, 1021 808.137, 1021 808.862 M 1057 808.378 C 1057 808.585, 1057.787 809.373, 1058.750 810.128 C 1060.336 811.371, 1060.371 811.336, 1059.128 809.750 C 1057.821 808.084, 1057 807.555, 1057 808.378 M 1061.080 814 C 1062.538 817.061, 1063 817.628, 1063 816.358 C 1063 815.821, 1062.300 814.509, 1061.445 813.441 C 1059.978 811.611, 1059.958 811.643, 1061.080 814 M 678.756 817.719 C 677.246 818.674, 675.386 820.816, 674.621 822.478 C 672.960 826.090, 660.748 894.789, 660.821 900.111 C 660.909 906.470, 664.909 910.155, 670.716 909.225 C 673.651 908.755, 677.706 903.813, 678.938 899.205 C 680.709 892.580, 692 827.408, 692 823.808 C 692 819.625, 689.844 817.397, 685 816.575 C 682.568 816.162, 680.662 816.511, 678.756 817.719 M 888.134 823.120 C 886.142 833.212, 882 857.667, 882 859.336 C 882 860.681, 883.027 861, 887.365 861 C 896.567 861, 899.954 856.820, 903.099 841.582 C 906.873 823.295, 905.513 819.220, 895.329 818.296 L 889.196 817.740 888.134 823.120 M 1029.994 818.611 C 1029.991 819.100, 1028.416 828.499, 1026.494 839.498 C 1024.572 850.497, 1023 859.834, 1023 860.248 C 1023 860.662, 1025.634 861, 1028.854 861 C 1038.542 861, 1041.795 856.407, 1044.917 838.321 C 1046.875 826.979, 1046.659 822.906, 1043.969 820.472 C 1042.005 818.695, 1030.004 817.097, 1029.994 818.611 M 522.232 834 C 522.232 835.925, 522.438 836.712, 522.689 835.750 C 522.941 834.788, 522.941 833.212, 522.689 832.250 C 522.438 831.288, 522.232 832.075, 522.232 834 M 1049.195 880.500 C 1049.215 882.150, 1049.439 882.704, 1049.693 881.731 C 1049.947 880.758, 1049.930 879.408, 1049.656 878.731 C 1049.382 878.054, 1049.175 878.850, 1049.195 880.500 M 908.232 888 C 908.232 889.925, 908.438 890.712, 908.689 889.750 C 908.941 888.788, 908.941 887.212, 908.689 886.250 C 908.438 885.288, 908.232 886.075, 908.232 888 M 1050.232 911 C 1050.232 912.925, 1050.438 913.712, 1050.689 912.750 C 1050.941 911.788, 1050.941 910.212, 1050.689 909.250 C 1050.438 908.288, 1050.232 909.075, 1050.232 911 M 909.079 917.583 C 909.127 918.748, 909.364 918.985, 909.683 918.188 C 909.972 917.466, 909.936 916.603, 909.604 916.271 C 909.272 915.939, 909.036 916.529, 909.079 917.583" stroke="none" fill="#000000" fill-rule="evenodd"/>
</svg>