<?xml version="1.0" standalone="no"?> <!DOCTYPE svg PUBLIC "-//W3C//DTD SVG 20010904//EN" "http://www.w3.org/TR/2001/REC-SVG-20010904/DTD/svg10.dtd"> <svg version="1.0" xmlns="http://www.w3.org/2000/svg" width="1800.000000pt" height="1800.000000pt" viewBox="0 0 1800.000000 1800.000000" preserveAspectRatio="xMidYMid meet"> <g transform="translate(0.000000,1800.000000) scale(0.040000,-0.040000)" fill="#000000" stroke="none"> <path d="M0 22500 l0 -22500 22500 0 22500 0 0 22500 0 22500 -22500 0 -22500 0 0 -22500z m18412 16527 c8 -13 -6 -36 -30 -50 -51 -30 -7 -76 72 -77 23 0 47 -14 53 -31 9 -25 22 -25 62 -2 56 34 81 20 81 -43 0 -23 28 -70 63 -105 l62 -62 0 -3803 0 -3802 52 -28 c29 -15 46 -42 40 -59 -35 -90 -3 -93 1280 -91 1214 2 1256 4 1304 52 27 27 49 55 49 62 0 37 -109 112 -162 112 -70 0 -88 49 -19 53 246 14 397 72 188 72 -103 0 -196 57 -168 102 8 13 -3 23 -24 23 -21 0 -48 19 -61 43 -21 36 -30 37 -65 8 -56 -46 -112 4 -66 59 23 27 23 50 3 88 -35 66 -76 67 -76 2 0 -46 -14 -52 -119 -50 -10 1 -18 21 -18 45 0 24 -54 95 -120 158 -79 76 -114 128 -104 154 9 24 -4 49 -35 66 -32 17 -45 43 -37 75 8 31 -5 57 -40 76 -28 15 -52 49 -52 75 0 26 -34 79 -75 118 l-76 71 69 12 c119 22 94 113 -30 113 l-100 0 -13 127 c-7 71 -27 144 -43 164 -35 42 -35 43 -34 1196 1 1281 -4 1170 54 1201 36 19 46 42 34 78 -9 28 -8 90 1 138 16 84 20 87 101 72 79 -15 87 -10 101 54 8 38 28 97 44 130 23 47 23 62 -2 71 -65 22 -35 134 44 164 66 24 75 40 75 125 0 138 223 367 357 367 55 0 93 14 102 38 8 20 42 37 75 37 41 0 65 17 75 55 16 65 15 67 -48 76 -110 17 -141 94 -38 94 25 0 60 17 77 38 18 21 52 32 77 24 30 -10 54 3 73 38 19 36 43 48 75 38 32 -11 56 1 75 37 19 36 43 48 75 38 31 -10 56 1 73 34 21 39 50 48 136 45 61 -2 127 11 150 30 69 58 1039 50 1072 -8 18 -34 43 -40 108 -28 69 13 88 6 112 -37 23 -44 43 -51 112 -38 69 13 89 6 113 -37 18 -34 42 -47 68 -38 25 10 64 -12 109 -60 44 -48 94 -76 135 -76 88 0 68 -60 -23 -71 -86 -10 -72 -64 20 -75 60 -7 67 -16 54 -68 -12 -50 -5 -61 36 -61 33 0 50 17 50 49 0 26 10 54 21 61 34 21 137 -102 115 -137 -11 -19 40 -84 141 -178 148 -139 158 -155 151 -247 -5 -78 1 -95 30 -84 60 23 80 -83 27 -141 -35 -39 -37 -55 -13 -80 25 -24 38 -21 63 13 30 40 36 39 87 -15 32 -34 48 -75 39 -98 -9 -25 5 -50 39 -68 42 -23 50 -43 37 -101 -9 -43 0 -105 22 -154 21 -45 45 -153 54 -239 9 -86 27 -162 39 -170 34 -21 30 -1719 -4 -1753 -14 -14 -29 -95 -32 -179 -4 -116 -17 -161 -52 -187 -33 -25 -42 -52 -31 -94 10 -38 -4 -101 -38 -171 -53 -109 -54 -110 -79 -50 -14 33 -30 66 -35 72 -18 25 -55 -64 -56 -135 0 -40 -17 -92 -38 -115 -21 -23 -47 -91 -57 -152 -15 -91 -31 -116 -98 -147 -90 -42 -109 -100 -33 -100 90 0 72 -39 -98 -208 -166 -165 -170 -167 -186 -106 -23 93 -114 88 -107 -5 4 -59 -4 -67 -54 -60 -60 8 -179 -80 -179 -132 1 -76 46 -100 98 -53 29 26 52 34 52 18 0 -41 -81 -129 -119 -129 -43 0 -156 -75 -156 -103 0 -12 22 -44 49 -71 48 -48 89 -50 1282 -51 677 -1 1245 -1 1261 -1 16 1 33 32 38 70 4 40 23 69 45 69 108 2 104 -159 96 3863 l-8 3821 51 48 c28 26 93 55 143 65 l93 17 6 -3888 c3 -2139 6 -4007 6 -4152 l1 -263 -4032 0 c-2217 0 -4044 1 -4059 1 -20 0 -24 36 -13 112 16 118 25 8163 9 8179 -5 5 -42 10 -83 12 -138 7 -163 20 -134 75 15 27 20 71 11 98 -12 40 -4 49 47 49 35 0 70 -11 78 -23z m8401 -93 c13 -177 -173 -168 -193 9 -12 104 -5 111 101 102 80 -7 85 -13 92 -111z m237 -107 c0 -25 14 -58 32 -72 18 -15 34 -80 37 -144 3 -65 15 -130 28 -145 13 -17 30 -1564 40 -3716 16 -3228 22 -3693 55 -3730 21 -23 31 -53 23 -66 -22 -35 54 -105 96 -88 20 7 48 -11 64 -41 29 -54 34 -54 662 -46 577 8 637 13 685 56 37 34 73 42 128 31 56 -11 81 -5 92 23 16 44 -82 148 -142 150 -70 3 -227 87 -211 114 9 14 -8 52 -38 84 -35 37 -45 64 -28 74 15 9 27 28 27 40 0 34 -110 29 -145 -6 -23 -23 -30 -17 -30 26 0 32 -11 50 -25 42 -13 -9 -44 -4 -69 10 -41 24 -41 26 0 26 31 1 44 21 44 66 0 54 -9 63 -50 53 -59 -16 -103 49 -94 137 4 37 -7 58 -31 58 -22 0 -38 -24 -38 -57 -1 -80 -48 -71 -57 12 -4 38 -14 86 -23 107 -52 124 -75 265 -53 323 13 34 17 90 9 123 -10 36 -1 76 21 101 21 22 41 80 45 128 9 94 57 111 58 21 1 -77 58 -86 86 -14 13 34 41 68 63 76 51 20 50 65 -5 110 -32 26 -35 39 -12 48 18 8 49 45 69 84 20 40 59 79 87 87 66 21 64 54 -5 71 l-54 15 64 64 c39 39 79 58 103 49 29 -11 45 4 57 55 31 125 135 238 135 147 0 -75 100 -43 116 37 9 41 25 75 37 75 11 0 40 29 64 65 40 62 40 67 0 89 -53 30 -32 71 36 71 50 0 219 157 225 210 2 15 5 84 7 153 l4 125 -309 304 c-171 168 -303 317 -294 331 9 15 -74 115 -185 223 -139 135 -197 209 -187 236 9 25 -5 50 -40 68 -40 22 -47 37 -27 57 33 33 37 159 6 179 -12 7 -28 -10 -36 -39 -16 -60 -67 -41 -67 24 0 24 -14 58 -31 75 -17 17 -34 84 -38 149 -3 65 -7 134 -8 155 -5 71 24 207 51 234 14 14 26 69 26 121 0 52 11 95 25 95 14 0 25 -27 25 -61 0 -34 10 -67 23 -75 32 -20 104 12 88 39 -8 13 -7 57 2 99 15 70 19 73 50 31 37 -51 34 -54 108 76 43 75 49 104 27 131 -31 37 107 209 167 210 15 0 91 34 169 75 77 41 163 75 191 75 29 0 77 16 107 36 62 40 181 36 225 -8 15 -15 54 -28 86 -28 32 0 121 -34 198 -75 78 -41 151 -75 164 -75 12 0 257 -235 544 -522 585 -585 647 -624 749 -481 29 40 52 89 52 109 0 63 30 69 101 18 87 -61 99 -61 99 1 0 32 -17 50 -46 50 -97 0 -70 42 198 309 265 264 320 295 323 185 0 -41 73 -16 87 31 20 61 -2 100 -55 100 -33 0 -29 13 18 63 32 34 78 62 102 62 24 0 76 34 115 75 38 41 88 75 109 75 22 0 51 12 65 26 15 15 62 31 104 37 43 5 104 26 135 47 63 41 182 38 227 -7 15 -15 53 -28 83 -28 67 0 460 -194 460 -227 0 -13 29 -35 66 -49 56 -21 63 -36 50 -99 -18 -94 60 -175 168 -175 72 0 73 -2 27 -36 -40 -29 -43 -41 -16 -69 28 -27 39 -25 66 11 48 65 63 54 59 -42 -2 -48 11 -103 28 -124 29 -35 59 -163 55 -240 -14 -292 -70 -437 -177 -459 -89 -17 -99 -54 -20 -75 53 -14 50 -20 -56 -126 -172 -172 -200 -204 -200 -236 0 -16 -65 -96 -144 -178 -79 -82 -157 -164 -173 -182 -16 -17 -98 -93 -181 -169 -84 -75 -152 -150 -152 -167 0 -17 -25 -48 -56 -70 -52 -37 -53 -42 -14 -65 41 -23 40 -30 -6 -105 -61 -101 -62 -159 -2 -191 25 -14 53 -59 62 -101 9 -49 38 -87 78 -105 64 -30 88 -128 38 -158 -44 -28 -27 -67 23 -51 40 12 45 6 33 -40 -12 -47 -6 -53 40 -41 59 16 68 -9 29 -81 -39 -73 14 -85 98 -23 l74 55 126 -122 c132 -127 156 -191 86 -230 -50 -28 -24 -80 40 -80 25 0 51 -23 59 -53 11 -43 26 -50 78 -37 62 16 89 -17 39 -47 -33 -21 -32 -106 2 -126 14 -10 48 3 75 27 46 42 48 42 48 -7 0 -29 18 -59 40 -67 24 -9 34 -31 25 -55 -8 -22 1 -75 21 -119 43 -97 74 -233 70 -316 -5 -119 -28 -229 -53 -259 -14 -17 -20 -53 -13 -81 14 -52 -73 -185 -120 -185 -15 0 -40 17 -55 39 -40 54 -112 21 -131 -61 -23 -98 -107 -178 -188 -178 -82 0 -95 -57 -31 -128 52 -57 32 -85 -114 -159 -67 -34 -126 -74 -131 -90 -5 -16 -37 -31 -71 -32 -109 -6 -82 -103 28 -103 49 0 110 -17 135 -38 39 -32 197 -38 1021 -43 628 -4 985 -15 1001 -31 14 -14 44 -26 67 -26 55 0 161 -115 126 -136 -41 -26 -32 -57 20 -70 27 -8 51 -42 59 -85 6 -39 20 -90 30 -113 12 -29 3 -46 -33 -58 -28 -8 -57 -37 -65 -62 -19 -59 -176 -154 -224 -136 -20 8 -47 -9 -64 -40 -27 -51 -32 -51 -75 -13 -33 31 -50 34 -64 11 -10 -17 0 -39 24 -53 22 -13 34 -34 26 -47 -9 -15 -1434 -23 -3781 -22 -3658 0 -3768 -1 -3799 -46 -43 -63 -46 -7194 -4 -7245 15 -18 21 -44 12 -57 -20 -33 55 -104 95 -88 18 7 48 -5 65 -27 29 -35 239 -39 1873 -44 5258 -15 5687 -18 5712 -43 14 -14 44 -26 67 -26 73 0 150 -106 114 -156 -30 -40 -281 -43 -4089 -44 -2231 0 -4067 -7 -4080 -15 -12 -7 -53 -7 -90 1 l-68 15 5 4053 c3 2229 10 4057 15 4062 20 21 7839 6 8002 -15 239 -31 290 -8 290 130 -1 157 -79 235 -193 192 -40 -15 -7259 -36 -8104 -24 -27 1 -32 30 -20 132 9 72 17 1934 18 4137 l3 4006 66 48 c74 54 105 48 105 -20z m-8862 -4128 l0 -4176 -4146 2 c-3947 1 -4147 3 -4193 46 -47 44 -46 46 49 137 60 56 112 86 135 78 23 -9 49 6 66 37 l28 52 3780 0 c2079 0 3794 0 3810 0 16 0 33 31 38 69 6 54 22 70 76 76 38 5 68 22 67 38 -1 16 5 1239 12 2717 8 1478 15 3205 17 3838 1 814 9 1129 27 1080 33 -89 76 -76 108 34 32 108 58 148 96 148 23 0 30 -962 30 -4176z m-8294 -4249 c18 -28 25 -78 17 -111 -25 -99 87 -157 229 -119 87 24 5356 43 8029 30 25 0 30 -821 25 -4064 l-6 -4063 -4142 1 c-4167 2 -4231 1 -4149 -81 15 -15 28 -65 28 -111 0 -109 87 -156 208 -112 61 22 1087 30 4068 30 l3987 1 -8 -4044 c-5 -2964 -14 -4060 -35 -4101 -60 -118 219 -223 331 -125 32 27 35 582 24 4132 -7 2255 -6 4108 2 4119 7 10 1830 19 4050 19 l4036 -1 -2 -244 c-10 -1862 -9 -8015 2 -8032 28 -44 248 -28 275 20 16 28 20 1455 12 4131 -7 2248 -9 4096 -4 4107 4 10 1864 18 4134 17 2269 -1 4132 4 4138 11 7 7 19 64 26 126 12 111 36 134 100 93 51 -32 9 -179 -60 -210 -50 -23 -59 -45 -59 -147 0 -119 -32 -179 -59 -109 -17 43 -166 52 -166 10 0 -15 -25 -49 -56 -75 -55 -45 -171 -47 -3794 -47 -2056 0 -3752 -1 -3769 -1 -17 0 -31 -28 -31 -61 0 -34 -16 -71 -35 -82 -29 -16 -37 -613 -53 -3799 -15 -3057 -25 -3782 -51 -3793 -18 -6 -27 -32 -20 -57 11 -43 -157 -233 -206 -233 -11 0 -45 -25 -77 -55 -43 -40 -66 -47 -86 -27 -16 16 -41 23 -58 17 -16 -7 -50 11 -76 39 -25 28 -60 51 -76 51 -53 0 -94 73 -97 169 -3 104 -77 140 -77 38 0 -86 -48 -70 -70 23 -11 45 -12 1771 -3 3835 17 3975 22 3795 -90 3797 -22 0 -41 29 -45 69 -5 38 -22 70 -38 70 -324 16 -627 -1 -646 -35 -31 -54 -5936 -58 -5996 -4 -54 49 -571 60 -600 13 -11 -18 -15 -47 -8 -65 7 -18 -11 -47 -40 -64 l-52 -33 0 -3753 c0 -3201 -5 -3764 -35 -3823 -20 -37 -30 -84 -22 -104 17 -45 -87 -158 -146 -158 -24 0 -51 -11 -59 -24 -9 -14 -64 -18 -127 -9 -101 13 -111 10 -111 -39 0 -70 -45 -68 -73 3 -12 31 -63 98 -114 148 -73 73 -87 101 -68 138 26 50 14 108 -23 108 -13 0 -34 -25 -46 -56 -14 -35 -24 366 -25 1056 -1 612 -8 2322 -16 3800 -7 1478 -13 2701 -12 2717 1 16 -29 33 -67 38 -54 6 -70 22 -76 76 -5 38 -22 69 -38 70 -534 15 -1078 -3 -1097 -36 -31 -56 -4907 -58 -4939 -2 -17 30 -145 37 -757 43 l-736 7 -13 87 -13 88 -128 -7 c-125 -7 -128 -5 -143 71 -14 69 -24 77 -78 63 -72 -18 -79 -3 -25 51 24 25 30 51 16 77 -57 100 -1 265 135 401 l131 131 3809 0 c2095 0 3822 0 3838 0 16 0 33 30 38 68 5 48 25 72 70 82 l63 15 6 3571 c6 3561 4 3672 -73 3624 -13 -8 -44 3 -69 25 -40 37 -384 41 -3836 40 -3355 0 -3794 4 -3807 37 -8 21 -40 38 -71 38 -40 0 -62 19 -73 60 -8 32 -46 93 -84 134 -39 41 -66 88 -61 104 6 16 -3 62 -20 102 -48 116 30 178 94 75z m16684 -4257 l1 -4069 -4040 0 -4040 0 0 4057 0 4057 4019 12 c2211 7 4029 12 4040 12 11 0 20 -1831 20 -4069z m-12137 -4880 c8 -21 41 -38 73 -38 34 0 71 -22 87 -52 25 -46 43 -50 149 -35 107 14 124 10 149 -37 23 -43 44 -50 110 -37 58 10 91 3 114 -25 18 -21 60 -39 93 -39 89 0 71 -46 -22 -55 -112 -10 -129 -106 -27 -150 39 -16 91 -47 117 -68 41 -35 49 -35 78 5 30 42 38 39 113 -36 72 -72 84 -76 110 -41 26 35 52 18 198 -129 165 -166 167 -170 106 -186 -82 -20 -82 -60 -1 -80 66 -16 82 -80 32 -130 -44 -44 -7 -63 52 -26 71 44 98 11 121 -155 22 -150 88 -194 102 -68 12 103 55 83 55 -26 0 -52 14 -109 31 -126 17 -17 32 -64 34 -105 2 -41 20 -93 38 -116 19 -22 35 -88 35 -146 1 -58 17 -125 36 -148 21 -26 36 -112 40 -228 2 -110 18 -202 38 -225 43 -53 38 -1250 -6 -1303 -15 -18 -30 -117 -32 -219 -4 -116 -19 -202 -40 -228 -19 -23 -35 -90 -36 -148 0 -58 -16 -124 -35 -147 -19 -23 -34 -71 -34 -107 0 -36 -16 -95 -34 -131 -19 -36 -35 -96 -35 -134 0 -38 -11 -69 -25 -69 -14 0 -25 31 -25 69 -1 38 -12 85 -25 106 -35 53 -74 -10 -75 -119 0 -65 -14 -87 -62 -106 -82 -31 -81 -95 1 -115 l65 -16 -108 -107 c-203 -200 -346 -364 -346 -396 0 -42 -93 -123 -186 -163 -41 -17 -90 -54 -109 -81 -22 -32 -51 -44 -81 -34 -30 9 -55 -2 -72 -35 -18 -33 -51 -49 -101 -48 -41 2 -93 -13 -116 -32 -23 -19 -74 -37 -114 -39 -39 -2 -90 -19 -113 -37 -62 -53 -1078 -55 -1138 -3 -24 20 -75 38 -115 40 -40 2 -92 20 -115 39 -23 19 -75 34 -116 32 -50 -1 -83 15 -101 48 -17 33 -41 45 -73 35 -32 -11 -56 1 -75 37 -19 35 -43 48 -73 38 -25 -8 -59 3 -77 24 -17 21 -51 38 -74 38 -50 0 -142 92 -117 117 9 9 31 -3 49 -27 40 -56 151 -44 162 16 5 26 -7 44 -29 44 -21 0 -52 15 -70 33 -19 18 -55 40 -81 50 -37 14 -41 26 -19 48 43 43 35 94 -15 93 -62 -1 -131 -59 -131 -110 0 -59 -62 -34 -64 26 -3 77 -82 232 -149 290 -55 48 -57 56 -20 83 58 42 25 107 -59 116 -56 7 -71 22 -72 71 -4 107 -35 169 -127 249 l-88 78 64 51 c78 61 83 113 15 134 -59 19 -100 -2 -100 -51 0 -20 -11 -36 -24 -36 -14 0 -23 69 -20 160 3 103 -7 174 -29 200 -44 53 -43 1854 1 1906 15 18 27 123 26 233 -1 190 34 281 51 132 11 -103 81 -89 90 19 4 48 19 117 33 154 17 44 18 95 1 156 -21 76 -18 94 18 113 39 21 178 263 178 311 0 11 34 54 75 95 41 41 75 94 75 117 0 52 100 143 146 133 48 -10 107 47 99 96 -9 52 151 215 201 204 20 -4 73 33 117 82 70 78 84 85 112 52 37 -45 115 -50 140 -10 9 16 -2 39 -26 53 -76 42 50 152 153 132 65 -12 86 -5 109 38 25 47 42 51 149 37 106 -15 124 -11 149 35 16 30 53 52 87 52 32 0 65 17 73 38 11 29 64 37 254 37 189 0 242 -8 253 -37z m6648 -50 c48 -58 87 -83 115 -74 27 8 53 -6 71 -39 18 -34 43 -48 72 -38 27 8 65 -9 100 -46 l56 -60 -86 -34 c-74 -30 -83 -42 -65 -91 24 -64 68 -73 89 -18 8 22 46 37 91 37 63 0 115 -39 300 -225 123 -124 233 -225 246 -225 50 0 17 -41 -57 -69 -79 -30 -79 -31 -33 -82 34 -37 65 -47 109 -36 52 13 84 -8 197 -127 125 -131 146 -143 256 -149 131 -7 149 14 150 169 0 105 47 82 66 -32 9 -59 27 -97 44 -91 15 6 25 22 22 36 -8 40 60 89 80 57 9 -14 27 -26 39 -26 32 0 31 268 -1 288 -45 27 -26 62 33 62 37 0 117 58 225 163 174 169 209 187 233 125 21 -55 76 -46 92 14 7 28 36 58 64 65 52 13 142 127 120 150 -7 7 -49 14 -94 16 -96 5 -134 67 -41 67 34 0 76 17 93 38 18 21 52 32 77 24 30 -10 54 3 73 38 18 33 44 47 71 39 28 -9 67 16 115 74 69 82 81 87 227 87 145 0 157 -5 226 -87 48 -58 87 -83 115 -74 27 8 53 -6 71 -40 18 -33 43 -47 68 -38 22 8 57 -1 79 -20 22 -20 63 -40 91 -45 66 -12 51 -58 -20 -60 -102 -4 -118 -11 -118 -48 0 -24 24 -38 63 -38 72 0 81 -37 18 -72 -36 -21 -38 -31 -11 -58 28 -27 39 -25 66 11 40 54 135 58 155 6 8 -22 -5 -61 -29 -88 -25 -27 -37 -57 -27 -67 10 -10 27 -3 39 16 11 18 33 26 48 16 35 -21 37 -106 3 -126 -14 -9 -25 -27 -25 -39 0 -43 56 -25 113 37 l57 61 46 -51 c25 -28 48 -84 50 -124 2 -41 19 -93 38 -117 39 -49 45 -396 8 -456 -53 -84 -112 -212 -112 -241 0 -18 -39 -49 -88 -69 -51 -21 -97 -63 -112 -100 -13 -35 -36 -64 -50 -64 -14 0 -37 -28 -50 -62 -13 -35 -35 -63 -49 -63 -14 0 -26 -22 -26 -50 0 -40 17 -50 81 -50 l81 0 -101 -98 c-55 -53 -128 -101 -162 -106 -42 -6 -62 -24 -62 -58 0 -53 -62 -163 -91 -163 -10 0 -21 31 -26 69 -9 80 -95 114 -95 37 0 -66 -26 -86 -68 -52 -50 42 -102 -13 -60 -63 25 -30 21 -40 -21 -53 -108 -34 -44 -113 93 -113 l65 0 -59 -62 c-32 -35 -79 -63 -103 -63 -163 0 -213 -243 -70 -339 91 -61 92 -81 4 -91 -115 -13 -104 -91 17 -110 77 -12 102 -28 102 -63 0 -26 23 -61 50 -78 28 -17 50 -50 50 -73 0 -24 22 -50 50 -58 96 -31 252 -193 222 -229 -32 -39 11 -109 66 -109 57 0 97 -70 63 -111 -17 -20 -23 -49 -14 -63 24 -39 88 -31 88 12 0 50 73 47 92 -4 9 -22 3 -61 -13 -86 -36 -59 -9 -130 44 -116 64 17 213 -144 217 -234 3 -41 22 -95 45 -120 57 -63 57 -393 -1 -457 -23 -25 -41 -80 -39 -122 1 -49 -15 -86 -47 -106 -26 -16 -48 -56 -48 -87 0 -49 -6 -53 -48 -26 -101 63 -263 -104 -181 -186 33 -33 -62 -143 -125 -144 -23 0 -76 -34 -117 -75 -45 -44 -90 -69 -113 -61 -22 9 -48 -5 -62 -32 -40 -75 -641 -79 -680 -5 -18 34 -42 46 -74 36 -32 -11 -56 1 -75 37 -17 33 -44 48 -70 40 -26 -8 -79 20 -136 74 -105 97 -112 111 -55 111 27 0 37 18 31 56 -9 65 -113 69 -160 6 -31 -41 -60 -24 -60 37 0 22 -51 90 -112 151 -62 61 -113 127 -113 148 0 50 -120 152 -179 152 -67 0 -56 46 15 64 33 9 66 31 74 50 13 35 -72 111 -126 111 -16 0 -35 14 -41 31 -6 17 -21 22 -33 11 -11 -11 -6 -29 13 -41 18 -11 26 -33 16 -48 -25 -42 -89 -34 -89 11 0 61 -126 211 -177 211 -25 0 -58 -21 -72 -48 -16 -31 -43 -43 -75 -35 -38 10 -53 -3 -66 -58 -11 -45 -113 -165 -276 -323 -148 -144 -259 -271 -259 -298 0 -67 -98 -163 -165 -163 -37 0 -73 -27 -102 -76 -24 -41 -94 -99 -155 -129 -61 -29 -131 -77 -157 -107 -70 -80 -655 -89 -697 -11 -18 34 -42 46 -74 36 -32 -11 -56 1 -75 37 -18 33 -44 47 -71 39 -26 -9 -68 14 -113 61 -40 43 -96 75 -131 75 -67 0 -81 37 -22 59 53 20 46 66 -21 140 -73 80 -142 259 -124 325 17 68 -21 64 -101 -10 -84 -77 -93 -60 -105 205 -13 282 9 391 83 401 30 5 55 18 55 30 0 12 23 29 50 38 65 20 63 56 -5 111 l-56 45 145 139 c79 76 141 155 136 174 -4 20 125 165 286 322 174 169 294 305 294 333 0 26 54 99 120 162 115 108 120 119 110 226 -11 118 -45 184 -83 160 -29 -17 -224 166 -207 194 7 12 35 21 61 21 65 0 63 41 -3 58 -28 7 -58 37 -65 65 -9 34 -34 52 -73 52 -46 0 -60 13 -60 59 0 76 -65 136 -105 96 -20 -20 -58 2 -140 84 -62 61 -123 111 -134 111 -12 0 -21 11 -21 25 0 14 23 25 50 25 100 0 58 95 -69 156 -113 54 -120 63 -143 194 -14 76 -32 149 -41 163 -8 13 -22 55 -32 93 -20 88 -90 92 -90 7 0 -35 -11 -63 -25 -63 -14 0 -25 27 -25 59 0 33 -17 74 -37 91 -27 22 -38 79 -38 188 0 108 11 165 38 187 20 17 37 68 37 114 0 96 47 141 67 64 21 -79 54 -64 72 33 9 47 31 92 51 99 23 9 29 36 19 87 -14 70 -11 73 70 69 79 -3 84 1 91 88 6 67 21 94 58 104 39 10 49 30 43 84 -7 58 2 72 51 79 33 5 88 41 122 82 50 60 78 72 152 66 73 -5 91 3 98 44 19 109 25 112 226 112 194 0 197 -1 269 -87z m10248 -113 c19 -16 100 -31 180 -34 80 -3 162 -15 182 -28 20 -12 74 -29 120 -37 93 -15 111 -62 25 -63 -80 -1 -74 -75 6 -76 97 -2 175 -37 175 -79 0 -23 14 -33 37 -24 20 7 43 2 52 -12 9 -14 46 -36 82 -50 61 -24 63 -28 23 -58 -56 -41 -55 -56 7 -89 40 -22 65 -17 122 24 90 64 111 64 95 2 -9 -33 15 -79 72 -140 47 -49 80 -99 73 -111 -26 -41 35 -150 84 -150 49 0 128 -97 128 -159 0 -20 15 -42 34 -49 59 -22 92 -206 45 -252 -36 -37 -35 -45 15 -95 58 -58 51 -64 94 72 22 67 57 6 70 -120 6 -63 23 -137 38 -164 14 -28 20 -76 11 -108 -10 -38 -1 -68 27 -88 56 -41 64 -189 64 -1099 -1 -888 -8 -1018 -62 -1132 -22 -47 -35 -109 -27 -137 7 -29 1 -76 -15 -104 -16 -29 -35 -92 -43 -140 -11 -66 -27 -87 -64 -87 -33 0 -52 -20 -58 -60 -5 -38 -34 -69 -81 -86 -42 -16 -73 -46 -73 -72 0 -23 -25 -66 -55 -94 -44 -41 -49 -57 -23 -82 25 -25 38 -23 64 12 44 60 69 55 59 -12 -5 -37 -28 -59 -66 -65 -36 -5 -67 -33 -81 -75 -13 -37 -63 -100 -111 -140 -48 -40 -87 -86 -87 -103 0 -57 -120 -115 -176 -86 -71 39 -104 8 -95 -88 8 -100 -64 -195 -132 -174 -28 9 -54 -4 -71 -37 -15 -28 -48 -51 -74 -51 -25 0 -60 -17 -77 -38 -18 -21 -52 -32 -77 -24 -27 9 -54 -3 -69 -31 -19 -32 -56 -45 -138 -45 -63 -1 -132 -18 -158 -39 -62 -52 -1006 -51 -1068 0 -22 18 -72 34 -111 36 -40 2 -91 20 -114 39 -23 19 -75 34 -116 32 -50 -1 -83 15 -101 48 -17 33 -42 44 -72 35 -30 -10 -59 3 -82 35 -20 28 -77 68 -128 90 -56 23 -86 50 -76 66 20 32 -89 246 -125 246 -13 0 -44 -19 -69 -41 -30 -27 -46 -31 -46 -12 0 17 -51 78 -112 137 -62 58 -113 124 -113 147 0 23 -12 49 -27 58 -15 9 -20 44 -12 78 12 48 5 65 -32 75 -29 7 -55 42 -63 85 -8 42 -31 73 -52 73 -20 0 -51 25 -67 56 -17 31 -51 71 -76 89 -25 18 -46 61 -46 96 0 34 -13 87 -30 117 -16 30 -33 120 -36 200 -3 80 -20 163 -37 184 -37 43 -40 135 -40 1071 0 371 -1 730 -3 797 -3 84 9 138 37 169 27 30 44 98 48 192 3 81 18 168 32 194 14 26 32 64 40 85 8 21 43 87 77 148 34 60 62 120 62 133 0 13 34 57 75 98 41 41 75 92 75 112 0 21 34 72 75 113 41 41 75 93 75 114 0 58 177 220 230 212 28 -5 55 16 74 56 23 50 36 58 63 35 25 -20 51 -21 93 -2 61 28 101 121 62 145 -38 24 2 61 66 61 32 0 76 23 95 52 23 32 43 42 53 25 20 -32 114 -36 114 -5 0 12 -24 28 -53 36 -68 18 -37 67 44 67 34 0 86 13 114 28 29 15 104 33 166 40 63 6 133 25 156 41 56 39 862 31 910 -9z m4338 -10090 c62 -8 150 -31 196 -52 46 -20 89 -32 96 -25 7 7 65 -14 129 -46 65 -32 151 -72 192 -87 l74 -28 -59 -45 -60 -45 72 -21 c40 -11 89 -21 109 -22 21 -1 46 -41 59 -97 25 -106 98 -121 112 -23 10 68 33 71 71 11 45 -72 171 -50 252 43 38 42 82 77 98 77 17 0 83 48 147 106 124 112 154 121 408 119 88 -1 174 10 192 25 31 26 475 39 1478 45 237 1 385 12 396 29 21 34 230 34 251 0 9 -14 51 -24 95 -22 145 5 254 -24 289 -76 19 -28 43 -51 54 -51 12 0 52 -12 91 -28 l71 -27 -59 -23 c-76 -29 -57 -81 35 -97 47 -8 76 -31 82 -62 6 -27 28 -62 50 -79 23 -16 43 -71 46 -125 10 -175 20 -226 54 -266 18 -23 27 -61 20 -86 -8 -24 -17 -140 -20 -256 -5 -164 -17 -222 -51 -256 -25 -25 -45 -65 -45 -90 0 -61 -163 -310 -225 -343 -117 -62 -122 -95 -111 -660 10 -532 -9 -699 -68 -593 -29 51 -71 54 -71 4 0 -21 -22 -38 -49 -38 -122 0 -74 -98 49 -100 l63 -2 -57 -47 c-69 -57 -72 -116 -8 -150 27 -14 52 -51 57 -81 5 -35 30 -61 70 -70 35 -8 66 -36 71 -64 4 -26 24 -61 44 -76 19 -16 63 -81 98 -145 60 -113 62 -135 62 -582 0 -525 28 -446 -255 -728 -256 -256 -268 -264 -429 -271 -91 -3 -162 -21 -190 -45 -51 -46 -637 -38 -685 10 -39 39 -85 32 -161 -24 -57 -42 -82 -46 -155 -25 -48 14 -127 25 -176 25 -49 0 -100 10 -113 23 -40 38 -318 -21 -363 -78 -35 -44 -42 -45 -71 -9 -42 49 -112 50 -152 2 -35 -43 -154 -50 -219 -14 -24 13 -141 34 -260 47 -224 23 -331 72 -355 162 -9 35 -26 42 -66 30 -41 -14 -57 -5 -67 35 -8 28 -30 52 -49 52 -20 0 -59 39 -87 88 -56 94 -90 109 -113 49 -11 -27 -55 -37 -172 -37 -143 0 -164 -7 -229 -75 -56 -61 -84 -73 -139 -61 -55 12 -85 -1 -146 -62 -53 -54 -101 -77 -156 -77 -44 0 -112 -17 -151 -38 -39 -20 -107 -37 -150 -37 -43 0 -112 -18 -153 -40 -75 -40 -563 -77 -563 -44 0 9 20 31 44 48 71 53 2 105 -92 70 -42 -16 -86 -19 -106 -6 -18 12 -62 16 -97 9 -47 -10 -78 3 -119 50 -59 68 -106 78 -180 38 -38 -20 -64 -8 -139 63 -51 48 -111 87 -133 88 -37 0 -228 158 -228 187 0 7 14 12 31 12 36 0 108 145 84 168 -9 9 -31 -5 -49 -31 -33 -44 -36 -44 -66 13 l-32 60 -45 -57 -46 -56 -39 93 c-21 52 -62 109 -90 129 -32 23 -45 52 -35 82 10 31 -3 55 -38 74 -36 19 -48 43 -37 75 10 32 -2 56 -35 73 -34 18 -49 51 -48 102 2 41 -16 96 -39 121 -23 26 -36 64 -28 85 8 20 -1 44 -21 51 -94 36 -65 243 35 243 72 0 82 48 15 73 -83 32 -92 68 -65 276 15 122 14 197 -4 230 -19 35 -19 72 0 127 39 110 33 221 -14 273 -35 38 -36 56 -9 120 32 78 12 132 -69 183 -17 11 -31 59 -31 105 0 47 14 95 31 106 50 31 112 115 130 176 15 49 9 56 -56 56 -41 0 -88 -17 -106 -39 -18 -21 -45 -33 -62 -27 -86 33 -94 -18 -89 -605 5 -563 4 -576 -48 -604 -46 -25 -52 -48 -47 -188 3 -95 -7 -175 -25 -196 -21 -26 -30 -184 -31 -532 -1 -614 -6 -703 -43 -740 -16 -16 -29 -49 -29 -73 0 -24 -22 -58 -48 -77 -26 -18 -67 -75 -92 -126 -31 -65 -52 -85 -73 -67 -31 25 -139 -17 -262 -102 -34 -24 -124 -51 -200 -61 -76 -10 -154 -33 -175 -50 -49 -41 -515 -36 -594 7 -122 66 -157 80 -193 80 -28 0 -36 22 -32 81 5 67 -2 82 -43 82 -72 0 -113 32 -113 89 0 29 -25 59 -61 72 -47 18 -63 45 -69 118 -10 128 -95 154 -95 30 0 -138 -46 -47 -52 103 -3 76 -21 163 -40 194 -28 46 -34 205 -32 812 2 529 -5 758 -24 764 -15 5 -107 -70 -204 -167 -103 -102 -236 -206 -318 -247 -100 -50 -140 -84 -135 -114 7 -43 -56 -60 -81 -20 -21 34 -496 21 -507 -15 -7 -21 43 -32 173 -37 250 -10 232 -56 -26 -65 -192 -7 -209 -3 -221 44 -17 63 -104 69 -99 7 3 -34 -19 -45 -96 -52 -55 -4 -110 -24 -121 -44 -16 -29 -104 -35 -471 -34 -385 2 -458 -4 -497 -39 -39 -36 -93 -39 -446 -23 l-401 18 -138 -147 c-77 -80 -139 -166 -139 -190 0 -24 -23 -56 -51 -71 -32 -17 -46 -43 -38 -70 9 -26 -14 -68 -60 -111 -40 -38 -76 -94 -81 -125 -6 -42 -22 -54 -64 -48 -31 5 -56 -3 -56 -16 0 -13 -52 -81 -115 -152 -89 -98 -109 -136 -88 -161 32 -39 12 -66 -49 -66 -24 0 -76 -34 -114 -75 -46 -48 -86 -70 -115 -61 -24 8 -44 3 -44 -12 0 -14 -107 -78 -238 -141 -130 -64 -243 -125 -250 -136 -6 -11 -80 -14 -162 -7 -119 11 -161 5 -196 -27 -38 -34 -60 -36 -126 -13 -44 15 -113 21 -152 13 -48 -9 -82 -1 -103 24 -25 30 -60 35 -152 22 -99 -14 -136 -7 -208 38 -80 49 -100 52 -218 26 -122 -26 -134 -24 -172 27 -23 30 -54 46 -70 36 -16 -10 -62 16 -105 59 -72 72 -114 89 -194 78 -19 -2 -54 14 -79 37 -69 62 -210 41 -221 -33 -5 -40 -29 -61 -80 -71 -40 -9 -79 -36 -87 -62 -10 -30 -39 -47 -80 -47 -36 0 -89 -27 -122 -62 -55 -60 -72 -63 -365 -67 -169 -2 -361 -1 -426 2 -90 5 -123 -3 -134 -34 -13 -34 -34 -26 -123 48 -60 48 -132 88 -161 88 -32 0 -121 69 -230 179 -152 153 -189 179 -268 181 -61 2 -92 15 -94 40 -2 21 -5 52 -6 69 -8 85 -76 24 -83 -75 -6 -87 -17 -108 -62 -114 -29 -4 -86 -38 -125 -74 -39 -37 -90 -64 -114 -60 -32 5 -39 -4 -27 -35 17 -44 -74 -134 -137 -135 -18 -1 -63 -24 -101 -52 -60 -44 -84 -48 -179 -27 -68 16 -126 16 -153 1 -60 -32 -215 -29 -236 4 -9 15 -44 20 -78 12 -149 -38 -611 85 -665 177 -11 19 -42 34 -69 34 -27 0 -49 10 -49 22 0 71 -86 41 -186 -65 l-111 -117 -16 74 c-32 145 -39 152 -73 73 -17 -42 -62 -89 -98 -106 -36 -16 -66 -41 -66 -55 0 -15 -29 -26 -65 -26 -41 0 -69 -16 -77 -45 -17 -67 -799 -73 -820 -7 -17 53 -209 214 -283 238 -31 10 -72 55 -91 101 -19 46 -57 96 -84 110 -45 25 -95 136 -83 187 3 12 -12 41 -33 64 -32 35 -37 124 -32 541 l6 499 57 8 c79 11 72 167 -7 167 -47 0 -51 19 -58 256 l-7 256 -74 0 c-41 0 -82 2 -93 3 -10 2 -32 -22 -48 -54 -42 -83 -327 -374 -366 -374 -18 0 -79 -22 -136 -50 -57 -28 -114 -50 -127 -50 -12 0 -35 -14 -49 -31 -28 -34 -863 -44 -896 -11 -26 25 -229 21 -245 -6 -8 -12 42 -30 111 -39 69 -10 125 -27 125 -39 0 -11 28 -24 63 -29 35 -4 63 -19 63 -32 -1 -16 -195 -27 -526 -28 -461 -3 -532 -8 -574 -46 -42 -39 -82 -42 -347 -26 -288 17 -300 16 -327 -35 -36 -67 -117 -69 -152 -3 -39 72 -74 62 -92 -27 -8 -43 -30 -83 -49 -90 -19 -7 -34 -38 -34 -68 0 -57 -72 -151 -130 -171 -26 -8 -26 -24 -1 -78 28 -61 25 -75 -29 -129 -34 -33 -92 -117 -129 -186 -69 -126 -111 -159 -111 -88 0 42 -88 51 -113 11 -9 -14 -39 -19 -68 -10 -42 14 -49 8 -38 -33 7 -27 2 -67 -11 -90 -32 -59 0 -102 47 -63 29 25 41 24 60 -5 35 -56 27 -73 -36 -73 -33 0 -74 -17 -91 -37 -17 -21 -51 -38 -75 -38 -24 0 -74 -31 -112 -68 -55 -56 -92 -69 -191 -72 -98 -2 -138 -16 -193 -69 -38 -36 -90 -66 -115 -66 -65 0 -214 -97 -214 -140 0 -46 -36 -45 -75 3 -40 48 -110 48 -150 -1 -24 -29 -40 -31 -67 -9 -26 22 -50 22 -99 0 -54 -24 -73 -23 -108 9 -55 50 -123 48 -180 -4 -26 -22 -55 -33 -65 -22 -10 10 3 34 30 54 35 25 41 43 21 63 -30 30 -132 7 -132 -30 0 -38 -115 -26 -250 27 -70 27 -161 50 -202 50 -44 0 -81 16 -89 38 -9 24 -32 33 -60 24 -28 -9 -58 4 -80 36 -58 82 -170 128 -275 111 -89 -15 -94 -12 -94 50 0 42 -14 66 -37 66 -24 0 -38 -24 -38 -64 0 -130 -39 -161 -201 -161 -144 0 -208 -38 -93 -55 37 -5 57 -25 57 -57 0 -62 -95 -81 -178 -37 -81 44 -144 13 -125 -61 19 -79 -18 -91 -187 -60 -74 14 -184 19 -244 13 -77 -9 -112 -3 -121 22 -17 43 -87 45 -130 4 -26 -25 -40 -21 -71 25 -21 31 -60 56 -86 56 -27 0 -77 29 -113 65 -46 46 -70 56 -84 34 -29 -48 -74 -3 -74 75 0 87 -73 126 -93 50 -13 -51 -14 -51 -73 4 -32 31 -59 67 -59 81 0 37 -100 238 -127 255 -13 8 -23 585 -23 1387 0 1158 -5 1374 -35 1374 -19 0 -42 -18 -50 -40 -8 -22 -31 -34 -51 -27 -89 35 -93 -30 -97 -1363 -3 -848 -13 -1310 -29 -1313 -14 -3 -25 25 -25 62 0 75 -57 94 -89 31 -49 -99 -71 -172 -86 -275 -17 -127 -185 -312 -309 -341 -37 -8 -95 -33 -129 -55 -185 -118 -725 -187 -725 -93 0 52 -47 73 -87 39 -20 -16 -56 -24 -81 -17 -24 7 -76 19 -115 28 -54 12 -67 26 -55 63 8 26 1 55 -16 66 -17 10 -35 6 -40 -11 -16 -46 -68 -34 -139 31 -36 34 -85 65 -110 70 -24 4 -48 33 -52 64 -5 30 -41 88 -80 127 -48 48 -68 89 -59 122 9 36 -2 54 -39 64 -53 14 -53 15 -52 1264 l2 1250 -63 68 c-57 60 -76 66 -176 52 -96 -13 -116 -8 -139 36 -17 31 -43 46 -65 38 -55 -22 -227 152 -188 191 42 42 37 58 -35 105 -50 33 -72 36 -100 13 -28 -24 -38 -20 -50 17 -8 26 -31 77 -51 114 -29 54 -36 177 -34 588 3 622 3 629 49 701 46 69 67 71 88 6 22 -72 48 -62 102 39 26 48 84 110 129 136 91 54 101 86 38 122 -60 33 52 125 148 122 38 -1 85 12 105 29 37 31 247 35 2131 48 833 6 884 3 975 -44 107 -54 357 -55 422 -1 20 16 89 34 155 41 66 7 133 24 150 38 17 14 182 25 375 25 324 0 353 -5 468 -65 67 -36 134 -65 150 -65 15 0 115 -88 221 -195 207 -208 269 -232 367 -143 50 45 51 44 51 -33 0 -44 5 -79 10 -79 6 0 29 -7 50 -15 26 -10 40 -2 40 24 0 70 57 166 98 166 58 0 152 71 152 114 0 20 -22 36 -50 36 -27 0 -50 11 -50 25 0 14 27 25 59 25 33 0 73 16 90 36 16 19 62 35 102 34 40 -2 91 13 113 32 23 18 109 36 191 39 81 3 165 19 184 35 45 37 650 39 694 3 16 -13 84 -30 151 -37 67 -7 134 -25 149 -40 15 -15 51 -27 81 -27 30 0 107 -23 170 -51 110 -49 116 -57 116 -150 0 -111 33 -126 99 -44 l45 56 149 -149 c82 -82 157 -180 166 -218 9 -37 39 -80 66 -94 35 -19 50 -53 50 -110 0 -89 31 -129 112 -144 35 -6 54 -36 64 -97 8 -49 24 -104 36 -123 12 -20 24 -118 27 -219 3 -130 17 -197 46 -229 23 -25 34 -63 26 -85 -27 -72 70 -89 469 -85 337 4 397 11 440 50 46 41 97 44 599 37 495 -7 555 -3 599 36 27 24 87 44 134 45 160 1 185 72 190 542 2 223 13 420 24 438 47 75 109 207 109 232 0 66 114 127 249 134 75 3 145 12 156 19 39 23 20 59 -32 59 -76 0 -51 79 40 125 41 21 89 48 107 59 32 20 561 29 2155 34 474 1 885 3 913 4 27 0 72 -21 100 -47 27 -27 92 -85 143 -130 52 -45 94 -97 94 -115 0 -22 17 -28 50 -17 36 11 54 2 64 -30 41 -131 127 -161 226 -77 28 25 73 43 100 40 106 -9 134 6 157 85 13 45 25 61 26 36 1 -34 19 -43 71 -37 83 9 93 79 12 90 -31 5 -56 18 -56 29 0 24 225 101 293 101 26 0 60 13 75 28 28 28 180 42 532 47 227 4 315 -9 409 -58 40 -21 88 -32 108 -24 84 32 195 -146 130 -211 -15 -15 -19 -41 -9 -58 14 -23 25 -20 42 10 38 69 81 48 267 -130 121 -114 175 -183 165 -209 -8 -22 1 -45 22 -53 24 -9 43 -68 54 -175 15 -144 29 -175 127 -287 86 -98 110 -145 110 -215 0 -83 6 -90 75 -90 41 0 83 -1 93 -3 23 -4 132 198 132 244 0 18 23 45 51 60 33 17 46 43 38 71 -20 62 149 225 191 183 17 -17 39 -30 50 -30 30 0 24 145 -7 164 -15 9 69 111 200 241 125 124 227 235 227 248 0 12 11 22 25 22 14 0 25 -17 25 -38 0 -59 62 -70 148 -25 68 34 74 46 50 91 -37 70 -11 122 61 122 65 0 281 88 303 124 13 21 82 29 249 28 40 0 88 12 106 26 43 36 573 36 616 0 18 -14 66 -26 106 -24 107 3 235 -22 273 -53 18 -15 65 -32 104 -37 245 -33 395 -191 209 -219 -58 -9 -56 -13 35 -53 65 -28 127 -37 183 -27 96 18 207 -60 207 -146 0 -26 48 -95 106 -152 104 -103 144 -229 85 -271 -13 -9 -16 -36 -6 -60 15 -41 19 -41 51 4 35 48 44 25 72 -190 8 -61 76 -43 94 25 l16 63 14 -63 c8 -34 20 -150 27 -258 7 -107 25 -210 40 -228 15 -18 20 -50 12 -71 -29 -76 77 -97 438 -89 293 7 354 16 396 54 47 42 97 45 637 38 531 -8 592 -4 636 35 27 24 87 44 134 45 160 1 185 72 190 546 3 252 15 420 31 436 15 15 27 41 27 59 0 17 34 66 75 108 41 42 75 99 75 127 0 27 20 56 44 64 24 7 70 26 101 41 46 22 63 21 81 -8 18 -29 28 -30 54 -4 26 26 26 36 -3 54 -52 32 -13 99 79 137 45 19 89 42 98 51 16 16 265 20 2136 34 l852 6 128 -64 c149 -75 171 -101 128 -153 -46 -55 1 -86 134 -89 98 -2 127 -15 192 -87 90 -98 111 -102 169 -34 24 28 62 50 84 50 26 0 47 28 57 75 19 96 66 98 66 2 0 -99 48 -108 133 -23 70 70 71 121 3 121 -62 0 -39 44 31 61 37 10 113 40 169 67 56 28 134 55 173 60 39 6 86 23 104 38 19 15 70 32 114 37 44 6 83 14 87 17 11 12 591 -5 711 -20z m-13372 -5710 c53 0 97 -11 97 -25 0 -15 -104 -25 -262 -25 -148 0 -263 10 -263 23 0 28 156 49 259 36 40 -5 116 -9 169 -9z m2344 9 c129 -25 88 -59 -72 -59 -82 0 -150 10 -150 23 0 46 95 62 222 36z"/> <path d="M22425 36487 c-21 -4 -122 -21 -225 -38 -103 -16 -223 -45 -266 -64 -44 -19 -96 -35 -116 -35 -20 0 -51 -17 -68 -37 -17 -21 -42 -38 -54 -38 -95 0 -422 -292 -560 -500 -171 -256 -344 -711 -414 -1087 -43 -231 -58 -1148 -21 -1313 17 -76 40 -199 50 -275 24 -161 68 -331 115 -441 19 -44 34 -86 34 -94 0 -50 175 -375 267 -494 191 -251 402 -404 771 -559 312 -132 888 -122 1262 21 398 153 723 474 903 892 191 445 207 511 264 1119 42 448 24 919 -46 1206 -15 62 -36 158 -47 213 -46 239 -242 684 -391 886 -125 168 -393 381 -595 474 -208 94 -217 97 -477 137 -241 38 -304 43 -386 27z m331 -1237 c314 -139 496 -705 463 -1440 -37 -808 -269 -1210 -696 -1210 -278 0 -480 198 -589 578 -67 231 -80 1234 -20 1472 138 544 457 771 842 600z"/> <path d="M20438 35375 c-21 -33 8 -125 39 -125 30 0 30 118 0 136 -13 8 -31 3 -39 -11z"/> <path d="M20364 32654 c-17 -53 6 -129 38 -129 29 0 57 115 36 149 -25 40 -58 31 -74 -20z"/> <path d="M26675 38964 c0 -20 10 -42 22 -50 28 -17 84 47 61 70 -30 29 -83 17 -83 -20z"/> <path d="M32468 36519 c-110 -28 -409 -339 -993 -1030 -34 -41 -108 -125 -164 -188 -56 -62 -167 -195 -245 -295 -167 -212 -204 -220 -311 -71 -71 99 -541 660 -578 690 -8 7 -47 52 -86 100 -39 48 -124 144 -189 213 -65 68 -164 183 -220 255 -56 72 -156 177 -222 234 -116 101 -123 103 -272 94 -178 -12 -386 -150 -564 -375 -204 -258 -155 -409 287 -871 72 -76 180 -194 239 -262 169 -196 571 -628 756 -812 93 -93 169 -185 169 -205 0 -21 -93 -134 -206 -251 -114 -117 -232 -243 -263 -280 -86 -101 -320 -357 -504 -552 -664 -705 -715 -839 -430 -1133 380 -391 614 -423 895 -121 229 246 1071 1223 1169 1357 119 161 176 171 262 44 34 -49 118 -154 188 -233 69 -78 177 -203 239 -276 62 -74 130 -152 152 -174 21 -22 175 -197 341 -389 429 -498 453 -519 612 -531 167 -13 281 46 496 254 156 151 249 296 249 388 0 78 -115 274 -245 418 -65 71 -212 234 -328 362 -189 209 -649 703 -925 991 -123 129 -136 101 198 448 339 353 514 542 634 682 53 62 152 170 218 241 531 562 553 667 213 1013 -228 231 -398 310 -572 265z"/> <path d="M30728 32123 c-101 -116 -111 -122 -144 -80 -32 41 -42 37 -134 -68 -105 -118 -125 -185 -62 -209 56 -22 45 -74 -13 -59 -31 8 -62 -3 -81 -30 -18 -24 -57 -57 -87 -74 -31 -16 -64 -60 -73 -97 -37 -150 -124 -228 -139 -125 -11 79 -80 84 -115 7 -16 -34 -43 -63 -61 -63 -17 -1 -59 -30 -93 -66 -57 -60 -58 -67 -19 -96 59 -43 54 -63 -16 -63 -32 0 -91 -30 -130 -66 -39 -37 -94 -67 -122 -69 -101 -5 -64 -102 38 -102 49 0 110 -17 135 -38 78 -64 2463 -55 2535 10 37 34 73 42 128 31 55 -11 81 -5 91 22 19 50 -90 161 -158 162 -30 0 -62 11 -70 25 -9 14 -43 25 -77 25 -71 0 -78 20 -20 62 43 31 28 138 -20 138 -14 0 -70 47 -125 104 -95 99 -144 104 -146 13 -1 -56 -111 1 -128 67 -10 39 -65 114 -122 166 -61 56 -92 102 -77 112 41 25 32 56 -20 70 -33 8 -53 44 -64 112 -22 130 -115 183 -172 98 l-37 -54 -27 69 c-39 99 -104 160 -190 177 -67 13 -88 0 -185 -111z"/> <path d="M10025 30078 c0 -23 59 -53 102 -53 13 0 23 17 23 38 0 23 -24 37 -62 37 -35 0 -63 -10 -63 -22z"/> <path d="M18885 29892 c-22 -12 -31 -40 -23 -65 8 -26 -3 -59 -27 -79 -38 -31 -40 -308 -23 -3572 11 -2272 27 -3549 43 -3569 13 -16 18 -39 11 -51 -50 -81 -8 -82 3623 -81 1979 0 3612 0 3628 0 16 0 33 31 38 69 5 49 22 69 58 69 49 0 50 16 50 3575 0 3558 -1 3574 -50 3574 -36 0 -53 20 -58 69 -5 38 -22 70 -38 70 -331 16 -627 -1 -647 -36 -32 -57 -5955 -62 -5988 -5 -22 40 -534 68 -597 32z m2091 -644 c23 -43 43 -50 112 -37 69 13 89 6 113 -37 16 -30 43 -47 63 -39 43 16 971 -897 998 -984 65 -203 272 -275 398 -139 70 76 236 111 269 57 10 -17 27 -20 38 -9 11 12 6 27 -11 33 -17 6 -31 27 -31 47 0 20 -17 43 -37 51 -27 10 4 54 113 162 82 81 149 165 149 187 0 68 182 242 206 198 27 -48 94 -49 94 -2 0 20 -17 46 -38 58 -47 26 126 199 185 185 20 -4 72 33 116 82 52 58 94 85 119 75 25 -9 50 5 67 38 24 43 44 50 113 37 69 -13 89 -6 112 37 20 37 52 52 114 52 61 0 93 -15 113 -52 23 -43 43 -50 112 -37 69 13 89 6 112 -36 19 -36 43 -48 75 -37 32 10 56 -2 75 -39 18 -32 44 -47 67 -38 24 9 88 -35 177 -123 114 -110 132 -139 98 -152 -63 -24 -51 -57 35 -92 l76 -31 -50 -54 c-28 -30 -64 -59 -81 -64 -18 -6 -23 -24 -11 -42 14 -24 39 -12 94 45 74 75 120 81 120 17 0 -18 30 -88 66 -155 80 -149 91 -429 23 -573 -23 -48 -34 -100 -24 -116 10 -16 0 -41 -21 -57 -22 -16 -43 -56 -48 -90 -6 -46 -28 -65 -83 -74 -67 -12 -75 -23 -75 -102 0 -71 -22 -111 -107 -198 -58 -59 -106 -128 -106 -153 0 -63 -43 -81 -72 -29 -20 36 -31 38 -56 13 -26 -25 -23 -37 12 -63 41 -30 37 -39 -50 -118 -53 -48 -121 -86 -157 -86 -50 -1 -68 -20 -89 -89 -45 -153 -113 -196 -113 -71 0 29 -13 46 -31 39 -17 -6 -28 -40 -24 -76 4 -44 -10 -76 -44 -97 -63 -39 -65 -84 -7 -118 41 -23 40 -27 -9 -62 -73 -52 -78 -204 -7 -223 37 -10 47 -27 36 -62 -18 -56 43 -117 96 -97 19 7 59 -12 89 -44 l53 -57 -76 -16 c-100 -19 -96 -65 12 -138 48 -33 87 -75 87 -94 0 -55 43 -39 59 22 20 79 432 -334 420 -421 -4 -32 11 -66 35 -79 29 -16 33 -30 14 -42 -41 -25 -34 -114 10 -114 20 0 37 -22 37 -49 0 -69 52 -91 91 -38 31 43 33 43 48 -3 8 -26 25 -67 38 -91 13 -24 23 -63 23 -87 0 -25 18 -78 40 -119 40 -77 65 -457 31 -478 -17 -11 -103 -186 -131 -270 -13 -37 -24 -41 -46 -19 -49 49 -116 36 -101 -21 10 -38 1 -50 -40 -50 -42 0 -53 -15 -53 -75 0 -58 -11 -75 -50 -75 -27 0 -64 -22 -81 -50 -17 -27 -57 -50 -89 -50 -114 0 -55 -87 65 -95 108 -8 125 -55 19 -55 -32 0 -65 -17 -73 -37 -8 -21 -42 -38 -75 -38 -33 0 -67 -17 -75 -37 -8 -21 -42 -38 -75 -38 -33 0 -67 -17 -75 -37 -11 -30 -64 -38 -253 -38 -190 0 -243 8 -254 38 -8 20 -42 37 -75 37 -33 0 -67 17 -75 38 -8 20 -39 37 -69 37 -74 0 -147 93 -150 192 -1 46 6 83 16 83 11 0 19 18 19 40 0 28 -13 35 -43 24 -28 -11 -57 2 -84 38 -36 48 -51 52 -115 29 -71 -24 -82 -17 -235 137 -121 123 -158 177 -152 222 6 45 -8 66 -57 84 -44 17 -64 43 -64 84 0 72 -84 154 -136 134 -21 -9 -48 3 -61 26 -46 83 -269 45 -368 -63 -47 -51 -85 -101 -85 -111 0 -42 -45 -16 -58 33 -20 79 -103 52 -113 -36 -7 -67 -14 -71 -93 -58 -47 7 -91 4 -99 -9 -23 -37 83 -124 151 -124 34 0 62 -11 62 -25 0 -14 -10 -25 -22 -25 -12 0 -113 -91 -225 -203 -112 -112 -203 -213 -203 -225 0 -43 -44 -21 -57 28 -9 32 -34 50 -73 50 -33 0 -73 13 -88 28 -15 15 -41 19 -58 9 -22 -14 -14 -32 29 -65 l60 -47 -57 -15 c-88 -25 -74 -110 19 -110 41 0 75 -7 75 -15 0 -32 -116 -108 -166 -109 -30 -1 -60 -18 -68 -38 -8 -21 -42 -38 -75 -38 -33 0 -67 -17 -75 -37 -11 -30 -64 -38 -253 -38 -190 0 -243 8 -254 38 -8 20 -38 37 -68 38 -29 0 -86 34 -126 75 -41 41 -93 74 -118 74 -67 0 -82 48 -21 70 71 27 9 84 -99 90 -85 4 -185 84 -166 133 7 19 -20 67 -61 107 -78 76 -134 275 -78 275 15 0 28 11 28 25 0 14 -17 25 -37 25 -21 0 -38 -12 -38 -27 0 -14 -25 -23 -56 -18 -43 6 -60 30 -73 108 -27 151 -24 482 4 500 14 8 18 42 10 76 -16 64 11 80 58 33 37 -37 82 -6 82 54 0 54 63 67 84 18 9 -24 19 -22 39 6 38 54 33 100 -10 100 -54 0 -47 34 21 103 77 78 119 160 103 201 -6 19 49 94 124 168 117 115 146 132 203 117 70 -17 136 19 136 75 0 18 -22 36 -49 41 -48 7 -48 8 0 70 46 58 52 60 83 19 19 -24 47 -44 63 -44 42 0 34 114 -11 152 -35 28 -22 49 109 174 165 158 206 267 127 339 -24 22 -38 55 -30 74 8 21 -123 168 -340 380 -193 190 -352 365 -352 389 0 41 -315 367 -355 367 -41 0 -19 45 28 57 48 12 101 177 68 211 -26 26 -141 -39 -141 -80 0 -21 -11 -38 -25 -38 -14 0 -25 60 -25 134 0 89 -13 145 -37 166 -24 20 -38 75 -38 150 0 75 14 130 38 150 20 17 37 67 37 111 0 101 22 124 74 77 59 -53 140 9 162 124 10 55 31 88 55 88 28 0 36 22 30 87 -6 76 9 103 121 212 82 80 142 121 166 112 23 -9 49 6 67 38 19 36 43 49 75 39 30 -10 55 1 71 29 15 26 57 46 104 48 44 3 98 23 120 45 60 59 197 52 231 -12z"/> <path d="M20725 28718 c-252 -114 -575 -468 -575 -630 0 -148 252 -449 1375 -1644 103 -110 195 -213 205 -230 11 -19 -47 -98 -150 -204 -92 -95 -263 -279 -380 -409 -117 -130 -293 -321 -391 -425 -98 -104 -221 -239 -275 -301 -53 -62 -135 -156 -183 -208 -98 -107 -201 -296 -201 -368 0 -199 488 -649 704 -649 171 0 304 123 922 850 29 34 89 102 133 150 110 119 467 545 541 644 33 45 74 81 91 81 36 0 37 -1 213 -225 130 -166 386 -467 436 -512 15 -14 163 -184 328 -377 511 -596 574 -644 786 -598 219 48 619 458 621 635 1 146 -114 291 -987 1251 -55 61 -207 221 -338 358 -131 136 -241 264 -246 285 -5 22 98 148 238 292 135 139 342 360 458 490 117 130 276 304 354 387 412 441 478 531 509 695 31 166 -212 475 -492 625 -263 141 -366 82 -862 -494 -70 -82 -271 -313 -446 -512 -175 -199 -359 -421 -409 -493 -116 -165 -173 -188 -241 -94 -54 75 -834 991 -861 1012 -9 7 -116 128 -238 270 -299 348 -454 432 -639 348z"/> <path d="M20060 24989 c-18 -45 10 -95 42 -75 31 19 29 111 -3 111 -14 0 -32 -16 -39 -36z"/> <path d="M23737 23424 c-10 -16 -7 -39 6 -52 30 -30 112 0 100 37 -13 40 -85 50 -106 15z"/> <path d="M13675 20630 c-432 -148 -740 -381 -935 -707 -103 -173 -315 -700 -315 -783 0 -32 -17 -107 -38 -165 -80 -230 -71 -1394 14 -1725 89 -346 112 -412 224 -650 216 -462 573 -768 1062 -912 226 -67 821 -61 1030 9 617 208 932 568 1192 1366 23 68 41 149 41 179 0 30 17 122 39 205 72 281 27 1481 -64 1716 -11 27 -44 128 -74 225 -51 164 -106 302 -155 387 -11 21 -31 60 -43 88 -31 70 -219 309 -313 398 -166 156 -392 280 -681 373 -173 55 -818 53 -984 -4z m801 -1207 c97 -65 213 -227 255 -355 15 -44 42 -124 62 -178 48 -135 70 -861 36 -1190 -24 -225 -42 -315 -96 -462 -111 -309 -392 -472 -691 -402 -353 82 -489 376 -532 1155 -46 816 144 1393 490 1489 129 36 383 5 476 -57z"/> <path d="M14150 18163 c0 -383 3 -416 44 -408 39 7 44 47 44 408 0 360 -5 400 -44 407 -41 8 -44 -25 -44 -407z"/> <path d="M21517 20833 c-9 -9 -17 -31 -17 -50 0 -44 66 -43 83 2 20 53 -27 87 -66 48z"/> <path d="M20688 20704 c-42 -23 -81 -47 -88 -54 -7 -7 -71 -61 -142 -120 -153 -126 -308 -349 -308 -443 0 -134 166 -347 750 -962 48 -50 202 -221 343 -379 140 -159 306 -335 369 -393 149 -137 144 -174 -47 -360 -88 -85 -214 -217 -279 -293 -65 -76 -181 -206 -258 -289 -834 -903 -878 -959 -878 -1120 0 -130 262 -412 555 -598 90 -57 223 -54 325 6 82 49 488 468 529 547 12 23 35 53 50 67 56 50 387 431 640 737 143 172 273 316 289 320 17 4 69 -41 115 -100 117 -149 485 -585 558 -660 15 -15 77 -88 139 -161 62 -73 168 -196 237 -273 68 -76 147 -165 175 -198 364 -423 540 -431 929 -42 331 330 315 429 -158 957 -258 288 -278 310 -406 445 -65 68 -167 181 -226 250 -137 159 -344 376 -460 481 -119 108 -115 135 40 292 72 73 216 226 319 340 103 114 221 244 263 288 274 295 520 566 591 651 46 54 113 131 150 171 96 103 135 259 95 381 -40 122 -345 429 -501 503 -255 123 -347 65 -872 -545 -171 -199 -319 -368 -327 -375 -31 -25 -417 -481 -545 -644 -93 -118 -158 -134 -197 -50 -14 31 -171 225 -348 432 -379 441 -437 509 -475 549 -16 16 -88 102 -161 190 -383 466 -568 572 -785 452z"/> <path d="M23058 20361 c-20 -54 32 -106 70 -68 32 32 12 107 -28 107 -15 0 -33 -18 -42 -39z"/> <path d="M19980 19432 c12 -66 95 -73 95 -9 0 36 -16 52 -52 52 -36 0 -49 -13 -43 -43z"/> <path d="M19762 16550 c-20 -33 9 -125 40 -125 13 0 23 34 23 75 0 74 -32 99 -63 50z"/> <path d="M30400 20632 c-696 -241 -1042 -646 -1266 -1482 -179 -672 -110 -1935 132 -2404 19 -36 34 -80 34 -96 0 -79 329 -527 467 -637 263 -207 572 -335 883 -365 766 -74 1343 184 1679 752 62 103 137 249 168 325 30 76 65 160 76 188 164 404 222 1462 108 2000 -78 369 -96 436 -156 587 -30 76 -62 160 -71 188 -26 78 -208 361 -298 464 -181 206 -458 378 -759 472 -207 65 -819 70 -997 8z m842 -1262 c233 -228 307 -518 308 -1196 0 -728 -95 -1075 -350 -1269 -119 -92 -501 -101 -616 -15 -94 70 -230 260 -232 324 -1 28 -15 64 -31 80 -17 17 -38 84 -47 149 -10 66 -32 204 -49 307 -55 331 -5 1019 90 1245 19 45 35 99 35 121 0 46 134 224 223 297 88 71 164 86 376 73 180 -11 191 -15 293 -116z"/> <path d="M28833 19761 c-20 -54 32 -106 70 -68 32 32 12 107 -28 107 -15 0 -33 -18 -42 -39z"/> <path d="M28791 16783 c-31 -31 -16 -108 22 -108 20 0 37 22 37 49 0 52 -33 85 -59 59z"/> <path d="M34988 10576 c-293 -74 -461 -172 -683 -398 -131 -134 -402 -547 -436 -665 -8 -28 -39 -112 -69 -188 -30 -76 -60 -166 -66 -200 -6 -34 -27 -119 -46 -187 -109 -395 -126 -600 -120 -1462 2 -256 42 -435 168 -751 8 -21 37 -71 64 -112 27 -42 59 -98 72 -125 78 -173 445 -463 678 -536 173 -54 736 -65 838 -16 45 21 98 39 118 39 83 0 409 209 544 348 479 494 679 1160 679 2265 0 660 -45 912 -234 1299 -267 546 -909 840 -1507 689z m712 -244 c59 -51 64 -82 13 -82 -21 0 -38 -12 -38 -26 0 -50 -110 -73 -144 -29 -91 116 55 234 169 137z m-623 -83 c66 -35 61 -79 -8 -69 -31 4 -60 27 -64 51 -10 51 4 54 72 18z m364 -588 c46 -35 84 -77 84 -94 0 -16 16 -59 35 -96 78 -149 71 -1191 -11 -1633 -125 -677 -240 -888 -484 -888 -247 0 -340 208 -340 763 0 328 41 793 89 1012 20 89 36 191 36 225 0 34 17 95 38 134 20 39 38 96 40 125 6 119 181 402 285 459 125 70 127 70 228 -7z m384 -636 c0 -39 -17 -50 -75 -50 -123 0 -93 92 31 98 28 1 44 -16 44 -48z m525 -737 c20 -53 40 -63 124 -63 111 0 143 -58 49 -88 -45 -15 -50 -29 -36 -108 10 -50 30 -99 46 -109 15 -9 19 -26 9 -37 -11 -10 -31 -3 -44 18 -21 31 -29 30 -59 -9 -21 -28 -58 -43 -93 -38 -70 10 -93 167 -40 269 23 43 24 63 4 69 -15 6 -49 26 -75 46 -47 36 -47 38 1 75 67 51 86 47 114 -25z m-525 -150 c0 -101 -19 -108 -95 -37 -79 73 -71 124 20 124 69 0 75 -7 75 -87z m274 -168 c61 -65 62 -72 14 -134 -36 -48 -36 -48 -37 3 -1 28 -18 73 -38 100 -73 96 -23 122 61 31z m246 -238 c-9 -50 -67 -67 -117 -35 -49 32 -12 78 63 78 46 0 60 -11 54 -43z m-475 -88 c10 -51 -96 -109 -156 -86 -60 24 -48 112 17 125 91 18 130 7 139 -39z m230 -25 c96 -156 50 -379 -91 -447 -80 -39 -87 -38 -108 2 -35 65 -2 150 65 167 50 12 55 21 30 51 -23 28 -24 48 -2 83 16 25 22 85 14 135 -19 115 25 119 92 9z m345 -26 c39 -46 47 -174 13 -186 -43 -15 -220 154 -198 189 24 39 152 37 185 -3z m-2470 -80 c0 -50 -13 -63 -61 -63 -69 0 -100 35 -79 89 25 66 140 45 140 -26z m-25 -310 c0 -56 -62 -114 -99 -91 -57 35 -29 138 37 138 44 0 62 -14 62 -47z m-4 -463 c-5 -37 -20 -69 -33 -72 -31 -7 -48 95 -27 150 24 61 69 1 60 -78z m1916 15 c54 -47 61 -65 37 -94 -50 -60 -169 -44 -240 32 l-63 68 53 43 c61 50 114 37 213 -49z m-1218 31 c104 -73 58 -211 -70 -211 -142 0 -192 174 -66 225 74 30 74 30 136 -14z m1469 -38 c0 -71 -58 -81 -98 -16 -21 34 -19 50 10 68 55 36 88 16 88 -52z m-713 -235 c41 -50 16 -107 -65 -143 -56 -26 -70 -24 -100 17 -50 68 -43 111 21 137 81 33 109 31 144 -11z m-50 -277 c0 -26 -18 -37 -54 -31 -80 11 -89 70 -11 70 42 0 65 -14 65 -39z"/> <path d="M8244 10547 c-29 -18 -62 -315 -83 -747 -8 -158 -25 -417 -38 -575 -21 -259 -62 -1275 -112 -2738 -17 -481 -15 -528 25 -561 36 -29 144 -35 598 -29 686 9 649 -11 631 340 -15 293 -16 344 -12 419 10 151 -21 354 -55 365 -37 12 -72 53 -73 86 0 10 28 32 62 47 104 48 112 196 10 196 -59 0 -60 27 0 103 42 54 49 127 65 710 9 357 33 790 53 962 19 172 35 397 35 500 0 103 17 289 37 413 45 274 48 478 8 502 -36 23 -1115 29 -1151 7z m346 -256 c2 -51 -10 -101 -26 -111 -16 -9 -61 -83 -101 -163 -40 -80 -82 -151 -93 -158 -11 -6 -13 -39 -5 -73 11 -44 5 -61 -22 -61 -51 0 -63 143 -34 424 l23 223 103 10 c148 13 152 11 155 -91z m201 47 c-25 -19 -62 -29 -81 -21 -64 24 -36 58 46 57 75 -1 78 -3 35 -36z m-403 -1011 c-5 -192 -22 -371 -36 -399 -34 -63 -35 -170 -2 -190 36 -23 31 -111 -10 -152 -25 -25 -35 -107 -37 -293 -1 -172 -15 -290 -40 -350 -21 -50 -38 -147 -38 -216 0 -193 -42 -172 -57 30 -9 127 -2 206 23 268 26 62 37 195 38 462 1 207 13 426 28 488 14 62 23 229 21 372 -4 258 14 328 86 328 27 0 32 -70 24 -348z m662 -952 c41 -26 12 -100 -46 -119 -36 -12 -65 55 -45 107 17 43 38 46 91 12z m-80 -253 c5 -27 -16 -47 -60 -58 -77 -19 -124 14 -101 73 21 54 150 41 161 -15z m69 -339 c-7 -20 -3 -57 11 -82 17 -33 14 -54 -10 -74 -40 -33 -70 -127 -40 -127 11 0 26 -17 34 -37 9 -23 0 -38 -22 -38 -20 0 -37 17 -37 38 0 21 -28 51 -62 67 -35 15 -63 48 -63 73 0 25 28 64 63 87 34 22 62 60 62 84 0 23 7 50 16 59 27 27 63 -11 48 -50z m-74 -497 c-7 -20 -34 -36 -59 -36 -69 0 -106 -50 -106 -142 0 -55 -12 -83 -35 -83 -27 0 -34 38 -31 169 l5 169 79 -7 c44 -3 87 7 97 22 23 39 69 -44 50 -92z m-219 -375 c-13 -70 -71 -74 -71 -5 0 33 8 68 17 78 27 26 64 -24 54 -73z m229 38 c32 -21 28 -32 -25 -74 -84 -66 -125 -62 -125 10 0 81 76 114 150 64z m-208 -238 c8 -22 2 -52 -14 -68 -35 -35 -118 37 -92 80 25 40 88 33 106 -12z m206 -158 c18 -33 15 -59 -8 -92 -32 -43 -35 -43 -62 8 -28 54 -15 131 24 131 12 0 32 -21 46 -47z m115 -204 c18 -28 -51 -149 -84 -149 -47 0 -91 127 -53 151 49 31 117 30 137 -2z"/> <path d="M7313 10521 c-152 -12 -832 -30 -1512 -40 l-1236 -18 -18 -63 c-9 -34 -18 -202 -20 -372 -1 -170 -15 -409 -31 -531 -44 -325 16 -372 367 -284 82 21 211 49 287 62 76 13 199 41 274 62 80 22 145 29 159 15 13 -13 11 -204 -5 -468 -14 -246 -33 -649 -41 -896 -8 -248 -26 -777 -41 -1175 -33 -899 -34 -836 15 -885 36 -35 106 -39 559 -32 617 9 636 17 580 217 -35 125 -36 147 -22 739 7 300 18 401 47 436 22 26 38 98 39 172 1 70 4 537 7 1038 4 612 15 922 33 944 20 25 135 33 468 33 242 1 466 7 496 16 70 18 77 62 90 555 13 519 15 516 -495 475z m-2243 -819 c5 -16 -3 -44 -19 -63 -23 -28 -18 -37 27 -43 30 -5 60 -21 65 -37 14 -43 -90 -59 -129 -19 -20 19 -56 35 -81 36 -25 0 -73 24 -107 52 -59 49 -60 54 -17 85 53 38 247 30 261 -11z m452 14 c47 -56 -25 -100 -87 -54 -41 32 -42 40 -10 62 50 33 64 32 97 -8z m-222 -206 c0 -78 -59 -69 -70 11 -6 36 5 54 31 54 25 0 39 -23 39 -65z m460 -2124 c17 -47 -6 -159 -42 -206 -18 -22 -17 -41 3 -61 43 -43 38 -392 -6 -409 -27 -10 -29 -31 -9 -96 32 -103 -4 -276 -57 -276 -66 0 -43 966 25 1048 41 50 67 49 86 0z"/> <path d="M11100 10511 c-48 -18 -110 -34 -137 -35 -99 -3 -421 -208 -586 -372 -267 -266 -556 -716 -684 -1066 -20 -55 -50 -140 -67 -188 -18 -48 -40 -138 -51 -200 -11 -62 -32 -174 -48 -250 -16 -76 -28 -222 -27 -325 1 -103 2 -310 2 -460 0 -838 409 -1481 1065 -1676 173 -52 694 -53 783 -1 34 19 93 36 130 36 37 1 73 11 80 23 8 12 78 54 156 93 270 137 538 420 831 877 177 277 173 301 -104 589 -195 203 -247 244 -310 244 -76 0 -158 -64 -158 -124 0 -52 -310 -509 -415 -611 -197 -192 -403 -241 -559 -134 -73 51 -99 87 -182 254 -73 146 -77 986 -7 1253 19 68 46 175 62 237 16 62 37 147 49 190 36 137 198 450 299 578 126 160 291 232 387 170 128 -84 114 -296 -50 -776 -91 -269 -62 -281 613 -264 l534 15 43 139 c87 284 83 823 -10 1069 -117 314 -508 679 -727 679 -29 0 -74 17 -101 37 -64 48 -682 48 -811 -1z m730 -105 c18 -75 -7 -131 -57 -131 -54 0 -58 19 -24 111 29 74 66 83 81 20z m-530 -132 c0 -27 -17 -49 -37 -49 -38 0 -53 77 -22 108 26 26 59 -7 59 -59z m471 -433 c5 -26 -4 -59 -19 -74 -38 -38 -114 40 -93 95 21 54 100 39 112 -21z m292 -191 c23 -38 -12 -125 -50 -125 -39 0 -74 87 -51 125 9 14 31 25 51 25 19 0 41 -11 50 -25z m193 -119 c48 -55 55 -266 9 -304 -66 -55 -147 47 -144 182 3 172 52 216 135 122z m-193 -143 c0 -32 -19 -53 -50 -57 -71 -9 -123 31 -104 81 24 62 154 41 154 -24z m-1640 -113 c60 0 62 -6 23 -82 -16 -30 -37 -72 -47 -93 -9 -21 -41 -34 -70 -30 -29 4 -74 -4 -101 -19 -69 -36 -132 -6 -123 58 6 42 22 52 76 46 61 -6 69 2 69 65 0 90 19 110 77 79 24 -13 68 -24 96 -24z m-298 -328 c0 -16 22 -22 53 -14 36 9 70 -6 109 -47 31 -34 70 -61 86 -61 17 0 27 -20 22 -44 -11 -57 -103 -69 -144 -20 -18 22 -50 39 -73 40 -55 1 -185 118 -165 149 21 34 112 32 112 -3z m38 -272 c0 -32 -15 -63 -32 -69 -38 -13 -67 55 -46 109 22 57 78 29 78 -40z m-133 -141 c-5 -36 10 -57 46 -67 84 -22 53 -104 -39 -104 -72 0 -75 4 -80 120 -5 102 1 119 37 112 28 -6 41 -28 36 -61z m345 -246 c0 -46 -13 -63 -50 -63 -49 0 -71 71 -33 108 38 38 83 13 83 -45z"/> <path d="M19200 10523 c-117 -10 -792 -27 -1501 -37 -1270 -18 -1288 -19 -1328 -71 -32 -44 -41 -153 -51 -623 -10 -545 -9 -571 38 -596 57 -31 277 -8 423 44 55 19 137 35 182 35 44 0 121 17 171 38 49 20 127 37 172 37 l83 0 -8 -644 c-4 -354 -20 -795 -35 -981 -34 -412 -65 -1711 -42 -1773 24 -65 34 -66 601 -57 515 9 517 9 556 69 36 54 36 69 4 131 -51 98 -53 1099 -3 1155 39 43 128 1863 100 2029 -34 200 -43 196 484 196 629 0 579 -47 579 538 l0 461 -74 38 c-40 21 -88 36 -106 34 -18 -3 -128 -13 -245 -23z m-2295 -778 c-41 -41 -38 -108 8 -145 46 -39 47 -73 3 -90 -19 -7 -63 13 -98 44 -35 32 -89 58 -119 58 -31 0 -68 21 -84 45 -38 61 15 91 135 75 55 -8 101 -1 111 15 9 15 30 28 45 28 21 0 21 -8 -1 -30z m416 -53 c5 -28 -9 -42 -44 -42 -29 0 -52 15 -52 33 0 77 81 84 96 9z m-196 -192 c0 -33 -17 -50 -50 -50 -33 0 -50 17 -50 50 0 33 17 50 50 50 33 0 50 -17 50 -50z m440 -2194 c-10 -51 -22 -289 -28 -528 -6 -240 -17 -442 -25 -449 -34 -34 -99 43 -95 112 3 39 12 257 21 484 17 474 17 475 89 475 49 0 53 -9 38 -94z"/> <path d="M24803 10512 c-46 -21 -108 -37 -137 -38 -29 0 -75 -17 -102 -37 -27 -20 -63 -37 -80 -37 -190 0 -775 -670 -993 -1138 -26 -55 -57 -119 -69 -143 -22 -43 -92 -266 -160 -506 -107 -386 -97 -1195 22 -1604 127 -440 436 -839 766 -988 374 -169 892 -169 1250 0 374 177 607 410 965 965 167 260 167 257 -31 470 -94 101 -203 220 -240 264 -45 51 -92 80 -133 80 -77 0 -161 -41 -161 -79 0 -62 -341 -581 -435 -662 -308 -266 -564 -242 -706 66 -176 382 -111 1321 131 1888 102 239 148 319 239 423 149 169 270 226 383 178 88 -36 88 -37 87 -194 0 -95 -26 -242 -64 -370 -101 -337 -112 -407 -71 -449 43 -44 1100 -47 1144 -3 122 122 159 884 56 1148 -134 342 -277 503 -608 684 -44 25 -106 45 -137 46 -31 0 -85 17 -119 37 -89 50 -680 49 -797 -1z m742 -143 c-5 -53 -22 -84 -51 -89 -64 -12 -83 63 -31 121 65 71 91 60 82 -32z m-57 -566 c-20 -66 -67 -68 -123 -6 -41 46 -40 50 14 88 72 50 136 2 109 -82z m285 -231 c-20 -38 -35 -42 -74 -21 -61 32 -64 92 -5 105 69 16 110 -28 79 -84z m230 -80 c28 -38 4 -222 -31 -244 -56 -36 -118 -26 -131 21 -20 73 -14 207 11 274 24 63 25 63 80 17 30 -26 62 -57 71 -68z m-231 -76 c41 -50 -29 -101 -109 -81 -60 15 -82 62 -46 98 29 29 126 18 155 -17z m-1684 -127 c103 -37 110 -60 48 -157 -52 -80 -306 -115 -327 -44 -16 50 36 102 70 68 49 -49 64 -37 81 69 8 55 18 100 22 100 3 -1 51 -17 106 -36z m-250 -340 c9 -15 37 -23 62 -19 74 12 204 -126 173 -184 -33 -61 -91 -59 -110 4 -10 29 -38 50 -69 50 -60 0 -169 92 -169 142 0 39 90 45 113 7z m7 -270 c6 -36 -5 -54 -31 -54 -25 0 -39 23 -39 65 0 78 59 69 70 -11z m-70 -93 c0 -8 -12 -36 -26 -63 -20 -37 -18 -48 10 -48 50 0 92 -59 68 -97 -11 -18 -47 -29 -80 -24 -85 12 -107 246 -23 246 28 0 51 -6 51 -14z m300 -325 c0 -39 -62 -90 -84 -69 -22 22 -21 145 2 168 21 20 82 -54 82 -99z m-100 -1198 c0 -21 -22 -38 -50 -38 -28 0 -50 17 -50 38 0 20 22 37 50 37 28 0 50 -17 50 -37z"/> <path d="M32925 10523 c-117 -10 -795 -26 -1506 -37 -1136 -17 -1298 -24 -1328 -59 -39 -45 -78 -1168 -42 -1226 23 -37 258 -19 464 37 263 70 551 129 580 119 21 -8 27 -85 19 -278 -6 -147 -17 -486 -24 -754 -7 -268 -24 -617 -37 -775 -36 -444 -40 -1596 -5 -1631 21 -21 184 -27 560 -23 583 8 618 17 579 154 -35 126 -35 1158 1 1200 37 43 55 386 80 1488 8 385 24 709 34 720 11 12 225 20 476 18 613 -4 574 -42 574 550 l0 443 -62 41 c-34 22 -81 38 -106 36 -24 -3 -140 -13 -257 -23z m-2325 -851 c0 -40 11 -72 25 -72 14 0 25 -22 25 -50 0 -68 -50 -62 -121 13 -42 44 -76 58 -116 47 -38 -9 -61 -1 -71 26 -30 76 7 104 134 106 120 2 124 0 124 -70z m475 53 c33 -22 33 -28 0 -50 -75 -49 -158 -25 -133 40 15 41 79 45 133 10z m-237 -212 c0 -28 -20 -54 -44 -58 -33 -7 -44 8 -44 58 0 49 11 64 44 57 24 -4 44 -30 44 -57z m434 -2122 c15 -18 21 -39 13 -47 -7 -8 -18 -231 -24 -496 -10 -492 -19 -538 -97 -508 -38 15 -42 36 -28 133 9 63 22 289 29 502 15 468 26 513 107 416z"/> <path d="M39650 10523 c-103 -11 -542 -32 -975 -48 -1123 -41 -1393 -58 -1427 -92 -43 -43 -71 -218 -73 -470 -1 -124 -13 -310 -26 -413 -13 -103 -35 -412 -49 -687 -13 -275 -35 -641 -49 -813 -13 -172 -25 -492 -26 -712 -1 -220 -12 -603 -24 -850 -30 -591 -47 -564 330 -548 155 7 411 24 569 38 158 14 546 36 863 49 1001 40 1257 55 1283 70 15 10 28 216 32 519 8 671 78 614 -703 565 -605 -39 -1195 -47 -1221 -17 -23 25 -1 497 24 522 23 23 293 64 435 65 68 0 192 17 275 37 82 20 217 37 300 39 82 1 234 15 337 32 236 38 244 53 231 435 -10 278 -11 281 -71 281 -39 0 -60 14 -60 40 0 31 18 38 75 30 67 -10 75 -5 75 55 0 155 -98 176 -612 130 -179 -15 -466 -31 -638 -35 l-312 -7 8 250 c5 137 19 260 31 273 26 27 211 51 686 89 178 15 381 37 450 49 68 13 204 24 302 25 253 2 464 47 516 111 67 82 65 913 -2 974 -50 45 -216 49 -554 14z m-1025 -526 c0 -27 -25 -59 -56 -71 -31 -13 -43 -24 -27 -24 16 -1 48 -21 71 -44 34 -34 51 -36 89 -12 70 43 223 38 223 -8 0 -39 -23 -47 -119 -39 -31 3 -63 -13 -71 -35 -16 -41 -135 -55 -135 -16 0 13 -25 32 -56 41 -75 24 -167 92 -168 124 -1 29 92 117 149 140 56 23 100 -2 100 -56z m-452 -1320 c30 -19 31 -30 4 -63 -59 -70 -149 -33 -117 50 15 41 61 46 113 13z m-26 -236 c22 -26 20 -41 -5 -62 -42 -35 -134 23 -107 67 24 39 78 37 112 -5z m178 2 c0 -18 -13 -46 -29 -62 -38 -38 -99 7 -79 58 17 45 108 48 108 4z m263 -76 c0 -130 -49 -127 -58 4 -6 82 0 106 25 98 19 -6 33 -49 33 -102z m-482 -248 c65 -72 119 -150 119 -173 0 -68 -75 -126 -141 -110 -43 11 -59 4 -59 -23 0 -22 22 -38 52 -38 74 0 48 -49 -47 -89 -69 -29 -80 -29 -80 3 0 20 -11 36 -25 36 -14 0 -25 27 -25 61 0 34 -11 68 -25 77 -14 8 -25 59 -25 113 0 70 -11 99 -36 99 -52 0 -74 48 -30 65 43 16 132 -64 145 -131 5 -28 34 -49 71 -53 54 -6 57 -4 19 20 -24 14 -44 43 -44 63 0 20 -13 58 -29 83 -29 46 -15 128 22 128 10 0 72 -59 138 -131z m-146 -534 c35 -90 17 -122 -36 -65 -28 30 -65 55 -81 55 -19 1 -16 10 7 25 55 35 93 30 110 -15z m-166 -230 c-54 -11 -58 -88 -6 -130 20 -17 37 -48 37 -69 0 -34 -6 -33 -46 3 -25 22 -59 41 -75 41 -41 0 -36 79 9 143 26 37 52 49 81 38 41 -16 41 -18 0 -26z m181 -652 c0 -27 -146 -58 -178 -39 -13 8 -16 25 -8 38 18 29 186 30 186 1z m-100 -178 c0 -28 -16 -50 -36 -50 -44 0 -72 41 -51 75 27 44 87 27 87 -25z m310 -90 c22 -9 40 -32 40 -52 0 -52 -110 -31 -120 23 -9 46 14 54 80 29z m-485 -47 c0 -25 25 -38 75 -38 67 0 75 -8 75 -75 0 -41 -12 -75 -27 -75 -50 0 -123 52 -123 88 0 19 -23 47 -51 62 -54 29 -45 75 15 75 20 0 36 -17 36 -37z m925 -75 c0 -53 -12 -63 -74 -63 -40 0 -80 12 -89 26 -31 51 11 99 87 99 64 0 76 -10 76 -62z m-1029 -49 c64 -94 55 -139 -25 -139 -41 0 -49 12 -40 61 7 38 -2 67 -22 74 -43 17 -45 90 -3 90 17 0 58 -39 90 -86z m473 -18 c-17 -53 -90 -85 -121 -54 -16 16 -21 41 -12 56 23 37 146 35 133 -2z"/> <path d="M21075 10476 c-89 -11 -179 -26 -200 -33 -21 -8 -68 -21 -106 -29 -70 -15 -91 -49 -207 -339 -25 -62 -77 -184 -116 -270 -39 -87 -71 -168 -71 -180 0 -11 -15 -53 -34 -92 -47 -96 -101 -224 -152 -358 -24 -62 -59 -144 -78 -183 -20 -39 -36 -86 -36 -104 0 -19 -17 -69 -37 -111 -21 -42 -55 -112 -75 -154 -21 -42 -38 -94 -38 -115 0 -21 -15 -68 -34 -104 -37 -73 -84 -200 -116 -316 -11 -42 -34 -115 -51 -163 -17 -48 -45 -127 -62 -175 -17 -48 -50 -155 -74 -237 -103 -354 -118 -404 -142 -475 -13 -42 -39 -126 -57 -188 -83 -282 -118 -396 -155 -512 -22 -69 -45 -182 -51 -252 -17 -175 -4 -178 640 -183 587 -4 627 6 627 154 0 33 17 115 37 183 21 67 38 162 38 211 0 128 55 191 181 208 181 23 426 70 557 107 68 19 170 38 225 41 l100 6 17 -250 c10 -138 23 -333 29 -434 6 -101 22 -195 36 -209 37 -37 1199 -36 1237 2 38 38 30 194 -18 356 -22 72 -39 163 -39 203 0 39 -16 141 -35 226 -47 208 -94 453 -116 606 -10 68 -32 192 -48 275 -16 82 -45 234 -63 337 -19 103 -48 255 -64 338 -17 82 -39 217 -49 300 -20 162 -60 369 -113 587 -18 76 -56 233 -85 350 -141 584 -248 807 -450 930 -101 61 -448 82 -752 46z m575 -438 c0 -53 91 -138 147 -138 57 0 85 -58 46 -97 -45 -45 -122 -32 -136 22 -7 28 -31 50 -54 50 -67 1 -112 41 -88 78 12 19 18 54 14 78 -4 26 9 44 32 44 21 0 39 -17 39 -37z m162 -337 c9 -14 2 -50 -14 -80 -29 -53 -31 -53 -64 -8 -19 26 -34 61 -34 79 0 38 90 45 112 9z m-452 -41 c53 -138 -18 -206 -122 -116 -42 35 -63 68 -48 74 15 5 49 25 75 45 61 46 76 46 95 -3z m541 -174 c27 -32 24 -47 -19 -90 l-52 -52 -29 55 c-55 102 28 174 100 87z m-676 -548 c0 -53 -12 -63 -74 -63 -40 0 -80 12 -89 26 -31 51 11 99 87 99 64 0 76 -10 76 -62z m63 -157 c8 -38 25 -109 38 -159 13 -50 24 -136 24 -191 0 -55 18 -186 39 -290 22 -104 36 -226 31 -271 l-7 -82 -233 -7 c-273 -7 -277 -3 -204 207 29 82 62 195 74 251 12 56 33 129 46 162 14 34 44 149 67 255 45 203 98 256 125 125z m-230 -115 c7 -19 -9 -71 -36 -115 -27 -44 -88 -197 -136 -341 -48 -144 -109 -309 -135 -367 -27 -58 -55 -136 -63 -174 -17 -82 -101 -95 -125 -19 -22 68 66 322 147 425 16 21 50 99 75 175 25 76 61 173 80 216 19 44 35 86 35 95 0 9 18 43 40 77 45 68 97 81 118 28z m763 -515 c5 -34 25 -73 44 -88 49 -35 -4 -175 -80 -209 -89 -41 -123 55 -46 131 35 36 35 45 0 95 -59 85 -51 150 17 140 38 -5 59 -28 65 -69z m240 -9 c59 -44 95 -256 49 -294 -37 -31 -117 -12 -159 38 -36 44 -7 289 35 289 16 0 50 -15 75 -33z m-1539 -209 c-37 -44 -63 -42 -82 8 -26 67 37 124 77 70 24 -33 25 -53 5 -78z m1461 -277 c23 -119 -46 -159 -120 -68 -55 68 -57 77 -19 106 68 52 124 37 139 -38z m-113 -288 c9 -46 -83 -103 -134 -83 -43 16 -47 94 -8 133 36 36 132 2 142 -50z m-1175 -225 c7 -34 -9 -43 -81 -43 -60 0 -89 11 -89 36 0 70 157 77 170 7z m1180 19 c0 -40 -66 -79 -92 -54 -8 8 -8 32 1 53 19 50 91 51 91 1z m320 -31 c5 -31 20 -56 33 -56 78 0 166 -156 169 -302 2 -81 22 -194 44 -250 58 -145 60 -381 4 -393 -30 -6 -48 13 -60 62 -10 39 -33 93 -51 120 -19 27 -34 69 -34 94 0 27 -46 73 -115 113 l-114 69 16 137 c24 209 15 331 -27 378 -35 38 -34 45 7 69 67 40 119 23 128 -41z m-1696 -61 c91 -97 55 -145 -111 -145 -87 0 -132 73 -98 161 23 58 149 49 209 -16z m-379 -275 c84 -84 12 -257 -100 -241 -72 11 -82 61 -33 178 40 96 81 115 133 63z"/> <path d="M19431 9033 c-49 -19 -10 -58 58 -58 38 0 61 14 61 38 0 36 -56 46 -119 20z"/> <path d="M32984 9020 c-24 -40 20 -69 98 -63 118 10 122 83 5 83 -50 0 -96 -9 -103 -20z"/> <path d="M40025 8904 c0 -77 27 -129 67 -129 55 0 33 160 -23 170 -30 6 -44 -7 -44 -41z"/> <path d="M19129 8762 c-86 -86 -75 -469 17 -557 64 -62 144 -56 120 8 -8 21 8 61 38 91 42 42 49 71 37 159 -10 75 -4 116 20 135 38 32 65 145 46 194 -22 57 -211 36 -278 -30z"/> <path d="M15738 8751 c-124 -11 -422 -32 -663 -48 -241 -16 -674 -46 -962 -67 -289 -20 -617 -37 -728 -37 -275 1 -274 4 -298 -449 -36 -668 -47 -641 253 -600 406 56 1201 134 1660 162 117 8 297 24 400 37 103 13 295 24 427 25 347 1 343 -4 350 532 4 231 0 426 -8 434 -26 26 -202 30 -431 11z m-618 -420 c-5 -27 -31 -43 -70 -43 -39 0 -65 16 -70 43 -7 34 9 44 70 44 61 0 77 -10 70 -44z"/> <path d="M29538 8758 c-83 -4 -321 -25 -529 -45 -208 -21 -478 -38 -600 -38 -122 0 -401 -17 -621 -37 -220 -21 -514 -38 -654 -38 -172 0 -261 -10 -278 -31 -13 -17 -33 -193 -42 -391 -10 -198 -29 -389 -42 -424 -29 -76 13 -196 76 -216 40 -13 284 15 540 61 68 13 209 24 312 26 103 1 238 12 300 25 62 13 253 30 425 39 172 8 440 31 595 51 155 19 393 35 527 35 343 0 345 4 358 621 6 340 -12 385 -154 374 -35 -2 -131 -8 -213 -12z m-680 -399 c25 -26 -34 -84 -85 -84 -52 0 -83 38 -60 75 17 28 120 34 145 9z"/> <path d="M40117 8708 c-26 -26 -20 -103 10 -122 42 -26 80 28 61 86 -17 54 -41 66 -71 36z"/> <path d="M16694 8506 c-26 -54 21 -418 54 -418 34 0 44 364 11 417 -15 25 -53 26 -65 1z"/> <path d="M11299 8211 c-38 -101 -29 -154 40 -222 76 -77 73 -77 138 -12 63 63 48 125 -25 106 -43 -11 -52 -2 -52 50 0 142 -59 188 -101 78z"/> <path d="M25044 8148 c-49 -28 -66 -356 -21 -384 61 -38 159 109 159 238 0 155 -44 201 -138 146z"/> <path d="M11239 7919 c-43 -137 -34 -172 40 -164 44 4 82 -7 96 -30 16 -27 31 -29 50 -10 19 19 16 36 -11 59 -22 18 -39 58 -39 89 0 76 -115 123 -136 56z"/> <path d="M19175 7863 c0 -63 10 -89 31 -82 17 6 32 43 32 82 0 38 -15 75 -32 81 -21 7 -31 -19 -31 -81z"/> <path d="M7088 7091 c-46 -33 -45 -35 5 -62 57 -31 126 20 95 70 -21 35 -44 33 -100 -8z"/> <path d="M30591 7033 c-9 -9 -16 -31 -16 -50 0 -37 64 -45 86 -11 17 28 -47 84 -70 61z"/> <path d="M7117 6959 c-37 -37 -17 -113 27 -104 24 4 44 30 44 56 0 49 -41 77 -71 48z"/> <path d="M7090 6662 c-17 -66 19 -162 61 -162 13 0 24 15 24 34 0 19 7 70 16 113 20 102 -76 117 -101 15z"/> <path d="M30575 6300 c0 -41 11 -75 25 -75 14 0 25 34 25 75 0 41 -11 75 -25 75 -14 0 -25 -34 -25 -75z"/> <path d="M36425 6014 c0 -25 23 -39 65 -39 78 0 69 59 -11 70 -36 6 -54 -5 -54 -31z"/> <path d="M17992 5509 c-35 -36 -15 -84 35 -84 35 0 49 14 44 42 -9 46 -52 69 -79 42z"/> </g> </svg>