<svg xmlns="http://www.w3.org/2000/svg" width="1080" height="1080" viewBox="0 0 1080 1080" version="1.1">
	<path d="M 0 540.001 L 0 1080.002 540.250 1079.751 L 1080.500 1079.500 1080.751 539.750 L 1081.002 -0 540.501 -0 L 0 0 0 540.001 M 0.496 540.500 C 0.496 837.500, 0.610 958.851, 0.750 810.168 C 0.890 661.485, 0.890 418.485, 0.750 270.168 C 0.610 121.851, 0.496 243.500, 0.496 540.500 M 116.221 138.277 L 110 144.554 110 173.351 L 110 202.148 115.652 208.074 L 121.304 214 129.931 214 L 138.558 214 144.779 207.723 L 151 201.446 151 173.137 L 151 144.827 144.841 138.413 L 138.683 132 130.563 132 L 122.442 132 116.221 138.277 M 241.221 138.277 L 235 144.554 235 173.498 L 235 202.442 240.719 208.221 L 246.437 214 255 214 L 263.563 214 269.281 208.221 L 275 202.442 275 173.442 L 275 144.442 268.723 138.221 L 262.446 132 254.944 132 L 247.442 132 241.221 138.277 M 63 138.335 L 63 142.669 71.026 142.205 L 79.052 141.740 78.776 175.620 C 78.624 194.254, 78.114 210.287, 77.643 211.250 C 76.875 212.819, 77.416 213, 82.868 213 L 88.950 213 87.975 210.435 C 87.413 208.956, 87 193.869, 87 174.806 L 87 141.743 95 142.206 L 103 142.669 103 138.335 L 103 134 83 134 L 63 134 63 138.335 M 181.965 135.934 C 183.377 138.573, 183.377 208.427, 181.965 211.066 C 180.964 212.936, 181.402 213, 195.244 213 L 209.558 213 215.779 206.723 L 222 200.446 222 172.995 L 222 145.544 215.839 139.772 L 209.679 134 195.304 134 C 181.402 134, 180.964 134.064, 181.965 135.934 M 306.500 173.500 L 306.500 213 323.250 213 L 340 213 340 207.965 C 340 203.297, 339.859 203.005, 338.066 203.965 C 337.002 204.534, 331.602 205, 326.066 205 L 316 205 316 171.434 C 316 150.209, 316.381 137.157, 317.035 135.934 C 318.003 134.126, 317.695 134, 312.285 134 L 306.500 134 306.500 173.500 M 348.965 135.934 C 349.623 137.164, 350 150.851, 350 173.500 C 350 196.149, 349.623 209.836, 348.965 211.066 C 347.997 212.874, 348.305 213, 353.715 213 L 359.500 213 359.500 173.500 L 359.500 134 353.715 134 C 348.305 134, 347.997 134.126, 348.965 135.934 M 377.719 139.779 L 372 145.558 372 153.483 L 372 161.409 385 174.537 L 398 187.666 398 192.630 C 398 197.058, 397.591 197.994, 394.208 201.297 C 390.605 204.815, 390.085 205, 383.773 205 C 380.119 205, 375.976 204.561, 374.565 204.025 C 372.025 203.059, 372 203.097, 372 208.025 L 372 213 383.281 213 L 394.563 213 400.281 207.221 L 406 201.442 406 192.456 L 406 183.470 393.500 171 L 381 158.530 381.029 153.515 C 381.054 149.350, 381.574 147.933, 384.099 145.156 L 387.140 141.812 396.571 142.156 L 406.002 142.500 406.001 138.250 L 406 134 394.719 134 L 383.437 134 377.719 139.779 M 412 138.335 L 412 142.669 420.026 142.205 L 428.052 141.740 427.776 175.620 C 427.624 194.254, 427.114 210.287, 426.643 211.250 C 425.875 212.819, 426.416 213, 431.868 213 L 437.950 213 436.975 210.435 C 436.413 208.956, 436 193.869, 436 174.806 L 436 141.743 444 142.206 L 452 142.669 452 138.335 L 452 134 432 134 L 412 134 412 138.335 M 122.196 144.298 L 119 147.595 119 173.601 L 119 199.608 122.298 202.804 C 125.114 205.534, 126.325 206, 130.601 206 C 134.951 206, 136.027 205.568, 138.804 202.702 L 142 199.405 142 173.399 L 142 147.392 138.702 144.196 C 135.886 141.466, 134.675 141, 130.399 141 C 126.049 141, 124.973 141.432, 122.196 144.298 M 246.687 143.805 L 244 146.609 244 173.109 L 244 199.608 247.298 202.804 C 250.114 205.534, 251.325 206, 255.601 206 C 259.951 206, 261.027 205.568, 263.804 202.702 L 267 199.405 267 173.399 L 267 147.392 263.702 144.196 C 260.803 141.386, 259.738 141, 254.889 141 C 250.152 141, 248.995 141.396, 246.687 143.805 M 192 173.500 L 192 205 199.304 205 C 206.253 205, 206.763 204.840, 209.804 201.702 L 213 198.405 213 173.399 L 213 148.392 209.702 145.196 C 206.614 142.202, 205.949 142, 199.202 142 L 192 142 192 173.500 M 348 305.355 L 348 318 354.250 317.996 C 362.318 317.991, 366.422 315.661, 368.075 310.144 C 369.659 304.858, 368.588 299.938, 365.135 296.629 C 362.768 294.362, 361.104 293.809, 355.147 293.309 L 348 292.710 348 305.355 M 382.323 294.217 C 381.785 294.923, 379.264 300.563, 376.720 306.750 C 373.548 314.466, 372.513 318, 373.426 318 C 374.158 318, 375.317 316.650, 376 315 C 377.208 312.084, 377.432 312, 384.023 312 C 390.659 312, 390.827 312.064, 391.850 315 C 392.880 317.954, 395.060 319.190, 394.937 316.750 C 394.819 314.398, 385.502 293.660, 384.400 293.296 C 383.795 293.097, 382.860 293.511, 382.323 294.217 M 398.694 293.639 C 397.484 294.850, 399.124 296, 402.059 296 L 405 296 405 306 L 405 316 401.500 316 C 399.575 316, 398 316.450, 398 317 C 398 317.583, 401.333 318, 406 318 C 410.667 318, 414 317.583, 414 317 C 414 316.450, 412.425 316, 410.500 316 L 407 316 407 306 L 407 296 410.500 296 C 412.944 296, 414 295.548, 414 294.500 C 414 293.303, 412.519 293, 406.667 293 C 402.633 293, 399.046 293.288, 398.694 293.639 M 419.667 293.667 C 419.300 294.033, 419 299.658, 419 306.167 L 419 318 428 318 C 433.333 318, 437 317.593, 437 317 C 437 316.422, 433.833 316, 429.500 316 L 422 316 422 304.500 C 422 293.977, 421.531 291.802, 419.667 293.667 M 440.055 295.102 C 440.742 296.386, 442.810 299.791, 444.652 302.670 C 447.316 306.835, 448 308.935, 448 312.952 C 448 316.772, 448.365 318, 449.500 318 C 450.611 318, 451 316.834, 451 313.507 C 451 309.920, 451.907 307.556, 455.500 301.783 C 457.975 297.806, 460 294.203, 460 293.776 C 460 291.518, 457.771 293.722, 454.045 299.664 L 449.866 306.329 445.683 299.982 C 443.382 296.491, 440.894 293.440, 440.153 293.202 C 439.046 292.846, 439.029 293.185, 440.055 295.102 M 473.667 293.667 C 473.300 294.033, 473 299.658, 473 306.167 C 473 316.019, 473.251 318, 474.500 318 C 475.633 318, 476 316.778, 476 313 L 476 308 479.750 308.018 C 483.138 308.034, 483.814 308.517, 486.758 313.018 C 488.549 315.758, 490.709 318, 491.556 318 C 492.709 318, 492.304 316.848, 489.947 313.422 L 486.797 308.845 488.784 306.672 C 493.404 301.619, 492.144 295.690, 486.091 294.009 C 482.001 292.873, 474.663 292.671, 473.667 293.667 M 504.388 293.980 C 499.031 296.145, 495.906 304.154, 497.973 310.419 C 499.681 315.595, 503.255 318, 509.235 318 C 513.548 318, 514.646 317.554, 517.600 314.600 C 520.624 311.576, 521 310.605, 521 305.823 C 521 302.568, 520.384 299.565, 519.439 298.217 C 516.328 293.774, 509.591 291.878, 504.388 293.980 M 527.639 293.694 C 527.288 294.046, 527 298.554, 527 303.712 C 527 312.337, 527.197 313.288, 529.455 315.545 C 532.739 318.830, 541.471 319.073, 544.799 315.972 C 547.669 313.299, 548.151 311.011, 547.797 301.739 C 547.371 290.599, 545.556 291.492, 545.235 303 C 545.005 311.234, 544.691 312.733, 542.874 314.250 C 540.277 316.419, 535.175 316.511, 532.223 314.443 C 530.194 313.023, 530 312.066, 530 303.502 C 530 294.895, 529.309 292.024, 527.639 293.694 M 551.694 293.639 C 550.311 295.022, 552.326 296, 556.559 296 L 561 296 561 307 C 561 313.667, 561.394 318, 562 318 C 562.606 318, 563 313.667, 563 307 L 563 296 567.500 296 C 570.833 296, 572 295.611, 572 294.500 C 572 293.268, 570.241 293, 562.167 293 C 556.758 293, 552.046 293.288, 551.694 293.639 M 575 294.458 C 575 295.554, 576.013 296, 578.500 296 L 582 296 582 306 L 582 316 578.500 316 C 576.575 316, 575 316.450, 575 317 C 575 317.583, 578.333 318, 583 318 C 587.667 318, 591 317.583, 591 317 C 591 316.450, 589.425 316, 587.500 316 L 584 316 584 306.063 L 584 296.127 587.250 295.813 C 593.448 295.216, 590.483 293.499, 582.750 293.208 C 576.308 292.965, 575 293.176, 575 294.458 M 596.667 293.667 C 596.300 294.033, 596 299.658, 596 306.167 C 596 316.019, 596.251 318, 597.500 318 C 598.740 318, 599.001 316.136, 599.005 307.250 L 599.011 296.500 606.150 307.250 C 616.030 322.128, 617 321.964, 617 305.417 C 617 295.796, 616.706 292.931, 615.750 293.247 C 614.906 293.526, 614.338 296.944, 614 303.764 L 613.500 313.868 606.616 303.434 C 600.225 293.748, 598.389 291.945, 596.667 293.667 M 624 305.461 L 624 318 633 318 C 638.333 318, 642 317.593, 642 317 C 642 316.417, 638.667 316, 634 316 L 626 316 626 311.546 L 626 307.091 632.670 306.796 C 636.893 306.608, 639.492 306.041, 639.754 305.250 C 640.058 304.329, 638.304 304, 633.083 304 L 626 304 626 300.042 L 626 296.084 633.750 295.792 C 644.176 295.399, 643.298 293.578, 632.506 293.211 L 624 292.922 624 305.461 M 505.329 296.458 C 501.436 298.151, 500 300.669, 500 305.799 C 500 315.826, 512.970 319.760, 517.452 311.093 C 520.556 305.091, 518.403 298.033, 512.881 296.108 C 509.026 294.764, 509.245 294.754, 505.329 296.458 M 350 306.124 L 350 316.248 355.669 315.778 C 362.974 315.172, 366 312.132, 366 305.399 C 366 298.786, 362.901 296, 355.545 296 L 350 296 350 306.124 M 476 301 L 476 306 480.929 306 C 487.903 306, 490.617 302.889, 487.965 297.934 C 487.135 296.384, 485.844 296, 481.465 296 L 476 296 476 301 M 382.713 298.250 C 382.437 298.938, 381.270 301.863, 380.120 304.750 L 378.029 310 383.925 310 L 389.822 310 387.243 303.500 C 384.677 297.033, 383.669 295.865, 382.713 298.250 M 247.458 378.249 C 247.188 378.952, 247.087 391.897, 247.233 407.014 L 247.500 434.500 276 434.500 L 304.500 434.500 304.500 406 L 304.500 377.500 276.225 377.234 C 253.981 377.025, 247.844 377.242, 247.458 378.249 M 249 406.031 C 249 427.638, 249.268 433.165, 250.334 433.575 C 251.067 433.856, 255.455 433.954, 260.084 433.793 L 268.500 433.500 262.250 427.465 C 252.811 418.352, 254.111 414.477, 264.090 421.976 C 267.001 424.162, 269.511 425.823, 269.669 425.665 C 269.826 425.507, 271.120 421.355, 272.544 416.439 C 275.226 407.181, 282.878 390.326, 287.405 383.706 C 288.832 381.619, 290 379.706, 290 379.456 C 290 379.205, 280.775 379, 269.500 379 L 249 379 249 406.031 M 296 380.011 C 296 380.567, 293.750 384.613, 290.999 389.002 C 282.533 402.511, 276.117 419.994, 276.036 429.778 L 276 434.056 289.750 433.778 L 303.500 433.500 303.766 406.250 L 304.032 379 300.016 379 C 297.807 379, 296 379.455, 296 380.011 M 365.985 404.750 C 365.971 412.202, 364.606 417.151, 362.500 417.388 C 361.950 417.450, 361.357 415.484, 361.181 413.020 C 361.006 410.555, 360.388 407.968, 359.809 407.270 C 358.230 405.368, 354.261 405.739, 352 408 C 349.736 410.264, 349.248 416.848, 351.200 418.800 C 352.679 420.279, 356.651 420.374, 357.530 418.951 C 357.974 418.234, 358.568 418.226, 359.413 418.928 C 360.092 419.491, 362.326 419.889, 364.378 419.812 C 367.230 419.705, 368.407 419.101, 369.380 417.245 L 370.651 414.818 372.349 417.409 C 374.123 420.117, 377.744 420.856, 379.693 418.907 C 380.483 418.117, 381.350 418.117, 382.827 418.907 C 386.646 420.951, 390.946 420.208, 394.215 416.938 C 396.393 414.761, 396.968 413.568, 396.205 412.805 C 395.443 412.043, 394.465 412.470, 392.817 414.286 C 389.864 417.539, 386.902 418.380, 384.522 416.640 C 382.774 415.361, 382.890 415.191, 386.277 414.074 C 391.901 412.218, 392.571 405.984, 387.143 406.015 C 383.403 406.037, 382.389 406.927, 380.146 412.160 C 377.345 418.694, 375.965 419.129, 373.286 414.321 C 372.236 412.437, 372.403 411.827, 374.518 409.821 C 377.299 407.184, 377.633 406, 375.597 406 C 374.825 406, 372.815 407.688, 371.131 409.750 L 368.067 413.500 368.034 405.250 C 368.014 400.439, 367.583 397, 367 397 C 366.421 397, 365.994 400.260, 365.985 404.750 M 469.513 405.750 C 468.468 418.384, 465.500 422.751, 465.500 411.654 C 465.500 406.821, 465.335 406.481, 462.847 406.193 C 460.992 405.978, 459.713 406.572, 458.597 408.165 L 457 410.445 457 408.139 C 457 404.353, 454.532 406.274, 454.190 410.327 C 453.858 414.250, 451 415.709, 451 411.955 C 451 410.830, 449.878 408.787, 448.507 407.416 C 445.868 404.777, 444.111 405.031, 440.578 408.565 C 438.547 410.596, 438.543 416.400, 440.571 418.429 C 442.564 420.421, 447.372 420.462, 449 418.500 C 449.685 417.675, 451.090 417, 452.122 417 C 453.155 417, 454 417.675, 454 418.500 C 454 421.547, 456.792 419.924, 457.433 416.504 C 457.794 414.581, 459.180 411.769, 460.513 410.254 L 462.937 407.500 462.968 413.281 C 463.003 419.684, 464.579 421.368, 468.337 419.022 C 469.833 418.087, 470.514 418.043, 470.788 418.864 C 471.288 420.363, 475.279 420.321, 476.800 418.800 C 477.725 417.875, 478 417.873, 478 418.793 C 478 420.681, 486.086 420.018, 486.664 418.082 C 486.923 417.212, 487.999 414.587, 489.055 412.250 C 491.577 406.666, 493.446 406.637, 492.701 412.195 C 492.391 414.502, 492.573 417.202, 493.104 418.195 C 494.284 420.399, 497.305 420.542, 499.021 418.475 C 500.155 417.108, 500.462 417.108, 501.972 418.475 C 502.899 419.314, 505.270 420, 507.240 420 C 510.014 420, 511.407 419.304, 513.418 416.915 C 514.845 415.219, 515.713 413.344, 515.345 412.749 C 514.933 412.083, 513.842 412.714, 512.501 414.396 C 509.666 417.951, 501.292 418.572, 503.459 415.067 C 503.821 414.480, 504.936 414, 505.937 414 C 508.418 414, 510.222 411.591, 509.827 408.805 C 509.587 407.115, 508.742 406.413, 506.662 406.175 C 503.065 405.763, 500.633 407.943, 499.144 412.913 C 498.505 415.047, 497.247 417.075, 496.349 417.420 C 494.938 417.961, 494.787 417.397, 495.238 413.273 C 495.526 410.648, 495.552 407.938, 495.297 407.250 C 494.644 405.489, 490.499 405.694, 488.948 407.563 C 487.771 408.981, 487.569 408.981, 486.775 407.563 C 485.192 404.734, 484 405.928, 484 410.345 C 484 413.325, 483.410 415.224, 482.124 416.388 C 479.678 418.602, 478.990 417.002, 479.653 410.639 C 480.044 406.887, 479.837 406, 478.568 406 C 477.421 406, 477 407.013, 477 409.777 C 477 413.751, 474.517 418.438, 472.932 417.458 C 472.419 417.141, 472 412.409, 472 406.941 C 472 401.473, 471.603 397, 471.118 397 C 470.633 397, 469.911 400.938, 469.513 405.750 M 334.244 398.642 C 332.310 399.456, 333.826 401, 336.559 401 C 338.977 401, 339 401.090, 339 410.583 C 339 417.804, 339.308 420.065, 340.250 419.752 C 341.100 419.471, 341.592 416.401, 341.788 410.169 C 342.072 401.087, 342.099 401, 344.621 401 C 346.211 401, 347.012 400.531, 346.754 399.750 C 346.334 398.476, 336.672 397.620, 334.244 398.642 M 477.597 400.844 C 477.251 401.404, 477.455 402.163, 478.050 402.531 C 479.588 403.481, 480.580 402.180, 479.296 400.896 C 478.578 400.178, 478.019 400.161, 477.597 400.844 M 567.886 404.250 C 567.823 404.387, 567.630 405.678, 567.456 407.118 C 567.030 410.652, 563.741 417.308, 562.500 417.150 C 561.950 417.080, 561.364 414.513, 561.198 411.445 C 560.831 404.653, 559.194 404.640, 557.474 411.414 C 555.369 419.704, 551.697 419.912, 552.132 411.715 C 552.460 405.535, 550.490 404.142, 549.522 409.871 C 548.745 414.470, 546 416.444, 546 412.403 C 546 408.317, 544.234 406, 541.120 406 C 538.026 406, 535.683 408.073, 534.114 412.200 C 532.575 416.247, 528.535 418.565, 525.459 417.163 C 522.623 415.871, 522.028 411.051, 524.456 409.036 C 526.131 407.646, 528 408.449, 528 410.559 C 528 412.328, 529.666 412.468, 530.282 410.750 C 531.068 408.558, 529.013 406, 526.465 406 C 523.102 406, 520 409.359, 520 413 C 520 418.949, 527.433 422.186, 532.670 418.518 C 534.539 417.210, 534.929 417.210, 536.015 418.518 C 537.608 420.437, 542.401 420.426, 544 418.500 C 544.685 417.675, 546.267 417, 547.515 417 C 548.764 417, 550.045 417.675, 550.362 418.500 C 551.043 420.275, 555.108 420.492, 556.758 418.842 C 557.634 417.966, 558.286 417.993, 559.445 418.954 C 562.429 421.431, 565.643 419.399, 568.094 413.486 C 569.354 410.448, 570.860 408.124, 571.442 408.322 C 572.024 408.521, 572.500 411.117, 572.500 414.092 C 572.500 419.217, 572.640 419.516, 575.187 419.810 C 577.967 420.131, 579.167 418.887, 583.043 411.660 C 585.116 407.795, 585.670 407.748, 587.801 411.261 C 590.090 415.032, 588.463 417.603, 584.021 417.234 C 581.805 417.050, 580.951 417.357, 581.239 418.234 C 581.867 420.144, 589.592 420.350, 593.194 418.553 C 595.989 417.159, 596.511 417.153, 597.994 418.494 C 598.909 419.322, 601.270 420, 603.240 420 C 606.014 420, 607.407 419.304, 609.418 416.915 C 610.845 415.219, 611.713 413.344, 611.345 412.749 C 610.933 412.083, 609.842 412.714, 608.501 414.396 C 605.666 417.951, 597.292 418.572, 599.459 415.067 C 599.821 414.480, 600.936 414, 601.937 414 C 604.418 414, 606.222 411.591, 605.827 408.805 C 605.587 407.115, 604.742 406.413, 602.662 406.175 C 599.208 405.780, 596.347 408.143, 595.475 412.112 C 595.125 413.710, 593.974 415.479, 592.919 416.044 C 591.203 416.962, 591 416.713, 591 413.690 C 591 411.580, 590.249 409.630, 589 408.500 C 587.900 407.505, 587 406.085, 587 405.345 C 587 404.605, 586.325 404, 585.500 404 C 584.675 404, 584 404.480, 584 405.067 C 584 405.653, 582.875 407.608, 581.500 409.411 C 580.125 411.214, 579 413.139, 579 413.689 C 579 414.240, 578.145 415.464, 577.099 416.410 C 574.558 418.710, 573.418 416.820, 575.018 412.958 C 575.683 411.351, 575.985 409.402, 575.687 408.628 C 575.085 407.058, 568.333 403.269, 567.886 404.250 M 403 408 C 400.736 410.264, 400.248 416.848, 402.200 418.800 C 403.679 420.279, 407.651 420.374, 408.530 418.951 C 408.974 418.234, 409.568 418.226, 410.413 418.928 C 411.092 419.491, 413.291 419.891, 415.299 419.815 C 418.568 419.692, 419.070 419.301, 420.087 416.089 C 422.820 407.454, 426.402 405.242, 425.495 412.750 C 424.805 418.456, 425.883 420.497, 429.153 419.677 C 431.957 418.973, 435.604 413.492, 433.949 412.469 C 433.354 412.101, 432.761 411.957, 432.631 412.150 C 432.501 412.342, 431.518 413.850, 430.447 415.500 L 428.500 418.500 428 412.500 C 427.548 407.077, 427.267 406.467, 425.074 406.157 C 423.438 405.926, 422.061 406.578, 420.846 408.157 L 419.044 410.500 419.022 408.250 C 418.982 404.198, 417.272 405.893, 416.753 410.499 C 415.840 418.600, 412 420.330, 412 412.641 C 412 410.308, 411.460 407.860, 410.800 407.200 C 408.979 405.379, 405.237 405.763, 403 408 M 353.595 410.168 C 351.617 412.991, 351.560 415.390, 353.433 416.944 C 354.584 417.900, 355.169 417.671, 356.407 415.783 C 359.992 410.311, 357.284 404.901, 353.595 410.168 M 384.200 409.200 C 382.338 411.062, 382.778 412.171, 385.240 411.820 C 386.472 411.644, 387.630 410.712, 387.813 409.750 C 388.195 407.744, 385.991 407.409, 384.200 409.200 M 404.595 410.168 C 402.617 412.991, 402.560 415.390, 404.433 416.944 C 405.584 417.900, 406.169 417.671, 407.407 415.783 C 410.992 410.311, 408.284 404.901, 404.595 410.168 M 445 409.794 C 445 410.873, 445.713 412.347, 446.585 413.071 C 447.977 414.226, 448.129 414.037, 447.835 411.520 C 447.454 408.260, 445 406.766, 445 409.794 M 503 410 C 502.103 411.676, 502.240 412, 503.842 412 C 505.957 412, 508.360 409.693, 507.325 408.658 C 506.061 407.395, 504.062 408.015, 503 410 M 540 409.794 C 540 410.873, 540.713 412.347, 541.585 413.071 C 542.977 414.226, 543.129 414.037, 542.835 411.520 C 542.454 408.260, 540 406.766, 540 409.794 M 599 410 C 598.103 411.676, 598.240 412, 599.842 412 C 601.957 412, 604.360 409.693, 603.325 408.658 C 602.061 407.395, 600.062 408.015, 599 410 M 537.030 413.691 C 536.997 417.244, 538.241 418.509, 540.798 417.517 C 542.334 416.922, 542.346 416.742, 540.927 415.679 C 540.062 415.030, 538.839 413.600, 538.208 412.500 C 537.165 410.682, 537.058 410.790, 537.030 413.691 M 441 413.309 C 441 415.693, 443.635 418.354, 445.345 417.698 C 446.752 417.158, 446.627 416.718, 444.444 414.535 C 441.566 411.657, 441 411.455, 441 413.309 M 247.458 461.249 C 247.188 461.952, 247.087 474.897, 247.233 490.014 L 247.500 517.500 258.500 518 C 264.550 518.275, 277.494 518.351, 287.265 518.169 L 305.030 517.838 304.765 489.169 L 304.500 460.500 276.225 460.234 C 253.981 460.025, 247.844 460.242, 247.458 461.249 M 249 489.500 L 249 517 258.250 516.957 L 267.500 516.914 260.750 510.563 C 250.902 501.297, 251.845 497.278, 262.065 504.957 C 267.545 509.074, 269 509.265, 269 505.867 C 269 500.388, 279.435 475.496, 285.418 466.706 C 286.838 464.619, 288 462.706, 288 462.456 C 288 462.205, 279.225 462, 268.500 462 L 249 462 249 489.500 M 293.073 465.250 C 292.295 467.038, 290.661 469.850, 289.441 471.500 C 282.669 480.666, 274 503.827, 274 512.757 L 274 517.053 288.750 516.777 L 303.500 516.500 303.766 489.250 L 304.032 462 299.260 462 C 294.833 462, 294.386 462.235, 293.073 465.250 M 371 488.566 C 371 498.191, 369.801 501.910, 367.354 499.879 C 366.283 498.990, 366.031 497.648, 366.483 495.238 C 367.258 491.106, 365.756 489, 362.033 489 C 358.779 489, 356.677 491.180, 355.053 496.236 C 352.662 503.686, 351.527 502.086, 350.444 489.736 C 349.450 478.409, 347.965 478.608, 344.733 490.500 L 343.374 495.500 342.003 488.750 C 340.301 480.364, 338.529 480.008, 337.023 487.750 C 336.408 490.913, 335.534 495.396, 335.082 497.713 C 334.289 501.769, 334.515 503, 336.053 503 C 336.449 503, 337.362 499.962, 338.082 496.250 L 339.390 489.500 340.869 495.750 C 341.682 499.188, 342.856 502, 343.477 502 C 344.097 502, 345.302 499.413, 346.155 496.250 L 347.704 490.500 348.478 495.500 C 348.904 498.250, 349.648 500.999, 350.131 501.608 C 351.231 502.996, 362.733 503.241, 363.565 501.895 C 363.956 501.262, 364.599 501.249, 365.339 501.857 C 365.978 502.382, 368.136 502.809, 370.135 502.806 C 373.094 502.801, 373.995 502.307, 374.977 500.151 L 376.184 497.503 377.624 500.251 C 379.247 503.350, 382.956 503.963, 385.021 501.475 C 386.155 500.108, 386.462 500.108, 387.972 501.475 C 390.649 503.897, 396.678 503.413, 399.545 500.545 C 402.010 498.081, 402.837 495, 401.035 495 C 400.505 495, 399.577 495.922, 398.974 497.048 C 397.442 499.911, 393.411 501.290, 390.746 499.864 C 388.700 498.769, 388.748 498.669, 392.062 497.105 C 394.851 495.788, 395.500 494.917, 395.500 492.491 C 395.500 489.949, 395.074 489.451, 392.662 489.175 C 389.263 488.786, 386.444 491.057, 385.677 494.801 C 385.373 496.286, 384.421 498.400, 383.561 499.500 C 382.009 501.486, 381.985 501.484, 379.999 499.139 C 377.344 496.003, 377.477 494.556, 380.653 492.059 C 382.112 490.911, 383.046 489.712, 382.728 489.395 C 381.519 488.186, 378.057 490.219, 376.086 493.295 L 374.034 496.500 374.017 488.250 C 374.003 481.591, 373.711 480, 372.500 480 C 371.283 480, 371 481.618, 371 488.566 M 474.216 491.155 L 474.500 502.500 477.201 502.812 C 478.686 502.983, 480.936 502.563, 482.201 501.878 C 485.756 499.954, 490.557 499.761, 491.988 501.486 C 493.451 503.249, 499.221 503.487, 502.173 501.907 C 503.650 501.117, 504.517 501.117, 505.307 501.907 C 506.757 503.357, 510.302 503.298, 511.800 501.800 C 512.733 500.867, 513.267 500.867, 514.200 501.800 C 516.723 504.323, 520.684 502.359, 522.304 497.782 C 523.417 494.641, 521.112 494.884, 519.457 498.082 C 518.529 499.879, 517.455 500.855, 516.956 500.356 C 516.475 499.875, 515.951 495.247, 515.791 490.072 C 515.592 483.649, 515.103 480.530, 514.250 480.248 C 513.372 479.956, 513 481.196, 513 484.417 C 513 488.603, 512.790 489, 510.571 489 C 507.625 489, 505.415 491.070, 503.520 495.606 C 501.822 499.671, 497.922 501.564, 494.746 499.864 C 492.700 498.769, 492.748 498.669, 496.062 497.105 C 498.851 495.788, 499.500 494.917, 499.500 492.491 C 499.500 489.949, 499.074 489.451, 496.662 489.175 C 493.510 488.814, 490 491.333, 490 493.955 C 490 495.681, 488.165 498, 486.800 498 C 486.360 498, 486 496.515, 486 494.700 C 486 492.885, 485.460 490.860, 484.800 490.200 C 483.230 488.630, 479.338 488.660, 478.309 490.250 C 477.820 491.005, 477.302 489.354, 477 486.078 C 476.710 482.934, 475.961 480.478, 475.216 480.233 C 474.211 479.903, 473.994 482.273, 474.216 491.155 M 455.886 487.250 C 455.823 487.387, 455.630 488.678, 455.456 490.118 C 455.030 493.652, 451.741 500.308, 450.500 500.150 C 449.950 500.080, 449.364 497.513, 449.198 494.445 C 448.831 487.653, 447.194 487.640, 445.474 494.414 C 443.369 502.704, 439.697 502.912, 440.132 494.715 C 440.460 488.535, 438.490 487.142, 437.522 492.871 C 436.745 497.470, 434 499.444, 434 495.403 C 434 491.273, 432.238 489, 429.037 489 C 426.150 489, 422 492.821, 422 495.480 C 422 496.145, 421.125 497.482, 420.056 498.449 C 418.156 500.169, 418.105 500.089, 417.806 494.933 C 417.490 489.485, 415 486.409, 415 491.466 C 415 494.955, 412.325 500, 410.474 500 C 409.354 500, 409 498.680, 409 494.500 C 409 488.910, 407.726 487.162, 406.630 491.250 C 405.456 495.633, 405.988 499.679, 407.974 501.477 C 409.823 503.150, 410.109 503.158, 412.474 501.609 C 413.863 500.699, 415 500.398, 415 500.942 C 415 501.485, 414.100 502.411, 413 503 C 411.900 503.589, 410.254 505.209, 409.343 506.600 C 407.773 508.995, 407.794 509.238, 409.725 511.169 C 412.851 514.296, 415.788 512.823, 417.238 507.400 C 418.645 502.139, 422.074 499.179, 424.031 501.537 C 425.610 503.440, 430.408 503.418, 432 501.500 C 432.685 500.675, 434.267 500, 435.515 500 C 436.764 500, 438.045 500.675, 438.362 501.500 C 439.043 503.275, 443.108 503.492, 444.758 501.842 C 445.634 500.966, 446.286 500.993, 447.445 501.954 C 450.429 504.431, 453.643 502.399, 456.094 496.486 C 457.354 493.448, 458.860 491.124, 459.442 491.322 C 460.024 491.521, 460.500 494.117, 460.500 497.092 C 460.500 502.194, 460.649 502.517, 463.142 502.806 C 465.138 503.037, 466.315 502.367, 467.955 500.063 C 471.045 495.724, 469.435 494.054, 466.060 498.097 C 462.877 501.910, 461.077 500.643, 463.018 495.958 C 463.683 494.351, 463.985 492.402, 463.687 491.628 C 463.085 490.058, 456.333 486.269, 455.886 487.250 M 359.616 492.527 C 357.780 494.363, 357.445 499.539, 359.096 500.559 C 360.828 501.630, 363.163 498.561, 363.339 494.982 C 363.524 491.222, 361.955 490.188, 359.616 492.527 M 389.980 492.524 C 389.284 493.362, 389.026 494.359, 389.405 494.739 C 390.240 495.573, 393.226 493.823, 393.774 492.179 C 394.344 490.469, 391.468 490.731, 389.980 492.524 M 428 492.794 C 428 493.873, 428.713 495.347, 429.585 496.071 C 430.977 497.226, 431.129 497.037, 430.835 494.520 C 430.454 491.260, 428 489.766, 428 492.794 M 493.980 492.524 C 493.284 493.362, 493.026 494.359, 493.405 494.739 C 494.240 495.573, 497.226 493.823, 497.774 492.179 C 498.344 490.469, 495.468 490.731, 493.980 492.524 M 507.557 493.223 C 505.628 495.977, 505.569 498.397, 507.394 499.912 C 509.099 501.327, 511.678 499.131, 512.593 495.487 C 513.751 490.872, 510.292 489.317, 507.557 493.223 M 481.015 493.250 C 481.024 493.938, 481.417 495.111, 481.890 495.857 C 482.989 497.591, 484.436 495.579, 483.620 493.452 C 482.938 491.675, 480.994 491.524, 481.015 493.250 M 425.030 496.691 C 424.997 500.244, 426.241 501.509, 428.798 500.517 C 430.334 499.922, 430.346 499.742, 428.927 498.679 C 428.062 498.030, 426.839 496.600, 426.208 495.500 C 425.165 493.682, 425.058 493.790, 425.030 496.691 M 477 498 C 477 499.945, 477.507 501, 478.441 501 C 480.634 501, 481.211 499.311, 479.793 497.041 C 477.996 494.163, 477 494.505, 477 498 M 412.750 506.112 C 410.593 507.329, 410.443 510, 412.531 510 C 414.125 510, 415.441 507.778, 414.844 506.095 C 414.623 505.471, 413.875 505.477, 412.750 506.112 M 247.452 545.264 C 247.185 545.959, 247.087 558.897, 247.233 574.014 L 247.500 601.500 276 601.500 L 304.500 601.500 304.765 572.750 L 305.031 544 276.484 544 C 254.398 544, 247.827 544.286, 247.452 545.264 M 249 572.484 L 249 600 276.516 600 L 304.032 600 303.766 572.750 L 303.500 545.500 276.250 545.234 L 249 544.968 249 572.484 M 398 574.500 C 398 586.355, 398.957 588.800, 401.034 582.250 C 403.819 573.467, 407.412 571.164, 406.495 578.750 C 405.744 584.965, 406.941 586.838, 410.745 585.402 C 412.763 584.641, 414.072 584.643, 415.286 585.409 C 416.528 586.192, 417.526 586.153, 418.950 585.263 C 420.182 584.494, 421.132 584.404, 421.513 585.020 C 422.326 586.336, 426.333 586.267, 427.687 584.913 C 428.470 584.130, 428.962 584.130, 429.446 584.913 C 430.684 586.916, 434.805 586.063, 436.927 583.365 C 439.117 580.581, 439.650 578, 438.035 578 C 437.505 578, 436.537 579.013, 435.885 580.250 C 433.163 585.420, 431 584.619, 431 578.441 C 431 575.160, 431.392 574, 432.500 574 C 433.325 574, 434 573.550, 434 573 C 434 572.450, 433.381 572, 432.625 572 C 431.869 572, 430.974 570.620, 430.637 568.934 C 429.935 565.423, 428 565.882, 428 569.559 C 428 571.062, 427.424 572, 426.500 572 C 425.675 572, 425 572.450, 425 573 C 425 573.550, 425.734 574, 426.631 574 C 427.944 574, 428.148 574.699, 427.679 577.589 C 427.037 581.547, 425.262 584.280, 423.887 583.430 C 423.399 583.129, 423 580.434, 423 577.441 C 423 571.227, 421.392 570.147, 420.482 575.750 C 418.930 585.304, 416 586.355, 416 577.358 C 416 570.745, 413.821 570.308, 412.944 576.745 C 412.639 578.990, 411.739 581.615, 410.944 582.579 C 409.643 584.158, 409.451 583.747, 409 578.416 C 408.549 573.083, 408.261 572.466, 406.074 572.157 C 404.438 571.926, 403.061 572.578, 401.846 574.157 C 400.057 576.484, 400.044 576.454, 400.022 569.750 C 400.010 565.931, 399.566 563, 399 563 C 398.391 563, 398 567.500, 398 574.500 M 495 571.389 C 495 578.187, 494.635 580.226, 493.074 582.139 C 491.457 584.122, 491.050 584.247, 490.533 582.922 C 490.195 582.055, 490.374 580.146, 490.931 578.681 C 492.237 575.247, 491.384 573.135, 488.390 572.383 C 487.075 572.053, 486 571.382, 486 570.892 C 486 570.401, 485.325 570, 484.500 570 C 483.574 570, 483 570.939, 483 572.453 C 483 575.611, 481.113 579.743, 479.365 580.414 C 478.433 580.771, 478 580.133, 478 578.403 C 478 574.273, 476.238 572, 473.037 572 C 470.076 572, 466 575.842, 466 578.635 C 466 580.533, 462.349 580.353, 461.607 578.418 C 461.273 577.548, 461 575.748, 461 574.418 C 461 572.930, 460.420 572, 459.492 572 C 458.344 572, 458.025 573.084, 458.155 576.536 C 458.467 584.777, 454.394 585.285, 453.813 577.078 C 453.369 570.801, 451.373 570.762, 450.772 577.019 C 449.873 586.378, 446.046 586.162, 446.015 576.750 C 446.004 573.201, 445.621 572, 444.500 572 C 443.421 572, 443 573.104, 443 575.935 C 443 583.670, 446.147 587.638, 450.250 585.076 C 451.674 584.186, 452.542 584.142, 453.318 584.918 C 455.007 586.607, 457.863 586.192, 459.191 584.065 C 460.116 582.585, 461.117 582.264, 463.450 582.702 C 465.127 583.017, 467.210 583.888, 468.079 584.637 C 470.118 586.398, 474.433 586.388, 475.900 584.621 C 476.530 583.862, 478.384 582.973, 480.020 582.646 C 482.330 582.184, 483.356 581.150, 484.607 578.025 C 485.492 575.811, 486.632 574, 487.140 574 C 488.709 574, 489.131 576.525, 488.041 579.393 C 486.363 583.806, 488.145 585.944, 493.412 585.838 C 497.128 585.764, 497.974 585.352, 498.988 583.127 L 500.184 580.503 501.624 583.251 C 503.506 586.843, 507.152 586.893, 509.927 583.365 C 511.067 581.916, 512 580.116, 512 579.365 C 512 576.981, 510.108 577.891, 508.467 581.064 C 506.641 584.595, 505.121 584.470, 503 580.611 C 501.570 578.010, 501.634 577.767, 504.365 575.390 C 505.941 574.019, 506.988 572.654, 506.691 572.357 C 505.515 571.182, 502.031 573.259, 500.086 576.295 L 498.034 579.500 498.017 571.250 C 498.003 564.591, 497.711 563, 496.500 563 C 495.286 563, 495 564.599, 495 571.389 M 337.250 564.652 C 336.363 565.017, 336 568.191, 336 575.583 L 336 586 339.577 586 C 345.189 586, 349 581.604, 349 575.133 C 349 571.327, 348.455 569.511, 346.750 567.630 C 344.525 565.176, 339.670 563.654, 337.250 564.652 M 414 567.500 C 414 568.325, 414.450 569, 415 569 C 415.550 569, 416 568.325, 416 567.500 C 416 566.675, 415.550 566, 415 566 C 414.450 566, 414 566.675, 414 567.500 M 421.469 567.050 C 420.519 568.588, 421.820 569.580, 423.104 568.296 C 423.822 567.578, 423.839 567.019, 423.156 566.597 C 422.596 566.251, 421.837 566.455, 421.469 567.050 M 548.639 566.694 C 548.288 567.046, 548 568.221, 548 569.306 C 548 570.392, 547.212 571.877, 546.250 572.608 C 544.583 573.873, 544.583 573.938, 546.250 573.968 C 548.509 574.009, 548.617 578.674, 546.432 581.794 C 544.142 585.063, 543 583.613, 543 577.441 C 543 570.935, 541.649 570.367, 540.165 576.250 C 537.750 585.820, 533.292 586.681, 534.387 577.366 C 534.903 572.970, 534.745 572, 533.509 572 C 532.454 572, 532 573.043, 532 575.465 C 532 577.906, 531.409 579.246, 530 580 C 528.186 580.971, 528 580.760, 528 577.735 C 528 571.703, 522.944 569.965, 518.455 574.455 C 515.636 577.273, 515.318 580.581, 517.557 583.777 C 519.375 586.374, 524.109 586.779, 526 584.500 C 526.685 583.675, 528.267 583, 529.515 583 C 530.764 583, 532.045 583.675, 532.362 584.500 C 533.116 586.467, 537.401 586.427, 539.052 584.437 C 540.229 583.019, 540.431 583.019, 541.225 584.437 C 542.190 586.162, 546.532 586.566, 547.487 585.020 C 547.873 584.396, 548.746 584.449, 549.895 585.167 C 552.722 586.932, 556.586 585.414, 558.008 581.981 C 558.702 580.306, 558.922 578.613, 558.498 578.218 C 558.073 577.823, 557.527 578.056, 557.284 578.737 C 556.340 581.378, 553.275 584.288, 552.162 583.600 C 551.523 583.205, 551 580.915, 551 578.511 C 551 574.775, 551.327 574.075, 553.250 573.697 L 555.500 573.254 553.250 572.510 C 551.775 572.023, 551 570.966, 551 569.442 C 551 567.032, 549.753 565.580, 548.639 566.694 M 338 575 C 338 582.634, 338.103 582.999, 340.250 582.985 C 343.364 582.963, 344.694 581.936, 345.979 578.556 C 348.052 573.102, 344.778 567, 339.777 567 C 338.222 567, 338 568, 338 575 M 355.455 574.455 C 352.636 577.273, 352.318 580.581, 354.557 583.777 C 356.355 586.345, 361.102 586.787, 362.951 584.559 C 363.608 583.767, 365.306 582.980, 366.722 582.809 C 369.302 582.500, 371.982 579.648, 370.801 578.468 C 370.456 578.123, 369.009 578.603, 367.587 579.535 L 365 581.230 365 577.815 C 365 575.937, 364.460 573.860, 363.800 573.200 C 361.854 571.254, 358.089 571.820, 355.455 574.455 M 377.733 573.750 C 375.469 576.262, 374.729 580.156, 375.920 583.289 C 376.721 585.396, 377.611 586, 379.916 586 C 381.547 586, 383.154 585.559, 383.487 585.020 C 383.873 584.397, 384.755 584.454, 385.914 585.178 C 386.916 585.804, 388.446 586.043, 389.315 585.709 C 391.386 584.915, 394.295 579.300, 393.039 578.524 C 392.514 578.200, 391.363 579.331, 390.480 581.038 C 389.132 583.646, 388.634 583.941, 387.361 582.885 C 386.283 581.990, 386.030 580.653, 386.483 578.238 C 386.868 576.184, 386.653 574.287, 385.937 573.424 C 384.302 571.454, 379.635 571.639, 377.733 573.750 M 359.543 574.931 C 358.782 576.163, 360.668 580, 362.035 580 C 362.566 580, 363 579.155, 363 578.122 C 363 575.797, 360.458 573.450, 359.543 574.931 M 379.616 575.527 C 377.780 577.363, 377.445 582.539, 379.096 583.559 C 380.828 584.630, 383.163 581.561, 383.339 577.982 C 383.524 574.222, 381.955 573.188, 379.616 575.527 M 472 575.794 C 472 576.873, 472.713 578.347, 473.585 579.071 C 474.977 580.226, 475.129 580.037, 474.835 577.520 C 474.454 574.260, 472 572.766, 472 575.794 M 522.543 574.931 C 521.782 576.163, 523.668 580, 525.035 580 C 525.566 580, 526 579.155, 526 578.122 C 526 575.797, 523.458 573.450, 522.543 574.931 M 356 579.322 C 356 582.104, 358.616 584.795, 359.973 583.408 C 360.495 582.874, 359.858 581.342, 358.430 579.694 L 356 576.888 356 579.322 M 469.030 579.691 C 468.997 583.244, 470.241 584.509, 472.798 583.517 C 474.334 582.922, 474.346 582.742, 472.927 581.679 C 472.062 581.030, 470.839 579.600, 470.208 578.500 C 469.165 576.682, 469.058 576.790, 469.030 579.691 M 519 579.322 C 519 582.104, 521.616 584.795, 522.973 583.408 C 523.495 582.874, 522.858 581.342, 521.430 579.694 L 519 576.888 519 579.322 M 248.215 626.185 C 246.811 627.589, 246.454 680.592, 247.834 682.766 C 248.458 683.749, 254.890 683.973, 276.569 683.766 L 304.500 683.500 304.500 654.500 L 304.500 625.500 276.965 625.235 C 256.388 625.036, 249.124 625.276, 248.215 626.185 M 249 654.500 L 249 682.032 276.250 681.766 L 303.500 681.500 303.500 654.500 L 303.500 627.500 276.250 627.234 L 249 626.968 249 654.500 M 540.513 653.750 C 539.770 662.728, 538.623 666.503, 536.950 665.469 C 536.427 665.146, 536 662.939, 536 660.563 C 536 655.560, 534.356 653.714, 530.310 654.178 C 527.994 654.443, 527.008 655.515, 524.700 660.278 C 523.160 663.456, 521.472 665.792, 520.950 665.469 C 520.427 665.146, 520 662.396, 520 659.358 C 520 655.385, 519.649 653.949, 518.750 654.245 C 518.063 654.471, 517.374 655.746, 517.220 657.078 C 516.582 662.595, 515.830 664.114, 513.250 665.095 C 509.310 666.593, 506 664.825, 506 661.221 C 506 658.214, 507.569 656, 509.700 656 C 510.415 656, 511 656.900, 511 658 C 511 660.345, 512.803 660.677, 513.643 658.487 C 514.448 656.389, 512.216 654, 509.450 654 C 507.072 654, 503 658.189, 503 660.635 C 503 661.386, 502.325 662, 501.500 662 C 500.656 662, 500 661.106, 500 659.955 C 500 658.830, 498.872 656.781, 497.493 655.402 C 495.026 652.935, 494.939 652.923, 492.001 654.658 C 490.315 655.654, 488.542 657.857, 487.928 659.719 C 487.329 661.532, 485.976 663.478, 484.920 664.043 C 483.203 664.962, 483 664.713, 483 661.690 C 483 659.580, 482.249 657.630, 481 656.500 C 479.900 655.505, 479 654.085, 479 653.345 C 479 652.605, 478.325 652, 477.500 652 C 476.675 652, 476 652.492, 476 653.092 C 476 653.693, 475.100 655.329, 474 656.727 C 471.973 659.304, 471.351 662, 472.784 662 C 473.216 662, 474.404 660.587, 475.424 658.859 L 477.279 655.719 479.117 658.109 C 482.589 662.624, 480.558 666.680, 475.465 665.402 C 473.385 664.880, 472.848 665.047, 473.197 666.109 C 473.859 668.118, 481.448 668.422, 485.128 666.586 C 487.831 665.238, 488.373 665.231, 489.670 666.527 C 491.531 668.389, 496.392 668.438, 497.908 666.611 C 499.813 664.316, 503.760 664.077, 505.630 666.143 C 507.471 668.178, 512.043 668.583, 515.043 666.977 C 516.405 666.248, 517.535 666.317, 518.977 667.218 C 520.616 668.241, 521.402 668.230, 523.118 667.158 C 524.637 666.210, 525.542 666.142, 526.318 666.918 C 527.668 668.268, 531.675 668.334, 532.487 667.020 C 532.869 666.404, 533.816 666.493, 535.046 667.261 C 536.607 668.235, 537.444 668.204, 539.205 667.104 C 540.773 666.125, 541.519 666.056, 541.788 666.864 C 542.580 669.241, 546.915 668.065, 548.474 665.050 C 551.288 659.608, 549.744 657.826, 546.759 663.071 C 545.802 664.753, 544.564 665.849, 544.009 665.506 C 543.440 665.154, 543 660.551, 543 654.941 C 543 649.473, 542.603 645, 542.118 645 C 541.633 645, 540.911 648.938, 540.513 653.750 M 599 649.500 C 599 653.381, 598.716 654, 596.934 654 C 593.458 654, 591.315 655.757, 589.618 659.996 C 587.735 664.702, 584.135 666.678, 580.746 664.864 C 578.700 663.769, 578.748 663.669, 582.062 662.105 C 584.851 660.788, 585.500 659.917, 585.500 657.491 C 585.500 654.881, 585.107 654.462, 582.415 654.199 C 578.836 653.850, 577.196 655.423, 575 661.312 C 574.175 663.524, 572.868 665.545, 572.095 665.802 C 570.960 666.180, 570.806 665.285, 571.295 661.157 C 571.746 657.348, 571.523 655.666, 570.421 654.564 C 568.911 653.054, 566.111 653.480, 564.750 655.427 C 564.226 656.176, 563.767 656.141, 563.228 655.310 C 562.803 654.655, 560.553 654.145, 558.228 654.177 L 554 654.236 554 661.118 C 554 666.278, 554.343 668, 555.370 668 C 556.252 668, 556.921 666.397, 557.247 663.501 C 557.772 658.840, 559.571 655.617, 561.113 656.570 C 561.601 656.871, 562 659.566, 562 662.559 C 562 665.552, 562.450 668, 563 668 C 563.550 668, 564 666.628, 564 664.950 C 564 661.458, 566.524 656, 568.139 656 C 568.864 656, 568.999 657.523, 568.543 660.562 C 567.547 667.203, 570.873 670.235, 575.028 666.475 C 576.538 665.108, 576.845 665.108, 577.979 666.475 C 579.450 668.247, 585.213 668.491, 588.173 666.907 C 589.650 666.117, 590.517 666.117, 591.307 666.907 C 592.775 668.375, 596.291 668.291, 597.925 666.750 C 598.985 665.750, 599.342 665.750, 599.708 666.750 C 600.250 668.227, 604.615 668.432, 605.487 667.020 C 605.869 666.404, 606.816 666.493, 608.046 667.261 C 609.599 668.231, 610.434 668.210, 612.118 667.158 C 613.637 666.210, 614.542 666.142, 615.318 666.918 C 616.668 668.268, 620.675 668.334, 621.487 667.020 C 621.873 666.397, 622.755 666.454, 623.914 667.178 C 626.260 668.644, 628.453 667.765, 630.590 664.502 C 631.796 662.662, 631.985 661.585, 631.234 660.834 C 630.482 660.082, 629.692 660.694, 628.543 662.918 C 626.443 666.979, 625 666.020, 625 660.563 C 625 655.560, 623.356 653.714, 619.310 654.178 C 616.994 654.443, 616.008 655.515, 613.700 660.278 C 612.160 663.456, 610.472 665.792, 609.950 665.469 C 609.427 665.146, 609 662.396, 609 659.358 C 609 652.745, 606.821 652.308, 605.944 658.745 C 605.282 663.609, 603.125 666.801, 601.854 664.797 C 601.401 664.084, 601.024 659.337, 601.015 654.250 C 601.006 648.760, 600.593 645, 600 645 C 599.450 645, 599 647.025, 599 649.500 M 340.280 647.020 C 337.698 648.059, 336.248 652.566, 337.732 654.942 C 338.495 656.165, 338.278 657.173, 336.878 658.902 C 334.481 661.863, 334.509 663.509, 337 666 C 339.233 668.233, 344.855 668.683, 348.193 666.897 C 349.741 666.068, 350.444 666.100, 351.015 667.025 C 351.951 668.539, 354 667.425, 354 665.401 C 354 663.120, 357.902 656, 359.152 656 C 359.880 656, 360.069 657.447, 359.701 660.195 C 359.391 662.502, 359.573 665.202, 360.104 666.195 C 361.186 668.217, 364.027 668.573, 365.704 666.896 C 366.461 666.139, 367.370 666.108, 368.601 666.797 C 369.691 667.407, 371.298 667.457, 372.697 666.925 C 374.125 666.382, 375 666.420, 375 667.025 C 375 667.561, 374.530 668, 373.955 668 C 372.635 668, 368 672.580, 368 673.883 C 368 675.347, 370.946 678, 372.571 678 C 374.788 678, 378 674.257, 378 671.674 C 378 670.395, 379.067 668.346, 380.372 667.120 C 382.387 665.228, 382.834 665.126, 383.341 666.446 C 384.020 668.216, 388.539 668.555, 389.554 666.913 C 390.038 666.130, 390.530 666.130, 391.313 666.913 C 392.658 668.258, 396.672 668.340, 397.476 667.038 C 397.826 666.473, 398.984 666.420, 400.285 666.911 C 401.503 667.369, 403.625 667.343, 405 666.852 C 407.025 666.129, 406.766 666.587, 403.635 669.265 C 399.580 672.732, 399.089 675.397, 402.149 677.324 C 404.696 678.928, 408.767 675.757, 409.556 671.556 C 410.368 667.224, 414.161 664.284, 416.031 666.537 C 416.705 667.350, 418.928 668, 421.034 668 C 424.039 668, 425.359 667.362, 427.418 664.915 C 428.845 663.219, 429.713 661.344, 429.345 660.749 C 428.933 660.083, 427.842 660.714, 426.501 662.396 C 423.666 665.951, 415.292 666.572, 417.459 663.067 C 417.821 662.480, 418.936 662, 419.937 662 C 422.418 662, 424.222 659.591, 423.827 656.805 C 423.587 655.115, 422.742 654.413, 420.662 654.175 C 417.231 653.782, 414.348 656.138, 413.492 660.035 C 413.151 661.590, 412.225 663.398, 411.436 664.053 C 410.225 665.058, 410 664.552, 410 660.822 C 410 655.737, 408.707 654, 404.922 654 C 401.878 654, 400.349 655.521, 397.500 661.384 C 396.400 663.648, 395.050 665.500, 394.500 665.500 C 393.950 665.500, 393.275 663.025, 393 660 C 392.532 654.856, 392.318 654.479, 389.690 654.178 C 386.155 653.772, 384.360 655.255, 381.804 660.694 C 380.691 663.062, 379.379 665, 378.890 665 C 378.400 665, 378 662.759, 378 660.019 C 378 655.502, 377.760 654.978, 375.426 654.392 C 371.390 653.379, 368.403 655.377, 366.499 660.364 C 365.552 662.843, 364.089 665.136, 363.247 665.459 C 361.963 665.951, 361.800 665.276, 362.238 661.273 C 362.526 658.648, 362.552 655.938, 362.297 655.250 C 361.644 653.489, 357.499 653.694, 355.948 655.563 C 354.771 656.981, 354.569 656.981, 353.775 655.563 C 352.251 652.839, 351 653.867, 351 657.845 C 351 662.412, 348.767 664.839, 343.828 665.641 C 337.509 666.666, 335.653 660.391, 341.757 658.641 C 345.661 657.521, 345.900 656.443, 342.437 655.574 C 340.358 655.052, 339.933 654.418, 340.187 652.215 C 340.592 648.701, 344.847 647.701, 345.690 650.921 C 346.343 653.418, 347.552 653.611, 348.417 651.355 C 349.168 649.398, 346.371 645.973, 344.095 646.063 C 343.218 646.098, 341.501 646.529, 340.280 647.020 M 518 649.500 C 518 650.325, 518.450 651, 519 651 C 519.550 651, 520 650.325, 520 649.500 C 520 648.675, 519.550 648, 519 648 C 518.450 648, 518 648.675, 518 649.500 M 607 649.500 C 607 650.325, 607.450 651, 608 651 C 608.550 651, 609 650.325, 609 649.500 C 609 648.675, 608.550 648, 608 648 C 607.450 648, 607 648.675, 607 649.500 M 436.073 656.635 C 433.511 659.891, 433.404 664.151, 435.829 666.345 C 438.108 668.408, 442.350 668.488, 444 666.500 C 444.685 665.675, 446.042 665, 447.015 665 C 447.989 665, 449.045 665.675, 449.362 666.500 C 450.388 669.175, 451.713 668.097, 452.986 663.550 C 454.109 659.539, 457.893 654.365, 458.073 656.595 C 458.113 657.093, 458.225 659.742, 458.323 662.483 C 458.464 666.441, 458.878 667.539, 460.339 667.823 C 462.607 668.264, 467 664.308, 467 661.826 C 467 659.108, 465.723 659.620, 463.719 663.142 C 461.453 667.122, 460.766 666.379, 460.618 659.785 C 460.508 654.845, 460.327 654.480, 457.847 654.193 C 455.992 653.978, 454.713 654.572, 453.597 656.165 L 452 658.445 452 656.139 C 452 652.401, 449.535 654.248, 449.195 658.242 C 448.834 662.476, 446 664.393, 446 660.403 C 446 653.816, 440.062 651.563, 436.073 656.635 M 371.058 657.672 C 368.413 659.524, 368.555 664.304, 371.269 664.818 C 372.502 665.052, 373.487 664.080, 374.519 661.609 C 376.326 657.285, 376.324 657.338, 374.615 656.682 C 373.853 656.390, 372.252 656.835, 371.058 657.672 M 385.974 658.049 C 384.605 660.606, 385.077 665.207, 386.764 665.761 C 388.253 666.250, 391.375 659.420, 390.594 657.383 C 389.807 655.334, 387.228 655.706, 385.974 658.049 M 403.827 656.731 C 401.748 657.211, 399.885 662.200, 401.074 664.106 C 402.271 666.025, 405.200 664.136, 406.445 660.641 C 407.506 657.662, 406.475 656.121, 403.827 656.731 M 417 658 C 416.103 659.676, 416.240 660, 417.842 660 C 419.957 660, 422.360 657.693, 421.325 656.658 C 420.061 655.395, 418.062 656.015, 417 658 M 440 657.794 C 440 658.873, 440.713 660.347, 441.585 661.071 C 442.977 662.226, 443.129 662.037, 442.835 659.520 C 442.454 656.260, 440 654.766, 440 657.794 M 494 657.794 C 494 658.873, 494.713 660.347, 495.585 661.071 C 496.977 662.226, 497.129 662.037, 496.835 659.520 C 496.454 656.260, 494 654.766, 494 657.794 M 528.557 658.223 C 526.592 661.028, 526.550 664.613, 528.473 665.351 C 530.408 666.094, 533 662.330, 533 658.777 C 533 655.370, 530.751 655.089, 528.557 658.223 M 579.980 657.524 C 579.284 658.362, 579.026 659.359, 579.405 659.739 C 580.240 660.573, 583.226 658.823, 583.774 657.179 C 584.344 655.469, 581.468 655.731, 579.980 657.524 M 593.655 657.829 C 590.802 660.982, 592.241 666.612, 595.573 665.333 C 597.180 664.717, 599.396 658.449, 598.512 657.020 C 597.548 655.459, 595.489 655.802, 593.655 657.829 M 617.557 658.223 C 615.592 661.028, 615.550 664.613, 617.473 665.351 C 619.408 666.094, 622 662.330, 622 658.777 C 622 655.370, 619.751 655.089, 617.557 658.223 M 437.030 661.691 C 436.997 665.244, 438.241 666.509, 440.798 665.517 C 442.334 664.922, 442.346 664.742, 440.927 663.679 C 440.062 663.030, 438.839 661.600, 438.208 660.500 C 437.165 658.682, 437.058 658.790, 437.030 661.691 M 490 661.309 C 490 663.693, 492.635 666.354, 494.345 665.698 C 495.752 665.158, 495.627 664.718, 493.444 662.535 C 490.566 659.657, 490 659.455, 490 661.309 M 372.574 671.907 C 371.379 673.234, 371.002 674.402, 371.582 674.982 C 373.059 676.459, 375.209 674.502, 374.837 672.020 L 374.500 669.766 372.574 671.907 M 404.742 671.125 C 402.584 672.332, 402.330 676.194, 404.462 675.376 C 405.842 674.847, 407.588 671.255, 406.833 670.500 C 406.641 670.307, 405.700 670.589, 404.742 671.125 M 247.458 710.249 C 247.188 710.952, 247.087 723.897, 247.233 739.014 L 247.500 766.500 276 766.500 L 304.500 766.500 304.500 738 L 304.500 709.500 276.225 709.234 C 253.981 709.025, 247.844 709.242, 247.458 710.249 M 249.458 711.249 C 249.187 711.954, 249.086 724.449, 249.233 739.016 L 249.500 765.500 276.500 765.500 L 303.500 765.500 303.500 738 L 303.500 710.500 276.725 710.234 C 255.676 710.024, 249.845 710.241, 249.458 711.249 M 587 733.500 C 587 737.779, 586.860 738, 584.155 738 C 580.985 738, 578.953 739.922, 577.057 744.717 C 575.418 748.862, 573.241 750.793, 572.471 748.785 C 572.167 747.993, 572.374 746.146, 572.931 744.681 C 574.237 741.247, 573.384 739.135, 570.390 738.383 C 569.075 738.053, 568 737.382, 568 736.892 C 568 736.401, 567.325 736, 566.500 736 C 565.574 736, 565 736.939, 565 738.453 C 565 741.611, 563.113 745.743, 561.365 746.414 C 560.414 746.778, 560 746.095, 560 744.160 C 560 737.119, 553.382 735.794, 549.213 742 C 546.034 746.733, 543.594 746.632, 543.190 741.750 C 542.987 739.297, 542.381 738, 541.440 738 C 540.378 738, 540 739.319, 540 743.031 C 540 746.644, 539.565 748.230, 538.457 748.655 C 536.309 749.479, 536.021 748.969, 535.330 743.136 C 534.654 737.429, 533.056 736.188, 532.900 741.250 C 532.612 750.642, 528.808 752.837, 528 744.078 C 527.365 737.196, 525 735.835, 525 742.352 C 525 748.757, 526.437 752, 529.275 752 C 530.554 752, 532.140 751.460, 532.800 750.800 C 533.733 749.867, 534.267 749.867, 535.200 750.800 C 536.987 752.587, 539.795 752.252, 540.939 750.114 C 542.179 747.797, 547.161 747.930, 549.838 750.353 C 552.053 752.358, 556.340 752.501, 557.900 750.621 C 558.530 749.862, 560.384 748.973, 562.020 748.646 C 564.330 748.184, 565.356 747.150, 566.607 744.025 C 567.492 741.811, 568.632 740, 569.140 740 C 570.709 740, 571.131 742.525, 570.041 745.393 C 569.322 747.282, 569.321 748.730, 570.035 750.065 C 571.160 752.167, 574.947 752.653, 576.682 750.918 C 577.458 750.142, 578.342 750.197, 579.808 751.112 C 581.390 752.100, 582.426 752.127, 584.390 751.232 C 585.976 750.509, 587.152 750.437, 587.523 751.038 C 589.288 753.893, 596 749.754, 596 745.811 C 596 743.124, 594.723 743.620, 592.759 747.071 C 591.802 748.753, 590.564 749.849, 590.009 749.506 C 589.440 749.154, 589 744.551, 589 738.941 C 589 732.980, 588.600 729, 588 729 C 587.450 729, 587 731.025, 587 733.500 M 336 741.500 L 336 752 341.583 752 C 348.293 752, 348.780 749.680, 342.172 749.193 L 338 748.885 338 739.943 C 338 734.648, 337.592 731, 337 731 C 336.397 731, 336 735.167, 336 741.500 M 381 738.334 C 381 739.709, 380.094 742.947, 378.987 745.529 C 377.244 749.597, 376.766 750.051, 375.411 748.926 C 374.281 747.989, 374.024 746.687, 374.483 744.238 C 375.260 740.095, 373.755 738, 370 738 C 367.010 738, 365.610 739.273, 363.118 744.261 C 360.982 748.533, 356.881 750.549, 353.769 748.856 C 351.536 747.640, 351.558 747.598, 355.186 746.199 C 359.146 744.672, 360.394 742.818, 359.455 739.859 C 358.851 737.954, 354.601 737.296, 352.400 738.765 C 348.633 741.280, 348.389 749.068, 352.016 751.008 C 354.715 752.453, 359.238 752.222, 361.676 750.514 C 363.552 749.200, 363.863 749.200, 364.367 750.514 C 365.005 752.178, 370.530 752.570, 371.487 751.020 C 371.873 750.397, 372.755 750.454, 373.914 751.178 C 376.805 752.984, 378.911 751.435, 381.623 745.512 C 383.011 742.481, 384.537 740, 385.014 740 C 386.644 740, 387.015 741.830, 385.952 744.627 C 385.367 746.164, 385.145 748.442, 385.458 749.689 C 385.954 751.663, 386.605 751.930, 390.508 751.761 C 394.697 751.578, 395.061 751.336, 396.106 748.033 C 398.820 739.449, 402.399 737.269, 401.495 744.750 C 400.805 750.456, 401.883 752.497, 405.153 751.677 C 407.957 750.973, 411.604 745.492, 409.949 744.469 C 409.354 744.101, 408.761 743.957, 408.631 744.150 C 408.501 744.342, 407.518 745.850, 406.447 747.500 L 404.500 750.500 404 744.500 C 403.548 739.077, 403.267 738.467, 401.074 738.157 C 399.438 737.926, 398.061 738.578, 396.846 740.157 L 395.044 742.500 395.022 740.250 C 394.982 736.198, 393.272 737.893, 392.753 742.499 C 392.224 747.188, 390.427 750.382, 388.862 749.415 C 388.361 749.105, 388.237 746.696, 388.586 744.062 C 389.212 739.342, 389.173 739.254, 385.861 737.951 C 384.012 737.225, 382.163 736.451, 381.750 736.232 C 381.337 736.013, 381 736.959, 381 738.334 M 418.954 738.705 C 417.604 739.629, 416.169 740.860, 415.765 741.442 C 414.462 743.319, 414.954 748.811, 416.571 750.429 C 418.564 752.421, 423.372 752.462, 425 750.500 C 425.685 749.675, 427.090 749, 428.122 749 C 429.155 749, 430 749.675, 430 750.500 C 430 753.493, 432.788 751.943, 433.415 748.601 C 433.766 746.732, 435.053 743.925, 436.276 742.363 L 438.500 739.524 439 745.503 C 439.548 752.058, 441.468 753.696, 444.931 750.562 C 446.525 749.120, 446.847 749.111, 447.979 750.475 C 450.043 752.962, 456.660 752.431, 459.545 749.545 C 462.010 747.081, 462.837 744, 461.035 744 C 460.505 744, 459.577 744.922, 458.974 746.048 C 457.442 748.911, 453.411 750.290, 450.746 748.864 C 448.700 747.769, 448.748 747.669, 452.062 746.105 C 454.851 744.788, 455.500 743.917, 455.500 741.491 C 455.500 738.949, 455.074 738.451, 452.662 738.175 C 449.639 737.829, 446 740.303, 446 742.705 C 446 744.843, 442.941 750.276, 442.176 749.497 C 441.804 749.118, 441.500 746.488, 441.500 743.654 C 441.500 738.821, 441.335 738.481, 438.847 738.193 C 436.992 737.978, 435.713 738.572, 434.597 740.165 L 433 742.445 433 740.139 C 433 736.353, 430.532 738.274, 430.190 742.327 C 429.808 746.849, 427.758 747.134, 426.457 742.846 C 425.931 741.111, 424.579 739.092, 423.454 738.359 C 421.711 737.224, 421.043 737.276, 418.954 738.705 M 466.667 738.667 C 466.300 739.033, 466 742.183, 466 745.667 C 466 750.404, 466.350 752, 467.389 752 C 468.176 752, 469.053 750.529, 469.415 748.601 C 469.766 746.732, 471.053 743.925, 472.276 742.363 L 474.500 739.524 475 745.503 C 475.548 752.058, 477.468 753.696, 480.931 750.562 C 482.525 749.120, 482.847 749.111, 483.979 750.475 C 485.450 752.247, 491.213 752.491, 494.173 750.907 C 495.650 750.117, 496.517 750.117, 497.307 750.907 C 498.711 752.311, 502.286 752.314, 503.687 750.913 C 504.470 750.130, 504.962 750.130, 505.446 750.913 C 506.526 752.660, 509.880 752.165, 511.191 750.065 C 512.065 748.666, 513.130 748.276, 515.036 748.657 C 517.874 749.225, 521.508 746.631, 520.396 744.832 C 519.986 744.169, 519.404 744.196, 518.687 744.913 C 515.830 747.770, 513 745.493, 513 740.335 C 513 738.776, 512.529 737.992, 511.750 738.254 C 510.993 738.508, 510.500 740.480, 510.500 743.250 C 510.500 748.326, 509.838 749.536, 507.543 748.655 C 506.431 748.228, 506 746.636, 506 742.948 C 506 736.505, 503.745 736.603, 502.974 743.080 C 502.287 748.851, 501.291 750.486, 499.411 748.926 C 498.543 748.206, 498 745.845, 498 742.794 C 498 736.480, 495.723 736.689, 495 743.070 C 494.595 746.646, 493.982 747.732, 491.769 748.788 C 489.637 749.805, 488.554 749.832, 486.831 748.909 C 484.665 747.750, 484.687 747.698, 488.062 746.105 C 490.851 744.788, 491.500 743.917, 491.500 741.491 C 491.500 738.949, 491.074 738.451, 488.662 738.175 C 485.639 737.829, 482 740.303, 482 742.705 C 482 744.843, 478.941 750.276, 478.176 749.497 C 477.804 749.118, 477.500 746.488, 477.500 743.654 C 477.500 738.821, 477.335 738.481, 474.847 738.193 C 472.992 737.978, 471.713 738.572, 470.597 740.165 L 469 742.445 469 740.223 C 469 738.037, 467.978 737.355, 466.667 738.667 M 353.200 741.200 C 351.338 743.062, 351.778 744.171, 354.240 743.820 C 355.472 743.644, 356.630 742.712, 356.813 741.750 C 357.195 739.744, 354.991 739.409, 353.200 741.200 M 367.616 741.527 C 365.780 743.363, 365.445 748.539, 367.096 749.559 C 368.828 750.630, 371.163 747.561, 371.339 743.982 C 371.524 740.222, 369.955 739.188, 367.616 741.527 M 421 741.794 C 421 742.873, 421.713 744.347, 422.585 745.071 C 423.977 746.226, 424.129 746.037, 423.835 743.520 C 423.454 740.260, 421 738.766, 421 741.794 M 449.980 741.524 C 449.284 742.362, 449.026 743.359, 449.405 743.739 C 450.240 744.573, 453.226 742.823, 453.774 741.179 C 454.344 739.469, 451.468 739.731, 449.980 741.524 M 485.980 741.524 C 485.284 742.362, 485.026 743.359, 485.405 743.739 C 486.240 744.573, 489.226 742.823, 489.774 741.179 C 490.344 739.469, 487.468 739.731, 485.980 741.524 M 554 741.794 C 554 742.873, 554.713 744.347, 555.585 745.071 C 556.977 746.226, 557.129 746.037, 556.835 743.520 C 556.454 740.260, 554 738.766, 554 741.794 M 581.616 741.527 C 579.746 743.397, 579.457 748.546, 581.162 749.600 C 582.865 750.652, 586.151 746.085, 585.800 743.155 C 585.428 740.056, 583.743 739.400, 581.616 741.527 M 551.030 745.691 C 550.997 749.244, 552.241 750.509, 554.798 749.517 C 556.334 748.922, 556.346 748.742, 554.927 747.679 C 554.062 747.030, 552.839 745.600, 552.208 744.500 C 551.165 742.682, 551.058 742.790, 551.030 745.691 M 417 745.309 C 417 747.693, 419.635 750.354, 421.345 749.698 C 422.752 749.158, 422.627 748.718, 420.444 746.535 C 417.566 743.657, 417 743.455, 417 745.309 M 247.452 794.264 C 247.185 794.959, 247.087 807.897, 247.233 823.014 L 247.500 850.500 276 850.500 L 304.500 850.500 304.765 821.750 L 305.031 793 276.484 793 C 254.398 793, 247.827 793.286, 247.452 794.264 M 249 821.484 L 249 849 276.516 849 L 304.032 849 303.766 821.750 L 303.500 794.500 276.250 794.234 L 249 793.968 249 821.484 M 337.250 813.652 C 336.363 814.017, 336 817.191, 336 824.583 L 336 835 339.577 835 C 345.189 835, 349 830.604, 349 824.133 C 349 820.327, 348.455 818.511, 346.750 816.630 C 344.525 814.176, 339.670 812.654, 337.250 813.652 M 416.529 815.167 C 414.703 820.330, 411.023 832.725, 411.013 833.750 C 410.992 835.776, 413.141 835.178, 413.710 833 C 414.470 830.095, 420.547 830.158, 421.310 833.079 C 422.116 836.160, 426.002 835.182, 428.242 831.335 C 429.378 829.384, 429.701 827.933, 429.085 827.552 C 428.535 827.213, 427.353 828.351, 426.457 830.082 C 425.537 831.863, 424.453 832.853, 423.961 832.361 C 423.484 831.884, 422.262 827.699, 421.246 823.063 C 419.524 815.204, 417.635 812.041, 416.529 815.167 M 450.553 815.915 C 450.231 816.436, 450.394 817.125, 450.915 817.447 C 451.436 817.769, 452.125 817.606, 452.447 817.085 C 452.769 816.564, 452.606 815.875, 452.085 815.553 C 451.564 815.231, 450.875 815.394, 450.553 815.915 M 471.639 815.694 C 471.288 816.046, 471 817.221, 471 818.306 C 471 819.392, 470.212 820.877, 469.250 821.608 C 467.591 822.868, 467.594 822.938, 469.313 822.968 C 472.210 823.019, 471.144 828.824, 467.779 831.325 C 465.496 833.021, 464.650 833.162, 462.529 832.195 C 459.625 830.872, 458.995 826.079, 461.456 824.036 C 463.131 822.646, 465 823.449, 465 825.559 C 465 827.328, 466.666 827.468, 467.282 825.750 C 468.068 823.558, 466.013 821, 463.465 821 C 460.594 821, 457 824.212, 457 826.777 C 457 829.144, 454.107 833.184, 452.932 832.458 C 452.419 832.141, 452 829.434, 452 826.441 C 452 823.448, 451.550 821, 451 821 C 450.450 821, 450 822.350, 450 824 C 450 826.297, 449.548 827, 448.070 827 C 446.865 827, 446.019 826.197, 445.820 824.865 C 445.644 823.690, 444.558 822.107, 443.407 821.347 C 441.563 820.129, 440.999 820.213, 438.657 822.055 C 436.460 823.783, 436 823.873, 436 822.573 C 436 821.708, 435.550 821, 435 821 C 434.391 821, 434 825.500, 434 832.500 C 434 839.500, 434.391 844, 435 844 C 435.554 844, 436.025 841.212, 436.056 837.750 C 436.121 830.546, 437.725 825.169, 440.278 823.596 C 441.648 822.752, 442.277 822.845, 443.013 824 C 444.423 826.212, 444.288 826.453, 440.928 827.721 C 438.362 828.690, 437.909 829.343, 438.178 831.682 C 438.380 833.439, 439.180 834.612, 440.324 834.829 C 442.429 835.228, 446 832.361, 446 830.272 C 446 827.878, 449.373 829.341, 449.997 832.005 C 450.650 834.792, 454.220 835.892, 456.491 834.007 C 457.488 833.180, 458.428 833.159, 459.870 833.931 C 462.702 835.446, 467.190 835.255, 469.676 833.514 C 471.552 832.200, 471.863 832.200, 472.367 833.514 C 473.023 835.223, 476.272 835.460, 479.005 833.997 C 480.257 833.327, 481.084 833.327, 481.498 833.997 C 482.426 835.498, 485.584 835.206, 487.009 833.489 C 488.124 832.145, 488.393 832.156, 489.438 833.584 C 491.752 836.749, 495.290 834.916, 498.281 829 C 499.811 825.975, 501.457 823.364, 501.939 823.197 C 503.539 822.645, 504.029 824.793, 502.952 827.627 C 501.411 831.681, 502.511 835, 505.397 835 C 506.694 835, 508.325 834.314, 509.021 833.475 C 510.155 832.108, 510.462 832.108, 511.972 833.475 C 514.649 835.897, 520.678 835.413, 523.545 832.545 C 526.010 830.081, 526.837 827, 525.035 827 C 524.505 827, 523.577 827.922, 522.974 829.048 C 521.442 831.911, 517.411 833.290, 514.746 831.864 C 512.700 830.769, 512.748 830.669, 516.062 829.105 C 518.851 827.788, 519.500 826.917, 519.500 824.491 C 519.500 821.949, 519.074 821.451, 516.662 821.175 C 513.065 820.763, 510.383 823.143, 509.573 827.465 C 508.928 830.900, 506.828 833.494, 505.647 832.314 C 505.279 831.946, 505.258 829.536, 505.600 826.959 C 506.210 822.360, 506.159 822.248, 502.861 820.951 C 501.012 820.225, 499.163 819.451, 498.750 819.232 C 498.337 819.013, 498 819.959, 498 821.334 C 498 825.028, 494.222 833.241, 492.750 832.746 C 491.975 832.485, 491.463 830.287, 491.404 826.964 C 491.290 820.656, 489.539 819.272, 488.545 824.706 C 486.797 834.271, 481.884 835.263, 482.787 825.870 C 483.179 821.788, 482.996 820.834, 481.890 821.201 C 481.125 821.455, 480.243 823.555, 479.928 825.868 C 479.319 830.342, 476.909 833.680, 475.096 832.559 C 474.493 832.187, 474 829.915, 474 827.511 C 474 823.775, 474.327 823.075, 476.250 822.697 L 478.500 822.254 476.250 821.510 C 474.775 821.023, 474 819.966, 474 818.442 C 474 816.032, 472.753 814.580, 471.639 815.694 M 338 824 C 338 831.634, 338.103 831.999, 340.250 831.985 C 343.364 831.963, 344.694 830.936, 345.979 827.556 C 348.052 822.102, 344.778 816, 339.777 816 C 338.222 816, 338 817, 338 824 M 355 821.482 C 355 822.939, 354.508 825.050, 353.907 826.173 C 353.131 827.623, 353.125 828.525, 353.884 829.284 C 354.644 830.044, 355.399 829.288, 356.490 826.677 C 358.772 821.216, 362.048 822.114, 359.952 827.627 C 358.431 831.627, 359.514 835, 362.319 835 C 363.574 835, 365.140 834.460, 365.800 833.800 C 366.733 832.867, 367.267 832.867, 368.200 833.800 C 369.696 835.296, 373.242 835.358, 374.687 833.913 C 375.470 833.130, 375.962 833.130, 376.446 833.913 C 376.816 834.511, 378.126 835, 379.359 835 C 380.592 835, 382.089 834.511, 382.687 833.913 C 383.470 833.130, 383.962 833.130, 384.446 833.913 C 385.345 835.367, 389.303 835.297, 390.800 833.800 C 391.733 832.867, 392.267 832.867, 393.200 833.800 C 395.035 835.635, 397.806 835.232, 399.026 832.952 C 399.775 831.553, 400.724 831.095, 402.023 831.507 C 404.393 832.259, 408 830.423, 408 828.465 C 408 826.715, 406.828 826.572, 405.267 828.133 C 403.223 830.177, 401 828.301, 401 824.531 C 401 822.059, 400.550 821, 399.500 821 C 398.365 821, 398 822.226, 398 826.031 C 398 829.644, 397.565 831.230, 396.457 831.655 C 394.309 832.479, 394.021 831.969, 393.330 826.136 C 392.654 820.429, 391.056 819.188, 390.900 824.250 C 390.612 833.642, 386.808 835.837, 386 827.078 C 385.399 820.558, 383 818.741, 383 824.806 C 383 827.243, 382.256 829.691, 381.074 831.139 C 378.801 833.926, 378.222 833.021, 377.782 826 C 377.517 821.776, 377.311 821.482, 374.415 821.199 C 370.935 820.859, 369.542 822.124, 366.500 828.384 C 363.990 833.551, 362.406 832.901, 362.810 826.869 C 363.106 822.447, 362.970 822.179, 359.810 820.934 C 357.990 820.217, 356.163 819.451, 355.750 819.232 C 355.337 819.013, 355 820.025, 355 821.482 M 416.337 824.032 C 415.332 827.796, 415.394 828, 417.534 828 C 419.605 828, 419.723 827.707, 418.982 824.421 C 417.874 819.508, 417.557 819.461, 416.337 824.032 M 370.974 825.049 C 369.605 827.606, 370.077 832.207, 371.764 832.761 C 373.253 833.250, 376.375 826.420, 375.594 824.383 C 374.807 822.334, 372.228 822.706, 370.974 825.049 M 513.980 824.524 C 513.284 825.362, 513.026 826.359, 513.405 826.739 C 514.240 827.573, 517.226 825.823, 517.774 824.179 C 518.344 822.469, 515.468 822.731, 513.980 824.524 M 440.500 831 C 440.160 831.550, 440.584 832, 441.441 832 C 442.298 832, 443 831.550, 443 831 C 443 830.450, 442.577 830, 442.059 830 C 441.541 830, 440.840 830.450, 440.500 831 M 247.452 877.264 C 247.185 877.959, 247.087 890.897, 247.233 906.014 L 247.500 933.500 276 933.500 L 304.500 933.500 304.765 904.750 L 305.031 876 276.484 876 C 254.398 876, 247.827 876.286, 247.452 877.264 M 249.683 877.651 C 249.307 878.026, 249 890.408, 249 905.167 L 249 932 276.516 932 L 304.032 932 303.766 904.750 L 303.500 877.500 276.933 877.234 C 262.321 877.088, 250.058 877.275, 249.683 877.651 M 524.667 896.667 C 524.300 897.033, 524 900.808, 524 905.056 C 524 911.195, 523.605 913.262, 522.074 915.139 C 519.801 917.926, 519.222 917.021, 518.782 910 C 518.516 905.759, 518.319 905.482, 515.366 905.195 C 512.944 904.960, 511.750 905.503, 510.116 907.580 C 508.952 909.059, 508 910.884, 508 911.635 C 508 912.386, 507.325 913, 506.500 913 C 505.656 913, 505 912.106, 505 910.955 C 505 909.830, 503.872 907.781, 502.493 906.402 C 500.026 903.935, 499.939 903.923, 497.001 905.658 C 495.348 906.635, 493.543 908.853, 492.957 910.631 C 492.374 912.396, 491.246 914.381, 490.449 915.042 C 489.221 916.062, 489 915.571, 489 911.822 C 489 906.720, 487.708 905, 483.873 905 C 477.552 905, 474.249 916.265, 480 918.206 C 480.825 918.485, 482.625 918.316, 484 917.831 C 486.034 917.113, 485.780 917.565, 482.635 920.259 C 478.580 923.733, 478.089 926.397, 481.149 928.324 C 483.696 929.928, 487.767 926.757, 488.556 922.556 C 489.353 918.304, 492.852 915.546, 494.802 917.633 C 496.504 919.455, 501.444 919.375, 503 917.500 C 503.685 916.675, 505.267 916, 506.515 916 C 507.764 916, 509.045 916.675, 509.362 917.500 C 510.029 919.239, 514.095 919.505, 515.687 917.913 C 516.470 917.130, 516.962 917.130, 517.446 917.913 C 517.816 918.511, 519.190 919, 520.500 919 C 521.810 919, 523.184 918.511, 523.554 917.913 C 524.038 917.130, 524.530 917.130, 525.313 917.913 C 527.727 920.327, 531.717 918.264, 533.304 913.782 C 534.401 910.685, 532.123 910.862, 530.500 914 C 529.628 915.686, 528.484 916.799, 527.957 916.474 C 527.431 916.148, 527 911.409, 527 905.941 C 527 896.833, 526.497 894.836, 524.667 896.667 M 336.714 897.620 C 335.585 898.748, 335.856 919, 337 919 C 337.550 919, 338 916.750, 338 914 C 338 909.111, 338.067 909, 341 909 C 343 909, 344 908.500, 344 907.500 C 344 906.500, 343 906, 341 906 C 338.333 906, 338 905.667, 338 903 C 338 900.156, 338.213 900, 342.083 900 C 344.903 900, 346.039 899.613, 345.756 898.750 C 345.308 897.390, 337.873 896.460, 336.714 897.620 M 397.208 906.675 C 395.947 908.649, 394.266 911.820, 393.472 913.721 C 391.393 918.696, 389.520 917.427, 389.404 910.964 C 389.290 904.656, 387.539 903.272, 386.545 908.706 C 384.797 918.271, 379.884 919.263, 380.787 909.870 C 381.179 905.789, 380.995 904.834, 379.890 905.198 C 379.125 905.450, 378.275 907.376, 378 909.478 C 377.326 914.629, 373.226 917.880, 369.529 916.195 C 366.625 914.872, 365.995 910.079, 368.456 908.036 C 370.131 906.646, 372 907.449, 372 909.559 C 372 911.328, 373.666 911.468, 374.282 909.750 C 375.013 907.710, 373.083 905, 370.899 905 C 367.639 905, 365.288 906.736, 364.157 909.979 C 362.816 913.827, 361.343 913.836, 360.500 910.001 C 360.138 908.352, 358.910 906.350, 357.772 905.553 C 355.968 904.289, 355.344 904.288, 352.914 905.544 C 351.381 906.337, 349.828 907.469, 349.463 908.059 C 348.359 909.847, 348.720 915.957, 350.022 917.527 C 351.587 919.412, 356.397 919.432, 357.951 917.559 C 359.742 915.401, 364.234 915.234, 366.250 917.250 C 368.224 919.224, 373.109 919.547, 376.173 917.907 C 377.650 917.117, 378.517 917.117, 379.307 917.907 C 380.873 919.473, 383.544 919.255, 385.052 917.437 C 386.229 916.019, 386.431 916.019, 387.225 917.437 C 387.706 918.297, 389.209 919, 390.564 919 C 393.012 919, 393.627 918.276, 398.320 909.858 L 400.140 906.594 402.134 909.743 C 403.748 912.291, 403.912 913.296, 402.995 915.010 C 402.073 916.733, 401.291 917.003, 398.812 916.459 C 396.490 915.949, 395.869 916.112, 396.209 917.145 C 397.411 920.794, 409.620 918.447, 411.935 914.121 C 413.581 911.045, 411.826 910.793, 408.819 913.673 L 406 916.374 406 913.322 C 406 911.643, 405.100 909.126, 404 907.727 C 402.900 906.329, 402 904.693, 402 904.092 C 402 901.825, 399.415 903.219, 397.208 906.675 M 419.073 907.635 C 416.511 910.891, 416.404 915.151, 418.829 917.345 C 421.108 919.408, 425.350 919.488, 427 917.500 C 427.685 916.675, 429.042 916, 430.015 916 C 430.989 916, 432.045 916.675, 432.362 917.500 C 433.388 920.175, 434.713 919.097, 435.986 914.550 C 437.109 910.539, 440.893 905.365, 441.073 907.595 C 441.113 908.093, 441.225 910.742, 441.323 913.483 C 441.464 917.441, 441.878 918.539, 443.339 918.823 C 445.607 919.264, 450 915.308, 450 912.826 C 450 910.108, 448.723 910.620, 446.719 914.142 C 444.453 918.122, 443.766 917.379, 443.618 910.785 C 443.508 905.845, 443.327 905.480, 440.847 905.193 C 438.992 904.978, 437.713 905.572, 436.597 907.165 L 435 909.445 435 907.139 C 435 903.401, 432.535 905.248, 432.195 909.242 C 431.834 913.476, 429 915.393, 429 911.403 C 429 904.816, 423.062 902.563, 419.073 907.635 M 456.458 907.423 C 454.505 910.405, 454.262 915.406, 455.971 917.465 C 457.393 919.179, 461.553 919.533, 462.487 918.020 C 462.873 917.397, 463.755 917.454, 464.914 918.178 C 467.260 919.644, 469.453 918.765, 471.590 915.502 C 472.796 913.662, 472.985 912.585, 472.234 911.834 C 471.482 911.082, 470.692 911.694, 469.543 913.918 C 467.452 917.959, 466 917.026, 466 911.641 C 466 909.308, 465.460 906.860, 464.800 906.200 C 462.711 904.111, 458.194 904.774, 456.458 907.423 M 355 908.878 C 355 909.910, 355.675 911.315, 356.500 912 C 357.723 913.015, 358 912.960, 358 911.704 C 358 909.427, 356.913 907, 355.893 907 C 355.402 907, 355 907.845, 355 908.878 M 423 908.794 C 423 909.873, 423.713 911.347, 424.585 912.071 C 425.977 913.226, 426.129 913.037, 425.835 910.520 C 425.454 907.260, 423 905.766, 423 908.794 M 458.557 909.223 C 456.592 912.028, 456.550 915.613, 458.473 916.351 C 460.408 917.094, 463 913.330, 463 909.777 C 463 906.370, 460.751 906.089, 458.557 909.223 M 482.889 907.722 C 479.453 908.513, 478.242 916, 481.550 916 C 484.250 916, 487.447 908.857, 485.250 907.735 C 484.837 907.524, 483.775 907.519, 482.889 907.722 M 499 908.794 C 499 909.873, 499.713 911.347, 500.585 912.071 C 501.977 913.226, 502.129 913.037, 501.835 910.520 C 501.454 907.260, 499 905.766, 499 908.794 M 511.974 909.049 C 510.605 911.606, 511.077 916.207, 512.764 916.761 C 514.253 917.250, 517.375 910.420, 516.594 908.383 C 515.807 906.334, 513.228 906.706, 511.974 909.049 M 351.162 912.428 C 351.532 915.570, 354.406 918.103, 355.758 916.478 C 356.219 915.924, 355.327 914.213, 353.698 912.528 L 350.824 909.557 351.162 912.428 M 420.030 912.691 C 419.997 916.244, 421.241 917.509, 423.798 916.517 C 425.334 915.922, 425.346 915.742, 423.927 914.679 C 423.062 914.030, 421.839 912.600, 421.208 911.500 C 420.165 909.682, 420.058 909.790, 420.030 912.691 M 495 912.309 C 495 914.693, 497.635 917.354, 499.345 916.698 C 500.752 916.158, 500.627 915.718, 498.444 913.535 C 495.566 910.657, 495 910.455, 495 912.309 M 483.742 922.125 C 481.584 923.332, 481.330 927.194, 483.462 926.376 C 484.842 925.847, 486.588 922.255, 485.833 921.500 C 485.641 921.307, 484.700 921.589, 483.742 922.125" stroke="none" fill="#000000" fill-rule="evenodd"/>
</svg>